<?xml version="1.0" encoding="utf-8"?>
<!-- Generator: Adobe Illustrator 26.0.1, SVG Export Plug-In . SVG Version: 6.00 Build 0)  -->
<svg version="1.1" id="Capa_1" xmlns="http://www.w3.org/2000/svg" xmlns:xlink="http://www.w3.org/1999/xlink" x="0px" y="0px"
	 viewBox="0 0 1500 467.35" style="enable-background:new 0 0 1500 467.35;" xml:space="preserve">
<style type="text/css">
	.st0{fill:#D50481;}
	.st1{fill:#1CA8BE;}
	.st2{fill:#585B5B;}
</style>
<g>
	<g>
		<path class="st0" d="M478.88,202.76c-7.09-76.45-72.27-136.53-151.39-136.53c-79.12,0-144.31,60.08-151.39,136.53H48.87v22.64
			h126.58h8.9h21.52v-8.8c0-66.32,54.56-120.28,121.62-120.28c67.06,0,121.62,53.96,121.62,120.28v8.8h15.6h14.83h126.58v-22.64
			H478.88z"/>
		<path class="st1" d="M299.95,309.62c-60.47-60.28-165.42-59.83-248.72-57.22v22.86c82.24-2.3,192.12-5.28,241.5,69.01
			c-59.47-53.38-162.33-52.06-241.5-49.91v27.39c84.12-2.69,199.9-4.94,244.44,77.08h68.36c44.48-82.01,160.38-79.78,244.44-77.08
			v-27.39c-79.32-2.13-181.92-3.49-241.51,49.91c49.3-74.28,159.37-71.32,241.51-69.01v-22.86c-84.57-2.64-191.01-3.05-251.15,59.71
			c-22.73,29.89-27.38,48.3-27.38,48.3C322.14,341.78,311.31,324.62,299.95,309.62"/>
	</g>
	<g>
		<g>
			<g>
				<path class="st2" d="M717.77,288.99c3.67-0.72,7.28-1.08,10.83-1.08c5.48,0,9.57,1.09,12.28,3.27
					c2.71,2.18,4.06,5.56,4.06,10.16c0,4.42-1.35,7.76-4.05,10.03s-6.75,3.39-12.17,3.39c-0.87,0-2.25-0.05-4.12-0.15v11.65h-6.84
					V288.99z M736.02,307.58c1.51-1.3,2.27-3.36,2.27-6.2c0-2.87-0.74-4.96-2.22-6.29s-3.77-1.99-6.88-1.99
					c-1.59,0-3.12,0.12-4.58,0.36v15.8c1.16,0.17,2.56,0.26,4.2,0.26C732.1,309.53,734.5,308.88,736.02,307.58z"/>
				<path class="st2" d="M773.37,326.25l-10.42-14.57c-0.24,0.02-0.6,0.03-1.08,0.03c-1.02,0-2.49-0.05-4.41-0.15v14.7h-6.74v-37.14
					c3.74-0.8,7.48-1.2,11.22-1.2c5.31,0,9.27,0.96,11.9,2.89s3.93,4.91,3.93,8.94c0.02,2.77-0.68,5.07-2.09,6.91
					c-1.41,1.84-3.45,3.18-6.11,4.02l11.29,15.57H773.37z M757.46,306.33c1.62,0.15,3.13,0.23,4.53,0.23c3.23,0,5.59-0.54,7.09-1.63
					c1.5-1.08,2.25-2.8,2.25-5.16s-0.7-4.07-2.11-5.15c-1.41-1.08-3.62-1.61-6.65-1.61c-1.71,0-3.42,0.15-5.12,0.46V306.33z"/>
				<path class="st2" d="M791.95,324.64c-2.55-1.4-4.52-3.55-5.92-6.45s-2.09-6.53-2.09-10.88s0.7-7.98,2.09-10.87
					c1.39-2.89,3.37-5.04,5.93-6.45c2.56-1.41,5.59-2.11,9.09-2.11c3.52,0,6.55,0.7,9.1,2.11c2.55,1.41,4.52,3.56,5.92,6.45
					c1.39,2.89,2.09,6.52,2.09,10.87c0,4.34-0.7,7.96-2.1,10.86c-1.4,2.9-3.38,5.06-5.93,6.47c-2.55,1.41-5.58,2.11-9.08,2.11
					C797.54,326.74,794.5,326.04,791.95,324.64z M808.55,317.89c1.73-2.18,2.6-5.66,2.6-10.44c0-4.92-0.87-8.48-2.61-10.69
					c-1.74-2.21-4.23-3.32-7.48-3.32s-5.73,1.08-7.47,3.25c-1.73,2.17-2.6,5.65-2.6,10.45c0,4.93,0.86,8.5,2.59,10.71
					s4.22,3.3,7.48,3.3S806.81,320.07,808.55,317.89z"/>
				<path class="st2" d="M852.84,307.81v18.03c-3.19,0.53-6.22,0.79-9.09,0.79c-7,0-12.23-1.57-15.69-4.7
					c-3.46-3.13-5.19-7.99-5.21-14.56c0-6.56,1.75-11.45,5.26-14.67c3.51-3.23,8.58-4.84,15.23-4.84c2.94,0,5.76,0.34,8.48,1.02
					v5.69c-2.6-0.67-5.24-1-7.94-1c-3.14,0-5.73,0.46-7.76,1.38c-2.03,0.92-3.56,2.4-4.58,4.44c-1.02,2.04-1.54,4.72-1.54,8.05
					c0,4.71,1.08,8.14,3.25,10.3s5.51,3.23,10.01,3.23c0.97,0,2.03-0.04,3.18-0.13v-13.04H852.84z"/>
				<path class="st2" d="M882.68,326.25l-10.42-14.57c-0.24,0.02-0.6,0.03-1.08,0.03c-1.02,0-2.49-0.05-4.41-0.15v14.7h-6.74v-37.14
					c3.74-0.8,7.48-1.2,11.22-1.2c5.31,0,9.27,0.96,11.9,2.89s3.93,4.91,3.93,8.94c0.02,2.77-0.68,5.07-2.09,6.91
					c-1.41,1.84-3.45,3.18-6.11,4.02l11.29,15.57H882.68z M866.77,306.33c1.62,0.15,3.13,0.23,4.53,0.23c3.23,0,5.59-0.54,7.09-1.63
					c1.5-1.08,2.25-2.8,2.25-5.16s-0.7-4.07-2.11-5.15c-1.41-1.08-3.62-1.61-6.65-1.61c-1.71,0-3.42,0.15-5.12,0.46V306.33z"/>
				<path class="st2" d="M920.04,326.25l-3.56-10.91h-14.8l-3.56,10.91h-6.71l12.75-37.9h9.89l12.75,37.9H920.04z M903.45,309.86
					h11.24l-5.63-17.21L903.45,309.86z"/>
				<path class="st2" d="M962.2,288.35h8.27v37.9h-6.4v-28.63l-10.4,23.23h-5.74l-10.4-22.69v28.09h-6.4v-37.9h8.27l11.52,25.56
					L962.2,288.35z"/>
				<path class="st2" d="M1003.43,326.25l-3.56-10.91h-14.8l-3.56,10.91h-6.71l12.75-37.9h9.89l12.75,37.9H1003.43z M986.83,309.86
					h11.24l-5.63-17.21L986.83,309.86z"/>
				<path class="st2" d="M1027.17,326.02v-36.91c1.71-0.36,3.55-0.64,5.53-0.86c1.98-0.21,3.89-0.32,5.74-0.32
					c6.71,0,11.75,1.59,15.12,4.76s5.06,8.04,5.06,14.6c0,4.49-0.79,8.16-2.38,11s-3.97,4.94-7.16,6.29
					c-3.18,1.35-7.2,2.02-12.05,2.02C1033.77,326.61,1030.48,326.41,1027.17,326.02z M1045.96,319.61c1.89-0.93,3.3-2.4,4.24-4.42
					c0.94-2.01,1.41-4.65,1.41-7.91c0-3.23-0.47-5.85-1.41-7.88c-0.94-2.02-2.34-3.51-4.21-4.46c-1.87-0.95-4.25-1.42-7.13-1.42
					c-1.45,0-3.07,0.15-4.84,0.44v26.81c1.31,0.15,2.89,0.23,4.71,0.23C1041.66,321,1044.07,320.54,1045.96,319.61z"/>
				<path class="st2" d="M1071.45,320.75h19v5.51h-25.76v-37.9h25.51v5.51h-18.75v10.24h16.19v5.51h-16.19V320.75z"/>
				<path class="st2" d="M1108.74,326.25v-37.9h6.84v37.9H1108.74z"/>
				<path class="st2" d="M1148,288.35h6.43v37.9h-6.92l-18-27.63v27.63h-6.45v-37.9h6.92l18.03,27.66V288.35z"/>
				<path class="st2" d="M1170.72,326.25v-32.19h-12.19v-5.71h31.22v5.71h-12.19v32.19H1170.72z"/>
				<path class="st2" d="M1200.61,320.75h19v5.51h-25.76v-37.9h25.51v5.51h-18.75v10.24h16.19v5.51h-16.19V320.75z"/>
				<path class="st2" d="M1253.72,307.81v18.03c-3.19,0.53-6.22,0.79-9.09,0.79c-7,0-12.23-1.57-15.69-4.7
					c-3.46-3.13-5.19-7.99-5.21-14.56c0-6.56,1.75-11.45,5.26-14.67c3.51-3.23,8.58-4.84,15.23-4.84c2.94,0,5.76,0.34,8.48,1.02
					v5.69c-2.6-0.67-5.24-1-7.94-1c-3.14,0-5.73,0.46-7.76,1.38c-2.03,0.92-3.56,2.4-4.58,4.44c-1.02,2.04-1.54,4.72-1.54,8.05
					c0,4.71,1.08,8.14,3.25,10.3s5.51,3.23,10.01,3.23c0.97,0,2.03-0.04,3.18-0.13v-13.04H1253.72z"/>
				<path class="st2" d="M1283.56,326.25l-10.42-14.57c-0.24,0.02-0.6,0.03-1.08,0.03c-1.02,0-2.49-0.05-4.41-0.15v14.7h-6.74
					v-37.14c3.74-0.8,7.48-1.2,11.22-1.2c5.31,0,9.27,0.96,11.9,2.89s3.93,4.91,3.93,8.94c0.02,2.77-0.68,5.07-2.09,6.91
					c-1.41,1.84-3.45,3.18-6.11,4.02l11.29,15.57H1283.56z M1267.65,306.33c1.62,0.15,3.13,0.23,4.53,0.23
					c3.23,0,5.59-0.54,7.09-1.63c1.5-1.08,2.25-2.8,2.25-5.16s-0.7-4.07-2.11-5.15c-1.41-1.08-3.62-1.61-6.65-1.61
					c-1.71,0-3.42,0.15-5.12,0.46V306.33z"/>
				<path class="st2" d="M1320.92,326.25l-3.56-10.91h-14.8l-3.56,10.91h-6.71l12.75-37.9h9.89l12.75,37.9H1320.92z M1304.33,309.86
					h11.24l-5.63-17.21L1304.33,309.86z"/>
				<path class="st2" d="M1335.34,322.09c-3.23-3.1-4.84-8-4.84-14.71c0-6.52,1.65-11.41,4.96-14.65s8.07-4.87,14.3-4.87
					c2.8,0,5.51,0.32,8.14,0.97v5.69c-2.46-0.63-5.01-0.95-7.66-0.95c-2.83,0-5.17,0.46-7.02,1.38c-1.84,0.92-3.23,2.39-4.16,4.39
					c-0.93,2.01-1.4,4.65-1.4,7.93c0,3.35,0.46,6.03,1.38,8.05s2.28,3.48,4.08,4.37c1.8,0.89,4.08,1.33,6.83,1.33
					c2.58,0,5.22-0.42,7.94-1.25v5.69c-1.26,0.41-2.62,0.73-4.08,0.95s-2.94,0.33-4.44,0.33
					C1343.25,326.74,1338.57,325.19,1335.34,322.09z"/>
				<path class="st2" d="M1362.8,326.25v-37.9h6.84v37.9H1362.8z"/>
				<path class="st2" d="M1383.71,324.64c-2.55-1.4-4.52-3.55-5.92-6.45s-2.09-6.53-2.09-10.88s0.7-7.98,2.09-10.87
					c1.39-2.89,3.37-5.04,5.93-6.45c2.56-1.41,5.59-2.11,9.09-2.11c3.52,0,6.55,0.7,9.1,2.11c2.55,1.41,4.52,3.56,5.92,6.45
					c1.39,2.89,2.09,6.52,2.09,10.87c0,4.34-0.7,7.96-2.1,10.86c-1.4,2.9-3.38,5.06-5.93,6.47c-2.55,1.41-5.58,2.11-9.08,2.11
					C1389.3,326.74,1386.26,326.04,1383.71,324.64z M1400.3,317.89c1.73-2.18,2.6-5.66,2.6-10.44c0-4.92-0.87-8.48-2.61-10.69
					c-1.74-2.21-4.23-3.32-7.48-3.32s-5.73,1.08-7.47,3.25c-1.73,2.17-2.6,5.65-2.6,10.45c0,4.93,0.86,8.5,2.59,10.71
					s4.22,3.3,7.48,3.3S1398.57,320.07,1400.3,317.89z M1389.77,285.27l4.56-7.58h7.09l-5.61,7.58H1389.77z"/>
				<path class="st2" d="M1440.96,288.35h6.43v37.9h-6.92l-18-27.63v27.63h-6.45v-37.9h6.92l18.03,27.66V288.35z"/>
				<path class="st2" d="M728.44,387.72v-32.19h-12.19v-5.71h31.22v5.71h-12.19v32.19H728.44z"/>
				<path class="st2" d="M758.32,382.21h19v5.51h-25.76v-37.9h25.51v5.51h-18.75v10.24h16.19v5.51h-16.19V382.21z"/>
				<path class="st2" d="M805.5,387.72l-10.42-14.57c-0.24,0.02-0.6,0.03-1.08,0.03c-1.02,0-2.49-0.05-4.41-0.15v14.7h-6.74v-37.14
					c3.74-0.8,7.48-1.2,11.22-1.2c5.31,0,9.27,0.96,11.9,2.89s3.93,4.91,3.93,8.94c0.02,2.77-0.68,5.07-2.09,6.91
					c-1.41,1.84-3.45,3.18-6.11,4.02L813,387.72H805.5z M789.59,367.79c1.62,0.15,3.13,0.23,4.53,0.23c3.23,0,5.59-0.54,7.09-1.63
					c1.5-1.08,2.25-2.8,2.25-5.16s-0.7-4.07-2.11-5.15c-1.41-1.08-3.62-1.61-6.65-1.61c-1.71,0-3.42,0.15-5.12,0.46V367.79z"/>
				<path class="st2" d="M840.12,387.72l-10.42-14.57c-0.24,0.02-0.6,0.03-1.08,0.03c-1.02,0-2.49-0.05-4.41-0.15v14.7h-6.74v-37.14
					c3.74-0.8,7.48-1.2,11.22-1.2c5.31,0,9.27,0.96,11.9,2.89s3.93,4.91,3.93,8.94c0.02,2.77-0.68,5.07-2.09,6.91
					c-1.41,1.84-3.45,3.18-6.11,4.02l11.29,15.57H840.12z M824.22,367.79c1.62,0.15,3.13,0.23,4.53,0.23c3.23,0,5.59-0.54,7.09-1.63
					c1.5-1.08,2.25-2.8,2.25-5.16s-0.7-4.07-2.11-5.15c-1.41-1.08-3.62-1.61-6.65-1.61c-1.71,0-3.42,0.15-5.12,0.46V367.79z"/>
				<path class="st2" d="M852.11,387.72v-37.9h6.84v37.9H852.11z"/>
				<path class="st2" d="M875.24,387.72v-32.19h-12.19v-5.71h31.22v5.71h-12.19v32.19H875.24z"/>
				<path class="st2" d="M904.96,386.1c-2.55-1.4-4.52-3.55-5.92-6.45s-2.09-6.53-2.09-10.88s0.7-7.98,2.09-10.87
					c1.39-2.89,3.37-5.04,5.93-6.45c2.56-1.41,5.59-2.11,9.09-2.11c3.52,0,6.55,0.7,9.1,2.11c2.55,1.41,4.52,3.56,5.92,6.45
					c1.39,2.89,2.09,6.52,2.09,10.87c0,4.34-0.7,7.96-2.1,10.86c-1.4,2.9-3.38,5.06-5.93,6.47c-2.55,1.41-5.58,2.11-9.08,2.11
					C910.54,388.2,907.51,387.5,904.96,386.1z M921.55,379.36c1.73-2.18,2.6-5.66,2.6-10.44c0-4.92-0.87-8.48-2.61-10.69
					c-1.74-2.21-4.23-3.32-7.48-3.32s-5.73,1.08-7.47,3.25c-1.73,2.17-2.6,5.65-2.6,10.45c0,4.93,0.86,8.5,2.59,10.71
					s4.22,3.3,7.48,3.3S919.82,381.53,921.55,379.36z"/>
				<path class="st2" d="M959.9,387.72l-10.42-14.57c-0.24,0.02-0.6,0.03-1.08,0.03c-1.02,0-2.49-0.05-4.41-0.15v14.7h-6.74v-37.14
					c3.74-0.8,7.48-1.2,11.22-1.2c5.31,0,9.27,0.96,11.9,2.89s3.93,4.91,3.93,8.94c0.02,2.77-0.68,5.07-2.09,6.91
					c-1.41,1.84-3.45,3.18-6.11,4.02l11.29,15.57H959.9z M944,367.79c1.62,0.15,3.13,0.23,4.53,0.23c3.23,0,5.59-0.54,7.09-1.63
					c1.5-1.08,2.25-2.8,2.25-5.16s-0.7-4.07-2.11-5.15c-1.41-1.08-3.62-1.61-6.65-1.61c-1.71,0-3.42,0.15-5.12,0.46V367.79z"/>
				<path class="st2" d="M971.89,387.72v-37.9h6.84v37.9H971.89z"/>
				<path class="st2" d="M1011.59,387.72l-3.56-10.91h-14.8l-3.56,10.91h-6.71l12.75-37.9h9.89l12.75,37.9H1011.59z M994.99,371.33
					h11.24l-5.63-17.21L994.99,371.33z"/>
				<path class="st2" d="M1022.57,387.72v-37.9h6.84v32.19h17.88v5.71H1022.57z"/>
				<path class="st2" d="M1067.56,384.35c-2.47-2.57-3.7-6.52-3.7-11.84v-22.69h6.84v23.38c0,3.24,0.69,5.61,2.06,7.11
					c1.37,1.49,3.51,2.24,6.42,2.24c2.89,0,5.02-0.75,6.39-2.24c1.38-1.49,2.06-3.86,2.06-7.11v-23.38h6.71v22.69
					c0,5.34-1.22,9.3-3.66,11.86c-2.44,2.56-6.27,3.84-11.5,3.84C1073.9,388.2,1070.03,386.92,1067.56,384.35z"/>
				<path class="st2" d="M1126.58,349.81h6.43v37.9h-6.92l-18-27.63v27.63h-6.45v-37.9h6.92l18.03,27.66V349.81z"/>
				<path class="st2" d="M1140.48,387.72v-37.9h6.84v37.9H1140.48z"/>
				<path class="st2" d="M1179.87,349.81h6.71l-12.68,37.9h-10.04l-12.68-37.9h7.17l10.71,32.71L1179.87,349.81z"/>
				<path class="st2" d="M1197.21,382.21h19v5.51h-25.76v-37.9h25.51v5.51h-18.75v10.24h16.19v5.51h-16.19V382.21z"/>
				<path class="st2" d="M1244.39,387.72l-10.42-14.57c-0.24,0.02-0.6,0.03-1.08,0.03c-1.02,0-2.49-0.05-4.41-0.15v14.7h-6.74
					v-37.14c3.74-0.8,7.48-1.2,11.22-1.2c5.31,0,9.27,0.96,11.9,2.89s3.93,4.91,3.93,8.94c0.02,2.77-0.68,5.07-2.09,6.91
					c-1.41,1.84-3.45,3.18-6.11,4.02l11.29,15.57H1244.39z M1228.48,367.79c1.62,0.15,3.13,0.23,4.53,0.23
					c3.23,0,5.59-0.54,7.09-1.63c1.5-1.08,2.25-2.8,2.25-5.16s-0.7-4.07-2.11-5.15c-1.41-1.08-3.62-1.61-6.65-1.61
					c-1.71,0-3.42,0.15-5.12,0.46V367.79z"/>
				<path class="st2" d="M1259.92,387.79c-1.75-0.27-3.38-0.67-4.9-1.18v-5.61c1.55,0.53,3.23,0.93,5.03,1.22
					c1.8,0.28,3.5,0.42,5.11,0.42c2.68,0,4.64-0.45,5.89-1.36c1.25-0.9,1.87-2.23,1.87-3.97c0-0.99-0.19-1.81-0.58-2.46
					c-0.38-0.65-1.02-1.21-1.91-1.69c-0.89-0.48-2.13-0.92-3.71-1.33l-2.56-0.67c-3.35-0.84-5.84-2.12-7.48-3.87
					c-1.64-1.74-2.46-4.02-2.46-6.84c0-3.53,1.27-6.27,3.8-8.22c2.54-1.95,6.25-2.92,11.15-2.92c1.6,0,3.16,0.1,4.67,0.29
					s2.86,0.47,4.06,0.83v5.61c-1.23-0.38-2.57-0.67-4.02-0.87c-1.45-0.21-2.91-0.31-4.38-0.31c-2.95,0-5.11,0.45-6.45,1.36
					c-1.35,0.91-2.02,2.19-2.02,3.87c0,0.94,0.17,1.72,0.53,2.36c0.35,0.63,0.93,1.18,1.74,1.64c0.81,0.46,1.92,0.89,3.34,1.28
					l2.56,0.64c3.64,0.91,6.3,2.23,8,3.97c1.7,1.74,2.55,4.03,2.55,6.86c0,2.36-0.58,4.39-1.73,6.1c-1.15,1.71-2.83,3.01-5.02,3.91
					c-2.19,0.9-4.81,1.34-7.85,1.34C1263.42,388.2,1261.67,388.07,1259.92,387.79z"/>
				<path class="st2" d="M1285.08,387.72v-37.9h6.84v37.9H1285.08z"/>
				<path class="st2" d="M1308.21,387.72v-32.19h-12.19v-5.71h31.22v5.71h-12.19v32.19H1308.21z"/>
				<path class="st2" d="M1356.71,387.72l-3.56-10.91h-14.8l-3.56,10.91h-6.71l12.75-37.9h9.89l12.75,37.9H1356.71z M1340.12,371.33
					h11.24l-5.63-17.21L1340.12,371.33z"/>
				<path class="st2" d="M1390.34,387.72l-10.42-14.57c-0.24,0.02-0.6,0.03-1.08,0.03c-1.02,0-2.49-0.05-4.41-0.15v14.7h-6.74
					v-37.14c3.74-0.8,7.48-1.2,11.22-1.2c5.31,0,9.27,0.96,11.9,2.89s3.93,4.91,3.93,8.94c0.02,2.77-0.68,5.07-2.09,6.91
					c-1.41,1.84-3.45,3.18-6.11,4.02l11.29,15.57H1390.34z M1374.44,367.79c1.62,0.15,3.13,0.23,4.53,0.23
					c3.23,0,5.59-0.54,7.09-1.63c1.5-1.08,2.25-2.8,2.25-5.16s-0.7-4.07-2.11-5.15c-1.41-1.08-3.62-1.61-6.65-1.61
					c-1.71,0-3.42,0.15-5.12,0.46V367.79z"/>
				<path class="st2" d="M1402.33,387.72v-37.9h6.84v37.9H1402.33z"/>
				<path class="st2" d="M1442.02,387.72l-3.56-10.91h-14.8l-3.56,10.91h-6.71l12.75-37.9h9.89l12.75,37.9H1442.02z M1425.43,371.33
					h11.24l-5.63-17.21L1425.43,371.33z"/>
			</g>
		</g>
		<g>
			<g>
				<path class="st2" d="M735.64,127.59c12.19-2.33,24.05-3.5,35.59-3.5c17.4,0,30.37,3.27,38.9,9.82
					c8.53,6.55,12.79,16.79,12.79,30.73c0,13.35-4.15,23.44-12.45,30.29c-8.3,6.85-20.5,10.27-36.61,10.27
					c-1.51,0-3.56-0.05-6.17-0.15l-3.16-0.07v30.66h-28.9V127.59z M789.97,179.6c3.31-2.98,4.97-7.89,4.97-14.73
					s-1.7-11.82-5.08-14.92c-3.39-3.1-8.69-4.65-15.91-4.65c-3.76,0-6.9,0.22-9.41,0.67v37.51c3.46,0.4,6.67,0.6,9.63,0.6
					C781.39,184.07,786.65,182.58,789.97,179.6z"/>
				<path class="st2" d="M848.43,225.19c-7.93-7.96-11.89-20.15-11.89-36.58V125.5h28.9v65.79c0,7.84,1.67,13.56,5,17.15
					c3.34,3.6,8.39,5.39,15.16,5.39c6.77,0,11.81-1.8,15.13-5.39c3.31-3.6,4.96-9.31,4.96-17.15V125.5h28.29v63.11
					c0,16.37-3.91,28.55-11.74,36.54c-7.82,7.99-20.04,11.98-36.65,11.98C868.75,237.13,856.36,233.15,848.43,225.19z"/>
				<path class="st2" d="M980.11,213.02h53.8v22.62h-82.32V125.5h81.57v22.62h-53.05v19.94h45.3v22.62h-45.3V213.02z"/>
				<path class="st2" d="M1121.27,125.5h27.09v110.14h-28.9l-44.02-67.42v67.42h-27.09V125.5h28.9l44.02,67.42V125.5z"/>
				<path class="st2" d="M1192.83,235.64v-86.55h-34.39V125.5h97.75v23.59h-34.39v86.55H1192.83z"/>
				<path class="st2" d="M1294.71,213.02h53.8v22.62h-82.32V125.5h81.57v22.62h-53.05v19.94h45.3v22.62h-45.3V213.02z"/>
				<path class="st2" d="M1375.94,235.87c-5.59-0.84-10.72-2.04-15.39-3.57v-23c4.62,1.54,9.86,2.75,15.73,3.65
					c5.87,0.89,11.36,1.34,16.48,1.34c6.52,0,11.17-0.87,13.96-2.61c2.79-1.73,4.18-4.27,4.18-7.59c0-1.83-0.4-3.36-1.2-4.58
					c-0.8-1.22-2.21-2.31-4.21-3.27c-2.01-0.97-4.89-1.95-8.65-2.94l-9.18-2.38c-10.03-2.43-17.56-6.29-22.57-11.57
					c-5.02-5.28-7.53-12.19-7.53-20.72c0-11.06,4.1-19.6,12.3-25.6c8.2-6,20.35-9,36.46-9c5.07,0,9.93,0.28,14.6,0.85
					c4.67,0.57,8.88,1.35,12.64,2.34v23c-3.46-1.04-7.45-1.86-11.96-2.46c-4.51-0.6-9.03-0.89-13.54-0.89
					c-7.97,0-13.61,0.89-16.89,2.68c-3.29,1.79-4.93,4.32-4.93,7.59c0,1.69,0.35,3.11,1.05,4.28c0.7,1.17,1.92,2.19,3.65,3.09
					c1.73,0.89,4.18,1.76,7.34,2.6l9.18,2.31c11.04,2.68,19.15,6.66,24.34,11.94c5.19,5.28,7.79,12.22,7.79,20.8
					c0,7.14-1.85,13.35-5.57,18.6c-3.71,5.26-9.07,9.3-16.06,12.13c-7,2.83-15.34,4.24-25.02,4.24
					C1387.19,237.13,1381.53,236.71,1375.94,235.87z"/>
			</g>
		</g>
	</g>
</g>
</svg>
