<?xml version="1.0" encoding="utf-8"?>
<!-- Generator: Adobe Illustrator 26.0.1, SVG Export Plug-In . SVG Version: 6.00 Build 0)  -->
<svg version="1.1" id="Capa_1" xmlns="http://www.w3.org/2000/svg" xmlns:xlink="http://www.w3.org/1999/xlink" x="0px" y="0px"
	 viewBox="0 0 841.89 595.28" style="enable-background:new 0 0 841.89 595.28;" xml:space="preserve">
<style type="text/css">
	.st0{fill:#FFFFFF;}
	.st1{fill:#EB0084;}
	.st2{fill:#00AFC4;}
</style>
<g>
	<g>
		<g>
			<path class="st0" d="M276.05,400.27c1.87-0.36,3.7-0.54,5.51-0.54c2.79,0,4.87,0.55,6.24,1.64c1.38,1.09,2.06,2.8,2.06,5.11
				c0,2.22-0.69,3.9-2.06,5.04c-1.37,1.14-3.43,1.71-6.18,1.71c-0.44,0-1.14-0.03-2.1-0.08V419h-3.48V400.27z M285.32,409.62
				c0.77-0.65,1.15-1.69,1.15-3.12c0-1.44-0.38-2.5-1.13-3.16c-0.75-0.67-1.92-1-3.5-1c-0.81,0-1.58,0.06-2.33,0.18v7.95
				c0.59,0.09,1.3,0.13,2.13,0.13C283.33,410.59,284.56,410.27,285.32,409.62z"/>
			<path class="st0" d="M292.8,419v-19.06h3.48v16.18h9.09V419H292.8z"/>
			<path class="st0" d="M320.3,419l-1.81-5.49h-7.52l-1.81,5.49h-3.41l6.48-19.06h5.02l6.48,19.06H320.3z M311.86,410.76h5.72
				l-2.86-8.65L311.86,410.76z"/>
			<path class="st0" d="M338.57,399.95h3.27V419h-3.52l-9.15-13.89V419h-3.28v-19.06h3.51l9.17,13.91V399.95z"/>
			<path class="st0" d="M352.12,418.89v-18.55c0.87-0.18,1.81-0.32,2.81-0.43c1.01-0.11,1.98-0.16,2.92-0.16
				c3.41,0,5.97,0.8,7.69,2.39c1.71,1.6,2.57,4.04,2.57,7.34c0,2.26-0.4,4.1-1.21,5.53c-0.81,1.43-2.02,2.48-3.64,3.16
				c-1.62,0.68-3.66,1.02-6.12,1.02C355.48,419.18,353.8,419.08,352.12,418.89z M361.67,415.66c0.96-0.47,1.68-1.21,2.15-2.22
				c0.48-1.01,0.72-2.34,0.72-3.98c0-1.62-0.24-2.94-0.72-3.96c-0.48-1.02-1.19-1.76-2.14-2.24c-0.95-0.48-2.16-0.72-3.63-0.72
				c-0.74,0-1.56,0.07-2.46,0.22v13.48c0.67,0.08,1.47,0.12,2.39,0.12C359.49,416.36,360.71,416.13,361.67,415.66z"/>
			<path class="st0" d="M374.63,416.24h9.66V419h-13.1v-19.06h12.97v2.77h-9.53v5.15h8.23v2.77h-8.23V416.24z"/>
			<path class="st0" d="M393.59,419v-19.06h3.48V419H393.59z"/>
			<path class="st0" d="M413.55,399.95h3.27V419h-3.51l-9.15-13.89V419h-3.28v-19.06h3.51l9.17,13.91V399.95z"/>
			<path class="st0" d="M425.1,419v-16.19h-6.2v-2.87h15.87v2.87h-6.2V419H425.1z"/>
		</g>
		<g>
			<path class="st0" d="M440.2,416.24h9.66V419h-13.1v-19.06h12.97v2.77h-9.53v5.15h8.23v2.77h-8.23V416.24z"/>
		</g>
		<g>
			<path class="st0" d="M466.97,409.73v9.07c-1.62,0.27-3.16,0.4-4.62,0.4c-3.56,0-6.22-0.79-7.98-2.36
				c-1.76-1.58-2.64-4.02-2.65-7.32c0-3.3,0.89-5.76,2.68-7.38c1.78-1.62,4.36-2.43,7.74-2.43c1.49,0,2.93,0.17,4.31,0.52v2.86
				c-1.32-0.33-2.66-0.5-4.04-0.5c-1.6,0-2.91,0.23-3.95,0.7s-1.81,1.21-2.33,2.23c-0.52,1.03-0.78,2.38-0.78,4.05
				c0,2.37,0.55,4.09,1.65,5.18c1.1,1.08,2.8,1.62,5.09,1.62c0.49,0,1.03-0.02,1.62-0.06v-6.55H466.97z"/>
		</g>
		<g>
			<path class="st0" d="M482.13,419l-5.3-7.33c-0.12,0.01-0.3,0.01-0.55,0.01c-0.52,0-1.27-0.03-2.24-0.08V419h-3.42v-18.67
				c1.9-0.4,3.8-0.6,5.7-0.6c2.7,0,4.71,0.48,6.05,1.45c1.33,0.97,2,2.47,2,4.49c0.01,1.39-0.35,2.55-1.06,3.48
				c-0.72,0.93-1.75,1.6-3.11,2.02l5.74,7.83H482.13z M474.04,408.99c0.82,0.08,1.59,0.12,2.3,0.12c1.64,0,2.84-0.27,3.61-0.82
				s1.15-1.41,1.15-2.59c0-1.18-0.36-2.05-1.07-2.59c-0.72-0.54-1.84-0.81-3.38-0.81c-0.87,0-1.74,0.08-2.6,0.23V408.99z"/>
		</g>
		<g>
			<path class="st0" d="M499.98,419l-1.81-5.49h-7.53l-1.81,5.49h-3.41l6.48-19.06h5.03l6.48,19.06H499.98z M491.54,410.76h5.71
				l-2.86-8.65L491.54,410.76z"/>
		</g>
		<g>
			<path class="st0" d="M506.92,416.91c-1.64-1.56-2.46-4.02-2.46-7.4c0-3.28,0.84-5.73,2.52-7.37c1.68-1.63,4.1-2.45,7.27-2.45
				c1.42,0,2.8,0.16,4.14,0.49v2.86c-1.25-0.32-2.55-0.48-3.89-0.48c-1.44,0-2.63,0.23-3.57,0.7c-0.94,0.46-1.64,1.2-2.11,2.21
				c-0.47,1.01-0.71,2.34-0.71,3.99c0,1.68,0.23,3.03,0.7,4.05c0.47,1.02,1.16,1.75,2.08,2.2c0.92,0.45,2.07,0.67,3.47,0.67
				c1.31,0,2.66-0.21,4.04-0.63v2.86c-0.64,0.21-1.33,0.37-2.08,0.48c-0.74,0.11-1.5,0.17-2.26,0.17
				C510.93,419.25,508.56,418.47,506.92,416.91z"/>
			<path class="st0" d="M520.87,419v-19.06h3.48V419H520.87z"/>
			<path class="st0" d="M531.5,418.19c-1.3-0.7-2.3-1.79-3.01-3.24c-0.71-1.46-1.06-3.28-1.06-5.47c0-2.19,0.35-4.01,1.06-5.47
				c0.71-1.46,1.71-2.54,3.01-3.24c1.3-0.71,2.84-1.06,4.62-1.06c1.79,0,3.33,0.36,4.63,1.06c1.3,0.71,2.3,1.79,3.01,3.24
				c0.71,1.45,1.06,3.28,1.06,5.47c0,2.18-0.36,4-1.07,5.46s-1.72,2.54-3.01,3.25c-1.3,0.71-2.84,1.06-4.62,1.06
				C534.34,419.25,532.8,418.9,531.5,418.19z M539.94,414.8c0.88-1.09,1.32-2.84,1.32-5.25c0-2.47-0.44-4.26-1.33-5.38
				c-0.89-1.11-2.15-1.67-3.8-1.67s-2.91,0.55-3.8,1.64c-0.88,1.09-1.32,2.84-1.32,5.25c0,2.48,0.44,4.28,1.31,5.38
				c0.88,1.11,2.14,1.66,3.8,1.66C537.79,416.44,539.06,415.89,539.94,414.8z M534.58,398.4l2.32-3.81h3.61l-2.85,3.81H534.58z"/>
			<path class="st0" d="M560.61,399.95h3.27V419h-3.51l-9.15-13.89V419h-3.28v-19.06h3.52l9.17,13.91V399.95z"/>
		</g>
		<g>
			<path class="st0" d="M241.7,449.91v-16.19h-6.2v-2.87h15.87v2.87h-6.2v16.19H241.7z"/>
			<path class="st0" d="M256.89,447.14h9.66v2.77h-13.1v-19.06h12.97v2.77h-9.53v5.15h8.23v2.77h-8.23V447.14z"/>
			<path class="st0" d="M280.88,449.91l-5.3-7.33c-0.12,0.01-0.31,0.01-0.55,0.01c-0.52,0-1.27-0.03-2.24-0.08v7.39h-3.43v-18.67
				c1.9-0.4,3.8-0.6,5.7-0.6c2.7,0,4.71,0.48,6.05,1.45c1.33,0.97,2,2.47,2,4.49c0.01,1.39-0.34,2.55-1.06,3.48
				c-0.72,0.93-1.75,1.6-3.11,2.02l5.74,7.83H280.88z M272.79,439.89c0.82,0.08,1.59,0.12,2.3,0.12c1.64,0,2.84-0.27,3.61-0.82
				c0.76-0.55,1.15-1.41,1.15-2.59c0-1.18-0.36-2.05-1.07-2.59c-0.72-0.54-1.84-0.81-3.38-0.81c-0.87,0-1.74,0.08-2.6,0.23V439.89z"
				/>
			<path class="st0" d="M298.48,449.91l-5.3-7.33c-0.12,0.01-0.3,0.01-0.55,0.01c-0.52,0-1.27-0.03-2.24-0.08v7.39h-3.43v-18.67
				c1.9-0.4,3.8-0.6,5.7-0.6c2.7,0,4.71,0.48,6.05,1.45c1.33,0.97,2,2.47,2,4.49c0.01,1.39-0.34,2.55-1.06,3.48
				c-0.72,0.93-1.75,1.6-3.11,2.02l5.74,7.83H298.48z M290.39,439.89c0.82,0.08,1.59,0.12,2.3,0.12c1.64,0,2.84-0.27,3.61-0.82
				c0.76-0.55,1.14-1.41,1.14-2.59c0-1.18-0.36-2.05-1.07-2.59c-0.72-0.54-1.84-0.81-3.38-0.81c-0.87,0-1.74,0.08-2.6,0.23V439.89z"
				/>
			<path class="st0" d="M304.57,449.91v-19.06h3.48v19.06H304.57z"/>
		</g>
		<g>
			<path class="st0" d="M316.3,449.91v-16.19h-6.2v-2.87h15.87v2.87h-6.2v16.19H316.3z"/>
		</g>
		<g>
			<path class="st0" d="M330.41,449.1c-1.3-0.7-2.3-1.79-3.01-3.24c-0.71-1.46-1.06-3.28-1.06-5.47c0-2.19,0.35-4.01,1.06-5.47
				c0.71-1.46,1.71-2.54,3.01-3.24s2.84-1.06,4.62-1.06c1.79,0,3.33,0.36,4.63,1.06c1.3,0.71,2.3,1.79,3.01,3.24
				c0.71,1.45,1.06,3.28,1.06,5.47c0,2.18-0.36,4-1.07,5.46c-0.71,1.46-1.72,2.54-3.01,3.25c-1.3,0.71-2.84,1.06-4.62,1.06
				C333.25,450.15,331.71,449.8,330.41,449.1z M338.85,445.7c0.88-1.09,1.32-2.84,1.32-5.25c0-2.47-0.44-4.26-1.33-5.38
				c-0.89-1.11-2.15-1.67-3.8-1.67c-1.65,0-2.91,0.55-3.79,1.64c-0.88,1.09-1.32,2.84-1.32,5.25c0,2.48,0.44,4.28,1.32,5.38
				c0.88,1.11,2.14,1.66,3.8,1.66S337.97,446.8,338.85,445.7z"/>
			<path class="st0" d="M358.35,449.91l-5.3-7.33c-0.12,0.01-0.31,0.01-0.55,0.01c-0.52,0-1.27-0.03-2.24-0.08v7.39h-3.43v-18.67
				c1.9-0.4,3.8-0.6,5.7-0.6c2.7,0,4.71,0.48,6.05,1.45c1.33,0.97,2,2.47,2,4.49c0.01,1.39-0.34,2.55-1.06,3.48
				c-0.72,0.93-1.75,1.6-3.11,2.02l5.74,7.83H358.35z M350.26,439.89c0.82,0.08,1.59,0.12,2.3,0.12c1.64,0,2.84-0.27,3.61-0.82
				c0.76-0.55,1.15-1.41,1.15-2.59c0-1.18-0.36-2.05-1.07-2.59c-0.72-0.54-1.84-0.81-3.38-0.81c-0.87,0-1.74,0.08-2.6,0.23V439.89z"
				/>
			<path class="st0" d="M364.44,449.91v-19.06h3.48v19.06H364.44z"/>
			<path class="st0" d="M384.62,449.91l-1.81-5.49h-7.52l-1.81,5.49h-3.41l6.48-19.06h5.03l6.48,19.06H384.62z M376.18,441.67h5.72
				l-2.86-8.65L376.18,441.67z"/>
			<path class="st0" d="M390.2,449.91v-19.06h3.48v16.18h9.09v2.87H390.2z"/>
			<path class="st0" d="M413.07,448.21c-1.25-1.29-1.88-3.28-1.88-5.95v-11.41h3.48v11.76c0,1.63,0.35,2.82,1.05,3.57
				s1.79,1.13,3.26,1.13c1.47,0,2.55-0.38,3.25-1.13c0.7-0.75,1.05-1.94,1.05-3.57v-11.76h3.41v11.41c0,2.69-0.62,4.67-1.86,5.96
				c-1.24,1.29-3.19,1.93-5.85,1.93C416.3,450.15,414.33,449.51,413.07,448.21z"/>
			<path class="st0" d="M443.08,430.85h3.27v19.06h-3.51l-9.15-13.89v13.89h-3.28v-19.06h3.52l9.17,13.91V430.85z"/>
			<path class="st0" d="M450.15,449.91v-19.06h3.48v19.06H450.15z"/>
			<path class="st0" d="M470.17,430.85h3.41l-6.45,19.06h-5.1l-6.45-19.06h3.65l5.44,16.44L470.17,430.85z"/>
			<path class="st0" d="M478.99,447.14h9.66v2.77h-13.1v-19.06h12.97v2.77h-9.53v5.15h8.23v2.77h-8.23V447.14z"/>
		</g>
		<g>
			<path class="st0" d="M502.91,449.91l-5.3-7.33c-0.12,0.01-0.3,0.01-0.55,0.01c-0.52,0-1.27-0.03-2.24-0.08v7.39h-3.42v-18.67
				c1.9-0.4,3.8-0.6,5.7-0.6c2.7,0,4.71,0.48,6.05,1.45c1.33,0.97,2,2.47,2,4.49c0.01,1.39-0.35,2.55-1.06,3.48
				c-0.72,0.93-1.75,1.6-3.11,2.02l5.74,7.83H502.91z M494.82,439.89c0.82,0.08,1.59,0.12,2.3,0.12c1.64,0,2.84-0.27,3.61-0.82
				c0.76-0.55,1.15-1.41,1.15-2.59c0-1.18-0.36-2.05-1.07-2.59c-0.72-0.54-1.84-0.81-3.38-0.81c-0.87,0-1.74,0.08-2.6,0.23V439.89z"
				/>
		</g>
		<g>
			<path class="st0" d="M510.49,449.95c-0.89-0.14-1.72-0.33-2.49-0.59v-2.82c0.79,0.27,1.64,0.47,2.56,0.61
				c0.92,0.14,1.78,0.21,2.6,0.21c1.36,0,2.36-0.23,2.99-0.68c0.63-0.46,0.95-1.12,0.95-2c0-0.5-0.1-0.91-0.29-1.24
				c-0.2-0.33-0.52-0.61-0.97-0.85c-0.45-0.24-1.08-0.46-1.89-0.67l-1.3-0.33c-1.7-0.42-2.97-1.07-3.8-1.94
				c-0.83-0.88-1.25-2.02-1.25-3.44c0-1.78,0.65-3.15,1.93-4.13c1.29-0.98,3.18-1.47,5.67-1.47c0.82,0,1.61,0.05,2.38,0.15
				c0.77,0.1,1.46,0.24,2.06,0.42v2.82c-0.63-0.19-1.31-0.33-2.04-0.44c-0.74-0.1-1.48-0.15-2.23-0.15c-1.5,0-2.59,0.23-3.28,0.68
				c-0.69,0.45-1.03,1.1-1.03,1.94c0,0.47,0.09,0.87,0.27,1.18c0.18,0.32,0.47,0.59,0.89,0.82c0.41,0.23,0.98,0.45,1.7,0.64
				l1.3,0.32c1.85,0.46,3.21,1.12,4.07,2c0.86,0.88,1.3,2.03,1.3,3.45c0,1.18-0.29,2.21-0.88,3.07s-1.44,1.51-2.55,1.96
				s-2.45,0.68-3.99,0.68C512.27,450.15,511.38,450.08,510.49,449.95z"/>
			<path class="st0" d="M523.28,449.91v-19.06h3.48v19.06H523.28z"/>
		</g>
		<g>
			<path class="st0" d="M535.01,449.91v-16.19h-6.2v-2.87h15.87v2.87h-6.2v16.19H535.01z"/>
		</g>
		<g>
			<path class="st0" d="M557.52,449.91l-1.81-5.49h-7.53l-1.81,5.49h-3.41l6.48-19.06h5.03l6.48,19.06H557.52z M549.09,441.67h5.71
				l-2.86-8.65L549.09,441.67z"/>
			<path class="st0" d="M574.62,449.91l-5.3-7.33c-0.12,0.01-0.3,0.01-0.55,0.01c-0.52,0-1.27-0.03-2.24-0.08v7.39h-3.42v-18.67
				c1.9-0.4,3.8-0.6,5.7-0.6c2.7,0,4.71,0.48,6.05,1.45c1.33,0.97,2,2.47,2,4.49c0.01,1.39-0.35,2.55-1.06,3.48
				c-0.72,0.93-1.75,1.6-3.11,2.02l5.74,7.83H574.62z M566.53,439.89c0.82,0.08,1.59,0.12,2.3,0.12c1.64,0,2.84-0.27,3.61-0.82
				c0.76-0.55,1.15-1.41,1.15-2.59c0-1.18-0.36-2.05-1.07-2.59c-0.72-0.54-1.84-0.81-3.38-0.81c-0.87,0-1.74,0.08-2.6,0.23V439.89z"
				/>
			<path class="st0" d="M580.71,449.91v-19.06h3.48v19.06H580.71z"/>
			<path class="st0" d="M600.89,449.91l-1.81-5.49h-7.53l-1.81,5.49h-3.41l6.48-19.06h5.03l6.48,19.06H600.89z M592.46,441.67h5.71
				l-2.86-8.65L592.46,441.67z"/>
		</g>
		<g>
			<path class="st0" d="M244.73,318.96c6.15-1.18,12.13-1.76,17.94-1.76c8.77,0,15.31,1.65,19.61,4.95c4.3,3.3,6.45,8.47,6.45,15.49
				c0,6.73-2.09,11.82-6.28,15.27c-4.19,3.45-10.34,5.18-18.45,5.18c-0.76,0-1.8-0.03-3.11-0.08l-1.59-0.04v15.46h-14.57V318.96z
				 M272.12,345.18c1.67-1.5,2.5-3.98,2.5-7.43c0-3.45-0.85-5.96-2.56-7.52c-1.71-1.56-4.38-2.34-8.02-2.34
				c-1.9,0-3.48,0.11-4.74,0.34v18.91c1.74,0.2,3.36,0.3,4.86,0.3C267.79,347.43,270.45,346.68,272.12,345.18z"/>
			<path class="st0" d="M301.59,368.16c-4-4.01-5.99-10.16-5.99-18.44v-31.81h14.57v33.17c0,3.95,0.84,6.83,2.52,8.65
				c1.68,1.81,4.23,2.72,7.64,2.72c3.41,0,5.96-0.91,7.63-2.72c1.67-1.81,2.5-4.7,2.5-8.65v-33.17h14.26v31.81
				c0,8.25-1.97,14.39-5.92,18.42c-3.94,4.03-10.1,6.04-18.47,6.04C311.84,374.18,305.59,372.18,301.59,368.16z"/>
			<path class="st0" d="M367.98,362.03h27.12v11.41h-41.5v-55.53h41.12v11.41h-26.74v10.05h22.84v11.41h-22.84V362.03z"/>
			<path class="st0" d="M439.14,317.91h13.66v55.53h-14.57l-22.19-33.99v33.99h-13.66v-55.53h14.57l22.19,33.99V317.91z"/>
			<path class="st0" d="M475.22,373.43V329.8h-17.34v-11.89h49.28v11.89h-17.34v43.63H475.22z"/>
			<path class="st0" d="M526.58,362.03h27.12v11.41h-41.5v-55.53h41.12v11.41h-26.74v10.05h22.84v11.41h-22.84V362.03z"/>
			<path class="st0" d="M567.53,373.55c-2.82-0.43-5.41-1.03-7.76-1.8v-11.59c2.33,0.78,4.97,1.39,7.93,1.84
				c2.96,0.45,5.73,0.68,8.31,0.68c3.29,0,5.63-0.44,7.04-1.31c1.4-0.87,2.11-2.15,2.11-3.83c0-0.92-0.2-1.69-0.61-2.31
				c-0.41-0.61-1.11-1.16-2.12-1.65c-1.01-0.49-2.47-0.98-4.36-1.48l-4.63-1.2c-5.06-1.23-8.85-3.17-11.38-5.83
				c-2.53-2.66-3.79-6.15-3.79-10.45c0-5.58,2.07-9.88,6.2-12.91c4.13-3.03,10.26-4.54,18.38-4.54c2.55,0,5.01,0.14,7.36,0.43
				c2.35,0.29,4.48,0.68,6.37,1.18v11.59c-1.74-0.53-3.75-0.94-6.03-1.24c-2.28-0.3-4.55-0.45-6.83-0.45
				c-4.02,0-6.86,0.45-8.52,1.35c-1.66,0.9-2.49,2.18-2.49,3.83c0,0.85,0.18,1.57,0.53,2.16c0.35,0.59,0.97,1.11,1.84,1.56
				c0.87,0.45,2.11,0.89,3.7,1.31l4.63,1.16c5.56,1.35,9.65,3.36,12.27,6.02c2.62,2.66,3.93,6.16,3.93,10.49
				c0,3.6-0.94,6.73-2.81,9.38c-1.87,2.65-4.57,4.69-8.1,6.12c-3.53,1.43-7.73,2.14-12.61,2.14
				C573.2,374.18,570.35,373.97,567.53,373.55z"/>
		</g>
		<path class="st1" d="M528.61,149.73c-5.09-54.87-51.86-97.99-108.65-97.99c-56.78,0-103.56,43.12-108.65,97.99H220v16.25h90.84
			h6.39h15.45v-6.32c0-47.6,39.15-86.32,87.28-86.32c48.13,0,87.28,38.72,87.28,86.32v6.32h11.19h10.64h90.84v-16.25H528.61z"/>
		<path class="st2" d="M400.19,226.42c-43.39-43.26-118.72-42.94-178.5-41.07v16.41c59.02-1.65,137.88-3.79,173.32,49.53
			c-42.68-38.31-116.5-37.36-173.32-35.82v19.65c60.37-1.93,143.46-3.55,175.42,55.32h49.06c31.92-58.86,115.1-57.25,175.43-55.32
			v-19.65c-56.93-1.53-130.56-2.5-173.32,35.82c35.38-53.3,114.38-51.18,173.32-49.53v-16.41c-60.69-1.89-137.08-2.19-180.24,42.85
			c-16.31,21.45-19.65,34.66-19.65,34.66C416.12,249.5,408.34,237.19,400.19,226.42"/>
	</g>
	<path class="st0" d="M396.33,544.22c-11.69-0.03-21.02-9.44-21-21.17c0.02-11.65,9.48-20.98,21.23-20.94
		c11.59,0.05,20.91,9.5,20.87,21.16C417.38,534.89,407.96,544.25,396.33,544.22z M392.96,536.98c1.87,0,3.59,0,5.51,0
		c0-4.52,0-8.97,0-13.53c1.34,0,2.49,0,3.72,0c0.13-1.54,0.24-2.97,0.37-4.54c-1.45,0-2.73,0-4.13,0c0-0.99,0.01-1.86,0-2.73
		c-0.01-0.88,0.41-1.3,1.3-1.28c0.91,0.02,1.81,0,2.73,0c0-1.68,0-3.2,0-4.72c-1.62,0-3.13-0.08-4.63,0.02
		c-3.26,0.21-4.82,1.91-4.86,5.18c-0.01,1.15,0,2.31,0,3.61c-1.03,0-1.88,0-2.7,0c0,1.59,0,3.03,0,4.58c0.92,0,1.74,0,2.7,0
		C392.96,528.09,392.96,532.5,392.96,536.98z M473.01,523.13c0.01-11.61,9.41-21.02,21.03-21.04c11.66-0.02,21.09,9.43,21.07,21.11
		c-0.02,11.68-9.45,21.06-21.15,21.03C482.36,544.21,473,534.78,473.01,523.13z M495.39,520.51c-4.09-0.24-7.27-2.03-9.98-5.01
		c-1.16,2.5-0.61,4.5,1.3,6.45c-0.8-0.18-1.34-0.3-1.96-0.44c0.14,2.33,1.4,3.72,3.61,4.77c-0.83,0.05-1.28,0.08-1.82,0.12
		c0.67,2.05,2.23,2.88,4.21,3.36c-1.96,1.53-4.12,1.97-6.73,1.97c0.54,0.34,0.8,0.53,1.07,0.67c8.18,4.14,18.02-0.73,19.72-9.75
		c0.51-2.7,0.68-3.1,2.26-5.2c0.06-0.09,0.09-0.2,0.17-0.39c-0.7,0.16-1.32,0.3-2.03,0.46c0.57-0.82,1.06-1.52,1.55-2.23
		c-0.78,0.08-1.34,0.39-1.94,0.51c-0.47,0.1-1.13,0.14-1.47-0.11c-1.78-1.29-3.64-1.55-5.53-0.48
		C495.87,516.31,495.12,518.1,495.39,520.51z M326.49,523.23c0.01-11.76,9.47-21.2,21.18-21.14c11.59,0.06,20.93,9.5,20.92,21.16
		c-0.01,11.6-9.47,21.03-21.06,21C335.87,544.21,326.48,534.83,326.49,523.23z M347.54,514.79L347.54,514.79
		c-2.68,0-5.36-0.01-8.04,0.01c-2.55,0.01-3.94,1.41-3.95,3.97c-0.01,2.93-0.01,5.86,0,8.79c0.01,2.58,1.39,3.98,3.94,3.99
		c5.36,0.02,10.72,0.02,16.08,0c2.56-0.01,3.92-1.39,3.94-3.99c0.02-2.93,0.02-5.86,0-8.79c-0.01-2.64-1.38-3.98-4.06-3.99
		C352.82,514.79,350.18,514.79,347.54,514.79z M345.22,527.15c2.29-1.51,4.43-2.92,6.72-4.43c-2.26-1.49-4.4-2.9-6.72-4.44
		C345.22,521.33,345.22,524.13,345.22,527.15z M445.12,544.21c-11.64-0.04-20.97-9.43-20.95-21.08
		c0.02-11.69,9.45-21.07,21.15-21.02c11.63,0.05,20.99,9.47,20.95,21.09C466.24,534.92,456.84,544.25,445.12,544.21z M457.54,523.68
		c-0.05,0-0.1,0-0.15-0.01c0-1.67,0.07-3.35-0.01-5.02c-0.2-4.28-2.3-6.8-6.46-7.06c-4-0.26-8.04-0.17-12.03,0.1
		c-3.16,0.21-5.4,2.46-5.58,5.65c-0.24,4.17-0.23,8.37,0,12.53c0.18,3.26,2.54,5.54,5.82,5.71c4.09,0.21,8.2,0.19,12.28-0.02
		c3.19-0.16,5.35-2.34,5.76-5.5C457.45,527.96,457.43,525.81,457.54,523.68z M445.31,513.71c1.63,0,3.27-0.05,4.9,0.01
		c3.15,0.11,4.84,1.72,4.92,4.84c0.09,3.35,0.08,6.7,0,10.05c-0.08,3.14-1.71,4.8-4.87,4.89c-3.35,0.09-6.7,0.09-10.05,0
		c-3.16-0.09-4.77-1.73-4.85-4.9c-0.09-3.35-0.08-6.7,0-10.05c0.07-3.06,1.74-4.7,4.8-4.82
		C441.87,513.66,443.59,513.71,445.31,513.71z M445.32,529.86c3.43-0.01,6.15-2.78,6.17-6.27c0.02-3.41-2.79-6.25-6.21-6.25
		c-3.5,0-6.35,2.84-6.3,6.29C439.03,527.18,441.78,529.88,445.32,529.86z M453.41,517.43c0-0.2,0.01-0.41,0.01-0.61
		c-0.54-0.38-1.03-0.98-1.62-1.1c-0.84-0.17-1.44,0.41-1.47,1.31c-0.04,0.94,0.49,1.62,1.43,1.47
		C452.34,518.4,452.86,517.81,453.41,517.43z M441.19,523.65c0.03,2.18,1.83,3.97,4.03,4c2.17,0.03,4.05-1.8,4.07-3.96
		c0.02-2.26-1.81-4.14-4.03-4.14C443.02,519.56,441.16,521.43,441.19,523.65z"/>
</g>
</svg>
