<svg version="1.2" xmlns="http://www.w3.org/2000/svg" viewBox="0 0 1500 468" width="1500" height="468">
	<title>logo-puentes-navbarMobile-svg</title>
	<style>
		.s0 { fill: #ffffff } 
		.s1 { fill: #585b5b } 
	</style>
	<g id="Layer">
		<g id="Layer">
			<path id="Layer" class="s0" d="m606.1 202.8v22.6h-126.6-14.8-15.6v-8.8c0-66.3-54.6-120.3-121.6-120.3-67.1 0-121.6 54-121.6 120.3v8.8h-21.6-8.9-126.5v-22.6h127.2c7.1-76.5 72.3-136.6 151.4-136.6 79.1 0 144.3 60.1 151.4 136.6z"/>
			<path id="Layer" class="s0" d="m329.9 360.4c0 0 4.7-18.4 27.4-48.3 60.2-62.8 166.6-62.3 251.2-59.7v22.9c-82.2-2.3-192.2-5.3-241.5 69 59.6-53.4 162.2-52.1 241.5-49.9v27.4c-84.1-2.8-200-5-244.5 77h-68.3c-44.6-82-160.3-79.7-244.5-77v-27.4c79.2-2.2 182.1-3.5 241.5 49.9-49.3-74.3-159.2-71.3-241.5-69v-22.9c83.3-2.6 188.3-3.1 248.8 57.2 11.3 15 22.1 32.2 29.9 50.8z"/>
		</g>
		<g id="Layer">
			<g id="Layer">
				<filter id="f0">
					<feFlood flood-color="#ffffff" flood-opacity="1" />
					<feBlend mode="normal" in2="SourceGraphic"/>
					<feComposite in2="SourceAlpha" operator="in" />
				</filter>
				<g id="Layer" filter="url(#f0)">
					<path id="Layer" fill-rule="evenodd" class="s0" d="m717.8 289q5.5-1.1 10.8-1.1 8.2 0 12.3 3.3 4 3.2 4 10.1 0 6.7-4 10.1-4.1 3.4-12.2 3.4-1.3 0-4.1-0.2v11.7h-6.8c0 0 0-37.3 0-37.3zm18.2 18.6q2.3-2 2.3-6.2 0-4.3-2.2-6.3-2.2-2-6.9-2-2.4 0-4.6 0.4v15.8q1.7 0.2 4.2 0.2 4.9 0 7.2-1.9z"/>
					<path id="Layer" fill-rule="evenodd" class="s0" d="m773.4 326.3l-10.4-14.6q-0.4 0-1.1 0-1.6 0-4.4-0.1v14.7h-6.8v-37.2q5.6-1.2 11.2-1.2 8 0 11.9 2.9 4 2.9 4 8.9 0 4.2-2.1 7-2.1 2.7-6.1 4l11.3 15.5zm-16-19.9q2.5 0.3 4.6 0.3 4.8 0 7.1-1.7 2.2-1.6 2.2-5.1 0-3.6-2.1-5.2-2.1-1.6-6.6-1.6-2.6 0-5.2 0.5c0 0 0 12.8 0 12.8z"/>
					<path id="Layer" fill-rule="evenodd" class="s0" d="m792 324.6q-3.9-2.1-6-6.4-2.1-4.4-2.1-10.9 0-6.5 2.1-10.9 2.1-4.3 6-6.4 3.8-2.1 9.1-2.1 5.2 0 9.1 2.1 3.8 2.1 5.9 6.4 2.1 4.4 2.1 10.9 0 6.5-2.1 10.9-2.1 4.3-6 6.4-3.8 2.2-9 2.2-5.3-0.1-9.1-2.2zm16.5-6.7q2.6-3.3 2.6-10.5 0-7.3-2.6-10.6-2.6-3.4-7.4-3.4-4.9 0-7.5 3.3-2.6 3.2-2.6 10.4 0 7.4 2.6 10.7 2.6 3.4 7.5 3.3 4.8 0.1 7.4-3.2z"/>
					<path id="Layer" class="s1" d="m852.8 307.8v18q-4.7 0.8-9 0.8-10.5 0-15.7-4.7-5.2-4.7-5.3-14.5 0-9.9 5.3-14.7 5.3-4.8 15.2-4.8 4.4 0 8.5 1v5.7q-3.9-1-7.9-1-4.7 0-7.8 1.4-3 1.3-4.6 4.4-1.5 3-1.5 8 0 7.1 3.2 10.3 3.3 3.3 10.1 3.3 1.4 0 3.1-0.2v-13c0 0 6.4 0 6.4 0z"/>
					<path id="Layer" fill-rule="evenodd" class="s1" d="m882.7 326.3l-10.4-14.6q-0.4 0-1.1 0-1.6 0-4.4-0.1v14.7h-6.8v-37.2q5.6-1.2 11.2-1.2 8 0 11.9 2.9 4 2.9 4 8.9 0 4.2-2.1 7-2.1 2.7-6.1 4l11.3 15.5zm-15.9-19.9q2.4 0.3 4.5 0.3 4.8 0 7.1-1.7 2.2-1.6 2.2-5.1 0-3.6-2.1-5.2-2.1-1.6-6.6-1.6-2.6 0-5.2 0.5c0 0 0 12.8 0.1 12.8z"/>
					<path id="Layer" fill-rule="evenodd" class="s1" d="m920 326.3l-3.5-11h-14.8l-3.6 10.9h-6.7l12.8-37.8h9.9l12.7 37.8zm-16.6-16.3h11.3l-5.7-17.2z"/>
					<path id="Layer" class="s1" d="m962.2 288.4h8.3v37.9h-6.4v-28.7l-10.4 23.3h-5.8l-10.4-22.7v28.1h-6.4v-37.9h8.3l11.5 25.5z"/>
					<path id="Layer" fill-rule="evenodd" class="s1" d="m1003.4 326.3l-3.5-11h-14.8l-3.6 10.9h-6.7l12.8-37.8h9.8l12.8 37.8zm-16.6-16.3h11.2l-5.6-17.2z"/>
					<path id="Layer" fill-rule="evenodd" class="s1" d="m1027.2 326v-36.9q2.5-0.5 5.5-0.9 3-0.3 5.7-0.3 10.1 0 15.2 4.8 5 4.7 5 14.6 0 6.7-2.4 11-2.3 4.3-7.1 6.3-4.8 2-12.1 2-4.9 0-9.8-0.6zm18.8-6.4q2.8-1.4 4.2-4.4 1.4-3 1.4-7.9 0-4.9-1.4-7.9-1.4-3-4.2-4.5-2.8-1.4-7.1-1.4-2.2 0-4.9 0.5v26.8q2 0.2 4.7 0.2 4.4 0 7.3-1.4z"/>
					<path id="Layer" class="s1" d="m1071.5 320.8l19-0.1v5.6h-25.8v-37.9h25.5v5.5h-18.7v10.2h16.1v5.5h-16.1z"/>
					<path id="Layer" class="s1" d="m1108.7 326.3v-37.9h6.9v37.8z"/>
					<path id="Layer" class="s1" d="m1148 288.4h6.4v37.9h-6.9l-18-27.7v27.7h-6.4v-37.9h6.9l18 27.6c0 0 0-27.6 0-27.6z"/>
					<path id="Layer" class="s1" d="m1170.7 326.3v-32.2h-12.2v-5.7h31.2v5.7h-12.1v32.1z"/>
					<path id="Layer" class="s1" d="m1200.6 320.8l19-0.1v5.6h-25.8l0.1-37.9h25.5v5.5h-18.8v10.2h16.2v5.5h-16.2z"/>
					<path id="Layer" class="s1" d="m1253.7 307.8v18q-4.8 0.8-9.1 0.8-10.5 0-15.7-4.7-5.1-4.7-5.2-14.5 0-9.9 5.3-14.7 5.2-4.8 15.2-4.8 4.4 0 8.5 1v5.7q-3.9-1-7.9-1-4.8 0-7.8 1.4-3 1.3-4.6 4.4-1.5 3-1.5 8 0 7.1 3.2 10.3 3.3 3.3 10 3.3 1.5 0 3.2-0.2v-13c0 0 6.4 0 6.4 0z"/>
					<path id="Layer" fill-rule="evenodd" class="s1" d="m1283.6 326.3l-10.5-14.6q-0.3 0-1 0-1.6 0-4.5-0.1v14.7h-6.7v-37.2q5.6-1.2 11.2-1.2 8 0 11.9 2.9 4 2.9 4 8.9 0 4.2-2.1 7-2.1 2.7-6.1 4l11.3 15.5zm-16-19.9q2.5 0.3 4.6 0.3 4.8 0 7.1-1.7 2.2-1.6 2.2-5.1 0-3.6-2.1-5.2-2.1-1.6-6.6-1.6-2.6 0-5.2 0.5c0 0 0 12.8 0 12.8z"/>
					<path id="Layer" fill-rule="evenodd" class="s1" d="m1320.9 326.3l-3.5-11h-14.8l-3.6 10.9h-6.7l12.7-37.8h9.9l12.8 37.8zm-16.6-16.3h11.2l-5.6-17.2z"/>
					<path id="Layer" class="s1" d="m1335.3 322.1q-4.8-4.7-4.8-14.7 0-9.8 5-14.7 4.9-4.8 14.3-4.8 4.2 0 8.1 0.9v5.7q-3.7-0.9-7.7-0.9-4.2 0-7 1.4-2.7 1.3-4.1 4.3-1.4 3.1-1.4 8 0 5 1.3 8 1.4 3.1 4.1 4.4 2.7 1.3 6.8 1.3 3.9 0 8-1.2v5.7q-1.9 0.6-4.1 0.9-2.2 0.3-4.4 0.3-9.2 0-14.1-4.6z"/>
					<path id="Layer" class="s1" d="m1362.8 326.3v-37.9h6.8v37.8z"/>
					<path id="Layer" fill-rule="evenodd" class="s1" d="m1383.7 324.6q-3.8-2.1-5.9-6.4-2.1-4.4-2.1-10.9 0-6.5 2.1-10.9 2.1-4.3 5.9-6.4 3.9-2.1 9.1-2.1 5.3 0 9.1 2.1 3.8 2.1 5.9 6.4 2.1 4.4 2.1 10.9 0 6.5-2.1 10.9-2.1 4.3-5.9 6.4-3.8 2.2-9.1 2.2-5.3-0.1-9.1-2.2zm16.6-6.7q2.6-3.3 2.6-10.5 0-7.3-2.6-10.6-2.6-3.4-7.5-3.4-4.9 0-7.5 3.3-2.6 3.2-2.6 10.4 0 7.4 2.6 10.7 2.6 3.4 7.5 3.3 4.9 0.1 7.5-3.2zm-10.5-32.6l4.5-7.6h7.1l-5.6 7.6z"/>
					<path id="Layer" class="s1" d="m1441 288.4h6.4v37.9h-6.9l-18-27.7v27.7h-6.5v-37.9h6.9l18.1 27.6c0 0 0-27.6 0-27.6z"/>
					<path id="Layer" class="s1" d="m728.4 387.7v-32.2h-12.1v-5.7h31.2v5.7h-12.2v32.2z"/>
					<path id="Layer" class="s1" d="m758.3 382.2h19v5.5h-25.7v-37.9h25.5v5.5h-18.8v10.3h16.2v5.5h-16.2z"/>
					<path id="Layer" fill-rule="evenodd" class="s1" d="m805.5 387.7l-10.4-14.5q-0.4 0-1.1 0-1.5 0-4.4-0.2v14.7h-6.7v-37.1q5.6-1.2 11.2-1.2 7.9 0 11.9 2.9 3.9 2.9 3.9 8.9 0 4.2-2.1 6.9-2.1 2.8-6.1 4.1l11.3 15.5zm-15.9-19.9q2.4 0.2 4.5 0.2 4.9 0 7.1-1.6 2.3-1.6 2.3-5.2 0-3.5-2.1-5.1-2.2-1.6-6.7-1.6-2.6 0-5.1 0.4c0 0 0 12.9 0 12.9z"/>
					<path id="Layer" fill-rule="evenodd" class="s1" d="m840.1 387.7l-10.4-14.5q-0.4 0-1.1 0-1.5 0-4.4-0.2v14.7h-6.7v-37.1q5.6-1.2 11.2-1.2 7.9 0 11.9 2.9 3.9 2.9 3.9 8.9 0 4.2-2.1 6.9-2.1 2.8-6.1 4.1l11.3 15.5zm-15.9-19.9q2.4 0.2 4.5 0.2 4.9 0 7.1-1.6 2.3-1.6 2.3-5.2 0-3.5-2.1-5.1-2.1-1.6-6.7-1.6-2.5 0-5.1 0.4c0 0 0 12.9 0 12.9z"/>
					<path id="Layer" class="s1" d="m852.1 387.7v-37.9h6.9v37.9z"/>
					<path id="Layer" class="s1" d="m875.2 387.7v-32.2h-12.2v-5.7h31.3v5.7h-12.2v32.2z"/>
					<path id="Layer" fill-rule="evenodd" class="s1" d="m905 386.1q-3.9-2.1-6-6.4-2.1-4.4-2-10.9 0-6.6 2-10.9 2.1-4.3 6-6.4 3.8-2.2 9.1-2.2 5.2 0 9.1 2.2 3.8 2.1 5.9 6.4 2.1 4.3 2.1 10.9 0 6.5-2.1 10.8-2.1 4.4-6 6.5-3.8 2.1-9 2.1-5.3 0-9.1-2.1zm16.5-6.7q2.6-3.3 2.6-10.5 0-7.4-2.6-10.7-2.6-3.3-7.4-3.3-4.9 0-7.5 3.3-2.6 3.2-2.6 10.4 0 7.4 2.6 10.7 2.6 3.3 7.5 3.3 4.9 0 7.4-3.2z"/>
					<path id="Layer" fill-rule="evenodd" class="s1" d="m959.9 387.7l-10.4-14.5q-0.4 0-1.1 0-1.5 0-4.4-0.2v14.7h-6.7v-37.1q5.6-1.2 11.2-1.2 7.9 0 11.9 2.9 3.9 2.9 3.9 8.9 0 4.2-2.1 6.9-2.1 2.8-6.1 4.1l11.3 15.5zm-15.9-19.9q2.4 0.2 4.5 0.2 4.9 0 7.1-1.6 2.3-1.6 2.3-5.2 0-3.5-2.2-5.1-2.1-1.6-6.6-1.6-2.6 0-5.1 0.4c0 0 0 12.9 0 12.9z"/>
					<path id="Layer" class="s1" d="m971.9 387.7v-37.9h6.8v37.9z"/>
					<path id="Layer" fill-rule="evenodd" class="s1" d="m1011.6 387.7l-3.6-10.9h-14.8l-3.5 10.9h-6.7l12.7-37.9h9.9l12.8 37.9zm-16.6-16.4h11.2l-5.6-17.2z"/>
					<path id="Layer" class="s1" d="m1022.6 387.7v-37.9h6.8v32.2h17.9v5.7z"/>
					<path id="Layer" class="s1" d="m1067.6 384.4q-3.7-3.9-3.7-11.9v-22.7h6.8v23.4q0 4.9 2.1 7.1 2 2.2 6.4 2.3 4.3-0.1 6.4-2.3 2-2.2 2-7.1v-23.4h6.7v22.7q0 8-3.6 11.9-3.7 3.8-11.5 3.8-7.9 0-11.6-3.8z"/>
					<path id="Layer" class="s1" d="m1126.6 349.8h6.4v37.9h-6.9l-18-27.6v27.6h-6.5v-37.9h7l18 27.7c0 0 0-27.7 0-27.7z"/>
					<path id="Layer" class="s1" d="m1140.5 387.7v-37.9h6.8v37.9z"/>
					<path id="Layer" class="s1" d="m1179.9 349.8h6.7l-12.7 37.9h-10l-12.7-37.9h7.1l10.8 32.7z"/>
					<path id="Layer" class="s1" d="m1197.2 382.2h19v5.5h-25.8l0.1-37.9h25.5v5.5h-18.8v10.3h16.2v5.5h-16.2z"/>
					<path id="Layer" fill-rule="evenodd" class="s1" d="m1244.4 387.7l-10.4-14.5q-0.4 0-1.1 0-1.5 0-4.4-0.2v14.7h-6.8v-37.1q5.6-1.2 11.3-1.2 7.9 0 11.9 2.9 3.9 2.9 3.9 8.9 0 4.2-2.1 6.9-2.1 2.8-6.1 4.1l11.3 15.5zm-15.9-19.9q2.4 0.2 4.5 0.2 4.8 0 7.1-1.6 2.2-1.6 2.2-5.2 0-3.5-2.1-5.1-2.1-1.6-6.6-1.6-2.6 0-5.1 0.4c0 0 0 12.9 0 12.9z"/>
					<path id="Layer" class="s1" d="m1259.9 387.8q-2.6-0.4-4.9-1.2v-5.6q2.3 0.8 5 1.2 2.7 0.4 5.2 0.4 4 0 5.8-1.3 1.9-1.4 1.9-4 0-1.5-0.6-2.4-0.5-1-1.9-1.7-1.3-0.8-3.7-1.4l-2.5-0.6q-5.1-1.3-7.5-3.9-2.5-2.6-2.5-6.8 0-5.3 3.8-8.3 3.8-2.9 11.2-2.9 2.4 0 4.6 0.3 2.3 0.3 4.1 0.8v5.6q-1.8-0.5-4-0.8-2.2-0.3-4.4-0.3-4.4 0-6.5 1.3-2 1.4-2 3.9 0 1.4 0.6 2.4 0.5 0.9 1.7 1.6 1.2 0.7 3.3 1.3l2.6 0.6q5.5 1.4 8 4 2.5 2.6 2.5 6.8 0 3.6-1.7 6.1-1.7 2.6-5 4-3.3 1.3-7.9 1.3-2.5 0-5.2-0.4z"/>
					<path id="Layer" class="s1" d="m1285.1 387.7v-37.9h6.8v37.9z"/>
					<path id="Layer" class="s1" d="m1308.2 387.7v-32.2h-12.2v-5.7h31.2v5.7h-12.2v32.2z"/>
					<path id="Layer" fill-rule="evenodd" class="s1" d="m1356.7 387.7l-3.5-10.9h-14.8l-3.6 10.9h-6.7l12.7-37.9h9.9l12.8 37.9zm-16.6-16.4h11.2l-5.6-17.2z"/>
					<path id="Layer" fill-rule="evenodd" class="s1" d="m1390.3 387.7l-10.4-14.5q-0.3 0-1.1 0-1.5 0-4.4-0.2v14.7h-6.7v-37.1q5.6-1.2 11.2-1.2 8 0 11.9 2.9 3.9 2.9 3.9 8.9 0.1 4.2-2 6.9-2.2 2.8-6.2 4.1l11.3 15.5zm-15.9-19.9q2.5 0.2 4.6 0.2 4.8 0 7.1-1.6 2.2-1.6 2.2-5.2 0-3.5-2.1-5.1-2.1-1.6-6.7-1.6-2.5 0-5.1 0.4c0 0 0 12.9 0 12.9z"/>
					<path id="Layer" class="s1" d="m1402.3 387.7v-37.9h6.9v37.9z"/>
					<path id="Layer" fill-rule="evenodd" class="s1" d="m1442 387.7l-3.5-10.9h-14.8l-3.6 10.9h-6.7l12.7-37.9h9.9l12.8 37.9zm-16.6-16.4h11.2l-5.6-17.2z"/>
				</g>
			</g>
			<filter id="f1">
				<feFlood flood-color="#ffffff" flood-opacity="1" />
				<feBlend mode="normal" in2="SourceGraphic"/>
				<feComposite in2="SourceAlpha" operator="in" />
			</filter>
			<g id="Layer" filter="url(#f1)">
				<g id="Layer">
					<path id="Layer" fill-rule="evenodd" class="s1" d="m735.6 127.6q18.3-3.5 35.6-3.5 26.1 0 38.9 9.8 12.8 9.8 12.8 30.7 0 20.1-12.4 30.3-12.5 10.3-36.6 10.3-2.3 0-6.2-0.2h-3.2v30.6h-28.9c0 0 0-108 0-108zm54.4 52q4.9-4.5 4.9-14.7 0-10.3-5-14.9-5.1-4.7-15.9-4.7-5.7 0-9.5 0.7v37.5q5.2 0.6 9.7 0.6 10.8 0 15.8-4.5z"/>
					<path id="Layer" class="s1" d="m848.4 225.2q-11.9-11.9-11.9-36.6v-63.1h28.9v65.8q0 11.8 5 17.1 5 5.4 15.2 5.4 10.2 0 15.1-5.4 5-5.4 5-17.1v-65.8h28.3v63.1q0 24.6-11.8 36.6-11.7 11.9-36.6 11.9-25.3 0-37.2-11.9z"/>
					<path id="Layer" class="s1" d="m980.1 213h53.8v22.6h-82.3v-110.1h81.6v22.6h-53.1v20h45.3v22.6h-45.3z"/>
					<path id="Layer" class="s1" d="m1121.3 125.5h27.1v110.1h-28.9l-44.1-67.4v67.4h-27.1v-110.1h29l44 67.4z"/>
					<path id="Layer" class="s1" d="m1192.8 235.6v-86.5h-34.4v-23.6h97.8v23.6h-34.4v86.5z"/>
					<path id="Layer" class="s1" d="m1294.7 213h53.8v22.6h-82.3v-110.1h81.6v22.6h-53.1v20h45.3v22.6h-45.3z"/>
					<path id="Layer" class="s1" d="m1375.9 235.9q-8.3-1.3-15.4-3.6v-23q7 2.3 15.8 3.7 8.8 1.3 16.5 1.3 9.7 0 13.9-2.6 4.2-2.6 4.2-7.6 0-2.8-1.2-4.6-1.2-1.8-4.2-3.3-3-1.4-8.7-2.9l-9.1-2.4q-15.1-3.6-22.6-11.6-7.5-7.9-7.5-20.7 0-16.6 12.3-25.6 12.3-9 36.4-9 7.6 0 14.6 0.9 7 0.8 12.7 2.3v23q-5.2-1.5-12-2.4-6.8-0.9-13.5-0.9-12 0-16.9 2.7-5 2.6-5 7.5 0 2.6 1.1 4.3 1 1.8 3.6 3.1 2.6 1.3 7.4 2.6l9.2 2.3q16.5 4 24.3 12 7.8 7.9 7.8 20.8 0 10.7-5.6 18.6-5.6 7.8-16 12.1-10.5 4.2-25.1 4.2-8.6 0-17-1.2z"/>
				</g>
			</g>
		</g>
	</g>
</svg>