<?xml version="1.0" encoding="utf-8"?>
<!-- Generator: Adobe Illustrator 26.0.1, SVG Export Plug-In . SVG Version: 6.00 Build 0)  -->
<svg version="1.1" id="Capa_1" xmlns="http://www.w3.org/2000/svg" xmlns:xlink="http://www.w3.org/1999/xlink" x="0px" y="0px"
	 viewBox="0 0 841.9 595.3" style="enable-background:new 0 0 841.9 595.3;" xml:space="preserve">
<style type="text/css">
	.st0{fill:#FFFFFF;}
	.st1{fill:#EB0084;}
	.st2{fill:#00AFC4;}
</style>
<g>
	<g>
		<g>
			<path class="st0" d="M244.7,319c6.1-1.2,12.1-1.8,17.9-1.8c8.8,0,15.3,1.6,19.6,5c4.3,3.3,6.5,8.5,6.5,15.5
				c0,6.7-2.1,11.8-6.3,15.3c-4.2,3.5-10.3,5.2-18.5,5.2c-0.8,0-1.8,0-3.1-0.1l-1.6,0v15.5h-14.6L244.7,319L244.7,319z M272.1,345.2
				c1.7-1.5,2.5-4,2.5-7.4c0-3.5-0.9-6-2.6-7.5s-4.4-2.3-8-2.3c-1.9,0-3.5,0.1-4.7,0.3v18.9c1.7,0.2,3.4,0.3,4.9,0.3
				C267.8,347.4,270.5,346.7,272.1,345.2z"/>
			<path class="st0" d="M301.6,368.2c-4-4-6-10.2-6-18.4v-31.8h14.6v33.2c0,4,0.8,6.8,2.5,8.6c1.7,1.8,4.2,2.7,7.6,2.7
				s6-0.9,7.6-2.7s2.5-4.7,2.5-8.6v-33.2h14.3v31.8c0,8.2-2,14.4-5.9,18.4c-3.9,4-10.1,6-18.5,6
				C311.8,374.2,305.6,372.2,301.6,368.2z"/>
			<path class="st0" d="M368,362h27.1v11.4h-41.5v-55.5h41.1v11.4H368v10h22.8v11.4H368V362z"/>
			<path class="st0" d="M439.1,317.9h13.7v55.5h-14.6l-22.2-34v34h-13.7v-55.5H417l22.2,34V317.9z"/>
			<path class="st0" d="M475.2,373.4v-43.6h-17.3v-11.9h49.3v11.9h-17.3v43.6H475.2z"/>
			<path class="st0" d="M526.6,362h27.1v11.4h-41.5v-55.5h41.1v11.4h-26.7v10h22.8v11.4h-22.8V362z"/>
			<path class="st0" d="M567.5,373.5c-2.8-0.4-5.4-1-7.8-1.8v-11.6c2.3,0.8,5,1.4,7.9,1.8c3,0.5,5.7,0.7,8.3,0.7
				c3.3,0,5.6-0.4,7-1.3c1.4-0.9,2.1-2.1,2.1-3.8c0-0.9-0.2-1.7-0.6-2.3c-0.4-0.6-1.1-1.2-2.1-1.6s-2.5-1-4.4-1.5l-4.6-1.2
				c-5.1-1.2-8.8-3.2-11.4-5.8c-2.5-2.7-3.8-6.1-3.8-10.5c0-5.6,2.1-9.9,6.2-12.9s10.3-4.5,18.4-4.5c2.5,0,5,0.1,7.4,0.4
				c2.3,0.3,4.5,0.7,6.4,1.2v11.6c-1.7-0.5-3.8-0.9-6-1.2s-4.5-0.5-6.8-0.5c-4,0-6.9,0.5-8.5,1.4c-1.7,0.9-2.5,2.2-2.5,3.8
				c0,0.9,0.2,1.6,0.5,2.2c0.3,0.6,1,1.1,1.8,1.6c0.9,0.5,2.1,0.9,3.7,1.3l4.6,1.2c5.6,1.4,9.7,3.4,12.3,6s3.9,6.2,3.9,10.5
				c0,3.6-0.9,6.7-2.8,9.4s-4.6,4.7-8.1,6.1c-3.5,1.4-7.7,2.1-12.6,2.1C573.2,374.2,570.3,374,567.5,373.5z"/>
		</g>
		<path class="st1" d="M528.6,149.7c-5.1-54.9-51.9-98-108.6-98c-56.8,0-103.6,43.1-108.6,98H220V166h90.8h6.4h15.5v-6.3
			c0-47.6,39.1-86.3,87.3-86.3s87.3,38.7,87.3,86.3v6.3h11.2h10.6h90.8v-16.2H528.6z"/>
		<path class="st2" d="M400.2,226.4c-43.4-43.3-118.7-42.9-178.5-41.1v16.4c59-1.6,137.9-3.8,173.3,49.5
			c-42.7-38.3-116.5-37.4-173.3-35.8v19.6c60.4-1.9,143.5-3.6,175.4,55.3h49.1c31.9-58.9,115.1-57.2,175.4-55.3v-19.6
			c-56.9-1.5-130.6-2.5-173.3,35.8c35.4-53.3,114.4-51.2,173.3-49.5v-16.4c-60.7-1.9-137.1-2.2-180.2,42.9
			c-16.3,21.4-19.6,34.7-19.6,34.7C416.1,249.5,408.3,237.2,400.2,226.4"/>
	</g>
	<path class="st0" d="M396.3,544.2c-11.7,0-21-9.4-21-21.2c0-11.6,9.5-21,21.2-20.9c11.6,0,20.9,9.5,20.9,21.2
		C417.4,534.9,408,544.2,396.3,544.2z M393,537c1.9,0,3.6,0,5.5,0c0-4.5,0-9,0-13.5c1.3,0,2.5,0,3.7,0c0.1-1.5,0.2-3,0.4-4.5
		c-1.5,0-2.7,0-4.1,0c0-1,0-1.9,0-2.7c0-0.9,0.4-1.3,1.3-1.3c0.9,0,1.8,0,2.7,0c0-1.7,0-3.2,0-4.7c-1.6,0-3.1-0.1-4.6,0
		c-3.3,0.2-4.8,1.9-4.9,5.2c0,1.2,0,2.3,0,3.6c-1,0-1.9,0-2.7,0c0,1.6,0,3,0,4.6c0.9,0,1.7,0,2.7,0C393,528.1,393,532.5,393,537z
		 M473,523.1c0-11.6,9.4-21,21-21c11.7,0,21.1,9.4,21.1,21.1c0,11.7-9.5,21.1-21.1,21C482.4,544.2,473,534.8,473,523.1z
		 M495.4,520.5c-4.1-0.2-7.3-2-10-5c-1.2,2.5-0.6,4.5,1.3,6.5c-0.8-0.2-1.3-0.3-2-0.4c0.1,2.3,1.4,3.7,3.6,4.8
		c-0.8,0-1.3,0.1-1.8,0.1c0.7,2,2.2,2.9,4.2,3.4c-2,1.5-4.1,2-6.7,2c0.5,0.3,0.8,0.5,1.1,0.7c8.2,4.1,18-0.7,19.7-9.8
		c0.5-2.7,0.7-3.1,2.3-5.2c0.1-0.1,0.1-0.2,0.2-0.4c-0.7,0.2-1.3,0.3-2,0.5c0.6-0.8,1.1-1.5,1.5-2.2c-0.8,0.1-1.3,0.4-1.9,0.5
		c-0.5,0.1-1.1,0.1-1.5-0.1c-1.8-1.3-3.6-1.5-5.5-0.5C495.9,516.3,495.1,518.1,495.4,520.5z M326.5,523.2c0-11.8,9.5-21.2,21.2-21.1
		c11.6,0.1,20.9,9.5,20.9,21.2c0,11.6-9.5,21-21.1,21C335.9,544.2,326.5,534.8,326.5,523.2z M347.5,514.8L347.5,514.8
		c-2.7,0-5.4,0-8,0c-2.5,0-3.9,1.4-4,4c0,2.9,0,5.9,0,8.8c0,2.6,1.4,4,3.9,4c5.4,0,10.7,0,16.1,0c2.6,0,3.9-1.4,3.9-4
		c0-2.9,0-5.9,0-8.8c0-2.6-1.4-4-4.1-4C352.8,514.8,350.2,514.8,347.5,514.8z M345.2,527.2c2.3-1.5,4.4-2.9,6.7-4.4
		c-2.3-1.5-4.4-2.9-6.7-4.4C345.2,521.3,345.2,524.1,345.2,527.2z M445.1,544.2c-11.6,0-21-9.4-21-21.1c0-11.7,9.5-21.1,21.1-21
		c11.6,0,21,9.5,21,21.1C466.2,534.9,456.8,544.2,445.1,544.2z M457.5,523.7c0,0-0.1,0-0.1,0c0-1.7,0.1-3.3,0-5
		c-0.2-4.3-2.3-6.8-6.5-7.1c-4-0.3-8-0.2-12,0.1c-3.2,0.2-5.4,2.5-5.6,5.6c-0.2,4.2-0.2,8.4,0,12.5c0.2,3.3,2.5,5.5,5.8,5.7
		c4.1,0.2,8.2,0.2,12.3,0c3.2-0.2,5.4-2.3,5.8-5.5C457.5,528,457.4,525.8,457.5,523.7z M445.3,513.7c1.6,0,3.3,0,4.9,0
		c3.1,0.1,4.8,1.7,4.9,4.8c0.1,3.3,0.1,6.7,0,10c-0.1,3.1-1.7,4.8-4.9,4.9c-3.4,0.1-6.7,0.1-10,0c-3.2-0.1-4.8-1.7-4.9-4.9
		c-0.1-3.3-0.1-6.7,0-10c0.1-3.1,1.7-4.7,4.8-4.8C441.9,513.7,443.6,513.7,445.3,513.7z M445.3,529.9c3.4,0,6.1-2.8,6.2-6.3
		c0-3.4-2.8-6.2-6.2-6.2c-3.5,0-6.4,2.8-6.3,6.3C439,527.2,441.8,529.9,445.3,529.9z M453.4,517.4c0-0.2,0-0.4,0-0.6
		c-0.5-0.4-1-1-1.6-1.1c-0.8-0.2-1.4,0.4-1.5,1.3c0,0.9,0.5,1.6,1.4,1.5C452.3,518.4,452.9,517.8,453.4,517.4z M441.2,523.7
		c0,2.2,1.8,4,4,4c2.2,0,4-1.8,4.1-4c0-2.3-1.8-4.1-4-4.1C443,519.6,441.2,521.4,441.2,523.7z"/>
</g>
<g>
	<g>
		<path class="st0" d="M236.4,400.1c1.9-0.4,3.7-0.5,5.5-0.5c2.8,0,4.8,0.5,6.2,1.6c1.4,1.1,2,2.8,2,5.1c0,2.2-0.7,3.9-2,5.1
			c-1.4,1.1-3.4,1.7-6.1,1.7c-0.4,0-1.1,0-2.1-0.1v5.9h-3.5V400.1z M245.6,409.5c0.8-0.7,1.1-1.7,1.1-3.1c0-1.4-0.4-2.5-1.1-3.2
			s-1.9-1-3.5-1c-0.8,0-1.6,0.1-2.3,0.2v8c0.6,0.1,1.3,0.1,2.1,0.1C243.6,410.5,244.8,410.1,245.6,409.5z"/>
		<path class="st0" d="M264.4,418.9l-5.3-7.4c-0.1,0-0.3,0-0.5,0c-0.5,0-1.3,0-2.2-0.1v7.4H253v-18.8c1.9-0.4,3.8-0.6,5.7-0.6
			c2.7,0,4.7,0.5,6,1.5c1.3,1,2,2.5,2,4.5c0,1.4-0.3,2.6-1.1,3.5c-0.7,0.9-1.7,1.6-3.1,2l5.7,7.9H264.4z M256.4,408.9
			c0.8,0.1,1.6,0.1,2.3,0.1c1.6,0,2.8-0.3,3.6-0.8c0.8-0.5,1.1-1.4,1.1-2.6c0-1.2-0.4-2.1-1.1-2.6c-0.7-0.5-1.8-0.8-3.4-0.8
			c-0.9,0-1.7,0.1-2.6,0.2V408.9z"/>
		<path class="st0" d="M273.8,418.1c-1.3-0.7-2.3-1.8-3-3.3c-0.7-1.5-1.1-3.3-1.1-5.5c0-2.2,0.4-4,1.1-5.5c0.7-1.5,1.7-2.5,3-3.3
			c1.3-0.7,2.8-1.1,4.6-1.1c1.8,0,3.3,0.4,4.6,1.1c1.3,0.7,2.3,1.8,3,3.3c0.7,1.5,1.1,3.3,1.1,5.5c0,2.2-0.4,4-1.1,5.5
			c-0.7,1.5-1.7,2.6-3,3.3c-1.3,0.7-2.8,1.1-4.6,1.1C276.6,419.2,275.1,418.8,273.8,418.1z M282.2,414.7c0.9-1.1,1.3-2.9,1.3-5.3
			c0-2.5-0.4-4.3-1.3-5.4c-0.9-1.1-2.1-1.7-3.8-1.7c-1.6,0-2.9,0.5-3.8,1.6c-0.9,1.1-1.3,2.9-1.3,5.3c0,2.5,0.4,4.3,1.3,5.4
			c0.9,1.1,2.1,1.7,3.8,1.7C280.1,416.3,281.3,415.8,282.2,414.7z"/>
		<path class="st0" d="M304.6,409.6v9.1c-1.6,0.3-3.1,0.4-4.6,0.4c-3.5,0-6.2-0.8-7.9-2.4c-1.7-1.6-2.6-4-2.6-7.4
			c0-3.3,0.9-5.8,2.7-7.4c1.8-1.6,4.3-2.4,7.7-2.4c1.5,0,2.9,0.2,4.3,0.5v2.9c-1.3-0.3-2.6-0.5-4-0.5c-1.6,0-2.9,0.2-3.9,0.7
			c-1,0.5-1.8,1.2-2.3,2.2c-0.5,1-0.8,2.4-0.8,4.1c0,2.4,0.5,4.1,1.6,5.2c1.1,1.1,2.8,1.6,5.1,1.6c0.5,0,1,0,1.6-0.1v-6.6H304.6z"/>
		<path class="st0" d="M319.6,418.9l-5.3-7.4c-0.1,0-0.3,0-0.5,0c-0.5,0-1.3,0-2.2-0.1v7.4h-3.4v-18.8c1.9-0.4,3.8-0.6,5.7-0.6
			c2.7,0,4.7,0.5,6,1.5c1.3,1,2,2.5,2,4.5c0,1.4-0.3,2.6-1.1,3.5c-0.7,0.9-1.7,1.6-3.1,2l5.7,7.9H319.6z M311.6,408.9
			c0.8,0.1,1.6,0.1,2.3,0.1c1.6,0,2.8-0.3,3.6-0.8c0.8-0.5,1.1-1.4,1.1-2.6c0-1.2-0.4-2.1-1.1-2.6c-0.7-0.5-1.8-0.8-3.4-0.8
			c-0.9,0-1.7,0.1-2.6,0.2V408.9z"/>
		<path class="st0" d="M338.5,418.9l-1.8-5.5h-7.5l-1.8,5.5H324l6.4-19.1h5l6.4,19.1H338.5z M330.1,410.6h5.7L333,402L330.1,410.6z"
			/>
		<path class="st0" d="M359.8,399.8h4.2v19.1h-3.2v-14.5l-5.3,11.7h-2.9l-5.3-11.5v14.2h-3.2v-19.1h4.2l5.8,12.9L359.8,399.8z"/>
		<path class="st0" d="M380.6,418.9l-1.8-5.5h-7.5l-1.8,5.5h-3.4l6.4-19.1h5l6.4,19.1H380.6z M372.2,410.6h5.7l-2.8-8.7L372.2,410.6
			z"/>
		<path class="st0" d="M392.6,418.8v-18.6c0.9-0.2,1.8-0.3,2.8-0.4c1-0.1,2-0.2,2.9-0.2c3.4,0,5.9,0.8,7.6,2.4s2.6,4.1,2.6,7.4
			c0,2.3-0.4,4.1-1.2,5.6s-2,2.5-3.6,3.2c-1.6,0.7-3.6,1-6.1,1C395.9,419.1,394.3,419,392.6,418.8z M402.1,415.6
			c1-0.5,1.7-1.2,2.1-2.2c0.5-1,0.7-2.3,0.7-4c0-1.6-0.2-3-0.7-4c-0.5-1-1.2-1.8-2.1-2.2s-2.1-0.7-3.6-0.7c-0.7,0-1.5,0.1-2.4,0.2
			v13.5c0.7,0.1,1.5,0.1,2.4,0.1C399.9,416.3,401.1,416,402.1,415.6z"/>
		<path class="st0" d="M415,416.1h9.6v2.8h-13v-19.1h12.9v2.8H415v5.2h8.2v2.8H415V416.1z"/>
		<path class="st0" d="M433.8,418.9v-19.1h3.5v19.1H433.8z"/>
		<path class="st0" d="M453.6,399.8h3.2v19.1h-3.5l-9.1-14v14H441v-19.1h3.5l9.1,14V399.8z"/>
		<path class="st0" d="M465.1,418.9v-16.3h-6.2v-2.9h15.8v2.9h-6.2v16.3H465.1z"/>
		<path class="st0" d="M480.2,416.1h9.6v2.8h-13v-19.1h12.9v2.8h-9.5v5.2h8.2v2.8h-8.2V416.1z"/>
		<path class="st0" d="M507,409.6v9.1c-1.6,0.3-3.1,0.4-4.6,0.4c-3.5,0-6.2-0.8-7.9-2.4s-2.6-4-2.6-7.4c0-3.3,0.9-5.8,2.7-7.4
			c1.8-1.6,4.3-2.4,7.7-2.4c1.5,0,2.9,0.2,4.3,0.5v2.9c-1.3-0.3-2.6-0.5-4-0.5c-1.6,0-2.9,0.2-3.9,0.7c-1,0.5-1.8,1.2-2.3,2.2
			c-0.5,1-0.8,2.4-0.8,4.1c0,2.4,0.5,4.1,1.6,5.2c1.1,1.1,2.8,1.6,5.1,1.6c0.5,0,1,0,1.6-0.1v-6.6H507z"/>
		<path class="st0" d="M522.1,418.9l-5.3-7.4c-0.1,0-0.3,0-0.5,0c-0.5,0-1.3,0-2.2-0.1v7.4h-3.4v-18.8c1.9-0.4,3.8-0.6,5.7-0.6
			c2.7,0,4.7,0.5,6,1.5c1.3,1,2,2.5,2,4.5c0,1.4-0.3,2.6-1.1,3.5c-0.7,0.9-1.7,1.6-3.1,2l5.7,7.9H522.1z M514,408.9
			c0.8,0.1,1.6,0.1,2.3,0.1c1.6,0,2.8-0.3,3.6-0.8c0.8-0.5,1.1-1.4,1.1-2.6c0-1.2-0.4-2.1-1.1-2.6c-0.7-0.5-1.8-0.8-3.4-0.8
			c-0.9,0-1.7,0.1-2.6,0.2V408.9z"/>
		<path class="st0" d="M540.9,418.9l-1.8-5.5h-7.5l-1.8,5.5h-3.4l6.4-19.1h5l6.4,19.1H540.9z M532.5,410.6h5.7l-2.8-8.7L532.5,410.6
			z"/>
		<path class="st0" d="M548.2,416.8c-1.6-1.6-2.4-4-2.4-7.4c0-3.3,0.8-5.8,2.5-7.4c1.7-1.6,4.1-2.5,7.2-2.5c1.4,0,2.8,0.2,4.1,0.5
			v2.9c-1.2-0.3-2.5-0.5-3.9-0.5c-1.4,0-2.6,0.2-3.5,0.7c-0.9,0.5-1.6,1.2-2.1,2.2c-0.5,1-0.7,2.3-0.7,4c0,1.7,0.2,3,0.7,4.1
			s1.2,1.8,2.1,2.2c0.9,0.4,2.1,0.7,3.4,0.7c1.3,0,2.6-0.2,4-0.6v2.9c-0.6,0.2-1.3,0.4-2.1,0.5c-0.7,0.1-1.5,0.2-2.2,0.2
			C552.2,419.2,549.8,418.4,548.2,416.8z"/>
		<path class="st0" d="M562.1,418.9v-19.1h3.5v19.1H562.1z"/>
		<path class="st0" d="M572.6,418.1c-1.3-0.7-2.3-1.8-3-3.3c-0.7-1.5-1.1-3.3-1.1-5.5c0-2.2,0.4-4,1.1-5.5c0.7-1.5,1.7-2.5,3-3.3
			s2.8-1.1,4.6-1.1c1.8,0,3.3,0.4,4.6,1.1c1.3,0.7,2.3,1.8,3,3.3c0.7,1.5,1.1,3.3,1.1,5.5c0,2.2-0.4,4-1.1,5.5
			c-0.7,1.5-1.7,2.6-3,3.3c-1.3,0.7-2.8,1.1-4.6,1.1C575.5,419.2,573.9,418.8,572.6,418.1z M581,414.7c0.9-1.1,1.3-2.9,1.3-5.3
			c0-2.5-0.4-4.3-1.3-5.4c-0.9-1.1-2.1-1.7-3.8-1.7s-2.9,0.5-3.8,1.6s-1.3,2.9-1.3,5.3c0,2.5,0.4,4.3,1.3,5.4
			c0.9,1.1,2.1,1.7,3.8,1.7S580.1,415.8,581,414.7z M575.7,398.2l2.3-3.8h3.6l-2.8,3.8H575.7z"/>
		<path class="st0" d="M601.5,399.8h3.2v19.1h-3.5l-9.1-14v14h-3.3v-19.1h3.5l9.1,14V399.8z"/>
		<path class="st0" d="M241.8,450v-16.3h-6.2v-2.9h15.8v2.9h-6.2V450H241.8z"/>
		<path class="st0" d="M256.8,447.2h9.6v2.8h-13v-19.1h12.9v2.8h-9.5v5.2h8.2v2.8h-8.2V447.2z"/>
		<path class="st0" d="M280.7,450l-5.3-7.4c-0.1,0-0.3,0-0.5,0c-0.5,0-1.3,0-2.2-0.1v7.4h-3.4v-18.8c1.9-0.4,3.8-0.6,5.7-0.6
			c2.7,0,4.7,0.5,6,1.5c1.3,1,2,2.5,2,4.5c0,1.4-0.3,2.6-1.1,3.5c-0.7,0.9-1.7,1.6-3.1,2l5.7,7.9H280.7z M272.6,439.9
			c0.8,0.1,1.6,0.1,2.3,0.1c1.6,0,2.8-0.3,3.6-0.8c0.8-0.5,1.1-1.4,1.1-2.6c0-1.2-0.4-2.1-1.1-2.6c-0.7-0.5-1.8-0.8-3.4-0.8
			c-0.9,0-1.7,0.1-2.6,0.2V439.9z"/>
		<path class="st0" d="M298.2,450l-5.3-7.4c-0.1,0-0.3,0-0.5,0c-0.5,0-1.3,0-2.2-0.1v7.4h-3.4v-18.8c1.9-0.4,3.8-0.6,5.7-0.6
			c2.7,0,4.7,0.5,6,1.5c1.3,1,2,2.5,2,4.5c0,1.4-0.3,2.6-1.1,3.5c-0.7,0.9-1.7,1.6-3.1,2l5.7,7.9H298.2z M290.1,439.9
			c0.8,0.1,1.6,0.1,2.3,0.1c1.6,0,2.8-0.3,3.6-0.8c0.8-0.5,1.1-1.4,1.1-2.6c0-1.2-0.4-2.1-1.1-2.6c-0.7-0.5-1.8-0.8-3.4-0.8
			c-0.9,0-1.7,0.1-2.6,0.2V439.9z"/>
		<path class="st0" d="M304.2,450v-19.1h3.5V450H304.2z"/>
		<path class="st0" d="M315.9,450v-16.3h-6.2v-2.9h15.8v2.9h-6.2V450H315.9z"/>
		<path class="st0" d="M330.9,449.1c-1.3-0.7-2.3-1.8-3-3.3c-0.7-1.5-1.1-3.3-1.1-5.5c0-2.2,0.4-4,1.1-5.5c0.7-1.5,1.7-2.5,3-3.3
			c1.3-0.7,2.8-1.1,4.6-1.1c1.8,0,3.3,0.4,4.6,1.1c1.3,0.7,2.3,1.8,3,3.3c0.7,1.5,1.1,3.3,1.1,5.5c0,2.2-0.4,4-1.1,5.5
			c-0.7,1.5-1.7,2.6-3,3.3c-1.3,0.7-2.8,1.1-4.6,1.1C333.7,450.2,332.2,449.8,330.9,449.1z M339.3,445.7c0.9-1.1,1.3-2.9,1.3-5.3
			c0-2.5-0.4-4.3-1.3-5.4c-0.9-1.1-2.1-1.7-3.8-1.7c-1.6,0-2.9,0.5-3.8,1.6c-0.9,1.1-1.3,2.9-1.3,5.3c0,2.5,0.4,4.3,1.3,5.4
			c0.9,1.1,2.1,1.7,3.8,1.7C337.1,447.4,338.4,446.8,339.3,445.7z"/>
		<path class="st0" d="M358.6,450l-5.3-7.4c-0.1,0-0.3,0-0.5,0c-0.5,0-1.3,0-2.2-0.1v7.4h-3.4v-18.8c1.9-0.4,3.8-0.6,5.7-0.6
			c2.7,0,4.7,0.5,6,1.5c1.3,1,2,2.5,2,4.5c0,1.4-0.3,2.6-1.1,3.5c-0.7,0.9-1.7,1.6-3.1,2l5.7,7.9H358.6z M350.6,439.9
			c0.8,0.1,1.6,0.1,2.3,0.1c1.6,0,2.8-0.3,3.6-0.8c0.8-0.5,1.1-1.4,1.1-2.6c0-1.2-0.4-2.1-1.1-2.6c-0.7-0.5-1.8-0.8-3.4-0.8
			c-0.9,0-1.7,0.1-2.6,0.2V439.9z"/>
		<path class="st0" d="M364.7,450v-19.1h3.5V450H364.7z"/>
		<path class="st0" d="M384.7,450l-1.8-5.5h-7.5l-1.8,5.5h-3.4l6.4-19.1h5l6.4,19.1H384.7z M376.4,441.7h5.7l-2.8-8.7L376.4,441.7z"
			/>
		<path class="st0" d="M390.3,450v-19.1h3.5v16.3h9v2.9H390.3z"/>
		<path class="st0" d="M413,448.3c-1.2-1.3-1.9-3.3-1.9-6v-11.5h3.5v11.8c0,1.6,0.3,2.8,1,3.6c0.7,0.8,1.8,1.1,3.2,1.1
			c1.5,0,2.5-0.4,3.2-1.1c0.7-0.8,1-2,1-3.6v-11.8h3.4v11.5c0,2.7-0.6,4.7-1.8,6s-3.2,1.9-5.8,1.9
			C416.2,450.2,414.2,449.6,413,448.3z"/>
		<path class="st0" d="M442.8,430.8h3.2V450h-3.5l-9.1-14v14h-3.3v-19.1h3.5l9.1,14V430.8z"/>
		<path class="st0" d="M449.8,450v-19.1h3.5V450H449.8z"/>
		<path class="st0" d="M469.7,430.8h3.4l-6.4,19.1h-5.1l-6.4-19.1h3.6l5.4,16.5L469.7,430.8z"/>
		<path class="st0" d="M478.5,447.2h9.6v2.8h-13v-19.1h12.9v2.8h-9.5v5.2h8.2v2.8h-8.2V447.2z"/>
		<path class="st0" d="M502.3,450l-5.3-7.4c-0.1,0-0.3,0-0.5,0c-0.5,0-1.3,0-2.2-0.1v7.4h-3.4v-18.8c1.9-0.4,3.8-0.6,5.7-0.6
			c2.7,0,4.7,0.5,6,1.5c1.3,1,2,2.5,2,4.5c0,1.4-0.3,2.6-1.1,3.5c-0.7,0.9-1.7,1.6-3.1,2l5.7,7.9H502.3z M494.3,439.9
			c0.8,0.1,1.6,0.1,2.3,0.1c1.6,0,2.8-0.3,3.6-0.8c0.8-0.5,1.1-1.4,1.1-2.6c0-1.2-0.4-2.1-1.1-2.6c-0.7-0.5-1.8-0.8-3.4-0.8
			c-0.9,0-1.7,0.1-2.6,0.2V439.9z"/>
		<path class="st0" d="M510.1,450c-0.9-0.1-1.7-0.3-2.5-0.6v-2.8c0.8,0.3,1.6,0.5,2.5,0.6c0.9,0.1,1.8,0.2,2.6,0.2
			c1.4,0,2.3-0.2,3-0.7c0.6-0.5,0.9-1.1,0.9-2c0-0.5-0.1-0.9-0.3-1.2c-0.2-0.3-0.5-0.6-1-0.9c-0.4-0.2-1.1-0.5-1.9-0.7l-1.3-0.3
			c-1.7-0.4-2.9-1.1-3.8-2c-0.8-0.9-1.2-2-1.2-3.5c0-1.8,0.6-3.2,1.9-4.2c1.3-1,3.2-1.5,5.6-1.5c0.8,0,1.6,0,2.4,0.1
			c0.8,0.1,1.4,0.2,2,0.4v2.8c-0.6-0.2-1.3-0.3-2-0.4s-1.5-0.2-2.2-0.2c-1.5,0-2.6,0.2-3.3,0.7c-0.7,0.5-1,1.1-1,2
			c0,0.5,0.1,0.9,0.3,1.2s0.5,0.6,0.9,0.8c0.4,0.2,1,0.4,1.7,0.6l1.3,0.3c1.8,0.5,3.2,1.1,4,2c0.9,0.9,1.3,2,1.3,3.5
			c0,1.2-0.3,2.2-0.9,3.1s-1.4,1.5-2.5,2c-1.1,0.5-2.4,0.7-4,0.7C511.9,450.2,511,450.1,510.1,450z"/>
		<path class="st0" d="M522.8,450v-19.1h3.5V450H522.8z"/>
		<path class="st0" d="M534.5,450v-16.3h-6.2v-2.9h15.8v2.9H538V450H534.5z"/>
		<path class="st0" d="M559,450l-1.8-5.5h-7.5l-1.8,5.5h-3.4l6.4-19.1h5l6.4,19.1H559z M550.6,441.7h5.7l-2.8-8.7L550.6,441.7z"/>
		<path class="st0" d="M576,450l-5.3-7.4c-0.1,0-0.3,0-0.5,0c-0.5,0-1.3,0-2.2-0.1v7.4h-3.4v-18.8c1.9-0.4,3.8-0.6,5.7-0.6
			c2.7,0,4.7,0.5,6,1.5c1.3,1,2,2.5,2,4.5c0,1.4-0.3,2.6-1.1,3.5c-0.7,0.9-1.7,1.6-3.1,2l5.7,7.9H576z M567.9,439.9
			c0.8,0.1,1.6,0.1,2.3,0.1c1.6,0,2.8-0.3,3.6-0.8c0.8-0.5,1.1-1.4,1.1-2.6c0-1.2-0.4-2.1-1.1-2.6c-0.7-0.5-1.8-0.8-3.4-0.8
			c-0.9,0-1.7,0.1-2.6,0.2V439.9z"/>
		<path class="st0" d="M582,450v-19.1h3.5V450H582z"/>
		<path class="st0" d="M602.1,450l-1.8-5.5h-7.5L591,450h-3.4l6.4-19.1h5l6.4,19.1H602.1z M593.7,441.7h5.7l-2.8-8.7L593.7,441.7z"
			/>
	</g>
</g>
</svg>
