<svg version="1.2" xmlns="http://www.w3.org/2000/svg" viewBox="0 0 842 596" width="842" height="596">
	<title>LogoPuentesPrograma-svg</title>
	<style>
		.s0 { fill: #ffffff } 
		.s1 { fill: #eb0084 } 
		.s2 { fill: #00afc4 } 
	</style>
	<g id="Layer">
		<g id="Layer">
			<g id="Layer">
				<path id="Layer" fill-rule="evenodd" class="s0" d="m158.8 398c9.1-1.8 18-2.7 26.6-2.7 13.1 0 22.8 2.4 29.2 7.5 6.4 4.9 9.7 12.6 9.7 23.1q0 14.9-9.4 22.7c-6.2 5.3-15.3 7.8-27.5 7.8-1.2 0-2.7 0-4.6-0.2h-2.4v23.1h-21.8zm40.8 39c2.6-2.2 3.8-5.9 3.8-11 0-5.2-1.4-8.9-3.9-11.2-2.6-2.2-6.6-3.4-11.9-3.4-2.9 0-5.2 0.2-7 0.5v28.1c2.5 0.3 5 0.5 7.3 0.5 5.3-0.2 9.3-1.2 11.7-3.5z"/>
				<path id="Layer" class="s0" d="m243.5 471.3c-6-6-8.9-15.2-8.9-27.4v-47.4h21.7v49.5c0 5.9 1.2 10.1 3.7 12.8 2.6 2.7 6.3 4 11.4 4 5 0 8.9-1.3 11.3-4 2.4-2.7 3.7-7 3.7-12.8v-49.5h21.3v47.4c0 12.2-3 21.4-8.8 27.4-5.8 5.9-15 8.9-27.5 8.9-12.7 0-21.9-3-27.9-8.9z"/>
				<path id="Layer" class="s0" d="m342.4 462.1h40.3v16.9h-61.8v-82.6h61.2v17h-39.7v14.8h33.9v17h-33.9z"/>
				<path id="Layer" class="s0" d="m448.2 396.4h20.4v82.6h-21.7l-33-50.6v50.6h-20.4v-82.6h21.8l33.1 50.6v-50.6z"/>
				<path id="Layer" class="s0" d="m502 479v-64.9h-25.8v-17.7h73.5v17.7h-25.8v64.9z"/>
				<path id="Layer" class="s0" d="m578.5 462.1h40.4v16.9h-61.8v-82.6h61.2v17h-39.8v14.8h34v17h-34z"/>
				<path id="Layer" class="s0" d="m639.4 479.2q-6.2-0.9-11.6-2.7v-17.3c3.5 1.2 7.5 2.1 11.8 2.7 4.5 0.7 8.5 1 12.4 1 4.9 0 8.3-0.6 10.4-1.9 2.1-1.3 3.1-3.1 3.1-5.7 0-1.3-0.3-2.5-0.9-3.4-0.6-0.9-1.6-1.8-3.1-2.4-1.5-0.6-3.7-1.4-6.6-2.2l-6.8-1.8c-7.6-1.8-13.1-4.7-17-8.6-3.7-4-5.7-9.1-5.7-15.6 0-8.4 3.2-14.8 9.3-19.3 6.1-4.4 15.3-6.7 27.4-6.7 3.7 0 7.4 0.2 11 0.6 3.4 0.5 6.7 1.1 9.5 1.8v17.3c-2.5-0.7-5.6-1.3-8.9-1.8-3.3-0.4-6.7-0.7-10.1-0.7-6 0-10.3 0.7-12.7 2-2.5 1.4-3.7 3.3-3.7 5.7 0 1.3 0.3 2.4 0.7 3.3 0.5 0.9 1.5 1.6 2.7 2.4 1.4 0.7 3.1 1.3 5.5 1.9l6.9 1.8q12.5 3.1 18.3 8.9c3.9 3.9 5.8 9.3 5.8 15.7 0 5.3-1.3 9.9-4.2 14-2.8 4-6.8 7-12 9q-7.8 3.2-18.8 3.2c-4.2-0.2-8.5-0.5-12.7-1.2z"/>
			</g>
			<path id="Layer" class="s1" d="m581.5 146.1h136v24.1h-135.2-15.8-16.7v-9.4c0-70.9-58.2-128.5-130-128.5-71.8 0-130 57.6-130 128.5v9.4h-23.1-9.5-135.2v-24.3h136.1c7.4-81.7 77.1-145.9 161.7-145.9 84.4 0 154.1 64.2 161.7 145.9z"/>
			<path id="Layer" class="s2" d="m422.5 314.5c0 0 4.9-19.8 29.2-51.7 64.2-67.1 177.9-66.7 268.3-63.9v24.5c-87.7-2.6-205.3-5.7-258.1 73.7 63.6-57.1 173.4-55.6 258.1-53.3v29.1c-89.8-2.8-213.7-5.3-261.2 82.4h-73.1c-47.5-87.7-171.2-85.2-261.2-82.4v-29.1c84.6-2.4 194.5-3.8 258.1 53.3-52.7-79.4-170.2-76.1-258.1-73.7v-24.5c89.1-2.6 201.2-3.2 265.8 61.2 12.1 16.1 23.7 34.4 32.2 54.4z"/>
		</g>
	</g>
	<g id="Layer">
		<g id="Layer">
			<path id="Layer" fill-rule="evenodd" class="s0" d="m147 519.7c2.8-0.6 5.5-0.8 8.2-0.8 4.2 0 7.2 0.8 9.2 2.4 2.1 1.7 3 4.2 3 7.6 0 3.3-1 5.8-3 7.6-2 1.6-5 2.5-9 2.5-0.6 0-1.7 0-3.2-0.1v8.8h-5.2zm13.7 14c1.2-1.1 1.7-2.6 1.7-4.6 0-2.1-0.6-3.8-1.7-4.8-1-1.1-2.8-1.5-5.2-1.5-1.2 0-2.4 0.1-3.4 0.3v11.9c0.9 0.2 1.9 0.2 3.1 0.2 2.5 0 4.3-0.6 5.5-1.5z"/>
			<path id="Layer" fill-rule="evenodd" class="s0" d="m188.7 547.7l-7.9-11c-0.1 0-0.4 0-0.7 0-0.8 0-2 0-3.3-0.2v11h-5.1v-28q4.4-0.9 8.5-0.9 6.1 0 9 2.3c1.9 1.5 2.9 3.7 2.9 6.7 0 2.1-0.4 3.8-1.6 5.2-1 1.3-2.5 2.4-4.6 3l8.5 11.7h-5.7zm-11.9-14.9c1.2 0.2 2.4 0.2 3.4 0.2 2.4 0 4.2-0.5 5.4-1.2 1.2-0.8 1.6-2.1 1.6-3.9 0-1.8-0.6-3.1-1.6-3.9-1.1-0.7-2.7-1.1-5.1-1.1-1.3 0-2.5 0.1-3.9 0.3v9.6z"/>
			<path id="Layer" fill-rule="evenodd" class="s0" d="m202.7 546.5q-2.8-1.5-4.5-4.9c-1-2.3-1.6-4.9-1.6-8.2 0-3.3 0.6-6 1.6-8.2 1.1-2.2 2.6-3.7 4.5-4.9 1.9-1.1 4.2-1.7 6.9-1.7 2.6 0 4.9 0.6 6.8 1.7q3 1.5 4.5 4.9c1 2.2 1.6 4.9 1.6 8.2 0 3.3-0.6 5.9-1.6 8.2q-1.5 3.4-4.5 4.9c-1.9 1-4.2 1.6-6.8 1.6-2.7 0-5-0.6-6.9-1.6zm12.5-5.1c1.4-1.6 1.9-4.3 1.9-7.9 0-3.7-0.5-6.4-1.9-8-1.3-1.7-3.1-2.5-5.6-2.5-2.4 0-4.4 0.7-5.7 2.3-1.3 1.7-1.9 4.4-1.9 7.9 0 3.7 0.6 6.4 1.9 8.1 1.3 1.6 3.1 2.5 5.7 2.5 2.5 0 4.3-0.7 5.6-2.4z"/>
			<path id="Layer" class="s0" d="m248.6 533.8v13.6c-2.4 0.4-4.6 0.6-6.9 0.6-5.2 0-9.2-1.2-11.7-3.6-2.6-2.4-3.9-6-3.9-11 0-4.9 1.3-8.7 4-11 2.7-2.4 6.4-3.6 11.5-3.6 2.2 0 4.3 0.3 6.4 0.7v4.3c-2-0.4-3.9-0.7-6-0.7-2.4 0-4.3 0.3-5.8 1-1.5 0.8-2.7 1.8-3.4 3.3-0.8 1.5-1.2 3.6-1.2 6.1 0 3.6 0.7 6.1 2.4 7.8 1.6 1.6 4.1 2.3 7.6 2.3 0.7 0 1.5 0 2.4-0.1v-9.8h4.6z"/>
			<path id="Layer" fill-rule="evenodd" class="s0" d="m270.9 547.7l-7.9-11c-0.1 0-0.4 0-0.7 0-0.8 0-2 0-3.3-0.2v11h-5.1v-28q4.3-0.9 8.5-0.9 6.1 0 9 2.3c1.9 1.5 2.9 3.7 2.9 6.7 0 2.1-0.4 3.8-1.6 5.2-1.1 1.3-2.5 2.4-4.6 3l8.5 11.7h-5.7zm-11.9-14.9c1.2 0.2 2.4 0.2 3.4 0.2 2.4 0 4.2-0.5 5.4-1.2 1.2-0.8 1.6-2.1 1.6-3.9 0-1.8-0.6-3.1-1.6-3.9-1.1-0.7-2.7-1.1-5.1-1.1-1.3 0-2.5 0.1-3.9 0.3v9.6z"/>
			<path id="Layer" fill-rule="evenodd" class="s0" d="m299 547.7l-2.6-8.2h-11.2l-2.7 8.2h-5l9.5-28.5h7.4l9.6 28.5zm-12.5-12.4h8.4l-4.1-12.8z"/>
			<path id="Layer" class="s0" d="m330.8 519.2h6.2v28.5h-4.7v-21.6l-7.9 17.4h-4.4l-7.8-17.1v21.1h-4.8v-28.4h6.2l8.7 19.2z"/>
			<path id="Layer" fill-rule="evenodd" class="s0" d="m361.7 547.7l-2.6-8.2h-11.2l-2.7 8.2h-5.1l9.6-28.5h7.4l9.5 28.5zm-12.5-12.4h8.5l-4.1-12.9z"/>
			<path id="Layer" fill-rule="evenodd" class="s0" d="m379.6 547.5v-27.7c1.3-0.3 2.7-0.4 4.2-0.6 1.5-0.1 3-0.3 4.3-0.3 5.1 0 8.8 1.2 11.3 3.6 2.5 2.4 3.9 6.1 3.9 11 0 3.4-0.6 6.1-1.8 8.4-1.2 2.2-3 3.7-5.4 4.7-2.3 1.1-5.3 1.5-9.1 1.5-2.5-0.1-4.9-0.3-7.4-0.6zm14.2-4.7c1.4-0.8 2.5-1.8 3.1-3.3 0.7-1.5 1-3.4 1-6 0-2.4-0.3-4.4-1-5.9-0.8-1.5-1.8-2.7-3.1-3.3-1.4-0.6-3.2-1-5.4-1-1.1 0-2.2 0.1-3.6 0.2v20.1c1.1 0.2 2.2 0.2 3.6 0.2 2.1 0 3.9-0.4 5.4-1z"/>
			<path id="Layer" class="s0" d="m413 543.5h14.3v4.2h-19.4v-28.5h19.2v4.2h-14.1v7.7h12.2v4.2h-12.2z"/>
			<path id="Layer" class="s0" d="m441 519.2h5.2v28.5h-5.2z"/>
			<path id="Layer" class="s0" d="m470.4 519.2h4.8v28.5h-5.2l-13.6-20.9v20.9h-4.7v-28.5h5.2l13.5 20.9z"/>
			<path id="Layer" class="s0" d="m487.6 547.7v-24.3h-9.3v-4.3h23.6v4.3h-9.3v24.3z"/>
			<path id="Layer" class="s0" d="m510 543.5h14.3v4.2h-19.3v-28.5h19.2v4.2h-14.2v7.7h12.3v4.2h-12.3z"/>
			<path id="Layer" class="s0" d="m550 533.8v13.6c-2.4 0.4-4.7 0.6-6.9 0.6-5.2 0-9.2-1.2-11.8-3.6-2.5-2.4-3.8-6-3.8-11 0-4.9 1.3-8.7 4-11 2.7-2.4 6.4-3.6 11.5-3.6 2.2 0 4.3 0.3 6.4 0.7v4.3c-2-0.4-3.9-0.7-6-0.7-2.4 0-4.3 0.3-5.8 1-1.5 0.8-2.7 1.8-3.4 3.3-0.8 1.5-1.2 3.6-1.2 6.1 0 3.6 0.7 6.1 2.4 7.8 1.6 1.6 4.1 2.3 7.6 2.3 0.7 0 1.4 0 2.3-0.1v-9.8h4.7z"/>
			<path id="Layer" fill-rule="evenodd" class="s0" d="m572.4 547.7l-7.9-11c-0.1 0-0.4 0-0.7 0-0.7 0-1.9 0-3.3-0.2v11h-5v-28q4.1-0.9 8.4-0.9 6.2 0 9 2.3c1.9 1.5 3 3.7 3 6.7 0 2.1-0.5 3.8-1.7 5.2-1 1.3-2.5 2.4-4.6 3l8.5 11.7h-5.7zm-12-14.9c1.2 0.2 2.4 0.2 3.4 0.2 2.4 0 4.2-0.5 5.4-1.2 1.2-0.8 1.6-2.1 1.6-3.9 0-1.8-0.6-3.1-1.6-3.9-1.1-0.7-2.7-1.1-5.1-1.1-1.3 0-2.5 0.1-3.9 0.3v9.6z"/>
			<path id="Layer" fill-rule="evenodd" class="s0" d="m600.4 547.7l-2.7-8.2h-11.1l-2.7 8.2h-5.1l9.6-28.5h7.4l9.5 28.5zm-12.5-12.4h8.5l-4.1-12.9z"/>
			<path id="Layer" class="s0" d="m611.3 544.5c-2.4-2.3-3.6-5.9-3.6-11 0-4.9 1.2-8.6 3.7-11 2.6-2.4 6.2-3.7 10.8-3.7 2.1 0 4.1 0.3 6.1 0.7v4.3c-1.8-0.4-3.7-0.7-5.8-0.7-2.1 0-3.9 0.3-5.2 1-1.4 0.8-2.4 1.8-3.2 3.3-0.7 1.5-1 3.4-1 6 0 2.5 0.3 4.4 1 6.1 0.8 1.6 1.8 2.7 3.2 3.3 1.3 0.6 3.1 1 5 1 2 0 3.9-0.3 6-0.9v4.3c-0.9 0.3-2 0.6-3.2 0.8-1 0.1-2.2 0.3-3.2 0.3-4.6-0.2-8.2-1.4-10.6-3.8z"/>
			<path id="Layer" class="s0" d="m632 519.2h5.2v28.5h-5.2z"/>
			<path id="Layer" fill-rule="evenodd" class="s0" d="m647.6 546.5q-2.8-1.5-4.4-4.9c-1.1-2.3-1.7-4.9-1.7-8.2 0-3.3 0.6-6 1.7-8.2 1-2.2 2.5-3.7 4.4-4.9 2-1.2 4.2-1.7 6.9-1.7 2.7 0 4.9 0.6 6.8 1.7q2.9 1.5 4.5 4.9c1 2.2 1.6 4.9 1.6 8.2 0 3.3-0.6 5.9-1.6 8.2q-1.6 3.4-4.5 4.9c-1.9 1-4.1 1.6-6.8 1.6-2.5 0-4.9-0.6-6.9-1.6zm12.5-5.1c1.4-1.6 2-4.3 2-7.9 0-3.7-0.6-6.4-2-8-1.3-1.7-3.1-2.5-5.6-2.5-2.5 0-4.3 0.7-5.7 2.3-1.3 1.7-1.9 4.4-1.9 7.9 0 3.7 0.6 6.4 1.9 8.1 1.4 1.6 3.2 2.5 5.7 2.5 2.5 0 4.3-0.7 5.6-2.4zm-7.9-24.6l3.5-5.6h5.3l-4.1 5.6z"/>
			<path id="Layer" class="s0" d="m690.7 519.2h4.7v28.5h-5.2l-13.5-20.9v20.9h-4.9v-28.5h5.2l13.5 20.9v-20.9z"/>
			<path id="Layer" class="s0" d="m155.1 594v-24.3h-9.3v-4.3h23.6v4.3h-9.3v24.3z"/>
			<path id="Layer" class="s0" d="m177.4 589.8h14.3v4.2h-19.4v-28.5h19.2v4.2h-14.1v7.8h12.2v4.1h-12.2z"/>
			<path id="Layer" fill-rule="evenodd" class="s0" d="m213 594l-7.9-11c-0.2 0-0.5 0-0.8 0-0.7 0-1.9 0-3.2-0.2v11h-5.1v-28q4.2-0.9 8.5-0.9 5.9 0 8.9 2.3c2 1.5 3 3.7 3 6.7 0 2.1-0.4 3.8-1.6 5.2-1.1 1.3-2.6 2.4-4.6 3l8.4 11.7h-5.6zm-12.1-15c1.2 0.1 2.4 0.1 3.4 0.1 2.4 0 4.2-0.4 5.4-1.2 1.2-0.7 1.6-2 1.6-3.8 0-1.8-0.6-3.1-1.6-3.9-1-0.7-2.7-1.2-5.1-1.2-1.3 0-2.5 0.2-3.8 0.3v9.7z"/>
			<path id="Layer" fill-rule="evenodd" class="s0" d="m239 594l-7.9-11c-0.1 0-0.4 0-0.7 0-0.7 0-1.9 0-3.3-0.2v11h-5v-28q4.1-0.9 8.5-0.9 5.9 0 8.9 2.3c1.9 1.5 3 3.7 3 6.7 0 2.1-0.5 3.8-1.7 5.2-1 1.3-2.5 2.4-4.6 3l8.5 11.7h-5.7zm-12-15c1.2 0.1 2.4 0.1 3.4 0.1 2.4 0 4.2-0.4 5.4-1.2 1.2-0.7 1.6-2 1.6-3.8 0-1.8-0.6-3.1-1.6-3.9-1.1-0.7-2.7-1.2-5.1-1.2-1.3 0-2.5 0.2-3.9 0.3v9.7z"/>
			<path id="Layer" class="s0" d="m248 565.5h5.2v28.5h-5.2z"/>
			<path id="Layer" class="s0" d="m265.4 594v-24.3h-9.2v-4.3h23.5v4.3h-9.2v24.3z"/>
			<path id="Layer" fill-rule="evenodd" class="s0" d="m287.7 592.6q-2.8-1.4-4.4-4.9c-1.1-2.2-1.7-4.9-1.7-8.2 0-3.2 0.6-5.9 1.7-8.2 1-2.2 2.5-3.7 4.4-4.9 2-1 4.2-1.6 6.9-1.6 2.7 0 4.9 0.6 6.8 1.6q3 1.5 4.5 4.9c1 2.3 1.6 5 1.6 8.2 0 3.3-0.6 6-1.6 8.2q-1.5 3.5-4.5 4.9c-1.9 1.1-4.1 1.7-6.8 1.7-2.7 0-4.9-0.6-6.9-1.7zm12.5-5c1.4-1.7 2-4.3 2-7.9 0-3.7-0.6-6.4-2-8.1-1.3-1.6-3.1-2.5-5.6-2.5-2.4 0-4.3 0.8-5.7 2.4-1.3 1.6-1.9 4.3-1.9 7.9 0 3.7 0.6 6.4 1.9 8 1.4 1.7 3.1 2.6 5.7 2.6 2.4 0.1 4.3-0.8 5.6-2.4z"/>
			<path id="Layer" fill-rule="evenodd" class="s0" d="m329 594l-7.9-11c-0.2 0-0.5 0-0.8 0-0.7 0-1.9 0-3.2-0.2v11h-5.1v-28q4.3-0.9 8.5-0.9 6.1 0 8.9 2.3c2 1.5 3 3.7 3 6.7 0 2.1-0.4 3.8-1.6 5.2-1.1 1.3-2.6 2.4-4.7 3l8.5 11.7h-5.6zm-11.9-15c1.2 0.1 2.3 0.1 3.4 0.1 2.4 0 4.2-0.4 5.4-1.2 1.1-0.7 1.6-2 1.6-3.8 0-1.8-0.6-3.1-1.6-3.9-1.1-0.7-2.7-1.2-5.1-1.2-1.4 0-2.5 0.2-3.9 0.3v9.7z"/>
			<path id="Layer" class="s0" d="m338.1 565.5h5.2v28.5h-5.2z"/>
			<path id="Layer" fill-rule="evenodd" class="s0" d="m367.8 594l-2.6-8.2h-11.2l-2.7 8.2h-5l9.5-28.5h7.4l9.6 28.5zm-12.4-12.4h8.5l-4.2-12.9z"/>
			<path id="Layer" class="s0" d="m376.2 594v-28.5h5.2v24.3h13.4v4.3h-18.6z"/>
			<path id="Layer" class="s0" d="m410 591.4c-1.8-1.9-2.8-4.9-2.8-8.9v-17.1h5.2v17.6c0 2.3 0.4 4.1 1.5 5.3 1 1.2 2.6 1.7 4.7 1.7 2.3 0 3.7-0.6 4.8-1.7 1-1.2 1.5-3 1.5-5.3v-17.6h5v17.1q0 6.1-2.6 8.9c-1.8 2-4.8 2.9-8.7 2.9-3.9 0-6.8-0.9-8.6-2.9z"/>
			<path id="Layer" class="s0" d="m454.4 565.4h4.7v28.6h-5.2l-13.5-20.9v20.9h-5v-28.5h5.3l13.5 20.9v-21z"/>
			<path id="Layer" class="s0" d="m464.8 565.5h5.2v28.5h-5.2z"/>
			<path id="Layer" class="s0" d="m494.4 565.4h5.1l-9.6 28.4h-7.6l-9.5-28.4h5.4l8 24.6z"/>
			<path id="Layer" class="s0" d="m507.5 589.8h14.3v4.2h-19.3v-28.5h19.2v4.2h-14.2v7.8h12.2v4.1h-12.2z"/>
			<path id="Layer" fill-rule="evenodd" class="s0" d="m543 594l-7.9-11c-0.2 0-0.5 0-0.8 0-0.7 0-1.9 0-3.3-0.2v11h-5v-28q4.1-0.9 8.5-0.9 6.1 0 8.9 2.3c1.9 1.5 3 3.7 3 6.7 0 2.1-0.5 3.8-1.7 5.2-1 1.3-2.5 2.4-4.6 3l8.5 11.7h-5.6zm-12-15c1.2 0.1 2.4 0.1 3.5 0.1 2.3 0 4.1-0.4 5.3-1.2 1.2-0.7 1.7-2 1.7-3.8 0-1.8-0.6-3.1-1.7-3.9-1-0.7-2.7-1.2-5-1.2-1.4 0-2.6 0.2-3.9 0.3v9.7z"/>
			<path id="Layer" class="s0" d="m554.6 594c-1.4-0.2-2.6-0.5-3.8-0.9v-4.2c1.2 0.5 2.4 0.8 3.8 0.9 1.3 0.2 2.6 0.3 3.8 0.3 2.1 0 3.5-0.3 4.5-1 0.9-0.8 1.3-1.7 1.3-3q0-1.2-0.4-1.8c-0.3-0.4-0.7-0.9-1.5-1.3-0.6-0.3-1.6-0.8-2.8-1.1l-2-0.4c-2.5-0.6-4.3-1.7-5.6-3-1.2-1.3-1.8-3-1.8-5.2 0-2.7 0.9-4.8 2.8-6.3 2-1.5 4.8-2.2 8.4-2.2 1.2 0 2.4 0 3.5 0.1 1.2 0.2 2.1 0.3 3 0.6v4.2c-0.9-0.3-1.9-0.4-3-0.6-1-0.1-2.2-0.3-3.2-0.3-2.3 0-3.9 0.3-4.9 1.1-1.1 0.7-1.5 1.6-1.5 2.9q0 1.2 0.4 1.8c0.3 0.5 0.8 0.9 1.3 1.2 0.6 0.3 1.5 0.6 2.6 0.9l1.9 0.5c2.7 0.7 4.8 1.6 6 2.9 1.3 1.4 1.9 3 1.9 5.2 0 1.8-0.4 3.3-1.3 4.7-0.9 1.3-2.1 2.2-3.8 2.9-1.6 0.8-3.5 1.1-5.9 1.1-1.1 0.3-2.4 0.1-3.7 0z"/>
			<path id="Layer" class="s0" d="m573.5 565.5h5.2v28.5h-5.2z"/>
			<path id="Layer" class="s0" d="m590.9 594v-24.3h-9.2v-4.3h23.5v4.3h-9.1v24.3z"/>
			<path id="Layer" fill-rule="evenodd" class="s0" d="m627.4 594l-2.7-8.2h-11.2l-2.6 8.2h-5.1l9.5-28.5h7.5l9.5 28.5zm-12.5-12.4h8.5l-4.2-12.9z"/>
			<path id="Layer" fill-rule="evenodd" class="s0" d="m652.7 594l-7.9-11c-0.1 0-0.4 0-0.7 0-0.8 0-2 0-3.3-0.2v11h-5.1v-28q4.2-0.9 8.5-0.9 6.1 0 8.9 2.3c2 1.5 3 3.7 3 6.7 0 2.1-0.4 3.8-1.6 5.2-1.1 1.3-2.5 2.4-4.6 3l8.5 11.7h-5.7zm-12.1-15c1.2 0.1 2.4 0.1 3.5 0.1 2.3 0 4.1-0.4 5.3-1.2 1.2-0.7 1.7-2 1.7-3.8 0-1.8-0.6-3.1-1.7-3.9-1-0.7-2.7-1.2-5-1.2-1.4 0-2.6 0.2-3.9 0.3v9.7z"/>
			<path id="Layer" class="s0" d="m661.6 565.5h5.2v28.5h-5.2z"/>
			<path id="Layer" fill-rule="evenodd" class="s0" d="m691.6 594l-2.7-8.2h-11.2l-2.7 8.2h-5l9.5-28.5h7.4l9.6 28.5zm-12.5-12.4h8.5l-4.2-12.9z"/>
		</g>
	</g>
</svg>