<svg version="1.2" xmlns="http://www.w3.org/2000/svg" viewBox="0 0 842 596" width="842" height="596">
	<title>LogoPuentesPrograma-svg</title>
	<style>
		.s0 { fill: #ffffff } 
		.s1 { fill: #eb0084 } 
		.s2 { fill: #00afc4 } 
	</style>
	<g id="Layer">
		<g id="Layer">
			<g id="Layer">
				<path id="Layer" fill-rule="evenodd" class="s0" d="m84.7 319c6.1-1.2 12.1-1.8 17.9-1.8 8.8 0 15.3 1.6 19.6 5 4.3 3.3 6.5 8.5 6.5 15.5q0 10-6.3 15.3c-4.2 3.5-10.3 5.2-18.5 5.2-0.8 0-1.8 0-3.1-0.1h-1.6v15.5h-14.6zm27.4 26.2c1.7-1.5 2.5-4 2.5-7.4 0-3.5-0.9-6-2.6-7.5-1.7-1.5-4.4-2.3-8-2.3-1.9 0-3.5 0.1-4.7 0.3v18.9c1.7 0.2 3.4 0.3 4.9 0.3 3.6-0.1 6.3-0.8 7.9-2.3z"/>
				<path id="Layer" class="s0" d="m141.6 368.2c-4-4-6-10.2-6-18.4v-31.8h14.6v33.2c0 4 0.8 6.8 2.5 8.6 1.7 1.8 4.2 2.7 7.6 2.7 3.4 0 6-0.9 7.6-2.7 1.6-1.8 2.5-4.7 2.5-8.6v-33.2h14.3v31.8c0 8.2-2 14.4-5.9 18.4-3.9 4-10.1 6-18.5 6-8.5 0-14.7-2-18.7-6z"/>
				<path id="Layer" class="s0" d="m208 362h27.1v11.4h-41.5v-55.5h41.1v11.4h-26.7v10h22.8v11.4h-22.8z"/>
				<path id="Layer" class="s0" d="m279.1 317.9h13.7v55.5h-14.6l-22.2-34v34h-13.7v-55.5h14.7l22.2 34v-34z"/>
				<path id="Layer" class="s0" d="m315.2 373.4v-43.6h-17.3v-11.9h49.3v11.9h-17.3v43.6z"/>
				<path id="Layer" class="s0" d="m366.6 362h27.1v11.4h-41.5v-55.5h41.1v11.4h-26.7v10h22.8v11.4h-22.8z"/>
				<path id="Layer" class="s0" d="m407.5 373.5q-4.2-0.6-7.8-1.8v-11.6c2.3 0.8 5 1.4 7.9 1.8 3 0.5 5.7 0.7 8.3 0.7 3.3 0 5.6-0.4 7-1.3 1.4-0.9 2.1-2.1 2.1-3.8 0-0.9-0.2-1.7-0.6-2.3-0.4-0.6-1.1-1.2-2.1-1.6-1-0.4-2.5-1-4.4-1.5l-4.6-1.2c-5.1-1.2-8.8-3.2-11.4-5.8-2.5-2.7-3.8-6.1-3.8-10.5 0-5.6 2.1-9.9 6.2-12.9 4.1-3 10.3-4.5 18.4-4.5 2.5 0 5 0.1 7.4 0.4 2.3 0.3 4.5 0.7 6.4 1.2v11.6c-1.7-0.5-3.8-0.9-6-1.2-2.2-0.3-4.5-0.5-6.8-0.5-4 0-6.9 0.5-8.5 1.4-1.7 0.9-2.5 2.2-2.5 3.8 0 0.9 0.2 1.6 0.5 2.2 0.3 0.6 1 1.1 1.8 1.6 0.9 0.5 2.1 0.9 3.7 1.3l4.6 1.2q8.4 2.1 12.3 6c2.6 2.6 3.9 6.2 3.9 10.5 0 3.6-0.9 6.7-2.8 9.4-1.9 2.7-4.6 4.7-8.1 6.1q-5.2 2.1-12.6 2.1c-2.8-0.1-5.7-0.3-8.5-0.8z"/>
			</g>
			<path id="Layer" class="s1" d="m368.6 149.8h91.3v16.2h-90.8-10.6-11.2v-6.3c0-47.6-39.1-86.3-87.3-86.3-48.2 0-87.3 38.7-87.3 86.3v6.3h-15.5-6.4-90.8v-16.3h91.4c5-54.9 51.8-98 108.6-98 56.7 0 103.5 43.1 108.6 98z"/>
			<path id="Layer" class="s2" d="m261.8 262.9c0 0 3.3-13.3 19.6-34.7 43.1-45.1 119.5-44.8 180.2-42.9v16.4c-58.9-1.7-137.9-3.8-173.3 49.5 42.7-38.3 116.4-37.3 173.3-35.8v19.6c-60.3-1.9-143.5-3.6-175.4 55.3h-49.1c-31.9-58.9-115-57.2-175.4-55.3v-19.6c56.8-1.6 130.6-2.5 173.3 35.8-35.4-53.3-114.3-51.1-173.3-49.5v-16.4c59.8-1.8 135.1-2.2 178.5 41.1 8.1 10.8 15.9 23.1 21.6 36.5z"/>
		</g>
	</g>
	<g id="Layer">
		<g id="Layer">
			<path id="Layer" fill-rule="evenodd" class="s0" d="m76.4 400.1c1.9-0.4 3.7-0.5 5.5-0.5 2.8 0 4.8 0.5 6.2 1.6 1.4 1.1 2 2.8 2 5.1 0 2.2-0.7 3.9-2 5.1-1.4 1.1-3.4 1.7-6.1 1.7-0.4 0-1.1 0-2.1-0.1v5.9h-3.5zm9.2 9.4c0.8-0.7 1.1-1.7 1.1-3.1 0-1.4-0.4-2.5-1.1-3.2-0.7-0.7-1.9-1-3.5-1-0.8 0-1.6 0.1-2.3 0.2v8c0.6 0.1 1.3 0.1 2.1 0.1 1.7 0 2.9-0.4 3.7-1z"/>
			<path id="Layer" fill-rule="evenodd" class="s0" d="m104.4 418.9l-5.3-7.4c-0.1 0-0.3 0-0.5 0-0.5 0-1.3 0-2.2-0.1v7.4h-3.4v-18.8q2.9-0.6 5.7-0.6 4 0 6 1.5c1.3 1 2 2.5 2 4.5 0 1.4-0.3 2.6-1.1 3.5-0.7 0.9-1.7 1.6-3.1 2l5.7 7.9h-3.8zm-8-10c0.8 0.1 1.6 0.1 2.3 0.1 1.6 0 2.8-0.3 3.6-0.8 0.8-0.5 1.1-1.4 1.1-2.6 0-1.2-0.4-2.1-1.1-2.6-0.7-0.5-1.8-0.8-3.4-0.8-0.9 0-1.7 0.1-2.6 0.2v6.5z"/>
			<path id="Layer" fill-rule="evenodd" class="s0" d="m113.8 418.1q-2-1-3-3.3c-0.7-1.5-1.1-3.3-1.1-5.5 0-2.2 0.4-4 1.1-5.5 0.7-1.5 1.7-2.5 3-3.3 1.3-0.7 2.8-1.1 4.6-1.1 1.8 0 3.3 0.4 4.6 1.1q2 1 3 3.3c0.7 1.5 1.1 3.3 1.1 5.5 0 2.2-0.4 4-1.1 5.5q-1 2.3-3 3.3c-1.3 0.7-2.8 1.1-4.6 1.1-1.8 0-3.3-0.4-4.6-1.1zm8.4-3.4c0.9-1.1 1.3-2.9 1.3-5.3 0-2.5-0.4-4.3-1.3-5.4-0.9-1.1-2.1-1.7-3.8-1.7-1.6 0-2.9 0.5-3.8 1.6-0.9 1.1-1.3 2.9-1.3 5.3 0 2.5 0.4 4.3 1.3 5.4 0.9 1.1 2.1 1.7 3.8 1.7 1.7 0 2.9-0.5 3.8-1.6z"/>
			<path id="Layer" class="s0" d="m144.6 409.6v9.1c-1.6 0.3-3.1 0.4-4.6 0.4-3.5 0-6.2-0.8-7.9-2.4-1.7-1.6-2.6-4-2.6-7.4 0-3.3 0.9-5.8 2.7-7.4 1.8-1.6 4.3-2.4 7.7-2.4 1.5 0 2.9 0.2 4.3 0.5v2.9c-1.3-0.3-2.6-0.5-4-0.5-1.6 0-2.9 0.2-3.9 0.7-1 0.5-1.8 1.2-2.3 2.2-0.5 1-0.8 2.4-0.8 4.1 0 2.4 0.5 4.1 1.6 5.2 1.1 1.1 2.8 1.6 5.1 1.6 0.5 0 1 0 1.6-0.1v-6.6h3.1z"/>
			<path id="Layer" fill-rule="evenodd" class="s0" d="m159.6 418.9l-5.3-7.4c-0.1 0-0.3 0-0.5 0-0.5 0-1.3 0-2.2-0.1v7.4h-3.4v-18.8q2.9-0.6 5.7-0.6 4.1 0 6 1.5c1.3 1 2 2.5 2 4.5 0 1.4-0.3 2.6-1.1 3.5-0.7 0.9-1.7 1.6-3.1 2l5.7 7.9h-3.8zm-8-10c0.8 0.1 1.6 0.1 2.3 0.1 1.6 0 2.8-0.3 3.6-0.8 0.8-0.5 1.1-1.4 1.1-2.6 0-1.2-0.4-2.1-1.1-2.6-0.7-0.5-1.8-0.8-3.4-0.8-0.9 0-1.7 0.1-2.6 0.2v6.5z"/>
			<path id="Layer" fill-rule="evenodd" class="s0" d="m178.5 418.9l-1.8-5.5h-7.5l-1.8 5.5h-3.4l6.4-19.1h5l6.4 19.1zm-8.4-8.3h5.7l-2.8-8.6z"/>
			<path id="Layer" class="s0" d="m199.8 399.8h4.2v19.1h-3.2v-14.5l-5.3 11.7h-2.9l-5.3-11.5v14.2h-3.2v-19.1h4.2l5.8 12.9z"/>
			<path id="Layer" fill-rule="evenodd" class="s0" d="m220.6 418.9l-1.8-5.5h-7.5l-1.8 5.5h-3.4l6.4-19.1h5l6.4 19.1zm-8.4-8.3h5.7l-2.8-8.7z"/>
			<path id="Layer" fill-rule="evenodd" class="s0" d="m232.6 418.8v-18.6c0.9-0.2 1.8-0.3 2.8-0.4 1-0.1 2-0.2 2.9-0.2 3.4 0 5.9 0.8 7.6 2.4 1.7 1.6 2.6 4.1 2.6 7.4 0 2.3-0.4 4.1-1.2 5.6-0.8 1.5-2 2.5-3.6 3.2-1.6 0.7-3.6 1-6.1 1-1.7-0.1-3.3-0.2-5-0.4zm9.5-3.2c1-0.5 1.7-1.2 2.1-2.2 0.5-1 0.7-2.3 0.7-4 0-1.6-0.2-3-0.7-4-0.5-1-1.2-1.8-2.1-2.2-0.9-0.4-2.1-0.7-3.6-0.7-0.7 0-1.5 0.1-2.4 0.2v13.5c0.7 0.1 1.5 0.1 2.4 0.1 1.4 0 2.6-0.3 3.6-0.7z"/>
			<path id="Layer" class="s0" d="m255 416.1h9.6v2.8h-13v-19.1h12.9v2.8h-9.5v5.2h8.2v2.8h-8.2z"/>
			<path id="Layer" class="s0" d="m273.8 418.9v-19.1h3.5v19.1z"/>
			<path id="Layer" class="s0" d="m293.6 399.8h3.2v19.1h-3.5l-9.1-14v14h-3.2v-19.1h3.5l9.1 14z"/>
			<path id="Layer" class="s0" d="m305.1 418.9v-16.3h-6.2v-2.9h15.8v2.9h-6.2v16.3z"/>
			<path id="Layer" class="s0" d="m320.2 416.1h9.6v2.8h-13v-19.1h12.9v2.8h-9.5v5.2h8.2v2.8h-8.2z"/>
			<path id="Layer" class="s0" d="m347 409.6v9.1c-1.6 0.3-3.1 0.4-4.6 0.4-3.5 0-6.2-0.8-7.9-2.4-1.7-1.6-2.6-4-2.6-7.4 0-3.3 0.9-5.8 2.7-7.4 1.8-1.6 4.3-2.4 7.7-2.4 1.5 0 2.9 0.2 4.3 0.5v2.9c-1.3-0.3-2.6-0.5-4-0.5-1.6 0-2.9 0.2-3.9 0.7-1 0.5-1.8 1.2-2.3 2.2-0.5 1-0.8 2.4-0.8 4.1 0 2.4 0.5 4.1 1.6 5.2 1.1 1.1 2.8 1.6 5.1 1.6 0.5 0 1 0 1.6-0.1v-6.6h3.1z"/>
			<path id="Layer" fill-rule="evenodd" class="s0" d="m362.1 418.9l-5.3-7.4c-0.1 0-0.3 0-0.5 0-0.5 0-1.3 0-2.2-0.1v7.4h-3.4v-18.8q2.8-0.6 5.7-0.6 4.1 0 6 1.5c1.3 1 2 2.5 2 4.5 0 1.4-0.3 2.6-1.1 3.5-0.7 0.9-1.7 1.6-3.1 2l5.7 7.9h-3.8zm-8.1-10c0.8 0.1 1.6 0.1 2.3 0.1 1.6 0 2.8-0.3 3.6-0.8 0.8-0.5 1.1-1.4 1.1-2.6 0-1.2-0.4-2.1-1.1-2.6-0.7-0.5-1.8-0.8-3.4-0.8-0.9 0-1.7 0.1-2.6 0.2v6.5z"/>
			<path id="Layer" fill-rule="evenodd" class="s0" d="m380.9 418.9l-1.8-5.5h-7.5l-1.8 5.5h-3.4l6.4-19.1h5l6.4 19.1zm-8.4-8.3h5.7l-2.8-8.7z"/>
			<path id="Layer" class="s0" d="m388.2 416.8c-1.6-1.6-2.4-4-2.4-7.4 0-3.3 0.8-5.8 2.5-7.4 1.7-1.6 4.1-2.5 7.2-2.5 1.4 0 2.8 0.2 4.1 0.5v2.9c-1.2-0.3-2.5-0.5-3.9-0.5-1.4 0-2.6 0.2-3.5 0.7-0.9 0.5-1.6 1.2-2.1 2.2-0.5 1-0.7 2.3-0.7 4 0 1.7 0.2 3 0.7 4.1 0.5 1.1 1.2 1.8 2.1 2.2 0.9 0.4 2.1 0.7 3.4 0.7 1.3 0 2.6-0.2 4-0.6v2.9c-0.6 0.2-1.3 0.4-2.1 0.5-0.7 0.1-1.5 0.2-2.2 0.2-3.1-0.1-5.5-0.9-7.1-2.5z"/>
			<path id="Layer" class="s0" d="m402.1 418.9v-19.1h3.5v19.1z"/>
			<path id="Layer" fill-rule="evenodd" class="s0" d="m412.6 418.1q-1.9-1-3-3.3c-0.7-1.5-1.1-3.3-1.1-5.5 0-2.2 0.4-4 1.1-5.5 0.7-1.5 1.7-2.5 3-3.3 1.3-0.8 2.8-1.1 4.6-1.1 1.8 0 3.3 0.4 4.6 1.1q2 1 3 3.3c0.7 1.5 1.1 3.3 1.1 5.5 0 2.2-0.4 4-1.1 5.5q-1 2.3-3 3.3c-1.3 0.7-2.8 1.1-4.6 1.1-1.7 0-3.3-0.4-4.6-1.1zm8.4-3.4c0.9-1.1 1.3-2.9 1.3-5.3 0-2.5-0.4-4.3-1.3-5.4-0.9-1.1-2.1-1.7-3.8-1.7-1.7 0-2.9 0.5-3.8 1.6-0.9 1.1-1.3 2.9-1.3 5.3 0 2.5 0.4 4.3 1.3 5.4 0.9 1.1 2.1 1.7 3.8 1.7 1.7 0 2.9-0.5 3.8-1.6zm-5.3-16.5l2.3-3.8h3.6l-2.8 3.8z"/>
			<path id="Layer" class="s0" d="m441.5 399.8h3.2v19.1h-3.5l-9.1-14v14h-3.3v-19.1h3.5l9.1 14v-14z"/>
			<path id="Layer" class="s0" d="m81.8 450v-16.3h-6.2v-2.9h15.8v2.9h-6.2v16.3z"/>
			<path id="Layer" class="s0" d="m96.8 447.2h9.6v2.8h-13v-19.1h12.9v2.8h-9.5v5.2h8.2v2.8h-8.2z"/>
			<path id="Layer" fill-rule="evenodd" class="s0" d="m120.7 450l-5.3-7.4c-0.1 0-0.3 0-0.5 0-0.5 0-1.3 0-2.2-0.1v7.4h-3.4v-18.8q2.9-0.6 5.7-0.6 4 0 6 1.5c1.3 1 2 2.5 2 4.5 0 1.4-0.3 2.6-1.1 3.5-0.7 0.9-1.7 1.6-3.1 2l5.7 7.9h-3.8zm-8.1-10.1c0.8 0.1 1.6 0.1 2.3 0.1 1.6 0 2.8-0.3 3.6-0.8 0.8-0.5 1.1-1.4 1.1-2.6 0-1.2-0.4-2.1-1.1-2.6-0.7-0.5-1.8-0.8-3.4-0.8-0.9 0-1.7 0.1-2.6 0.2v6.5z"/>
			<path id="Layer" fill-rule="evenodd" class="s0" d="m138.2 450l-5.3-7.4c-0.1 0-0.3 0-0.5 0-0.5 0-1.3 0-2.2-0.1v7.4h-3.4v-18.8q2.9-0.6 5.7-0.6 4 0 6 1.5c1.3 1 2 2.5 2 4.5 0 1.4-0.3 2.6-1.1 3.5-0.7 0.9-1.7 1.6-3.1 2l5.7 7.9h-3.8zm-8.1-10.1c0.8 0.1 1.6 0.1 2.3 0.1 1.6 0 2.8-0.3 3.6-0.8 0.8-0.5 1.1-1.4 1.1-2.6 0-1.2-0.4-2.1-1.1-2.6-0.7-0.5-1.8-0.8-3.4-0.8-0.9 0-1.7 0.1-2.6 0.2v6.5z"/>
			<path id="Layer" class="s0" d="m144.2 450v-19.1h3.5v19.1z"/>
			<path id="Layer" class="s0" d="m155.9 450v-16.3h-6.2v-2.9h15.8v2.9h-6.2v16.3z"/>
			<path id="Layer" fill-rule="evenodd" class="s0" d="m170.9 449.1q-2-1-3-3.3c-0.7-1.5-1.1-3.3-1.1-5.5 0-2.2 0.4-4 1.1-5.5 0.7-1.5 1.7-2.5 3-3.3 1.3-0.7 2.8-1.1 4.6-1.1 1.8 0 3.3 0.4 4.6 1.1q2 1 3 3.3c0.7 1.5 1.1 3.3 1.1 5.5 0 2.2-0.4 4-1.1 5.5q-1 2.3-3 3.3c-1.3 0.7-2.8 1.1-4.6 1.1-1.8 0-3.3-0.4-4.6-1.1zm8.4-3.4c0.9-1.1 1.3-2.9 1.3-5.3 0-2.5-0.4-4.3-1.3-5.4-0.9-1.1-2.1-1.7-3.8-1.7-1.6 0-2.9 0.5-3.8 1.6-0.9 1.1-1.3 2.9-1.3 5.3 0 2.5 0.4 4.3 1.3 5.4 0.9 1.1 2.1 1.7 3.8 1.7 1.6 0.1 2.9-0.5 3.8-1.6z"/>
			<path id="Layer" fill-rule="evenodd" class="s0" d="m198.6 450l-5.3-7.4c-0.1 0-0.3 0-0.5 0-0.5 0-1.3 0-2.2-0.1v7.4h-3.4v-18.8q2.9-0.6 5.7-0.6 4.1 0 6 1.5c1.3 1 2 2.5 2 4.5 0 1.4-0.3 2.6-1.1 3.5-0.7 0.9-1.7 1.6-3.1 2l5.7 7.9h-3.8zm-8-10.1c0.8 0.1 1.6 0.1 2.3 0.1 1.6 0 2.8-0.3 3.6-0.8 0.8-0.5 1.1-1.4 1.1-2.6 0-1.2-0.4-2.1-1.1-2.6-0.7-0.5-1.8-0.8-3.4-0.8-0.9 0-1.7 0.1-2.6 0.2v6.5z"/>
			<path id="Layer" class="s0" d="m204.7 450v-19.1h3.5v19.1z"/>
			<path id="Layer" fill-rule="evenodd" class="s0" d="m224.7 450l-1.8-5.5h-7.5l-1.8 5.5h-3.4l6.4-19.1h5l6.4 19.1zm-8.3-8.3h5.7l-2.8-8.7z"/>
			<path id="Layer" class="s0" d="m230.3 450v-19.1h3.5v16.3h9v2.9h-12.5z"/>
			<path id="Layer" class="s0" d="m253 448.3c-1.2-1.3-1.9-3.3-1.9-6v-11.5h3.5v11.8c0 1.6 0.3 2.8 1 3.6 0.7 0.8 1.8 1.1 3.2 1.1 1.5 0 2.5-0.4 3.2-1.1 0.7-0.8 1-2 1-3.6v-11.8h3.4v11.5q0 4.1-1.8 6c-1.2 1.3-3.2 1.9-5.8 1.9-2.6 0-4.6-0.6-5.8-1.9z"/>
			<path id="Layer" class="s0" d="m282.8 430.8h3.2v19.2h-3.5l-9.1-14v14h-3.3v-19.1h3.5l9.1 14v-14.1z"/>
			<path id="Layer" class="s0" d="m289.8 450v-19.1h3.5v19.1z"/>
			<path id="Layer" class="s0" d="m309.7 430.8h3.4l-6.4 19.1h-5.1l-6.4-19.1h3.6l5.4 16.5z"/>
			<path id="Layer" class="s0" d="m318.5 447.2h9.6v2.8h-13v-19.1h12.9v2.8h-9.5v5.2h8.2v2.8h-8.2z"/>
			<path id="Layer" fill-rule="evenodd" class="s0" d="m342.3 450l-5.3-7.4c-0.1 0-0.3 0-0.5 0-0.5 0-1.3 0-2.2-0.1v7.4h-3.4v-18.8q2.8-0.6 5.7-0.6 4.1 0 6 1.5c1.3 1 2 2.5 2 4.5 0 1.4-0.3 2.6-1.1 3.5-0.7 0.9-1.7 1.6-3.1 2l5.7 7.9h-3.8zm-8-10.1c0.8 0.1 1.6 0.1 2.3 0.1 1.6 0 2.8-0.3 3.6-0.8 0.8-0.5 1.1-1.4 1.1-2.6 0-1.2-0.4-2.1-1.1-2.6-0.7-0.5-1.8-0.8-3.4-0.8-0.9 0-1.7 0.1-2.6 0.2v6.5z"/>
			<path id="Layer" class="s0" d="m350.1 450c-0.9-0.1-1.7-0.3-2.5-0.6v-2.8c0.8 0.3 1.6 0.5 2.5 0.6 0.9 0.1 1.8 0.2 2.6 0.2 1.4 0 2.3-0.2 3-0.7 0.6-0.5 0.9-1.1 0.9-2q0-0.8-0.3-1.2c-0.2-0.3-0.5-0.6-1-0.9-0.4-0.2-1.1-0.5-1.9-0.7l-1.3-0.3c-1.7-0.4-2.9-1.1-3.8-2-0.8-0.9-1.2-2-1.2-3.5 0-1.8 0.6-3.2 1.9-4.2 1.3-1 3.2-1.5 5.6-1.5 0.8 0 1.6 0 2.4 0.1 0.8 0.1 1.4 0.2 2 0.4v2.8c-0.6-0.2-1.3-0.3-2-0.4-0.7-0.1-1.5-0.2-2.2-0.2-1.5 0-2.6 0.2-3.3 0.7-0.7 0.5-1 1.1-1 2q0 0.8 0.3 1.2c0.2 0.3 0.5 0.6 0.9 0.8 0.4 0.2 1 0.4 1.7 0.6l1.3 0.3c1.8 0.5 3.2 1.1 4 2 0.9 0.9 1.3 2 1.3 3.5 0 1.2-0.3 2.2-0.9 3.1-0.6 0.9-1.4 1.5-2.5 2-1.1 0.5-2.4 0.7-4 0.7-0.7 0.2-1.6 0.1-2.5 0z"/>
			<path id="Layer" class="s0" d="m362.8 450v-19.1h3.5v19.1z"/>
			<path id="Layer" class="s0" d="m374.5 450v-16.3h-6.2v-2.9h15.8v2.9h-6.1v16.3z"/>
			<path id="Layer" fill-rule="evenodd" class="s0" d="m399 450l-1.8-5.5h-7.5l-1.8 5.5h-3.4l6.4-19.1h5l6.4 19.1zm-8.4-8.3h5.7l-2.8-8.7z"/>
			<path id="Layer" fill-rule="evenodd" class="s0" d="m416 450l-5.3-7.4c-0.1 0-0.3 0-0.5 0-0.5 0-1.3 0-2.2-0.1v7.4h-3.4v-18.8q2.8-0.6 5.7-0.6 4.1 0 6 1.5c1.3 1 2 2.5 2 4.5 0 1.4-0.3 2.6-1.1 3.5-0.7 0.9-1.7 1.6-3.1 2l5.7 7.9h-3.8zm-8.1-10.1c0.8 0.1 1.6 0.1 2.3 0.1 1.6 0 2.8-0.3 3.6-0.8 0.8-0.5 1.1-1.4 1.1-2.6 0-1.2-0.4-2.1-1.1-2.6-0.7-0.5-1.8-0.8-3.4-0.8-0.9 0-1.7 0.1-2.6 0.2v6.5z"/>
			<path id="Layer" class="s0" d="m422 450v-19.1h3.5v19.1z"/>
			<path id="Layer" fill-rule="evenodd" class="s0" d="m442.1 450l-1.8-5.5h-7.5l-1.8 5.5h-3.4l6.4-19.1h5l6.4 19.1zm-8.4-8.3h5.7l-2.8-8.7z"/>
		</g>
	</g>
</svg>