<svg version="1.2" xmlns="http://www.w3.org/2000/svg" viewBox="0 0 842 596" width="842" height="596">
	<title>logofull-svg</title>
	<style>
		.s0 { fill: #ffffff } 
		.s1 { fill: #eb0084 } 
		.s2 { fill: #00afc4 } 
	</style>
	<g id="Layer">
		<g id="Layer">
			<g id="Layer">
				<path id="Layer" fill-rule="evenodd" class="s0" d="m158.8 398c9.1-1.8 18-2.7 26.6-2.7 13.1 0 22.8 2.4 29.2 7.5 6.4 4.9 9.7 12.6 9.7 23.1q0 14.9-9.4 22.7c-6.2 5.3-15.3 7.8-27.5 7.8-1.2 0-2.7 0-4.6-0.2h-2.4v23.1h-21.8zm40.8 39c2.6-2.2 3.8-5.9 3.8-11 0-5.2-1.4-8.9-3.9-11.2-2.6-2.2-6.6-3.4-11.9-3.4-2.9 0-5.2 0.2-7 0.5v28.1c2.5 0.3 5 0.5 7.3 0.5 5.3-0.2 9.3-1.2 11.7-3.5z"/>
				<path id="Layer" class="s0" d="m243.5 471.3c-6-6-8.9-15.2-8.9-27.4v-47.4h21.7v49.5c0 5.9 1.2 10.1 3.7 12.8 2.6 2.7 6.3 4 11.4 4 5 0 8.9-1.3 11.3-4 2.4-2.7 3.7-7 3.7-12.8v-49.5h21.3v47.4c0 12.2-3 21.4-8.8 27.4-5.8 5.9-15 8.9-27.5 8.9-12.7 0-21.9-3-27.9-8.9z"/>
				<path id="Layer" class="s0" d="m342.4 462.1h40.3v16.9h-61.8v-82.6h61.2v17h-39.7v14.8h33.9v17h-33.9z"/>
				<path id="Layer" class="s0" d="m448.2 396.4h20.4v82.6h-21.7l-33-50.6v50.6h-20.4v-82.6h21.8l33.1 50.6v-50.6z"/>
				<path id="Layer" class="s0" d="m502 479v-64.9h-25.8v-17.7h73.5v17.7h-25.8v64.9z"/>
				<path id="Layer" class="s0" d="m578.5 462.1h40.4v16.9h-61.8v-82.6h61.2v17h-39.8v14.8h34v17h-34z"/>
				<path id="Layer" class="s0" d="m639.4 479.2q-6.2-0.9-11.6-2.7v-17.3c3.5 1.2 7.5 2.1 11.8 2.7 4.5 0.7 8.5 1 12.4 1 4.9 0 8.3-0.6 10.4-1.9 2.1-1.3 3.1-3.1 3.1-5.7 0-1.3-0.3-2.5-0.9-3.4-0.6-0.9-1.6-1.8-3.1-2.4-1.5-0.6-3.7-1.4-6.6-2.2l-6.8-1.8c-7.6-1.8-13.1-4.7-17-8.6-3.7-4-5.7-9.1-5.7-15.6 0-8.4 3.2-14.8 9.3-19.3 6.1-4.4 15.3-6.7 27.4-6.7 3.7 0 7.4 0.2 11 0.6 3.4 0.5 6.7 1.1 9.5 1.8v17.3c-2.5-0.7-5.6-1.3-8.9-1.8-3.3-0.4-6.7-0.7-10.1-0.7-6 0-10.3 0.7-12.7 2-2.5 1.4-3.7 3.3-3.7 5.7 0 1.3 0.3 2.4 0.7 3.3 0.5 0.9 1.5 1.6 2.7 2.4 1.4 0.7 3.1 1.3 5.5 1.9l6.9 1.8q12.5 3.1 18.3 8.9c3.9 3.9 5.8 9.3 5.8 15.7 0 5.3-1.3 9.9-4.2 14q-4.2 6-12 9-7.8 3.2-18.8 3.2c-4.2-0.2-8.5-0.5-12.7-1.2z"/>
			</g>
			<path id="Layer" class="s1" d="m581.5 146.1h136v24.1h-135.2-15.8-16.7v-9.4c0-70.9-58.2-128.5-130-128.5-71.8 0-130 57.6-130 128.5v9.4h-23.1-9.5-135.2v-24.3h136.1c7.4-81.7 77.1-145.9 161.7-145.9 84.4 0 154.1 64.2 161.7 145.9z"/>
			<path id="Layer" class="s2" d="m422.5 314.5c0 0 4.9-19.8 29.2-51.7 64.2-67.1 177.9-66.7 268.3-63.9v24.5c-87.7-2.6-205.3-5.7-258.1 73.7 63.6-57.1 173.4-55.6 258.1-53.3v29.1c-89.8-2.8-213.7-5.3-261.2 82.4h-73.1c-47.5-87.7-171.2-85.2-261.2-82.4v-29.1c84.6-2.4 194.5-3.8 258.1 53.3-52.7-79.4-170.2-76.1-258.1-73.7v-24.5c89.1-2.6 201.2-3.2 265.8 61.2 12.1 16.1 23.7 34.4 32.2 54.4z"/>
		</g>
	</g>
</svg>