<?xml version="1.0" encoding="utf-8"?>
<!-- Generator: Adobe Illustrator 26.0.1, SVG Export Plug-In . SVG Version: 6.00 Build 0)  -->
<svg version="1.1" id="Capa_1" xmlns="http://www.w3.org/2000/svg" xmlns:xlink="http://www.w3.org/1999/xlink" x="0px" y="0px"
	 viewBox="0 0 841.89 595.28" style="enable-background:new 0 0 841.89 595.28;" xml:space="preserve">
<style type="text/css">
	.st0{opacity:0.1;}
	.st1{fill:#606161;}
	.st2{fill:#D21C52;}
	.st3{font-family:'MyriadPro-Regular';}
	.st4{font-size:29.5428px;}
	.st5{font-size:20.6574px;}
</style>
<g>
	<g class="st0">
		<g>
			<rect x="148.02" y="178.41" class="st1" width="105.14" height="54.38"/>
			<circle class="st1" cx="326.02" cy="205.6" r="27.19"/>
			<ellipse class="st1" cx="467.57" cy="205.6" rx="68.7" ry="27.19"/>
			<rect x="581.94" y="178.41" class="st1" width="105.14" height="54.38"/>
		</g>
	</g>
	<g class="st0">
		<g>
			<rect x="148.02" y="363.21" class="st1" width="105.14" height="54.38"/>
			<circle class="st1" cx="326.02" cy="390.4" r="27.19"/>
			<ellipse class="st1" cx="467.57" cy="390.4" rx="68.7" ry="27.19"/>
			<rect x="581.94" y="363.21" class="st1" width="105.14" height="54.38"/>
		</g>
	</g>
	<g class="st0">
		<g>
			<ellipse class="st1" cx="637.76" cy="298" rx="68.7" ry="27.19"/>
			<rect x="418.26" y="270.81" class="st1" width="105.14" height="54.38"/>
			<circle class="st1" cx="345.4" cy="298" r="27.19"/>
			<ellipse class="st1" cx="203.84" cy="298" rx="68.7" ry="27.19"/>
		</g>
	</g>
	<text transform="matrix(1 0 0 1 168.1555 213.613)" class="st2 st3 st4">Logo</text>
	<text transform="matrix(1 0 0 1 435.5881 213.613)" class="st2 st3 st4">Logo</text>
	<text transform="matrix(1 0 0 1 437.1038 307.6511)" class="st2 st3 st4">Logo</text>
	<text transform="matrix(1 0 0 1 607.7454 307.6511)" class="st2 st3 st4">Logo</text>
	<text transform="matrix(1 0 0 1 602.6389 213.613)" class="st2 st3 st4">Logo</text>
	<text transform="matrix(1 0 0 1 303.2209 212.5359)" class="st2 st3 st5">Logo</text>
	<text transform="matrix(1 0 0 1 324.7639 304.4284)" class="st2 st3 st5">Logo</text>
	<text transform="matrix(1 0 0 1 168.1555 397.6286)" class="st2 st3 st4">Logo</text>
	<text transform="matrix(1 0 0 1 172.3499 307.3825)" class="st2 st3 st4">Logo</text>
	<text transform="matrix(1 0 0 1 435.5881 397.6286)" class="st2 st3 st4">Logo</text>
	<text transform="matrix(1 0 0 1 602.6389 397.6286)" class="st2 st3 st4">Logo</text>
	<text transform="matrix(1 0 0 1 303.2209 396.5515)" class="st2 st3 st5">Logo</text>
</g>
</svg>
