<svg version="1.2" xmlns="http://www.w3.org/2000/svg" viewBox="0 0 330 330" width="330" height="330">
	<title>New Project</title>
	<style>
		.s0 { fill: #00aec3 } 
		.s1 { fill: #d8d8d8 } 
		.s2 { fill: #000000 } 
		.s3 { fill: #141414 } 
		.s4 { fill: #e62b7a } 
	</style>
	<path id="Layer" class="s0" d="m165.2 4.8c1.9-1 3.8-1.6 5.6-2 4.5-1.4 9.5 0.3 13.3 2.5 8.2 3.8 16.4 9.8 26.3 7.1-5.5 15.3-23 9.3-35.1 8.2-1.5 0-2.8 0.3-4 0.9-3.5 1.6-5.4 5.4-5.9 9.5 0-6.6 0-13.1-0.1-19.5-0.1-3.9-0.1-6.7-0.1-6.7z"/>
	<path id="Layer" class="s1" d="m117.2 87.1h96v124.5h-96z"/>
	<path id="Layer" class="s1" d="m45.4 127.1h239.6v161.2h-239.6z"/>
	<path id="Layer" class="s2" d="m34.2 275.8h262v13.5h-262z"/>
	<path id="Layer" class="s2" d="m117.9 113.6v13.5h-85.9v-13.5-13.4h13.4v13.4z"/>
	<path id="Layer" class="s2" d="m285 113.6v-13.4h13.4v13.4 13.5h-85.9v-13.5z"/>
	<path id="Layer" class="s0" d="m144.5 218.7h41.4v57.1h-41.4z"/>
	<path id="Layer" class="s3" d="m167.5 275.7c0 0.1 0.4 0.1 0.5 0.1-0.1-0.1-0.6-0.1-0.5-0.1z"/>
	<path id="Layer" class="s3" d="m166.4 274.2l0.4 0.2h-0.2z"/>
	<path id="Layer" class="s3" d="m166.9 273.9l-0.6-0.1h0.2c0.2-0.3-0.6-0.6 0.1-0.7-0.2 0.2 0.2 0.5 0.3 0.8z"/>
	<path id="Layer" class="s3" d="m168.1 272.5q0 0-0.1 0c-0.1-0.3-0.2-0.1 0.1-0.1q0 0.1 0 0.1z"/>
	<path id="Layer" class="s3" d="m168.1 272.5c0 0.1 0.2-0.1 0 0z"/>
	<path id="Layer" class="s3" d="m168.5 271.9c-0.1-0.1-0.2 0.1-0.3 0.1l-0.3-0.1c0.3-0.1 0.4-0.2 0.6 0z"/>
	<path id="Layer" class="s3" d="m167.4 271.7l0.1 0.1c0.1 0 0.1-0.1-0.1-0.1z"/>
	<path id="Layer" class="s3" d="m167.6 271.9c-0.4-0.1-0.2-0.1-0.1-0.1l0.2 0.2c-0.1-0.1-0.3-0.1-0.1-0.1z"/>
	<path id="Layer" class="s3" d="m167.6 272.1c-0.1 0.1-0.2 0.2-0.4 0 0.1 0.4 0.5 0.3 0.4 0z"/>
	<path id="Layer" class="s3" d="m166 273.2l-0.3-0.1 0.2-0.1c0.2 0-0.1 0.2 0.1 0.2z"/>
	<path id="Layer" class="s3" d="m167.9 270.9l-0.2-0.1c0.2 0 0.4-0.1 0.6-0.1-0.2 0-0.3 0.2-0.4 0.2z"/>
	<path id="Layer" class="s3" d="m167.7 270.8l-0.2-0.2c-0.1 0.2 0.1 0.2 0.2 0.2z"/>
	<path id="Layer" class="s3" d="m166.7 271.6l0.5 0.4-0.5-0.3z"/>
	<path id="Layer" class="s3" d="m168.1 269.9l0.5 0.2-0.3-0.1z"/>
	<path id="Layer" class="s3" d="m168.4 269.1c0.2 0.1 0.4 0.2 0.5 0.3-0.2 0-0.4 0.2-0.7 0.1q0.4-0.3 0.2-0.4z"/>
	<path id="Layer" class="s3" d="m168.1 268.9q0.1 0.1 0.3 0.2-0.1-0.1-0.3-0.2z"/>
	<path id="Layer" class="s3" d="m167.5 270.2l0.4-0.1c0 0.1-0.3 0.2-0.4 0.2q0-0.1 0-0.1z"/>
	<path id="Layer" class="s3" d="m167.6 270q0 0.1-0.1 0.2 0.1-0.1 0.1-0.2z"/>
	<path id="Layer" class="s3" d="m167.5 270.3q0 0 0 0 0 0 0 0z"/>
	<path id="Layer" class="s3" d="m167.1 271.1c-0.3-0.1-0.5-0.3-0.9-0.1 0.3 0.1 0.5 0 0.9 0.1z"/>
	<path id="Layer" class="s3" d="m167.3 270.6c-0.1 0-0.3 0-0.4 0l0.1-0.2z"/>
	<path id="Layer" class="s3" d="m167.1 270.3l-0.1 0.1-0.1-0.1z"/>
	<path id="Layer" class="s3" d="m167.3 269.3q0-0.2 0.2-0.3c0 0.1 0 0.2 0.2 0.3 0 0.1-0.2 0-0.4 0z"/>
	<path id="Layer" class="s3" d="m167.6 269.7q0 0-0.1 0 0 0 0.1 0z"/>
	<path id="Layer" class="s3" d="m167.5 267.9q-0.1 0-0.1 0 0 0 0.1 0z"/>
	<path id="Layer" class="s3" d="m167.3 269.3q0.1 0.1 0.1 0.2c-0.1 0-0.2-0.1-0.1-0.2q-0.1 0 0 0z"/>
	<path id="Layer" class="s3" d="m167.9 268.6q-0.1 0.1-0.2 0.1c0.1 0 0.3-0.1 0.2-0.1z"/>
	<path id="Layer" class="s3" d="m167.7 269.7q0 0 0 0c0.1-0.1 0-0.1 0 0z"/>
	<path id="Layer" class="s3" d="m167.6 269.7q-0.1-0.1-0.2-0.2 0.2 0.1 0.3 0.2-0.1 0-0.1 0z"/>
	<path id="Layer" class="s3" d="m165.2 267.5l-0.2-0.2c0.7-0.1 0.9 0.4 1.4 0.3-0.2 0.1-0.6 0.1-0.4 0.3 0.4 0.2 0.7-0.2 0.9-0.2 0.2 0.2 0.3 0.2 0.5 0.2-0.7 0.1-1.9 0.3-2.2 0.1 0.4-0.2 0-0.5-0.3-0.5 0.1-0.1 0.2 0 0.3 0z"/>
	<path id="Layer" class="s3" d="m167.4 268.3l0.1-0.4c0.1 0 0.2 0 0.4 0.2-0.3 0.1-0.4 0.2-0.5 0.2z"/>
	<path id="Layer" class="s3" d="m167.4 268.4l0.2 0.4q0 0 0 0c-0.1-0.1-0.1-0.2-0.2-0.1q0.1 0 0.2 0.1c-0.1 0 0 0 0 0q0 0 0 0 0 0 0.1 0-0.2 0.1-0.2 0.2 0-0.1-0.1-0.3c-0.3 0.3-0.6-0.2-0.5 0.2-0.2-0.1-0.5-0.1-0.5-0.3 0.4-0.1 0.6 0.1 1 0.1 0-0.2-0.1-0.3 0-0.3z"/>
	<path id="Layer" class="s3" d="m165.4 270.8q0 0 0.1 0-0.1-0.1-0.1 0z"/>
	<path id="Layer" class="s3" d="m166.6 270.4c-0.1 0-0.6 0.2-0.7 0.4-0.2 0.2-0.3 0-0.4 0 0.1 0 0.2 0.1 0.3 0 0-0.1-0.1-0.1-0.2-0.2 0.4-0.1 0.6-0.1 1-0.2z"/>
	<path id="Layer" class="s3" d="m166.1 269.5h-0.2l0.3-0.2 0.2 0.4c-0.2-0.1-0.4 0-0.3-0.2z"/>
	<path id="Layer" class="s3" d="m167.5 267.7l0.6 0.2-0.4-0.1z"/>
	<path id="Layer" class="s3" d="m167.8 267.3l0.2 0.1h-0.4z"/>
	<path id="Layer" class="s3" d="m163 242.4l-0.1-0.1q0 0.1 0.1 0.1z"/>
	<path id="Layer" class="s3" d="m162.9 243.1l0.2 0.1q-0.1-0.1-0.2-0.1z"/>
	<path id="Layer" class="s3" d="m167.6 256.3l0.5-0.1c0.4 0-0.2 0.2-0.5 0.3 0.1-0.1 0.1-0.1 0-0.2z"/>
	<path id="Layer" class="s3" d="m165.4 249.2q-0.2 0-0.4-0.1 0.1 0 0.1 0 0.2 0 0.3 0.1z"/>
	<path id="Layer" class="s3" d="m163.4 249l0.3-0.2q-0.2 0-0.3 0.2z"/>
	<path id="Layer" class="s3" d="m162.5 238.5l-0.4-0.2c0 0.2 0.2 0.1 0.4 0.2z"/>
	<path id="Layer" class="s3" d="m167.5 262.8c0.1-0.1 0.2-0.2 0.2-0.3-0.2 0.2-0.6 0.3-0.2 0.3z"/>
	<path id="Layer" class="s3" d="m167.3 242.7q-0.1-0.1-0.2-0.1 0.1 0.1 0.2 0.1z"/>
	<path id="Layer" class="s3" d="m167.7 262.5c0.1-0.1 0-0.2-0.1-0.3q0.1 0 0.1 0c0.3 0.1 0.2 0.2 0 0.3z"/>
	<path id="Layer" class="s3" d="m162.9 224.1q0 0 0 0-0.1 0 0 0z"/>
	<path id="Layer" class="s3" d="m167 219.9q0 0.1 0.1 0.2 0 0-0.1-0.2z"/>
	<path id="Layer" class="s3" d="m167.8 265.6c0 0.1 0.1 0 0 0z"/>
	<path id="Layer" class="s3" d="m166.2 266q-0.1 0-0.2 0 0.1 0 0.2 0z"/>
	<path id="Layer" class="s3" d="m165.2 261.2q-0.2 0.1 0 0z"/>
	<path id="Layer" class="s3" d="m167.6 265.7q0.1 0 0.1-0.1 0 0-0.1 0.1z"/>
	<path id="Layer" class="s3" d="m167.8 265.7q0 0.1 0 0.1c0 0 0.1 0 0-0.1z"/>
	<path id="Layer" class="s3" d="m167.8 265.6q0 0-0.1 0 0.1-0.1 0.1-0.1 0 0.1 0 0.1z"/>
	<path id="Layer" class="s3" d="m164 231.8q0 0 0 0c-0.2-0.1-0.1-0.1 0 0z"/>
	<path id="Layer" class="s3" d="m163.3 254.1q0 0 0 0z"/>
	<path id="Layer" class="s3" d="m164.5 254l-1.2 0.1c0.1-0.1 0.2-0.2-0.3-0.4z"/>
	<path id="Layer" fill-rule="evenodd" class="s3" d="m162.9 241c0.5-0.3-0.1-0.6-0.5-0.8 0.2-0.1 1 0.1 0.8-0.2-0.3-0.5-1 0.1-1.1-0.2l0.7-0.2c-0.6-0.4-0.1-0.7 0-1q-0.1-0.1-0.2-0.1c0.3-0.3-0.7-0.7-0.4-0.9 0.1 0 0.4-0.2 0.5-0.2l-0.4-0.4c0.2 0.1 0.6 0.1 0.9 0.2 0-0.2-0.2-0.2-0.2-0.3 0.1 0 0.2 0.1 0.4 0l-0.6-0.5q-0.1 0.1-0.1 0.2c0-0.2-0.3-0.4 0-0.6 0.2 0 0.3 0.1 0.5 0.1-0.5 0.1-0.1 0.2 0.2 0.3-0.1-0.3 0.1-0.1 0.4-0.2-0.1-0.3-0.6-0.3-0.9-0.3 0.1-0.2 0.3-0.3-0.1-0.6l0.5 0.1-0.2-0.3 0.7 0.2c0.3-0.4-0.9-0.1-0.6-0.6h0.4c-0.2-0.2-0.9-0.3-0.4-0.4-0.3-0.2-0.6 0.3-0.7-0.1 0.2-0.1 0.4-0.3 0.5-0.4-0.2-0.1-0.5 0.1-0.5 0.2-0.2-0.7 1.5-0.4 1-1-0.4 0.2-0.9-0.2-0.9 0.3-0.3-0.3 0.6-0.5 0.2-0.7l0.5 0.1c0.1-0.1-0.2-0.2-0.2-0.2h0.4c-0.8-0.3 0.4-0.6-0.6-0.7 0.8 0.1-0.1-0.3 0.2-0.4 0.6 0.3 0 0.7 0.8 0.8 0.2-0.2-0.2-0.3 0.1-0.4 0.1 0.1 0.3 0.2 0.4 0.3 0.4-0.4-0.4-0.6-0.6-0.9l0.1 0.4c-0.7 0-0.1-0.2-0.7-0.3 0.4-0.2-0.2-0.3 0.1-0.5 0 0 0.1 0 0.1 0.1-0.1-0.5 1.2-0.6 1.2-0.8 0.1-0.1-0.3-0.5-0.6-0.4-0.3-0.1 0.2 0.6-0.8 0.4 1.1-0.3-0.4-0.5 0.4-1.1 0.4 0.2 0.6-0.2 0.9 0.1-0.1-0.3-0.3-0.3-0.6-0.4l0.4-0.1c-0.8-0.4-0.7-0.1-1.1-0.6 0.2 0.2 0.5-0.2 0.7-0.1q0-0.2-0.3-0.4h0.1c-0.2-0.5 0.4-0.4 0-0.9h-0.2c-0.6-0.6-0.2-1.4-0.5-2.1l-0.1 0.2c0-0.1-0.4-0.4-0.1-0.6 0.1 0.1 0.2 0.1 0.1 0.2 0.3 0 0.6-0.1 0.7-0.3h-0.4l0.3-0.1c0-0.2-0.5 0.1-0.5-0.2 1-0.1 0.1-1 1-1.2-0.7-0.2-0.1 0.5-0.8 0.3 0.2-0.1 0.3-0.1 0.4-0.3l-0.5 0.1c0.3-0.8 0.7-1 0.6-1.7h0.1c0.1-0.2 0-0.3-0.3-0.4 0.2-0.1 0.3 0.1 0.5 0-1.2-0.4 0.8-0.8 0-1 0.9 0 1.8-0.6 2.5-0.3l-0.1-0.2c0.6 0.1 0 0.5 0.6 0.6l-0.6 0.6c0.2-0.1 0.5 0 0.6-0.1 0 0.2 0.1 0.3 0.4 0.1-1.5 1.3-0.1 2.6-0.9 3.8 0.1 0.1 0.3 0 0.4 0-0.5 0.2 0.4 0.2 0.4 0.3l-0.8 0.4c0.2 0.1 0.5 0 0.7 0 0.1 0.6-0.7 1.3-0.2 1.8-0.3 0.1-0.7-0.1-0.8 0.2 0.9-0.3 0.5 0.5 1 0.4-0.8 0.2-0.2 0.8-1.4 0.7-0.1 0.2 0.5 0.2 0.6 0.1 0 0.3 0 0.6 0.4 0.8-0.3 0.2 0.3 1.3-0.6 1.6 0.5-0.1 0.3 0.1 0.5 0.2l0.6-0.1-0.1 0.4q0.1 0.1 0 0.1c0 0.1-0.3 0-0.5 0.1 0 0.3 0.3 0.3 0.6 0.5l0.1-0.1v0.2c0 0.1-0.5-0.5-0.8 0 0.1 0 0.9 0.2 0.5 0.3 0-0.2-0.4-0.2-0.5-0.1l-0.1 0.3 0.7-0.1c0 0.9-0.5 1.9-0.5 2.8-0.6 0 0 0.7-0.9 0.6h0.1c-0.1-0.3-0.7 0-0.6 0.2 0.3-0.2 0.9 0.4 1-0.1l0.4 0.4c1.7 0.2-0.1 1 0.4 1.5q-0.1 0-0.2 0c0.6 0.5-0.4 1.1-0.2 1.2l-0.4 0.1c0.7 0.4 0.8 0.5 0.5 1-0.1 0-0.3-0.1-0.3 0 0.3 0.1 0.6 0.3 0.6 0.6h-0.2l0.1 0.5c-1.5 0 0.9 1-0.7 1.2 0.4 0.1 0.6 0.5 0.8 0.7q-0.1-0.1-0.2 0c0.8 0.2-0.3 0.6-0.2 0.8 0.2 0.2 0.4 0.1 0.7 0.1-0.6 0.3 0.7 0.8 0.4 0.9 0 0.2-0.5 0.1-0.9 0.2 0.2 0.3 1.4-0.1 0.8 0.3-0.1 0-0.1-0.1-0.2-0.1-0.2 0.2-1.8 0.5-1.5 0.7l0.3-0.1c0.4 0.3-1.2 0.7-0.2 0.7h0.4c-0.6 0.6 0.2 0.2-0.3 0.8h-0.1c0.1 0.2-0.5 0.3 0.3 0.5l0.1-0.1c0 0.3 0 0.3-0.1 0.6 0.1 0 0.2 0.2 0 0.2 0.7 0 0.3 0.7 0.3 0.8-0.1-0.2-0.4-0.1-0.6 0 0.5 0.1 0.5 0.2 0.2 0.4 0.7 0 1.5 0.1 1.6 0.4-0.1 0-0.2-0.1-0.3-0.1-0.2 0.1 0 0.1 0 0.2-0.1 0-0.3-0.1-0.5-0.1 0.7 0.3 0 0.5 0.3 0.8-0.2-0.1-0.4 0-0.6 0.1 0.8 0-0.8 0.5 0.3 0.3-0.6 0.8 0 1.9-0.7 2.2-0.3 0 0.2 0.2 0.2 0.4l-0.4-0.1c0.7 0.4 0.2 0.3 0.9 0.7-0.4-0.1-0.6-0.1-1 0.1l0.8 0.3h-0.6c0.3 0.2 0.2 0.3 0.1 0.4 0.6 0.1 0.5 0.6 0.9 0.6-0.8 0.2 0.2 0.4-0.5 0.5q0.1 0 0.2 0.1c0.4 0 0.8 0 0.6 0.1q0 0 0 0h-0.5q0.2 0.2 0.2 0.4 0.1-0.1 0.2-0.2-0.1 0.1-0.2 0.2 0 0 0 0 0 0 0 0c-0.1 0.1-0.2 0.1 0 0.2-0.7 0.5 1 1 0 1.4 0.1-0.1 0.1-0.2 0-0.2 0 0.4-0.6 0.8-0.3 1h0.4c0.2 0.3 0.4 0.5 0.3 0.7h0.5c-0.2 0.4 0.6 1.1-0.4 1.3 0.4 0-0.1 0.4 0 0.6h-0.3c-0.1 0.3 0 0.4 0.1 0.6-0.8 0.5 0 0.9-0.1 1.3h-0.1l0.3 0.5c-0.3-0.1 0.2 0.1 0.1 0.2 0.2 0.1 0.1 0.4-0.1 0.5v0.3c-0.3-0.3-0.6 0-1 0l0.3 0.2c-0.2 0.1-0.3-0.1-0.4 0 0.3 0.1 0.2 0.5 0.7 0.6q0.1 0 0.3-0.1-0.1 0 0 0 0 0 0 0 0 0 0 0 0.1 0 0.2 0c-0.1 0.3 0 0.2 0.2 0.2-0.6 0.2-0.2 0.3-0.9 0.5 0.7-0.1 0 0.6 0.8 0.4-0.7 0.2-0.1 0.2-0.6 0.3 0.1-0.3-0.5-0.5-0.8-0.7l-0.4 0.2c-0.7-0.2 0.3-0.5 0.1-0.6 0.1 0.1 0 0.2-0.2 0.3l0.6-0.1c0.2-0.3-0.2-0.5-0.5-0.7-0.2 0.2-0.4-0.3-0.8-0.1l0.1 0.1c-0.2 0.1-0.4-0.1-0.6-0.1 0.5-0.5 0.1-1.4 0.5-1.6-0.1 0.1 0 0.3 0.2 0.4l0.2-0.3c0.1 0.2-0.5 0.4-0.3 0.6 0.4 0 0.9 0.2 1.4 0 0.6-0.6-0.9-0.5-0.8-1.1-0.1-0.1 0.6 0.1 0.4-0.2-0.4-0.4-1.2-0.8-2-0.8 0.2 0.2 0.7 0.6 0.1 0.6-0.2-0.1-0.4-0.5-0.7-0.5 0.6-0.2 0.2 0.4 0.7 0.1 0-0.1-0.2-0.1-0.3-0.2 0.2 0.1 0.4-0.1 0.6-0.2 0-0.4 0.3-0.6 0.3-1 0.1-0.1 0.4-0.1 0.5-0.1-0.2-0.2-1.2-0.5-1.6-0.4 0-0.3 0.3-0.3 0.1-0.5-0.6 0.3 0.1-0.1-0.5-0.1-0.1-0.3 0.3-0.1 0.4-0.2 0 0-0.3-0.1-0.4-0.1 0.4-0.2 1.2 0.2 1.8 0.1 0.4-0.1 1-0.6 1.1-0.6-0.6-0.1-2.8-0.1-3.6 0-0.3 0 0.5-0.2 0.5-0.3 0.6-0.2-0.5-0.4-0.2-0.6l0.3 0.2c0.2-0.1 0-0.4-0.3-0.5 0.2 0 1.1 0.2 1.4 0.1 0.1-0.4-1.1-0.8-1.7-0.8l0.7 0.6c-0.6 0.1-0.6-0.4-1.2-0.4l0.2-0.6c0 0.1 0.1 0.3 0.4 0.2 0-0.2 0.1-0.1 0.4-0.3 0.6 0.3 2.4 0.9 3.2 1.1l-0.4-0.4h0.4c-0.5-0.4-2.5-0.8-3.1-0.9 0.2-0.2 1.3-0.1 1.5-0.1 0.1-0.4-1.6-0.4-1.4-0.9l-0.3 0.2c-0.1-0.1 0.1-0.5-0.1-0.4 0.3-0.1 1-0.2 1.2-0.1l-1-0.4c0.2 0 1 0 1.2 0 0-0.1-1-0.2-1.2-0.2 0.6-0.3 0.3-0.2 1-0.4 0-0.1-0.9 0-1 0-0.3-0.2-0.2-0.3-0.1-0.4 0.4 0.3 2.1 0.1 2.8 0.2l-2.7-0.8c0.1 0 1 0.1 1.1 0.1-0.8-0.1-0.9-0.9-0.8-1.3 0.3 0.1 0.5-0.2 0.2-0.4 0.2 0 0.1 0.1 0.1 0.1 0.7-0.3-1.2-0.3-0.5-0.6 0 0.2 0.3 0.3 0.6 0.3-0.3-0.2 0-0.7-0.9-0.6 0.2-0.2 0.1-0.3 0.5-0.3l-0.5-0.5c0.1 0 0.4 0.1 0.4-0.1-0.1 0.3 0.8 0.6 0.2 0.8 0.6 0 0.9-0.1 1.4 0-0.3-0.6-1.3-0.9-2-1.2l0.4-0.5h-0.2l0.6-0.1c-0.1-0.1-0.2-0.1-0.2-0.1q0.1-0.1 0.3 0-0.1-0.1-0.2-0.2c0.3 0 0.8 0.1 1.1 0.2q-0.2 0.1-0.4 0.2c0.4 0.1 0.7 0.1 1 0q-0.1 0-0.2-0.1c0.3 0.1 0.5 0.1 0.6 0.1l-0.3-0.4c-0.1 0-0.3 0.1-0.6 0.2-0.4-0.3-0.9-0.5-1.4-0.3l0.4-0.3c-0.7-0.3-0.5-0.3-1-0.7 0.2 0 0.4 0.1 0.6 0-0.8-0.3 0.9-0.7 0.2-0.8-0.1-0.2-0.6-0.1-0.8-0.2 0.1 0 0.3 0 0.3-0.1l-0.5-0.1c0.2-0.1 0.3 0.1 0.5-0.1-0.3-0.3-0.6-0.5-0.3-0.8-0.2-0.5-1 0.1-0.9-0.2 0.4-0.1 0.9-0.1 0.9-0.3-0.3-0.1-0.6-0.1-0.7-0.3h0.6c0-0.2-0.2-0.3 0.3-0.3-0.3-0.2-0.2-0.3-0.1-0.4q0 0 0 0c0.1-0.1 0.3-0.2-0.2-0.2q0 0-0.1 0 0 0 0 0 0 0 0 0 0 0 0 0 0 0 0 0 0 0 0 0c0.3-0.4-0.8-0.4 0.3-0.6 0 0.2 0.3 0.4 0.6 0.3l-0.3-0.3c0.2 0 0.1 0.2 0.3 0-0.1 0-0.4-0.2-0.6-0.3l-0.1-0.4c0 0.1 0.2 0.1 0.2 0l-0.3-0.3c0.1 0.1 0.3 0 0.4-0.1 0.2-0.4-1.4-0.3-0.7-0.6 0 0 0 0 0 0l0.3-0.1c-1.3 0-0.1-0.9-1.4-1 0.5-0.2 0.3 0 0.9 0.3l0.3-0.2c0.1 0.1 0 0.2 0.1 0.3zm-1.2 3.5c0.5-0.3 0.2-0.5 0.9-0.6l0.2 0.2q0.1 0 0.1-0.1c0 0.1 0.1 0.1 0.2 0.2-0.4-0.2-1.2 0.2-1.4 0.3zm1.4-1.8q0 0 0 0zm0.3 12.3q0-0.1 0-0.1 0 0 0 0.1zm0 0.1q0 0 0 0zm1 0.4q0 0 0 0zm1.6 10.8q0 0 0 0zm0.1-0.2q0 0 0 0 0 0 0 0zm0.9 0.4q0.1 0 0.1 0 0 0-0.1 0zm-0.7-11.5c0-0.1 0 0-0.1 0q0.1 0 0.1 0zm0 0q0 0 0 0 0 0 0 0 0 0 0 0zm-0.2-24.7q0 0 0 0 0 0 0 0zm1.1-3.2q0 0 0 0 0 0 0 0zm-4.4-2.3v-0.1q0 0 0 0.1zm0.5 6.1q0 0 0 0 0 0 0 0zm-0.8 3.1q0 0 0 0 0 0 0 0zm-0.2 2.9q0 0 0 0zm0.7 7.2q0.1 0.1 0.1 0.1 0 0 0 0 0 0-0.1-0.1zm1.3 5.2c-0.2 0.1-0.2 0.2-0.1 0.3q0.2-0.2 0.1-0.3zm3.1 15.2q0 0 0 0c0.1-0.1 0.2-0.1 0 0zm-0.2 0.4q0.1 0 0.2 0c-0.1-0.1-0.1-0.1-0.1-0.2-0.1 0-0.2 0.1-0.1 0.2zm-0.3-34.1h0.1c-0.1-0.1-0.2-0.1-0.1 0z"/>
	<path id="Layer" class="s3" d="m163.6 249q0.1-0.1 0.3-0.1-0.2 0-0.3 0.1z"/>
	<path id="Layer" class="s3" d="m162.6 238.5q0 0 0 0 0-0.1-0.1-0.1z"/>
	<path id="Layer" class="s3" d="m163.4 260q0.1-0.1 0.2-0.2-0.2 0-0.2 0.2z"/>
	<path id="Layer" class="s3" d="m167.7 266.5c0.1 0 0.2 0 0.2-0.1l0.1 0.2c0-0.1-0.1-0.1-0.3-0.1z"/>
	<path id="Layer" class="s3" d="m165.4 268.4h-0.2c0 0 0 0 0-0.1 0.1-0.1 0.2 0 0.2 0.1z"/>
	<path id="Layer" class="s3" d="m166.5 266.7c-0.4 0.1-0.3 0.2-0.2 0.3q0 0 0 0c0.5 0.1 0.4-0.1 0.2-0.3z"/>
	<path id="Layer" class="s3" d="m166.3 267.1q0 0 0 0.1c0.2 0 0.1-0.1 0-0.1z"/>
	<path id="Layer" class="s3" d="m167.5 265.3c-0.1 0 0.5 0 0.3 0.1 0.5 0-0.6-0.5-0.3-0.1z"/>
	<path id="Layer" class="s3" d="m165.3 266.7l0.4 0.1-0.5 0.1z"/>
	<path id="Layer" class="s3" d="m165.6 266q0 0-0.2 0l0.2-0.3c0.1 0 0 0.2 0 0.3z"/>
	<path id="Layer" class="s3" d="m165.6 266q0 0.1 0.1 0.2 0-0.1-0.1-0.2z"/>
	<path id="Layer" class="s3" d="m165.2 266.3v0.2h-0.1z"/>
	<path id="Layer" class="s3" d="m165.3 263.2c0-0.1 0-0.2 0.2-0.2l0.2 0.3c-0.2 0-0.3-0.1-0.4-0.1z"/>
	<path id="Layer" class="s3" d="m164.1 263.9h0.6c-0.1 0.1-0.2 0.1-0.3 0.1z"/>
	<path id="Layer" class="s3" d="m164.2 263.3c-0.1 0-0.4-0.3-0.4 0 0.2 0 0.3 0.3 0.4 0z"/>
	<path id="Layer" class="s3" d="m165.9 259.6h-0.9z"/>
	<path id="Layer" class="s3" d="m163.4 256.5c-0.2-0.1-0.2 0.2-0.4 0.1 0.3-0.3-0.6 0-0.3-0.3 0.6-0.1 0.5 0 0.7 0.2z"/>
	<path id="Layer" class="s3" d="m163.4 256.5q0.1 0 0.1 0.1 0-0.1-0.1-0.1z"/>
	<path id="Layer" class="s3" d="m167.4 219.2l0.3-0.1-0.2 0.1z"/>
	<path id="Layer" class="s3" d="m166.9 218.7l0.5 0.1-0.6 0.1c0.2-0.1 0.1-0.1 0.1-0.2z"/>
	<path id="Layer" class="s3" d="m162.2 244.6c0 0.1 0 0.1-0.2 0.1h-0.1z"/>
	<path id="Layer" class="s3" d="m162.9 242.1l-0.5 0.1z"/>
	<path id="Layer" class="s3" d="m161.6 240c0 0.1 0.2 0.2 0.1 0.3-0.1-0.2 0.6-0.3-0.1-0.3z"/>
	<path id="Layer" class="s4" d="m165.2 194.4c-9 0-16.2-7.3-16.2-16.3 0-9 7.2-16.2 16.2-16.2 9 0 16.3 7.2 16.3 16.2 0 9-7.3 16.3-16.3 16.3z"/>
	<path id="Layer" class="s4" d="m165.2 33.4l48 53.7h-96z"/>
	<path id="Layer" class="s0" d="m255.5 237.3h8.8v12.1h-8.8z"/>
	<path id="Layer" class="s0" d="m267.6 237.3h8.9v12.1h-8.9z"/>
	<path id="Layer" class="s0" d="m255.5 253.2h8.8v12h-8.8z"/>
	<path id="Layer" class="s0" d="m267.6 253.2h8.9v12h-8.9z"/>
	<path id="Layer" class="s0" d="m255.5 221.5h8.8v12h-8.8z"/>
	<path id="Layer" class="s0" d="m267.6 221.5h8.9v12h-8.9z"/>
	<path id="Layer" class="s0" d="m255.5 237.3h8.8v12.1h-8.8z"/>
	<path id="Layer" class="s0" d="m267.6 237.3h8.9v12.1h-8.9z"/>
	<path id="Layer" class="s0" d="m213.2 237.3h8.8v12.1h-8.8z"/>
	<path id="Layer" class="s0" d="m225.4 237.3h8.8v12.1h-8.8z"/>
	<path id="Layer" class="s0" d="m213.2 253.2h8.8v12h-8.8z"/>
	<path id="Layer" class="s0" d="m225.4 253.2h8.8v12h-8.8z"/>
	<path id="Layer" class="s0" d="m213.2 221.5h8.8v12h-8.8z"/>
	<path id="Layer" class="s0" d="m225.4 221.5h8.8v12h-8.8z"/>
	<path id="Layer" class="s0" d="m213.2 237.3h8.8v12.1h-8.8z"/>
	<path id="Layer" class="s0" d="m225.4 237.3h8.8v12.1h-8.8z"/>
	<path id="Layer" class="s0" d="m255.5 181.9h8.8v12h-8.8z"/>
	<path id="Layer" class="s0" d="m267.6 181.9h8.9v12h-8.9z"/>
	<path id="Layer" class="s0" d="m255.5 197.7h8.8v12.1h-8.8z"/>
	<path id="Layer" class="s0" d="m267.6 197.7h8.9v12.1h-8.9z"/>
	<path id="Layer" class="s0" d="m255.5 166.1h8.8v12h-8.8z"/>
	<path id="Layer" class="s0" d="m267.6 166.1h8.9v12h-8.9z"/>
	<path id="Layer" class="s0" d="m255.5 181.9h8.8v12h-8.8z"/>
	<path id="Layer" class="s0" d="m267.6 181.9h8.9v12h-8.9z"/>
	<path id="Layer" class="s0" d="m213.2 181.9h8.8v12h-8.8z"/>
	<path id="Layer" class="s0" d="m225.4 181.9h8.8v12h-8.8z"/>
	<path id="Layer" class="s0" d="m213.2 197.7h8.8v12.1h-8.8z"/>
	<path id="Layer" class="s0" d="m225.4 197.7h8.8v12.1h-8.8z"/>
	<path id="Layer" class="s0" d="m213.2 166.1h8.8v12h-8.8z"/>
	<path id="Layer" class="s0" d="m225.4 166.1h8.8v12h-8.8z"/>
	<path id="Layer" class="s0" d="m213.2 181.9h8.8v12h-8.8z"/>
	<path id="Layer" class="s0" d="m225.4 181.9h8.8v12h-8.8z"/>
	<path id="Layer" class="s0" d="m75 249.4h-8.9v-12.1h8.9z"/>
	<path id="Layer" class="s0" d="m62.8 249.4h-8.8v-12.1h8.8z"/>
	<path id="Layer" class="s0" d="m75 265.2h-8.9v-12h8.9z"/>
	<path id="Layer" class="s0" d="m62.8 265.2h-8.8v-12h8.8z"/>
	<path id="Layer" class="s0" d="m75 233.5h-8.9v-12h8.9z"/>
	<path id="Layer" class="s0" d="m62.8 233.5h-8.8v-12h8.8z"/>
	<path id="Layer" class="s0" d="m75 249.4h-8.9v-12.1h8.9z"/>
	<path id="Layer" class="s0" d="m62.8 249.4h-8.8v-12.1h8.8z"/>
	<path id="Layer" class="s0" d="m117.2 249.4h-8.8v-12.1h8.8z"/>
	<path id="Layer" class="s0" d="m105 249.4h-8.8v-12.1h8.8z"/>
	<path id="Layer" class="s0" d="m117.2 265.2h-8.8v-12h8.8z"/>
	<path id="Layer" class="s0" d="m105 265.2h-8.8v-12h8.8z"/>
	<path id="Layer" class="s0" d="m117.2 233.5h-8.8v-12h8.8z"/>
	<path id="Layer" class="s0" d="m105 233.5h-8.8v-12h8.8z"/>
	<path id="Layer" class="s0" d="m117.2 249.4h-8.8v-12.1h8.8z"/>
	<path id="Layer" class="s0" d="m105 249.4h-8.8v-12.1h8.8z"/>
	<path id="Layer" class="s0" d="m75 193.9h-8.9v-12h8.9z"/>
	<path id="Layer" class="s0" d="m62.8 193.9h-8.8v-12h8.8z"/>
	<path id="Layer" class="s0" d="m75 209.8h-8.9v-12.1h8.9z"/>
	<path id="Layer" class="s0" d="m62.8 209.8h-8.8v-12.1h8.8z"/>
	<path id="Layer" class="s0" d="m75 178.1h-8.9v-12h8.9z"/>
	<path id="Layer" class="s0" d="m62.8 178.1h-8.8v-12h8.8z"/>
	<path id="Layer" class="s0" d="m75 193.9h-8.9v-12h8.9z"/>
	<path id="Layer" class="s0" d="m62.8 193.9h-8.8v-12h8.8z"/>
	<path id="Layer" class="s0" d="m117.2 193.9h-8.8v-12h8.8z"/>
	<path id="Layer" class="s0" d="m105 193.9h-8.8v-12h8.8z"/>
	<path id="Layer" class="s0" d="m117.2 209.8h-8.8v-12.1h8.8z"/>
	<path id="Layer" class="s0" d="m105 209.8h-8.8v-12.1h8.8z"/>
	<path id="Layer" class="s0" d="m117.2 178.1h-8.8v-12h8.8z"/>
	<path id="Layer" class="s0" d="m105 178.1h-8.8v-12h8.8z"/>
	<path id="Layer" class="s0" d="m117.2 193.9h-8.8v-12h8.8z"/>
	<path id="Layer" class="s0" d="m105 193.9h-8.8v-12h8.8z"/>
	<path id="Layer" class="s2" d="m133.6 107.5h63.2v18.4h-63.2z"/>
	<path id="Layer" class="s3" d="m162.9 0c0 0-0.4 0-0.4 0 0.1 0.1 0.5 0 0.4 0z"/>
	<path id="Layer" class="s3" d="m164 1l-0.4-0.2h0.2z"/>
	<path id="Layer" class="s3" d="m163.5 1.1l0.6 0.1h-0.2c-0.2 0.1 0.6 0.3-0.1 0.4 0.2-0.1-0.2-0.3-0.3-0.5z"/>
	<path id="Layer" class="s3" d="m162.4 1.9q0 0 0 0c0.2 0.2 0.2 0.1-0.1 0.1q0.1 0 0.1-0.1z"/>
	<path id="Layer" class="s3" d="m162.4 1.9c-0.1 0-0.3 0.1 0 0z"/>
	<path id="Layer" class="s3" d="m162 2.3c0.1 0 0.1-0.1 0.3-0.1l0.2 0.1c-0.3 0.1-0.4 0.1-0.5 0z"/>
	<path id="Layer" class="s3" d="m163 2.4h-0.1c-0.1 0-0.1 0 0.1 0z"/>
	<path id="Layer" class="s3" d="m162.8 2.3c0.4 0 0.2 0 0.1 0.1l-0.2-0.2c0.1 0.1 0.3 0.1 0.1 0.1z"/>
	<path id="Layer" class="s3" d="m162.8 2.2c0.1-0.1 0.2-0.2 0.5-0.1-0.1-0.2-0.6-0.1-0.5 0.1z"/>
	<path id="Layer" class="s3" d="m164.5 1.5l0.2 0.1h-0.2c-0.2 0.1 0.1-0.1 0-0.1z"/>
	<path id="Layer" class="s3" d="m162.6 2.8l0.1 0.1c-0.2 0-0.4 0.1-0.5 0.1 0.2 0 0.3-0.1 0.4-0.2z"/>
	<path id="Layer" class="s3" d="m162.7 2.9l0.3 0.1c0-0.1-0.1-0.1-0.3-0.1z"/>
	<path id="Layer" class="s3" d="m163.8 2.5l-0.6-0.3 0.6 0.2z"/>
	<path id="Layer" class="s3" d="m162.3 3.5l-0.5-0.2 0.3 0.1z"/>
	<path id="Layer" class="s3" d="m162.1 3.9c-0.3 0-0.5-0.1-0.5-0.2 0.1 0.1 0.3 0 0.6 0q-0.3 0.1-0.1 0.2z"/>
	<path id="Layer" class="s3" d="m162.4 4q-0.2 0-0.3-0.1 0 0.1 0.3 0.1z"/>
	<path id="Layer" class="s3" d="m162.9 3.3h-0.4c0.1 0 0.3-0.1 0.4-0.1q0 0.1 0 0.1z"/>
	<path id="Layer" class="s3" d="m162.9 3.4q0 0 0-0.1 0 0.1 0 0.1z"/>
	<path id="Layer" class="s3" d="m162.9 3.2q0 0 0 0 0.1 0 0 0z"/>
	<path id="Layer" class="s3" d="m163.4 2.7c0.2 0.1 0.5 0.2 0.8 0.1-0.3 0-0.5 0-0.8-0.1z"/>
	<path id="Layer" class="s3" d="m163.1 3c0.1 0.1 0.3 0 0.4 0l-0.1 0.2z"/>
	<path id="Layer" class="s3" d="m163.4 3.2h0.1z"/>
	<path id="Layer" class="s3" d="m163.1 3.8q0 0.1-0.1 0.2c-0.1-0.1-0.1-0.1-0.2-0.2-0.1-0.1 0.2 0 0.3 0z"/>
	<path id="Layer" class="s3" d="m162.9 3.6q0 0 0 0 0 0 0 0z"/>
	<path id="Layer" class="s3" d="m163 4.6q0 0 0 0 0 0 0 0.1z"/>
	<path id="Layer" class="s3" d="m163.1 3.8q0-0.1-0.1-0.1c0.1 0 0.2 0 0.2 0.1 0 0-0.1 0-0.1 0z"/>
	<path id="Layer" class="s3" d="m162.6 4.2q0.1 0 0.2-0.1c-0.2 0-0.4 0.1-0.2 0.1z"/>
	<path id="Layer" class="s3" d="m162.8 3.6q0 0 0 0c-0.1 0-0.1 0 0 0z"/>
	<path id="Layer" class="s3" d="m162.9 3.6q0.1 0 0.1 0.1-0.1-0.1-0.2-0.1 0 0 0.1 0z"/>
	<path id="Layer" class="s3" d="m165.2 4.9l0.2 0.1c-0.6 0-0.9-0.3-1.3-0.2 0.2-0.1 0.5 0 0.3-0.2-0.3-0.1-0.6 0.1-0.8 0.2-0.2-0.2-0.4-0.2-0.6-0.2 0.7-0.1 2-0.1 2.2 0-0.4 0.1 0 0.2 0.4 0.3-0.1 0-0.3-0.1-0.4 0z"/>
	<path id="Layer" class="s3" d="m163 4.4v0.2c-0.2 0-0.3 0-0.5-0.1 0.3 0 0.5-0.1 0.5-0.1h0.1z"/>
	<path id="Layer" class="s3" d="m163 4.4l-0.2-0.3q0 0 0.1 0c0 0 0 0.1 0.1 0q0 0-0.1 0 0 0-0.1 0 0 0 0 0 0 0 0 0 0.1 0 0.2-0.1 0 0.1 0.1 0.1c0.2-0.1 0.5 0.2 0.4-0.1 0.2 0.1 0.5 0.1 0.5 0.2-0.4 0.1-0.6 0-1-0.1q0.1 0.2 0 0.3z"/>
	<path id="Layer" class="s3" d="m165.1 2.9q-0.1 0.1-0.1 0.1 0.1 0 0.1-0.1z"/>
	<path id="Layer" class="s3" d="m163.8 3.1c0.1 0.1 0.6-0.1 0.8-0.2h-0.1c0.2-0.1 0.4 0 0.5 0-0.1 0-0.2 0-0.3 0-0.1 0.1 0.1 0.1 0.1 0.1-0.3 0.1-0.6 0.1-1 0.1z"/>
	<path id="Layer" class="s3" d="m164.4 3.7h0.2l-0.4 0.1-0.2-0.2c0.2 0 0.5 0 0.4 0.1z"/>
	<path id="Layer" class="s3" d="m162.9 4.8l-0.6-0.1h0.5z"/>
	<path id="Layer" class="s3" d="m162.7 5l-0.3-0.1h0.4z"/>
	<path id="Layer" class="s3" d="m167.5 19.5l0.1 0.1q-0.1 0-0.1-0.1z"/>
	<path id="Layer" class="s3" d="m167.5 19.1h-0.2q0.2 0 0.2 0z"/>
	<path id="Layer" class="s3" d="m162.8 11.4l-0.4 0.1c-0.4 0 0.1-0.1 0.5-0.2-0.1 0-0.2 0.1-0.1 0.1z"/>
	<path id="Layer" class="s3" d="m165 15.6q0.2 0 0.4 0 0 0-0.1 0-0.1 0-0.3 0z"/>
	<path id="Layer" class="s3" d="m167 15.7l-0.3 0.1q0.2 0 0.3-0.1z"/>
	<path id="Layer" class="s3" d="m167.9 21.9h0.4c0-0.1-0.2 0-0.4 0z"/>
	<path id="Layer" class="s3" d="m163 7.6c-0.2 0.1-0.3 0.1-0.3 0.2 0.3-0.1 0.6-0.2 0.3-0.2z"/>
	<path id="Layer" class="s3" d="m163.1 19.4q0.1 0 0.3 0-0.2 0-0.3 0z"/>
	<path id="Layer" class="s3" d="m162.7 7.8c0 0 0 0.1 0.1 0.1q0 0.1-0.1 0.1c-0.3-0.1-0.2-0.2 0-0.2z"/>
	<path id="Layer" class="s3" d="m167.6 30.3q-0.1 0-0.1 0 0.1 0 0.1 0z"/>
	<path id="Layer" class="s3" d="m163.4 32.7q0 0 0-0.1-0.1 0 0 0.1z"/>
	<path id="Layer" class="s3" d="m162.6 6c0-0.1 0 0 0 0z"/>
	<path id="Layer" class="s3" d="m164.3 5.7q0 0 0.2 0-0.2 0-0.2 0z"/>
	<path id="Layer" class="s3" d="m165.3 8.5c0.1 0 0 0 0 0z"/>
	<path id="Layer" class="s3" d="m162.8 5.9q-0.1 0-0.1 0.1 0 0 0.1-0.1z"/>
	<path id="Layer" class="s3" d="m162.6 5.9q0.1 0 0.1 0c-0.1 0-0.1 0-0.1 0z"/>
	<path id="Layer" class="s3" d="m162.6 6q0.1 0 0.1 0-0.1 0 0 0.1-0.1-0.1-0.1-0.1z"/>
	<path id="Layer" class="s3" d="m166.5 25.8q-0.1 0-0.1 0c0.2 0 0.2 0 0.1 0z"/>
	<path id="Layer" class="s3" d="m167.1 12.7q0 0 0 0 0 0 0 0z"/>
	<path id="Layer" class="s3" d="m165.9 12.8l1.2-0.1c-0.1 0.1-0.2 0.1 0.3 0.2z"/>
	<path id="Layer" fill-rule="evenodd" class="s3" d="m167.5 20.4c-0.5 0.2 0.2 0.4 0.5 0.5-0.2 0-0.9-0.1-0.7 0.1 0.2 0.3 0.9-0.1 1.1 0.1l-0.7 0.1c0.5 0.2 0 0.4 0 0.6q0 0 0.2 0.1c-0.3 0.2 0.6 0.4 0.4 0.5-0.1 0-0.4 0.1-0.6 0.1l0.4 0.3c-0.2-0.1-0.5-0.1-0.9-0.2 0 0.1 0.2 0.2 0.3 0.2-0.2 0-0.3-0.1-0.5 0l0.7 0.3q0.1-0.1 0.1-0.1c0 0.1 0.2 0.2-0.1 0.3-0.1 0-0.3 0-0.4 0 0.4-0.1 0-0.2-0.2-0.2 0 0.2-0.1 0-0.4 0.1 0 0.2 0.5 0.2 0.8 0.2-0.1 0.1-0.2 0.2 0.2 0.3h-0.5l0.1 0.1-0.6-0.1c-0.4 0.3 0.9 0.1 0.6 0.4h-0.5c0.2 0.1 1 0.1 0.4 0.2 0.3 0.1 0.7-0.2 0.8 0.1-0.3 0-0.4 0.2-0.5 0.2 0.2 0.1 0.5 0 0.5-0.1 0.1 0.4-1.6 0.3-1 0.6 0.3-0.1 0.9 0.1 0.9-0.2 0.2 0.2-0.7 0.3-0.2 0.4l-0.6-0.1c0 0.1 0.2 0.2 0.3 0.2h-0.5c0.8 0.2-0.4 0.3 0.7 0.4-0.8-0.1 0 0.1-0.3 0.2-0.6-0.1 0-0.4-0.7-0.4-0.3 0 0.1 0.1-0.1 0.2-0.1-0.1-0.3-0.1-0.5-0.2-0.4 0.3 0.5 0.4 0.7 0.5l-0.2-0.2c0.8 0 0.1 0.1 0.7 0.2-0.4 0.1 0.2 0.2-0.1 0.3 0 0 0 0 0-0.1 0 0.3-1.2 0.4-1.2 0.5-0.1 0.1 0.3 0.3 0.6 0.2 0.2 0.1-0.2-0.4 0.7-0.2-1.1 0.2 0.5 0.3-0.3 0.6-0.4-0.1-0.6 0.1-1 0 0.1 0.1 0.3 0.1 0.6 0.2l-0.3 0.1c0.8 0.2 0.7 0 1.1 0.3-0.3-0.1-0.5 0.1-0.8 0.1q0 0.1 0.3 0.2c0.2 0.3-0.5 0.2-0.1 0.5h0.2c0.6 0.4 0.3 0.9 0.5 1.2l0.2-0.1c0 0.1 0.3 0.3 0 0.4 0 0-0.1-0.1-0.1-0.1-0.2 0-0.6 0-0.6 0.1l0.3 0.1h-0.3c0 0.1 0.6 0 0.6 0.1-1.1 0.1-0.2 0.6-1.1 0.7 0.8 0.1 0.1-0.2 0.8-0.1-0.1 0-0.3 0-0.3 0.1h0.4c-0.2 0.4-0.6 0.6-0.5 1l-0.1-0.1c-0.2 0.2-0.1 0.3 0.3 0.3-0.2 0-0.3 0-0.5 0 1.1 0.2-0.9 0.5-0.1 0.6-0.9 0-1.7 0.3-2.4 0.2l0.1 0.1c-0.6-0.1-0.1-0.3-0.7-0.4l0.6-0.3c-0.2 0-0.5 0-0.6 0 0-0.1 0-0.1-0.4 0 1.6-0.8 0.1-1.5 0.9-2.2-0.1-0.1-0.3-0.1-0.4 0 0.6-0.2-0.3-0.2-0.4-0.2l0.8-0.2c-0.2-0.1-0.5-0.1-0.6-0.1-0.2-0.3 0.6-0.7 0.1-1 0.3-0.1 0.7 0 0.8-0.1-0.8 0.2-0.4-0.3-1-0.3 0.9-0.1 0.2-0.4 1.5-0.4 0-0.1-0.6-0.1-0.7 0 0-0.2 0.1-0.4-0.3-0.5 0.3-0.1-0.3-0.8 0.6-0.9-0.6 0-0.3-0.1-0.6-0.2l-0.5 0.1v-0.2q0-0.1 0-0.1c0.1 0 0.2 0 0.3 0h-0.1c0.1 0.1 0.2 0.1 0.1 0q0.1 0 0.2-0.1c0-0.1-0.3-0.1-0.5-0.2h-0.1l-0.1-0.1c0-0.1 0.6 0.3 0.8 0-0.1 0-0.8-0.1-0.4-0.2-0.1 0.1 0.3 0.1 0.5 0.1v-0.2l-0.7 0.1c0.1-0.6 0.6-1.1 0.5-1.7 0.6 0 0.1-0.4 0.9-0.3 0 0.1 0.7 0 0.6-0.1-0.3 0.1-0.9-0.3-1.1 0l-0.4-0.2c-1.7-0.1 0.2-0.6-0.4-0.9q0.1 0 0.2 0c-0.5-0.3 0.5-0.6 0.2-0.7h0.5c-0.8-0.3-0.8-0.3-0.5-0.6 0.1 0 0.2 0 0.3 0-0.4-0.1-0.7-0.2-0.6-0.4h0.1v-0.3c1.4 0-0.9-0.6 0.6-0.6-0.4-0.1-0.5-0.3-0.7-0.4q0.1 0 0.2-0.1c-0.8-0.1 0.2-0.3 0.1-0.5-0.2-0.1-0.4 0-0.7 0 0.7-0.1-0.6-0.5-0.4-0.5 0.1-0.2 0.6-0.1 0.9-0.1-0.1-0.2-1.3 0-0.7-0.2 0 0 0.1 0.1 0.2 0 0.1-0.1 1.8-0.3 1.4-0.3h-0.2c-0.4-0.2 1.1-0.4 0.2-0.4h-0.5c0.6-0.3-0.2-0.2 0.4-0.5-0.1-0.1 0.5-0.2-0.2-0.3l-0.1 0.1c-0.1-0.2 0-0.2 0-0.4 0 0-0.2-0.1 0-0.1-0.6 0-0.3-0.4-0.2-0.5 0 0.2 0.3 0.1 0.6 0.1-0.5-0.1-0.6-0.2-0.2-0.3-0.8 0-1.6 0-1.6-0.3 0.1 0.1 0.1 0.1 0.3 0.1 0.1 0 0-0.1-0.1-0.1 0.2 0 0.3 0.1 0.6 0-0.8-0.1-0.1-0.2-0.4-0.4 0.3 0.1 0.4 0 0.7 0-0.9 0 0.7-0.3-0.4-0.2 0.7-0.5 0.1-1.1 0.8-1.3 0.3 0-0.2-0.2-0.2-0.2h0.3c-0.6-0.2-0.2-0.2-0.9-0.4 0.5 0.1 0.7 0 1-0.1l-0.8-0.1 0.6-0.1c-0.2 0-0.1-0.1 0-0.2 0 0.1 0 0 0.1 0-0.8 0-0.7-0.3-1.1-0.3 0.8-0.1-0.2-0.2 0.6-0.3q-0.2 0-0.3-0.1c-0.3 0-0.7 0-0.6 0q0 0 0 0l0.5-0.1q-0.2-0.1-0.2-0.1 0 0-0.2 0 0.1 0 0.2-0.1 0 0 0 0 0 0 0.1 0c0.1 0 0.1-0.1 0-0.1 0.6-0.2-1-0.5 0-0.8-0.1 0-0.2 0.1 0 0.1-0.1-0.2 0.6-0.4 0.2-0.6h-0.4c-0.2-0.1-0.3-0.3-0.3-0.4h-0.5c0.2-0.2-0.6-0.6 0.4-0.7-0.4-0.1 0.1-0.3 0-0.4h0.4c0.1-0.2 0-0.3-0.2-0.3 0.8-0.3 0-0.6 0.1-0.8h0.1l-0.2-0.3c0.3 0.1-0.3-0.1-0.2-0.1-0.2-0.1-0.1-0.2 0.2-0.3v-0.2c0.2 0.2 0.5 0 0.9 0l-0.3-0.1c0.2-0.1 0.3 0 0.4 0-0.2-0.1-0.2-0.3-0.6-0.4q-0.2 0-0.3 0.1 0 0 0 0 0 0 0 0-0.1 0-0.1 0 0 0 0 0 0 0-0.1 0c0.1-0.2-0.1-0.1-0.3-0.1 0.6-0.2 0.3-0.2 0.9-0.3-0.7 0 0.1-0.4-0.7-0.3 0.6-0.1 0-0.1 0.6-0.1-0.2 0.1 0.4 0.3 0.7 0.4l0.4-0.1c0.8 0-0.3 0.2 0 0.3-0.2 0 0-0.1 0.1-0.2l-0.5 0.1c-0.3 0.2 0.2 0.3 0.5 0.4 0.2-0.1 0.3 0.2 0.7 0.1v-0.1c0.2-0.1 0.3 0 0.5 0.1-0.4 0.3 0 0.8-0.5 0.9 0.1-0.1 0-0.2-0.2-0.2l-0.2 0.1c0-0.1 0.5-0.2 0.3-0.4-0.4 0.1-0.9 0-1.4 0.1-0.6 0.3 1 0.2 0.8 0.6 0.2 0-0.6-0.1-0.4 0.1 0.4 0.3 1.3 0.5 2.1 0.5-0.3-0.1-0.7-0.4-0.2-0.4 0.3 0.1 0.4 0.3 0.8 0.3-0.7 0.1-0.2-0.2-0.8-0.1 0 0.1 0.3 0.2 0.4 0.2-0.3-0.1-0.5 0.1-0.6 0.1 0 0.2-0.3 0.4-0.4 0.6-0.1 0-0.3 0.1-0.5 0.1 0.2 0.1 1.2 0.3 1.6 0.2 0.1 0.2-0.3 0.2-0.1 0.3 0.6-0.2-0.1 0 0.6 0.1 0.1 0.1-0.3 0-0.5 0.1 0.1 0 0.3 0 0.5 0-0.5 0.1-1.3-0.1-1.9 0-0.3 0-1 0.3-1 0.3 0.5 0.1 2.8 0.1 3.5 0 0.4 0-0.4 0.1-0.4 0.2-0.7 0.1 0.4 0.2 0.2 0.4l-0.4-0.2c-0.1 0.1 0.1 0.3 0.3 0.3-0.2 0-1.1-0.1-1.3 0-0.2 0.2 1 0.4 1.6 0.4l-0.6-0.4c0.5 0 0.5 0.3 1.2 0.3l-0.2 0.3c0 0-0.2-0.1-0.5-0.1 0 0.2-0.1 0.1-0.3 0.2-0.7-0.2-2.4-0.5-3.3-0.6l0.4 0.2h-0.3c0.4 0.2 2.5 0.5 3 0.5-0.1 0.2-1.2 0.1-1.5 0.1 0 0.2 1.6 0.2 1.5 0.5l0.2-0.1c0.1 0.1-0.1 0.3 0.1 0.3-0.3 0-0.9 0.1-1.1 0l0.9 0.2c-0.1 0-1 0-1.1 0-0.1 0.1 0.9 0.2 1.1 0.1-0.6 0.2-0.2 0.2-1 0.3 0.1 0 1 0 1.1 0 0.2 0.1 0.1 0.1 0 0.2-0.4-0.2-2-0.1-2.7-0.1l2.7 0.4c-0.2 0-1 0-1.2 0 0.9 0 1 0.5 0.8 0.8v-0.1c-0.2 0-0.4 0.1-0.3 0.2-0.6 0.2 1.2 0.2 0.5 0.4 0.1-0.2-0.2-0.2-0.6-0.2 0.3 0.1 0 0.4 1 0.4-0.2 0-0.1 0.1-0.6 0.1l0.6 0.3c-0.1 0-0.4 0-0.5 0.1q0 0 0 0 0 0 0 0 0 0 0 0 0 0 0 0 0 0 0 0c0.1-0.2-0.7-0.4-0.1-0.5-0.6 0-0.9 0.1-1.4 0 0.3 0.3 1.3 0.5 1.9 0.7l-0.4 0.3h0.3l-0.7 0.1c0.2 0 0.3 0 0.2 0q-0.1 0.1-0.2 0 0 0.1 0.1 0.1c-0.3 0-0.7 0-1.1-0.1q0.2 0 0.4-0.1c-0.3 0-0.7-0.1-0.9 0q0 0 0.1 0c-0.2 0-0.4 0-0.5 0l0.3 0.2q0.1 0 0.5-0.1c0.4 0.2 1 0.3 1.4 0.2l-0.4 0.2c0.7 0.2 0.6 0.1 1.1 0.4-0.3 0-0.5-0.1-0.7 0 0.8 0.1-0.8 0.4-0.2 0.4 0.2 0.2 0.6 0.1 0.8 0.2-0.1 0-0.2 0-0.2 0l0.4 0.1c-0.1 0-0.3-0.1-0.5 0 0.4 0.2 0.6 0.3 0.4 0.5 0.1 0.3 0.9-0.1 0.9 0.1-0.4 0.1-0.9 0.1-1 0.2 0.3 0.1 0.6 0.1 0.8 0.2h-0.6c0 0.1 0.1 0.2-0.4 0.2 0.3 0.1 0.3 0.1 0.2 0.2 0.3 0.1 1.2-0.1 1.4-0.2-0.4 0.2-0.2 0.3-0.9 0.4l-0.1-0.2q-0.1 0.1-0.2 0.1c0 0-0.1-0.1-0.2-0.1-0.2 0.1-0.4 0.1 0.1 0.1q0 0 0.1 0c-0.3 0.2 0.9 0.2-0.3 0.4 0.1-0.1-0.3-0.3-0.6-0.2l0.3 0.2c-0.1 0-0.1-0.1-0.3-0.1 0.2 0.1 0.5 0.2 0.7 0.2v0.3c0-0.1-0.1-0.1-0.2 0l0.4 0.1c-0.2 0-0.4 0-0.5 0.1-0.2 0.3 1.4 0.2 0.8 0.4 0 0-0.1-0.1-0.1-0.1l-0.2 0.1c1.2 0 0.1 0.5 1.4 0.6-0.5 0.1-0.3 0-0.9-0.2l-0.4 0.2c-0.1-0.1 0-0.1-0.1-0.2zm-0.1-1h-0.1q0.1 0 0.1 0zm-1-5.5q0 0 0 0 0 0 0 0 0 0 0 0zm0 0q0 0.1 0.1 0.1c-0.1 0-0.1-0.1-0.1-0.1zm0.7-1.7q0 0-0.1 0 0.1 0 0.1 0zm0-0.1h-0.1q0.1 0 0.1 0zm-1.1-0.2q0 0 0.1 0zm-1.6-6.3q0 0 0 0zm-1.1-0.1q-0.1 0-0.1 0 0 0 0.1 0zm0.9 21.2q0 0 0 0 0 0 0 0zm-1.1 1.9q0-0.1 0.1-0.1-0.1 0-0.1 0.1zm4.4 1.3q0 0 0 0zm-0.5-3.6q0 0 0 0 0 0 0 0zm0.9-1.8q0 0 0 0 0 0 0 0zm0.1-1.7q0 0 0 0zm-0.6-4.2q0 0 0 0 0 0 0 0zm-1.4-3.1c0.2-0.1 0.3-0.1 0.1-0.1q-0.2 0-0.1 0.1zm-3.1-8.9q0 0 0 0c-0.1 0.1-0.1 0.1 0 0zm0.2-0.2q-0.1 0-0.2 0c0.1 0 0.2 0.1 0.1 0.1 0.1 0 0.2 0 0.1-0.1zm0.3 19.9q0 0 0 0 0 0 0 0z"/>
	<path id="Layer" class="s3" d="m166.8 15.7q-0.1 0-0.2 0 0.1 0 0.2 0z"/>
	<path id="Layer" class="s3" d="m167.8 21.8q0 0 0 0 0.1 0.1 0.1 0.1z"/>
	<path id="Layer" class="s3" d="m167.1 9.3q-0.1 0-0.2 0 0.1 0 0.2 0z"/>
	<path id="Layer" class="s3" d="m162.7 5.4c-0.1 0-0.2 0.1-0.2 0.1l-0.1-0.1c0 0 0.2 0 0.3 0z"/>
	<path id="Layer" class="s3" d="m165 4.3h0.2c0 0 0 0.1 0.1 0.1-0.1 0.1-0.3 0-0.3-0.1z"/>
	<path id="Layer" class="s3" d="m164 5.3c0.3 0 0.2-0.1 0.1-0.2-0.5 0-0.3 0.1-0.1 0.2z"/>
	<path id="Layer" class="s3" d="m164.1 5.1q0 0 0-0.1c-0.2 0 0 0.1 0 0.1z"/>
	<path id="Layer" class="s3" d="m163 6.2c0-0.1-0.5-0.1-0.4-0.1-0.5 0 0.6 0.3 0.4 0.1z"/>
	<path id="Layer" class="s3" d="m165.1 5.3h-0.4l0.5-0.1z"/>
	<path id="Layer" class="s3" d="m164.8 5.7q0.1 0.1 0.2 0.1l-0.1 0.1c-0.2 0-0.1-0.1-0.1-0.2z"/>
	<path id="Layer" class="s3" d="m164.8 5.7q0.1 0 0-0.1 0 0.1 0 0.1z"/>
	<path id="Layer" class="s3" d="m165.2 5.5h0.1l0.1-0.1z"/>
	<path id="Layer" class="s3" d="m165.1 7.4c0.1 0 0 0.1-0.2 0.1l-0.1-0.2c0.1 0 0.2 0.1 0.3 0.1z"/>
	<path id="Layer" class="s3" d="m166.3 6.9h-0.6q0.2 0 0.4 0z"/>
	<path id="Layer" class="s3" d="m166.2 7.3c0.2 0 0.5 0.2 0.5 0-0.2 0-0.4-0.1-0.5 0z"/>
	<path id="Layer" class="s3" d="m164.5 9.5h1z"/>
	<path id="Layer" class="s3" d="m167 11.3c0.2 0 0.3-0.1 0.5-0.1-0.3 0.2 0.5 0 0.3 0.2-0.7 0.1-0.5 0-0.8-0.1z"/>
	<path id="Layer" class="s3" d="m167 11.3q0 0-0.1 0 0.1 0 0.1 0z"/>
	<path id="Layer" class="s3" d="m163 33.1l-0.3 0.1 0.2-0.1z"/>
	<path id="Layer" class="s3" d="m163.6 33.4l-0.6-0.1h0.6c-0.1 0-0.1 0.1 0 0.1z"/>
	<path id="Layer" class="s3" d="m168.2 18.3c0-0.1 0-0.1 0.2-0.1h0.1z"/>
	<path id="Layer" class="s3" d="m167.5 19.7h0.6z"/>
	<path id="Layer" class="s3" d="m168.8 20.9c0 0-0.1-0.1-0.1-0.1 0.1 0.1-0.6 0.2 0.1 0.1z"/>
	<path id="Layer" class="s3" d="m169.9 165c0.1-0.1-0.3-0.3-0.3-0.3 0 0.1 0.4 0.3 0.3 0.3z"/>
	<path id="Layer" class="s3" d="m170.5 166.2l-0.3-0.3 0.2 0.1z"/>
	<path id="Layer" class="s3" d="m170 166.1l0.5 0.3-0.2-0.1c-0.2 0 0.3 0.5-0.3 0.2 0.2 0 0-0.3 0-0.4z"/>
	<path id="Layer" class="s3" d="m168.6 166q0.1 0.1 0.1 0.1c0.1 0.2 0.1 0.1-0.1 0q0.1 0 0-0.1z"/>
	<path id="Layer" class="s3" d="m168.7 166c0 0-0.3 0 0 0z"/>
	<path id="Layer" class="s3" d="m168.2 166.1c0.1 0.1 0.1 0 0.3 0.1l0.1 0.2c-0.2-0.1-0.4-0.2-0.4-0.3z"/>
	<path id="Layer" class="s3" d="m169 166.7v-0.1c-0.1 0-0.1 0 0 0.1z"/>
	<path id="Layer" class="s3" d="m168.9 166.5c0.3 0.3 0.1 0.2 0 0.1l-0.1-0.2c0.1 0.1 0.3 0.2 0.1 0.1z"/>
	<path id="Layer" class="s3" d="m168.9 166.4c0.2 0.1 0.3 0.1 0.5 0.3 0-0.2-0.5-0.5-0.5-0.3z"/>
	<path id="Layer" class="s3" d="m170.7 166.8l0.1 0.2-0.2-0.1c-0.2-0.1 0.2 0 0.1-0.1z"/>
	<path id="Layer" class="s3" d="m168.5 166.8l0.1 0.1c-0.2-0.1-0.4-0.1-0.5-0.2 0.1 0.1 0.2 0.1 0.4 0.1z"/>
	<path id="Layer" class="s3" d="m168.6 166.9l0.1 0.2c0.1 0 0-0.1-0.1-0.2z"/>
	<path id="Layer" class="s3" d="m169.6 167.1l-0.3-0.4 0.3 0.4z"/>
	<path id="Layer" class="s3" d="m168 167.1l-0.4-0.3 0.2 0.2z"/>
	<path id="Layer" class="s3" d="m167.6 167.3c-0.2-0.1-0.4-0.3-0.4-0.4 0.1 0.1 0.4 0.2 0.6 0.3-0.3 0-0.3 0-0.2 0.1z"/>
	<path id="Layer" class="s3" d="m167.8 167.5q-0.1 0-0.2-0.2 0 0.1 0.2 0.2z"/>
	<path id="Layer" class="s3" d="m168.6 167.3l-0.4-0.2c0.1 0 0.3 0.1 0.4 0.1z"/>
	<path id="Layer" class="s3" d="m168.5 167.3q0 0 0.1 0-0.1 0-0.1 0z"/>
	<path id="Layer" class="s3" d="m168.6 167.2q0 0.1 0 0z"/>
	<path id="Layer" class="s3" d="m169.2 167.1c0.2 0.2 0.3 0.4 0.7 0.5-0.2-0.2-0.4-0.2-0.7-0.5z"/>
	<path id="Layer" class="s3" d="m168.9 167.2c0 0.1 0.2 0.2 0.3 0.2l-0.2 0.1z"/>
	<path id="Layer" class="s3" d="m169 167.5l0.1 0.1z"/>
	<path id="Layer" class="s3" d="m168.5 167.7q0 0.1-0.2 0.1c0 0 0-0.1-0.1-0.2 0-0.1 0.2 0.1 0.3 0.1z"/>
	<path id="Layer" class="s3" d="m168.4 167.5q0.1 0 0 0z"/>
	<path id="Layer" class="s3" d="m168 168.3q0.1 0 0.1 0z"/>
	<path id="Layer" class="s3" d="m168.5 167.7q0 0 0-0.1c0.1 0.1 0.2 0.2 0.1 0.2q0 0-0.1-0.1z"/>
	<path id="Layer" class="s3" d="m167.9 167.8q0.1 0 0.2 0c-0.1 0-0.3-0.1-0.2 0z"/>
	<path id="Layer" class="s3" d="m168.3 167.4c-0.1 0 0 0 0 0z"/>
	<path id="Layer" class="s3" d="m168.4 167.5q0.1 0.1 0.1 0.1c-0.1-0.1-0.1-0.1-0.2-0.2q0.1 0.1 0.1 0.1z"/>
	<path id="Layer" class="s3" d="m169.9 169.6l0.1 0.2c-0.6-0.3-0.7-0.6-1.1-0.8 0.2 0 0.5 0.2 0.4 0-0.3-0.3-0.6-0.2-0.8-0.3-0.1-0.2-0.3-0.3-0.4-0.4 0.6 0.3 1.7 0.9 1.9 1.1-0.4-0.1-0.1 0.2 0.2 0.4-0.1-0.1-0.2-0.2-0.3-0.2z"/>
	<path id="Layer" class="s3" d="m168.2 168.1l-0.2 0.2q-0.1-0.1-0.3-0.3c0.3 0.1 0.4 0.1 0.5 0.1v0.1z"/>
	<path id="Layer" class="s3" d="m168.2 168.1l-0.1-0.3 0.1 0.1c0 0 0 0.1 0.1 0.1q-0.1-0.1-0.1-0.1 0 0-0.1-0.1 0.1 0 0.2 0 0 0.1 0.1 0.2c0.2 0 0.4 0.4 0.4 0.1 0.1 0.2 0.4 0.3 0.4 0.4-0.5-0.1-0.5-0.3-0.9-0.5q0 0.1-0.1 0.1z"/>
	<path id="Layer" class="s3" d="m170.6 168.1q-0.1 0-0.1 0 0.1 0 0.1 0z"/>
	<path id="Layer" class="s3" d="m169.4 167.7c0 0 0.5 0.2 0.7 0.2v-0.1c0.2 0.1 0.3 0.2 0.4 0.3-0.1-0.1-0.2-0.2-0.3-0.2 0 0 0.1 0.1 0.1 0.2-0.3-0.2-0.5-0.3-0.9-0.4z"/>
	<path id="Layer" class="s3" d="m169.7 168.3l0.1 0.1-0.3-0.1-0.1-0.2c0.1 0.1 0.4 0.2 0.3 0.2z"/>
	<path id="Layer" class="s3" d="m168 168.4l-0.5-0.4 0.4 0.2z"/>
	<path id="Layer" class="s3" d="m167.6 168.4l-0.1-0.2 0.3 0.2z"/>
	<path id="Layer" class="s3" d="m168.1 178.1l0.1-0.1z"/>
	<path id="Layer" class="s3" d="m168 178l-0.2 0.1q0.2-0.1 0.2-0.1z"/>
	<path id="Layer" class="s3" d="m165 173.1l-0.3-0.2c-0.4-0.2 0.1 0 0.4 0.1-0.1 0-0.1 0-0.1 0.1z"/>
	<path id="Layer" class="s3" d="m165.2 177.3q0.2 0 0.4 0-0.1 0-0.2 0-0.1 0-0.2 0z"/>
	<path id="Layer" class="s3" d="m167.4 177.3h-0.3q0.2 0 0.3 0z"/>
	<path id="Layer" class="s3" d="m169 178l0.3-0.3c0 0-0.1 0.1-0.3 0.3z"/>
	<path id="Layer" class="s3" d="m166.8 170.4q-0.2 0-0.3 0c0.2 0.1 0.6 0.2 0.3 0z"/>
	<path id="Layer" class="s3" d="m163.1 180.7q0.2 0 0.3-0.1-0.2 0-0.3 0.1z"/>
	<path id="Layer" class="s3" d="m166.5 170.4c0 0 0 0.1 0 0.2 0 0 0 0-0.1 0-0.2-0.2-0.1-0.2 0.1-0.2z"/>
	<path id="Layer" class="s3" d="m174.7 180.8q0 0 0 0 0.1 0 0 0z"/>
	<path id="Layer" class="s3" d="m175 185.4q-0.1 0-0.1 0 0 0 0.1 0z"/>
	<path id="Layer" class="s3" d="m167.2 169.1c0-0.1 0-0.1 0 0z"/>
	<path id="Layer" class="s3" d="m168.7 169.7q0.1 0.1 0.2 0.1-0.2-0.1-0.2-0.1z"/>
	<path id="Layer" class="s3" d="m168.4 172.2q0.1 0.1 0 0z"/>
	<path id="Layer" class="s3" d="m167.4 169.1q-0.1 0-0.1 0 0 0 0.1 0z"/>
	<path id="Layer" class="s3" d="m167.2 169q0 0 0.1 0c-0.1 0-0.1-0.1-0.1 0z"/>
	<path id="Layer" class="s3" d="m167.2 169.1q0 0 0.1 0-0.1 0-0.1 0 0 0 0 0z"/>
	<path id="Layer" class="s3" d="m170.8 180.3q0.1 0.1 0 0.1c0.2-0.2 0.1-0.1 0-0.1z"/>
	<path id="Layer" class="s3" d="m168.2 176.2z"/>
	<path id="Layer" class="s3" d="m167.1 175.6l1.1 0.6c-0.1 0-0.2 0 0.2 0.3-0.4-0.3-0.8-0.6-1.3-0.9z"/>
	<path id="Layer" fill-rule="evenodd" class="s3" d="m168.4 178.2c-0.5 0.4 0.2 0 0.5-0.3-0.2 0.2-0.8 0.7-0.6 0.6 0.3-0.2 0.7-0.7 0.9-0.8l-0.5 0.5c0.4-0.4 0.1 0 0.1 0.1q0.1-0.1 0.2-0.2c-0.1 0.3 0.4-0.5 0.3-0.3-0.1 0.1-0.2 0.4-0.3 0.5q0.2-0.1 0.3-0.3c-0.1 0.2-0.3 0.5-0.4 0.8 0 0 0.1-0.2 0.1-0.2q-0.1 0.1-0.2 0.4c0.2-0.2 0.3-0.4 0.4-0.6q0 0 0-0.1c0.1 0 0.3-0.1 0.2 0.2q-0.1 0.2-0.2 0.4c0.1-0.4-0.1-0.1-0.2 0.1 0.2 0 0 0.1 0 0.4 0.1 0 0.3-0.4 0.4-0.7 0.1 0.2 0.1 0.3 0.3 0l-0.2 0.4 0.2-0.1-0.4 0.6c0.1 0.4 0.4-0.8 0.5-0.4l-0.1 0.4c0.1-0.1 0.5-0.8 0.3-0.3 0.2-0.2 0.1-0.7 0.4-0.7-0.1 0.3-0.1 0.5-0.1 0.6 0.2-0.2 0.2-0.5 0.1-0.5 0.4 0-0.4 1.5 0.1 1.1 0.1-0.4 0.4-0.8 0.2-0.9 0.2-0.2 0 0.7 0.3 0.3l-0.3 0.5c0 0 0.1-0.2 0.2-0.2l-0.2 0.4c0.4-0.7 0.1 0.4 0.6-0.5-0.4 0.8 0.1 0 0 0.3-0.3 0.5-0.3-0.1-0.6 0.6 0 0.2 0.2-0.1 0.1 0.1 0 0.1-0.2 0.3-0.2 0.4 0 0.5 0.4-0.3 0.6-0.4l-0.3 0.1c0.3-0.7 0.2-0.1 0.4-0.6 0 0.4 0.3-0.1 0.3 0.1-0.1 0-0.1 0.1-0.1 0.1 0.2 0-0.2 1.2-0.2 1.2 0.1 0.2 0.4-0.1 0.5-0.5 0.1-0.1-0.4 0.1 0.1-0.7-0.3 1.1 0.4-0.3 0.4 0.5-0.3 0.3-0.2 0.6-0.4 0.9 0.1-0.1 0.2-0.2 0.4-0.5l-0.1 0.3c0.4-0.6 0.3-0.6 0.7-0.9-0.2 0.2-0.1 0.5-0.3 0.7q0.1 0.1 0.3-0.2v0.1c0.3-0.1 0 0.5 0.4 0.2v-0.2c0.5-0.4 0.7 0.1 1.1 0v-0.2c0 0 0.3-0.2 0.3 0.1 0 0-0.1 0.1-0.1 0-0.1 0.3-0.2 0.6-0.2 0.7l0.2-0.3-0.1 0.2c0.1 0.1 0.2-0.5 0.3-0.4-0.3 1 0.4 0.3 0.2 1.2 0.3-0.7-0.2-0.2 0.1-0.8 0 0.1 0 0.3 0 0.4l0.2-0.5c0.2 0.4 0.2 0.8 0.5 0.9 0 0.2 0.1 0.2 0.3-0.1-0.1 0.2-0.2 0.2-0.2 0.4 0.6-1 0 0.9 0.4 0.2-0.3 0.9-0.4 1.8-0.8 2.4l0.1-0.1c-0.2 0.6-0.2-0.1-0.5 0.5v-0.7c-0.1 0.2-0.3 0.5-0.2 0.6-0.1 0-0.2 0-0.2 0.3 0-1.6-1.2-0.5-1.4-1.5 0 0-0.1 0.2-0.2 0.4 0.2-0.6-0.2 0.2-0.3 0.3l0.2-0.9c-0.1 0.2-0.2 0.5-0.3 0.6-0.3 0.1-0.3-0.8-0.7-0.4 0.1-0.3 0.3-0.6 0.2-0.8-0.2 0.8-0.4 0.3-0.5 0.8 0.2-0.8-0.3-0.3 0.2-1.4-0.1-0.1-0.3 0.4-0.3 0.6-0.1-0.1-0.2-0.2-0.5 0.1 0.1-0.3-0.7 0.1-0.5-0.9-0.1 0.6-0.1 0.3-0.3 0.5l-0.1 0.6-0.2-0.2q-0.1 0.1 0 0c0 0 0.1-0.3 0.1-0.5-0.1 0-0.2 0.2-0.4 0.5v0.1h-0.1c-0.1-0.1 0.4-0.4 0.3-0.8-0.1 0.2-0.5 0.8-0.3 0.4 0 0.1 0.2-0.3 0.2-0.5h-0.1l-0.3 0.6c-0.3-0.2-0.6-0.8-1-1 0.2-0.5-0.3-0.1 0.1-0.9v0.1c0.1-0.1 0.2-0.7 0.1-0.7 0 0.3-0.5 0.8-0.3 1l-0.4 0.3c-0.4 0.8-0.5 0.7-0.5 0.5-0.1-0.2-0.2-0.6-0.5-0.5q0.1 0 0.1-0.1c-0.6 0.3-0.5-0.7-0.7-0.5l0.3-0.4c-0.7 0.4-0.9 0.5-1 0.1 0.1-0.1 0.2-0.1 0.2-0.2-0.3 0.2-0.7 0.4-0.8 0.2l0.1-0.1-0.4-0.1c0.6-0.5 0.3-0.4-0.1-0.3-0.3 0.1-0.7 0.1 0-0.4-0.5 0.2-0.9 0.2-1.2 0.3q0.1-0.1 0.2-0.1c-1.1 0.4-0.2-0.4-0.4-0.4-0.3 0.1-0.6 0.2-0.9 0.4 0.6-0.4-1.5 0.1-1.2-0.1-0.1-0.1 0.7-0.3 1.1-0.5-0.4 0-1.8 0.7-1.3 0.3 0.1 0 0.2 0 0.3-0.1 0.1 0 0.5-0.2 1-0.4 0.6-0.3 1.3-0.6 1-0.5l-0.4 0.1c-0.4 0 1.9-0.8 0.6-0.4l-0.7 0.1c1-0.5-0.1 0 0.7-0.5h0.1c0-0.1 0.8-0.3-0.1-0.2l-0.2 0.1c0-0.2 0.1-0.2 0.3-0.4-0.1 0-0.2-0.1 0-0.1-0.7 0.1-0.1-0.4 0-0.5 0 0.2 0.4 0.1 0.7 0q-0.8 0-0.1-0.2c-0.9 0-1.8 0-1.7-0.3 0.1 0 0.2 0.1 0.4 0.1 0.2 0 0-0.1 0-0.1 0.1 0 0.2 0 0.5 0-0.7-0.2 0.2-0.3 0-0.5 0.2 0.1 0.4 0 0.7 0-0.9-0.1 1-0.1-0.2-0.2 0.9-0.3 0.7-1.2 1.5-1.1 0.3 0.1-0.1-0.2-0.1-0.3l0.3 0.2c-0.4-0.6-0.1-0.3-0.6-0.8 0.4 0.3 0.5 0.4 0.9 0.5l-0.6-0.6 0.5 0.3c-0.1-0.1 0-0.1 0.1-0.2-0.6-0.3-0.4-0.5-0.7-0.7 0.7 0.4-0.1-0.2 0.6 0.1q-0.1-0.1-0.2-0.2c-0.3-0.1-0.7-0.3-0.5-0.3q0 0 0 0l0.4 0.2q-0.1-0.2 0-0.2-0.1-0.1-0.3-0.1 0.2 0 0.3 0.1 0-0.1 0-0.1 0 0.1 0 0.1c0.1 0 0.2 0 0.1-0.1 0.7 0.1-0.6-0.9 0.3-0.6-0.1 0-0.1 0 0 0.1 0-0.2 0.7 0 0.5-0.3l-0.4-0.2c-0.1-0.2-0.2-0.4-0.1-0.5l-0.4-0.2c0.2-0.1-0.3-0.8 0.6-0.3-0.3-0.3 0.2-0.2 0.2-0.3l0.3 0.2c0.2-0.1 0.1-0.2 0-0.3 0.8 0.2 0.3-0.4 0.4-0.6l0.1 0.1-0.1-0.3c0.2 0.2-0.2-0.2-0.1-0.2-0.1-0.2 0-0.2 0.3-0.1l0.1-0.1q0 0.1 0.2 0.2 0 0 0 0 0.1 0 0.1 0 0.2 0.1 0.5 0.2l-0.3-0.2c0.2 0.1 0.3 0.2 0.4 0.2-0.2-0.2-0.1-0.3-0.4-0.6q-0.2-0.1-0.3-0.1 0 0 0 0-0.1-0.1-0.1-0.1c0.1 0-0.1-0.1-0.2-0.2 0.6 0.2 0.3 0 0.8 0.2-0.6-0.3 0.3-0.2-0.5-0.5 0.7 0.2 0.1-0.1 0.6 0.2-0.2 0 0.3 0.4 0.5 0.6l0.4 0.2c0.6 0.4-0.4 0-0.2 0.2-0.1-0.1 0-0.1 0.2 0l-0.5-0.3c-0.3 0 0.1 0.3 0.3 0.6 0.2 0 0.2 0.2 0.6 0.4v-0.1c0.2 0 0.3 0.2 0.4 0.3-0.5 0-0.4 0.6-0.8 0.4 0.1 0.1 0.1-0.1-0.1-0.2h-0.2c0-0.1 0.5 0.1 0.4-0.1-0.4-0.2-0.7-0.5-1.2-0.7-0.7-0.1 0.7 0.6 0.4 0.8 0.1 0.1-0.5-0.3-0.4-0.1 0.2 0.4 0.9 0.9 1.6 1.4-0.2-0.2-0.5-0.6 0-0.4 0.2 0.2 0.2 0.4 0.5 0.6-0.6-0.2-0.1-0.2-0.6-0.4 0 0.1 0.2 0.2 0.2 0.3-0.2-0.2-0.4-0.2-0.5-0.3-0.1 0.2-0.4 0.2-0.6 0.3-0.1 0-0.3-0.1-0.4-0.2 0.1 0.2 0.9 0.8 1.2 1 0 0.1-0.3 0-0.2 0.1 0.6 0.2-0.1 0 0.5 0.4 0 0.1-0.3-0.2-0.5-0.2 0.1 0 0.2 0.2 0.4 0.3-0.5-0.2-1-0.8-1.6-1-0.3-0.1-1-0.3-1-0.3 0.4 0.3 2.4 1.5 3 1.8 0.3 0.2-0.4-0.2-0.4-0.1-0.6-0.2 0.3 0.4 0 0.4l-0.2-0.3c-0.2 0-0.1 0.2 0.1 0.3-0.2-0.1-0.9-0.6-1.2-0.7-0.2 0.1 0.8 0.9 1.3 1.2l-0.4-0.6c0.5 0.3 0.4 0.5 0.9 0.8l-0.3 0.1c0 0-0.1-0.2-0.3-0.3-0.1 0.1-0.1 0-0.4 0-0.5-0.5-1.9-1.6-2.5-2.1l0.2 0.3-0.3-0.1c0.3 0.4 2 1.6 2.4 1.9-0.1 0-1.1-0.6-1.3-0.7-0.1 0.1 1.3 1 1.1 1.1h0.2c0.1 0.1-0.2 0.2 0 0.3-0.3-0.1-0.8-0.4-1-0.6l0.7 0.7c-0.1-0.1-0.8-0.5-1-0.6 0 0 0.8 0.6 1 0.6-0.6-0.1-0.3 0-1-0.3 0 0.1 0.8 0.5 0.9 0.5 0.2 0.2 0 0.2-0.1 0.2-0.2-0.3-1.7-1.1-2.3-1.4 0.7 0.5 1.4 1.1 2.2 1.6-0.1-0.1-0.9-0.5-1-0.6 0.7 0.5 0.7 0.7 0.5 0.7-0.2-0.1-0.4-0.1-0.4 0-0.6-0.1 1.2 0.4 0.5 0.3 0.1 0-0.2-0.1-0.6-0.2 0.3 0.1-0.1 0.2 0.9 0.3-0.2 0-0.1 0.1-0.6 0q0.2 0.1 0.5 0.2c-0.1 0-0.4-0.1-0.5-0.1 0.2 0-0.7-0.2 0-0.2-0.6-0.1-1-0.1-1.5-0.2 0.2 0.3 1.2 0.5 1.9 0.6q-0.2 0-0.5 0.1h0.3-0.8c0.2 0 0.3 0 0.2 0q-0.1 0-0.3 0 0.1 0 0.2 0c-0.4 0.1-0.9 0.1-1.3 0q0.3 0 0.5 0c-0.4-0.1-0.8-0.1-1.1 0q0.1 0 0.2 0c-0.3 0-0.5 0-0.6 0q0.1 0.1 0.2 0.2c0.1-0.1 0.4-0.1 0.7-0.1 0.4 0 1 0.1 1.6 0l-0.5 0.1c0.8 0 0.6 0 1.2 0-0.3 0.1-0.6 0.1-0.8 0.1 1-0.1-1.2 0.4-0.4 0.3 0.2 0 0.8-0.2 1-0.2-0.1 0-0.3 0.1-0.3 0.1l0.6-0.1c-0.2 0-0.4 0-0.7 0.1 0.4 0 0.8-0.1 0.4 0.1 0.1 0 1.4-0.5 1.2-0.4-0.5 0.2-1.2 0.4-1.3 0.5 0.4-0.2 0.8-0.3 1.1-0.4l-0.9 0.3c0.1 0 0.3 0-0.4 0.2 0.3-0.1 0.3-0.1 0.4-0.1q-0.1 0-0.2 0c-0.1 0.1-0.4 0.3 0.3 0q0.1-0.1 0.1-0.1 0.1 0 0.2 0c-0.8 0.4 1.1-0.5-0.4 0.2 0 0-0.4 0.2-0.8 0.4l0.4-0.2c-0.2 0.1-0.2 0.1-0.4 0.2 0.2-0.1 0.6-0.2 0.9-0.4l-0.1 0.1 0.2-0.1c0 0.1-0.2 0.1-0.2 0.2l0.4-0.2c-0.2 0.1-0.4 0.2-0.5 0.3-0.1 0.1 1.5-0.9 0.9-0.5 0 0 0 0.1 0 0.1l-0.3 0.2c1.3-0.9 0.3-0.1 1.4-1-0.4 0.4-0.2 0.2-0.8 0.7l-0.3 0.2c-0.1 0 0 0-0.1 0.1zm-0.7-0.2c0.1 0 0.2-0.1 0.2-0.1q-0.2 0.1-0.3 0.2 0.1-0.1 0.1-0.1zm0.2 0.1q0 0 0 0zm0.2-0.2v-0.1q0 0.1 0 0.1 0 0 0 0zm0-0.1c0.5-0.2 1.2-0.4 1.4-0.5-0.6 0.2-0.2 0.1-1.2 0.5zm-0.8-1.4q0 0 0 0 0 0 0 0 0 0 0 0zm0 0q0 0.1 0.1 0.1c-0.2 0-0.1 0-0.1-0.1zm1.1-0.6q0 0 0 0 0 0 0 0zm0.1-0.1q0 0 0 0zm-0.9-0.7q0.1 0 0.1 0.1zm1.3-5.4q0 0 0 0zm-0.9-0.6q0 0-0.1 0 0.1 0 0.1 0zm-2.3 5.2q0 0.1 0.2 0.1-0.1 0-0.2-0.1zm0 0q0 0 0 0 0 0 0 0 0 0 0 0zm4.9 8.4q0 0 0 0 0 0 0 0zm1 1.6q0 0 0 0 0 0 0 0zm2.8-3.6v0.1q0 0 0-0.1zm-3-0.7q0 0 0 0 0 0 0 0zm-1-1.3q0 0 0 0 0 0 0 0zm-1.1-0.7q-0.1 0-0.1 0 0 0 0.1 0zm-2.9-0.8c0.2-0.1 0.3-0.1 0.1-0.1q-0.2 0-0.1 0.1zm0.8-7.5c-0.1 0-0.2 0 0 0zm0.3 0q-0.1 0-0.1-0.1 0 0-0.1-0.1 0.1 0.1 0.2 0.1 0 0.1 0 0.1zm2.6 13.5v0.1c0-0.1 0.1-0.2 0-0.1z"/>
	<path id="Layer" class="s3" d="m167.2 177.3q-0.1 0-0.3 0 0.1 0 0.3 0z"/>
	<path id="Layer" class="s3" d="m169 178v0.1z"/>
	<path id="Layer" class="s3" d="m169.6 173.7q-0.1 0-0.2-0.1 0.2 0.1 0.2 0.1z"/>
	<path id="Layer" class="s3" d="m167.5 168.7c-0.1 0-0.2 0-0.2 0v-0.1c-0.1 0 0.1 0.1 0.2 0.1z"/>
	<path id="Layer" class="s3" d="m169.9 169.1l0.2 0.1c0 0 0 0 0 0.1-0.1 0-0.2-0.2-0.2-0.2z"/>
	<path id="Layer" class="s3" d="m168.6 169.3c0.3 0.1 0.3 0 0.2-0.1q0 0 0 0c-0.4-0.3-0.3-0.1-0.2 0.1z"/>
	<path id="Layer" class="s3" d="m168.8 169.2q0 0 0.1-0.1c-0.2-0.1-0.1 0-0.1 0.1z"/>
	<path id="Layer" class="s3" d="m167.4 169.4c0.1 0-0.4-0.3-0.3-0.2-0.4-0.3 0.4 0.5 0.3 0.2z"/>
	<path id="Layer" class="s3" d="m169.6 169.9l-0.3-0.3 0.4 0.3z"/>
	<path id="Layer" class="s3" d="m169.2 170q0 0.1 0.1 0.1h-0.1c-0.2 0-0.1 0 0-0.1z"/>
	<path id="Layer" class="s3" d="m169.2 170q0 0 0-0.1c0 0 0 0.1 0 0.1z"/>
	<path id="Layer" class="s3" d="m169.6 170.1l0.1-0.1 0.1 0.1z"/>
	<path id="Layer" class="s3" d="m168.7 171.3c0.1 0.1 0 0.1-0.2 0v-0.2c0.1 0.1 0.2 0.2 0.2 0.2z"/>
	<path id="Layer" class="s3" d="m169.9 171.6l-0.5-0.3q0.2 0.1 0.4 0.2z"/>
	<path id="Layer" class="s3" d="m169.7 171.8c0.1 0.1 0.3 0.4 0.4 0.3-0.2-0.1-0.2-0.3-0.4-0.3z"/>
	<path id="Layer" class="s3" d="m167.3 172.5l0.9 0.5h-0.1z"/>
	<path id="Layer" class="s3" d="m168.7 175.1c0.2 0.2 0.3 0.1 0.4 0.2-0.3 0 0.5 0.3 0.2 0.3-0.5-0.3-0.4-0.3-0.6-0.5z"/>
	<path id="Layer" class="s3" d="m168.7 175.1q0 0-0.1-0.1 0.1 0.1 0.1 0.1z"/>
	<path id="Layer" class="s3" d="m175.2 185.9l-0.1 0.3v-0.2z"/>
	<path id="Layer" class="s3" d="m175.6 185.5l-0.3 0.5 0.2-0.6c0 0.1 0 0.1 0.1 0.1z"/>
	<path id="Layer" class="s3" d="m168.7 177.6c0-0.1 0-0.1 0.3-0.1l0.2-0.1z"/>
	<path id="Layer" class="s3" d="m168.2 178.1l0.6-0.4z"/>
	<path id="Layer" class="s3" d="m169.6 177.3c0 0-0.1 0-0.1 0 0.1 0-0.5 0.5 0.1 0z"/>
</svg>