<svg version="1.2" xmlns="http://www.w3.org/2000/svg" viewBox="0 0 330 330" width="330" height="330">
	<title>New Project</title>
	<style>
		.s0 { fill: #ffffff } 
		.s1 { fill: #004f4f } 
		.s2 { fill: #00aec3 } 
		.s3 { fill: #131313 } 
		.s4 { fill: #d8d8d8 } 
		.s5 { fill: #cfcfce } 
		.s6 { fill: #e62b7a } 
		.s7 { fill: #ca125b } 
		.s8 { fill: #000000 } 
	</style>
	<path id="Layer" class="s0" d="m87.4 176.6l161.8 62.2c-17.7 10.2-25.9 31.4-19.5 50.8l-162.4-62.4c-13.8-5.3-20.8-20.7-15.8-34.7 5.2-14.3 21.6-21.4 35.9-15.9z"/>
	<path id="Layer" class="s1" d="m67.3 227.2c-14-5.4-21-21.1-15.6-35.2 5.4-14 21.1-21 35.2-15.6"/>
	<path id="Layer" class="s2" d="m46 189.8c6.6-17.1 25.9-25.7 43.1-19.1l162.3 62.3-4.4 11.5-162.3-62.4c-10.9-4.1-23.1 1.3-27.3 12.2-4.1 10.8 1.3 23 12.2 27.2l162.3 62.4-4.4 11.5-162.4-62.4c-17.2-6.6-25.8-26-19.1-43.2z"/>
	<path id="Layer" class="s3" d="m73.7 211.3c-0.3 0-0.1-0.3-0.1-0.3 0.4 0.2 0 0.4 0.1 0.3z"/>
	<path id="Layer" class="s3" d="m77.2 213.4l-0.1-0.1 0.5 0.5z"/>
	<path id="Layer" class="s3" d="m80.6 214.8c-0.5 0.3-1.2-0.6-1.9-0.7l-0.1 0.1-0.2-0.5c0.8 0.4 1.7 1 2.2 1.1z"/>
	<path id="Layer" class="s3" d="m82.9 214.4c-0.2 0.2 0.4 0.3-0.5-0.1q0.1 0 0.1 0 0.1 0 0.4 0.1z"/>
	<path id="Layer" class="s3" d="m82.5 214.3c-0.3-0.1 0.3-0.1 0 0z"/>
	<path id="Layer" class="s3" d="m84.2 215.1l-0.4-0.4c0.1-0.1 0.6 0.1 0.4-0.1 0.5 0.3 0.4 0.4 0 0.5z"/>
	<path id="Layer" class="s3" d="m84.5 215.6l-0.2-0.2c0.1 0 0.1 0 0.2 0.2z"/>
	<path id="Layer" class="s3" d="m83.8 215.1l0.5 0.3c-0.1 0.1-0.2 0.2-0.2-0.1 0 0.1-0.1 0-0.3-0.2z"/>
	<path id="Layer" class="s3" d="m83.5 215c-0.3 0-0.7 0-0.3 0.3-0.9-0.4-0.6-0.7 0.3-0.3z"/>
	<path id="Layer" class="s3" d="m80.6 215.3h-0.4l-0.2-0.3c0.1 0.2 0.7 0.2 0.6 0.3z"/>
	<path id="Layer" class="s3" d="m87.3 216c0 0.1-0.2 0.2-0.3 0.3l-0.3-0.3c0.2 0.1 0.5 0.1 0.6 0z"/>
	<path id="Layer" class="s3" d="m87 216.3l0.4 0.4c-0.4-0.2-0.5-0.3-0.4-0.4z"/>
	<path id="Layer" class="s3" d="m84.4 216.2l-0.7-0.7 0.9 0.7z"/>
	<path id="Layer" class="s3" d="m89.4 216.8l-0.2-0.4 0.4 0.6z"/>
	<path id="Layer" class="s3" d="m90.7 217.3c-0.1-0.3 0.5-0.2 0.3-0.4 0.3 0.2 0.6 0.5 0.8 0.7-0.3-0.2-0.6-0.3-1.1-0.3z"/>
	<path id="Layer" class="s3" d="m92.2 218q-0.2-0.1-0.4-0.4 0.2 0.2 0.4 0.4z"/>
	<path id="Layer" class="s3" d="m88.4 217c0-0.1 0.2-0.2 0.5-0.1l-0.3 0.2q-0.1-0.1-0.2-0.1z"/>
	<path id="Layer" class="s3" d="m88.6 217.1q0.3 0.1 0.4 0.1 0 0-0.4-0.1z"/>
	<path id="Layer" class="s3" d="m88.3 217q0 0 0.1 0-0.1 0-0.1 0z"/>
	<path id="Layer" class="s3" d="m85.9 216.4c0.3 0.3 0.9 0.8 0.1 0.8-0.1-0.3 0.3-0.3-0.1-0.8z"/>
	<path id="Layer" class="s3" d="m87.9 217.2l-0.6-0.1c0.1-0.1 0.2-0.2 0.1-0.3z"/>
	<path id="Layer" class="s3" d="m88.2 217.4l-0.3-0.2 0.2 0.1z"/>
	<path id="Layer" class="s3" d="m91.1 217.9c0.2 0.2 0.5 0.3 0.8 0.5q-0.6-0.1-1.1-0.3c0-0.1 0-0.3 0.3-0.2z"/>
	<path id="Layer" class="s3" d="m89.9 217.5q0 0.1 0 0.1-0.1 0 0-0.1z"/>
	<path id="Layer" class="s3" d="m94.8 219.5q0 0.1 0 0.1 0-0.1 0-0.1z"/>
	<path id="Layer" class="s3" d="m90.8 218.1c-0.3 0-0.4-0.1-0.5-0.3q0.2 0.2 0.5 0.3c0 0 0 0.1 0 0z"/>
	<path id="Layer" class="s3" d="m93 218.5q-0.3 0-0.5 0c0.1-0.1 0.4-0.1 0.5 0z"/>
	<path id="Layer" class="s3" d="m90 217.5q0 0 0 0c0.1 0 0.1 0 0 0z"/>
	<path id="Layer" class="s3" d="m90 217.5c0.1 0.1 0.2 0.2 0.3 0.3q-0.2-0.1-0.4-0.2 0.1 0 0.1-0.1z"/>
	<path id="Layer" class="s3" d="m95 221.7c0.1-0.3-0.4-0.7-1.1-0.7-0.5-0.4 0.2-1.1 0.9-1.4 0 0.1-0.1 0.2 0.4 0.6-0.2 0-1.4-0.2-1 0.3 0.7 0.4 0.7 0.1 1.1 0.1-0.5 0.2 0.7 0.8 0.4 1.3l-0.6-0.5c0 0.1 0.1 0.3-0.1 0.3z"/>
	<path id="Layer" class="s3" d="m93.7 219.2l-0.2-0.1c0.3 0 0.5 0 0.9-0.1 0.4 0.3 0.4 0.4 0.4 0.5l-1.2-0.4z"/>
	<path id="Layer" class="s3" d="m92.4 218.7c0.1 0.3 0.6 0.7 0.2 0.8-0.7-0.2-0.4-0.4-0.8-0.7 1.1 0.5-0.2-0.3 0.6-0.1q-0.3-0.2-0.5-0.3 0.3 0 0.6 0.1 0 0 0 0h-0.1q0 0 0 0c0 0 0 0 0 0q0 0 0 0 0 0.1 0 0.2c0.4 0 0.1-0.1 0-0.2q0 0 0 0 0 0 0 0l1.1 0.6c-0.3-0.1-0.6-0.2-1.1-0.4z"/>
	<path id="Layer" class="s3" d="m86.4 218c0 0 0 0 0-0.1 0.1 0.1 0.1 0.1 0 0.1z"/>
	<path id="Layer" class="s3" d="m86.9 218c-0.1-0.1-0.1-0.2-0.4-0.3-0.2 0 0 0.2-0.1 0.2-0.1-0.1-0.4-0.4 0.1-0.3h0.1c0.5 0.1 1.2 0 1.1-0.1-0.2 0.2-0.4 0.4-0.8 0.5z"/>
	<path id="Layer" class="s3" d="m89.7 218.4l0.8 0.5-0.5 0.1 0.1-0.1c-0.6-0.2-0.4-0.3-0.4-0.5z"/>
	<path id="Layer" class="s3" d="m95 219.4v-0.3l0.4 0.6z"/>
	<path id="Layer" class="s3" d="m96.2 219.9v-0.3l0.3 0.3z"/>
	<path id="Layer" class="s3" d="m161.9 249l0.3 0.2q-0.2-0.1-0.3-0.2z"/>
	<path id="Layer" class="s3" d="m160 248.3v-0.2c0 0.1 0.1 0.2 0 0.2z"/>
	<path id="Layer" class="s3" d="m125.3 231.2c0.5-0.1 1.1-0.4 0.9-0.1l-0.2 0.3c-0.2-0.2-0.5-0.2-0.7-0.2z"/>
	<path id="Layer" class="s3" d="m144.6 240.6q0 0-0.1 0-0.1-0.2-0.2-0.3 0.2 0.1 0.3 0.3z"/>
	<path id="Layer" class="s3" d="m144.5 241.9h0.5q-0.2 0.1-0.5 0z"/>
	<path id="Layer" class="s3" d="m172.4 253.4l0.2 0.4c-0.5-0.2-0.2-0.2-0.2-0.4z"/>
	<path id="Layer" class="s3" d="m108.3 224.7q0.6 0 0.9 0.2c-0.5 0-0.9 0.1-0.9-0.2z"/>
	<path id="Layer" class="s3" d="m162.4 245.6q0.2 0.2 0.1 0.3-0.2-0.2-0.1-0.3z"/>
	<path id="Layer" class="s3" d="m110.2 225.2q-0.1 0-0.2 0c-0.2-0.1-0.5-0.3-0.8-0.3 0.4-0.1 0.7 0 1 0.3z"/>
	<path id="Layer" class="s3" d="m211 268q0.1 0 0.1 0 0 0-0.1 0z"/>
	<path id="Layer" class="s3" d="m223.4 269.3c-0.1 0-0.3-0.1-0.5-0.2q0.2 0 0.5 0.2z"/>
	<path id="Layer" class="s3" d="m101 221.6c-0.2-0.1 0 0 0 0z"/>
	<path id="Layer" class="s3" d="m99.3 222.3q0.1 0.1 0.1 0.2 0-0.1-0.1-0.2z"/>
	<path id="Layer" class="s3" d="m112 228q0 0 0 0c-0.1 0.1-0.1 0.1 0 0z"/>
	<path id="Layer" class="s3" d="m100.6 221.6q0.1 0 0.3 0.1 0 0-0.3-0.1z"/>
	<path id="Layer" class="s3" d="m100.7 221.5q-0.1 0-0.2-0.1c-0.1 0 0 0 0.2 0.1z"/>
	<path id="Layer" class="s3" d="m101.4 221.8q-0.3-0.1-0.5-0.1 0.1 0 0.1-0.1 0.1 0.1 0.4 0.2z"/>
	<path id="Layer" class="s3" d="m190.7 259.2q0 0 0.1 0c0.2 0.2 0.1 0.2-0.1 0z"/>
	<path id="Layer" class="s3" d="m130.7 236.7q0 0 0 0 0 0 0 0z"/>
	<path id="Layer" class="s3" d="m131.5 237.3c-0.2-0.5-0.4-0.6-0.8-0.6l0.7-0.7z"/>
	<path id="Layer" fill-rule="evenodd" class="s3" d="m166.4 250.9h-0.7c0.6 0.8 1.2 0.8 0.5 1 0.3-1-2.4-1.1-2.2-2h-0.5c0.1 0 0.1 0.1 0.3 0.1-1 0.2-0.4-0.9-1.5-1.1-0.4-0.1-0.7-0.1-0.5 0.1l-0.7-0.5c-0.2-0.1-0.2 0-0.1 0.1l-1.1-0.5c-0.1-0.2-0.5-0.5-0.6-0.7-0.4 0 0.1 0.1 0 0.2l-0.6-0.5c-0.4 0.2 0.1 0.6 0.6 0.8-1 0.6-0.5-0.5-2.1-0.5l0.6 0.4c-0.6 0.3-1 0-1.9 0 0.2-0.1 1.8-0.3 1.1-0.8-0.2 0-0.5-0.1-0.8-0.4-0.2 0.3-0.5 0.1-1-0.1l-0.1 0.4c-0.5-0.3-0.4-0.5-0.6-0.8-0.6-0.2-0.9 0.1-1.1 0.3-1-0.3 0.8-0.3-0.3-0.8-0.8-0.1-1.3-0.5-2.1-1.1-0.7-0.1 0 0.3-0.3 0.3l-0.3-0.5c-0.2-0.1-0.2 0.1-0.2 0.1-0.3-0.3 0.2-0.4-0.4-0.8 0-0.5-1.6 0.2-2.2-0.7-0.3 0.1 0 0.3-0.2 0.5-0.9-0.8-0.8-0.6-1.5-1.5h-0.9c0.7-0.1 0.1-0.7-0.4-1.3 0.3-0.1 0.5-0.2 0.6-0.2l-0.9-0.6c-0.2 0-0.1 0.2 0 0.5q-0.1-0.1-0.2-0.2c-0.4 0-0.3 0.3-0.1 0.7q0.2-0.1 0.4-0.1c0.2 0.3 0.3 0.7 0.2 0.9q-0.1-0.1-0.3-0.2c0 0.1 0 0.2 0 0.2-0.1 0-0.1-0.1-0.3-0.3l-0.4 0.4v-0.2l-1.4-0.2c-0.8-0.9-1.3-1.9-2.7-2.7 0.2 0.5-0.2 0.6-0.3 1.1 0.6-0.3 1.1 0.6 1.9 0.8-0.4-0.1-0.4 0.1-0.3 0.2l-1.3-0.9c-0.1 0.4-0.4 0.2-0.8 0.2 0.5-0.6-0.9-0.9-1.3-1.3-0.2 0.2-0.1 0.5 0.6 0.7-1 0.2-0.7-1.2-1.6-1.1-0.4-0.2-1-0.2-0.9 0h0.2c-1.2-0.3-3.4-1.3-3.4-1.9 0 0.1-0.1 0.7-0.1 0.9l-1.2-2.7c0 0.5-1.2 1.5-0.3 2.1-0.3 0-0.7-0.1-1.2-0.5 0.2 0 0.7-0.5 0.5-0.6-0.9 0.2-0.6 0.1-1.6 0.2 0.3-0.1 0.3-0.9-0.1-1 0 0.1-0.3 0.7-0.2 0.8l-0.8-1.1c0.1 0.3-0.2 0.7-0.5 0.8 0.1-0.1-1-0.4-1.2-0.5h0.5c-1.2-0.4-0.8-1.6-2-2 0.1 0.2 0 1.1-0.7 1-0.1-0.5-0.5-2.4-1.4-3.1l-0.3 0.2-0.7-0.6c0.3 0.8 1.2 2.6 1.8 3.3-0.5 0-0.2 0.2-0.9 0-0.3 0.1 0.3 0.4 0.5 0.5l-1.7-0.5c0.3-0.4-1-0.9-0.8-1.2l1.5 1.1c0.3-0.4-0.5-1.7-1.6-2-0.4 0-0.1 0.9-0.2 1-0.1-0.2-0.9-0.7-1.1-0.6l0.4 0.4c-0.7-0.1-0.8-1-1.7-0.9-0.3 0-1 0.3-0.9 0 0.6-0.3 1.3-1.9 1.2-2.4-0.2 0-1.6 0-2 0.1-0.6 0.3 0.3 1.2-0.2 1.5 0-0.2-0.2-0.4-0.2-0.5-0.3 0-0.1 0.4-0.6 0.1 0-0.5-1.3-0.4-0.2-0.5-0.5-0.3-0.6-0.1-1.3-0.4 0.4-0.2-0.2-1.2-0.7-1.6 0 0.1-0.2 0.2-0.3 0.3-1.2-0.4-1.9-0.5-3-0.9-0.2 0.1-0.8 0-0.6 0.3-0.1-0.1-0.2-0.3-0.6-0.5-0.8 0.2 0.8 0.4 0.1 0.7 0-0.3-0.7-0.8-1.2-1.1 0.3-0.4 1.2 0.3 1.6 0.7 0.2-0.6-0.4-1.5-1.4-2.2-0.9-0.5-0.6 0.2-0.7 0.1-1.8-0.6-1.1-1.6-2.7-1.7-0.7 0.1-0.3 0.7-0.5 0.9 0.7 0.4 1.2 0.2 1.7 0.4h-0.7c0.2 0.2 0.7 0.5 1 0.5-0.6 0.1-2.9-1.1-4.4-1.3-0.2-0.2-0.5-0.5-0.3-0.6l0.4 0.2c0.5-0.1-0.6-0.7 0-0.6-0.5-0.4-1-1-1.8-1.1l-0.3 0.3c0.1-0.1 0.6 0 0.7 0.2-0.2-0.3-1.4 0.1-1.6-0.6l0.7-0.1c-0.5-0.4-1-1.1-1.8-1.2 0.5-0.3 0.2 0.1 0.9-0.2-0.7 0.4 1.6 0.6 1 0.9 0.6-0.2 0.9 0.2 1.7 0-0.1 0.1-0.4 0.2 0.3 0.3 0 0.1 0 0.1 0 0.2q0.1 0 0.1 0 0 0 0 0 0 0-0.1 0-0.2 0-0.3 0.1c0.1 0.4 1.1 0.8 1.3 1.1 0.4 0-0.1-0.3 0.2-0.3l0.4 0.4c0.1-0.3 1.1-0.1 0.3-0.6l0.8 0.2c0.5 0 1.1 0.2 1.4 0.5 0.4 0 0.8 0.6 0.6 0.3l1.1 0.6v-0.1c1.2 0.4 2.2 1.5 3.7 1.4 0.4 0.2 0.7 0.5 1.4 0.6l0.2-0.2c0.5 0.3 1.6 0.3 1.7 0.7 0.8-0.5 2.5 0.8 3.4 1l-0.1 0.3c0.6 0.2 1.2 0.6 1.9 1l-0.2 0.3c0.5 0.5 1.7 0.4 2.7 0.8 0-0.1-0.3-0.2-0.5-0.2 1.5-0.2 2.4 1.5 3.7 1.4 0.2 0.2 0.5 0.3 0.7 0.3q-0.1 0-0.1-0.1 0.1 0 0.1 0.1 0.2-0.1 0.5-0.1-0.3 0.1-0.4 0.1c0.2 0.1 0.5 0.2 0.8 0.4l0.2-0.2q0.1 0 0.1 0c0.4 0 0.2 0.2-0.1 0.4q0.2 0.2 0.4 0.4c0.4-0.5 0.7 0.5 1.3 0 0.1 0.4 1.3 0.8 1.4 1.3 0.4 0.1 0.8 0.2 1 0.5l0.3-0.4 0.6 0.9c0.5-0.1 0.8-0.2 0.5-0.7 0.9 0.9 0.8 0.6 1.5 1.4l0.1-0.3c0.3 0.2 0.8 0.7 1 0.6 1-0.2 3.8 1.4 5.9 1.6-0.6 0.7 1.1 0 0.9 0.7 0.2-0.2 0.5-0.2 0.3-0.5 0.9 0.6 1.6 0.3 2.1 1.1 0.2-0.1-0.1-0.3 0-0.4 0.1 0 0.3 0.3 0.4 0.2 0.2-0.1-0.1-0.2-0.2-0.4 1 0.5 0.9 1.1 0.8 1.6 0.6 0 0.8 0.1 1.1 0.6 0.2-0.1 0.6-0.2 0-0.5 0.3 0.1 2.2 0.6 2.1 1 0.2 0 0.5 0.2 0.6 0.3 0.8 0.3 0.9 0.3 1.6 0.6h-0.2c0.1 0.6 0.6 0.4 1.2 0.7v-0.1c1.6 0.2 0.6 0.4 2.2 0.5l-0.2 0.3c-0.2 0.8 1.4 0.1 2.1 0.7l-0.4 0.1c0.4 0.4 1.7-0.5 2.1-0.4 0.2 0-0.1-0.2-0.2-0.3 1.4 0.1 0 0.5 0.8 1 0.3-0.2 0.1-0.7 0.7-0.5 0.3-0.1 1.4 1.4 2.4 1.3-0.2 0.1-0.5 0.2-0.1 0.5 0.6 0.3 1.9 0 2.3 0.7q0.1 0 0.1-0.1c0.5 0.4 1.5 0.9 1.7 1.3 0.9-1 2.8 1.7 3.2 0.6l1.4 0.7v-0.1c1 0.3 1.2 0.6 1.5 1 0.2 0 0.1-0.1 0.1-0.2 1.5 0.3 1.6 0.4 2.6 1.4l0.2-0.3c0.3 0.3 2.2 0.2 3.4 1.2 0-0.1 0-0.2-0.1-0.3 1.4 1 4 0.5 4.1 2l0.9 0.6c-1.3-0.4 0 0.6-0.6 0.6 0.5 0.3 1.5 0.2 0.9-0.1h-0.2c0.1-0.7 1.8 0.4 1.9 0 2.5 1 5.2 1.6 7.6 2.5l-0.5 0.4 0.9 0.3c0.2-0.1 0.4-0.3-0.2-0.5 0.4-0.2 0.9 0.6 0.9 0.7 1.2 0.3-0.2-0.7 0.1-0.6l0.5 0.2h-0.1c0.3 0.4 0.2 0.6 1 0.9 0.5 0 0.3-0.2 0.5-0.2 0 0 0.1 0 0.3 0.1l1 0.4-0.5 0.2c0.4 0.4 1 0.4 0.3 0.6 1-0.4 4.1 1.3 4.6 1.2 0.5 0.6 1.2 0.8 2 1.1-0.2 0-0.5 0.4 0.2 0.6 0.1-1 1.3 0 2.1-0.3-0.3 0.3 2 0.8 1 1.1 0.6 0.2 0.2-0.3 0.7-0.3 1.2 0.8 3.1 0.9 4.8 1.7 0 0.1-0.4 0.2-0.1 0.5l1.1-0.3c0.3 0.2 0.1 0.9 0.8 0.7-0.1 0-0.3 0.1-0.1 0.3 3.6 0.7 6.7 3.1 10.5 3.3-0.6 0-0.3 0.2 0 0.3-0.2 0-0.1 0.3-0.2 0.4l1.6 0.1c0.1 0.6 1.5 0.7 1.5 1.1l-0.4-0.2c0.4 0.7-1.3 0.8-1.4 1.5-0.5-0.9-2.1 0.1-2.9-1.1-0.3 0 0.1 0.3 0 0.4-0.2-0.4-0.5-0.6-1.2-0.7v0.1c-1.7-0.7-2.5-0.8-4.6-1.3l0.3-0.3c-0.4-0.1-0.6 0-0.8 0-0.3-0.7 1.2 0.4 1-0.3-0.8 0.4-3-1.1-3.7-0.6-0.6-0.2 0.4-0.2-0.3-0.5l-0.2 0.1-0.1-0.3c-0.4-0.1-0.7 0.1-0.8 0.2 0.1 0 0.3 0.2 0.4 0.2-0.6 0.1-1.4-0.5-1.7-0.6l0.6 0.1c-1.7-0.9-4-1.5-5.5-2.5l0.2-0.1c-1.2-0.8-1.1-0.3-2.5-0.9-0.2-0.3-0.6-0.5-1-0.6 0.3 0.3-0.8 0.1-0.4 0.5-1.3-0.9-0.6-0.6-1.3-1.5l-0.3 0.2c-0.3-0.3-0.2-0.5-0.9-0.8 0.5 0.4-0.6 0.2-0.1 0.7-1.7 0-2-1.4-3-0.8-0.4-1 1.4 0.1 1.1-0.2 0.4-0.1-0.3-0.8-0.8-0.9-0.5-0.1-1.2 0.6-2.4 0.1 0.1 0.1 0.1 0.1 0.2 0.2-0.5 0-0.8-0.6-1.4-0.5-0.2-0.6-0.8-0.3-0.6-0.9l1 0.6c-0.6-0.4-0.9-1.2-2.1-1.3 0.1 0.1 0.3 0.4 0.5 0.5-0.3 0.1-0.5-0.3-0.9-0.3-0.1 0.6 1.3 0.7 1.8 1.3-0.4 0.1-1.1-0.8-1-0.1-0.2-0.9-1.2-0.4-1.8-1.3l-0.1 0.4c-0.1-0.1-0.3-0.4-0.5-0.5l0.2 0.6c-0.5-0.6-1.4-0.2-1.9-0.6 1.3 0.5 0.4-0.3 1.1-0.3-1.5-1-1.3 0.4-3-0.3 0.3 0.1 0.9 0.1 0.6-0.2-0.4-0.1-0.9-0.1-1.2 0-1.1-0.6 0.4-0.3-0.1-0.7-0.5 0.2-0.5-0.4-1-0.7l-0.1 0.3c-1.5-0.3-0.1-0.8-1.5-1l0.4 0.6-0.6-0.3v0.4c-0.6-0.6-0.9-0.6-1.6-0.7 0.2-0.2 0.1-0.7-0.5-0.9-0.5 0 0.1 0.4-0.7 0 0.1 0.3 0.2 0.6 0.7 0.5 0 0.1 0.1 0.3 0.1 0.4-0.5 0-1.1-0.4-1.5-0.5 0.2 0 0.3 0 0.4 0l-1.1-0.9c-0.2 0-0.1 0.2 0 0.4-0.2-0.2-0.4-0.4-0.7-0.6 0 0.3-0.1 0.6 0.3 0.9l-1-0.7c-0.2 0.1-0.8 0-0.7 0.2-0.7-0.1-1.4-1.1-2.4-1.3q0-0.1-0.2-0.2c-0.9-0.3-1.8-0.2-2.6-1l-0.7 0.3c-0.8-0.4 0.9-0.3-0.3-1-0.8-0.5-0.5 0.3-0.8 0.3-0.4-0.4-1-1.2-2-1.2 0.3 0.2 0.5 0.2 0.6 0.4zm10.1 4.2q0 0 0 0zm8 2.9q0 0 0.1 0-0.1 0-0.1 0zm8.5 2.6q0.1 0 0.1 0 0 0-0.1 0zm16.3 6.6q0 0 0 0zm-5-5.5q0 0.1-0.1 0.1 0.1 0 0.1-0.1zm-9-2.5q0 0 0 0 0 0 0 0zm-66.2-25.7q0 0 0 0 0 0 0 0 0 0 0 0zm0 0q0.1 0.1 0.1 0.2c0-0.1 0.1-0.1-0.1-0.2zm-30.7-12.3q0-0.1 0.1-0.1-0.1 0-0.1 0.1zm0.2 0.9q0 0 0 0zm28.7 12.4q0 0 0 0zm0.8 1.1q0 0 0 0zm0.3 0.2q0 0 0 0 0 0 0 0zm8 2.5c0.2 0.1 0.3 0.1 0.3 0.2q-0.1-0.1-0.3-0.2zm0 0q0 0 0 0 0 0 0 0 0 0 0 0zm4.7 2.2q0 0 0 0 0 0 0 0zm20 8.1q-0.1 0-0.1 0zm-4-1.7c0.2 0.2 0.5 0.5 0.7 0.4-0.1-0.5-0.3-0.4-0.7-0.4zm-14.1-6.3c0.1 0.2 0.3 0.2 0.6 0.2q-0.2-0.2-0.6-0.2zm-39.3-17.7q0 0 0 0c0.4 0 0.3 0 0 0zm-0.5-0.1c-0.2-0.1-0.4-0.2-0.4-0.3q-0.1 0.1 0 0.2c0.2 0.2 0.3 0.1 0.4 0.1zm91 35.2h-0.2c0.4 0.2 0.3 0.1 0.2 0z"/>
	<path id="Layer" class="s3" d="m144.5 241.8q0.1-0.1 0.1-0.2c0.1 0.1 0 0.2-0.1 0.2z"/>
	<path id="Layer" class="s3" d="m172.4 253.3q0 0 0 0 0 0.1 0 0.1z"/>
	<path id="Layer" class="s3" d="m114.9 230.6q0.3 0 0.4 0c0 0.1-0.1 0.1-0.4 0z"/>
	<path id="Layer" class="s3" d="m98.5 220.5l0.5 0.3c-0.3-0.1-0.4-0.1-0.6-0.1 0.1-0.1 0.2-0.2 0.1-0.2z"/>
	<path id="Layer" class="s3" d="m92.9 220.7c0-0.1-0.1-0.1-0.2-0.2l0.1-0.1c0.3 0.1 0.5 0.4 0.1 0.3z"/>
	<path id="Layer" class="s3" d="m96.8 221.2q0 0-0.1 0c0.4 0.2 0.7 0.4 0.8 0.2-0.3-0.3-0.7-0.6-0.7-0.2z"/>
	<path id="Layer" class="s3" d="m96.6 221.2q-0.1-0.1-0.3-0.2c0-0.2 0.1 0 0.3 0.2z"/>
	<path id="Layer" class="s3" d="m101.8 222.2c-0.3 0 0-0.4-0.2-0.4 0-0.4 1.1 0.9 0.2 0.4z"/>
	<path id="Layer" class="s3" d="m96.9 222.2l0.2-0.3 0.2 0.3z"/>
	<path id="Layer" class="s3" d="m100 223.1l-0.6-0.2c0 0-0.1-0.1-0.2-0.2 0.4 0.2 0.8 0.3 0.8 0.4z"/>
	<path id="Layer" class="s3" d="m99.2 222.7c-0.2 0-0.4-0.1-0.4-0.2 0.1 0 0.3 0.1 0.4 0.2z"/>
	<path id="Layer" class="s3" d="m97.7 222.6h0.2l0.4 0.1z"/>
	<path id="Layer" class="s3" d="m106.6 225.5l0.6 0.4c0 0.1-0.2 0.1-0.4 0-0.1-0.2-0.4-0.3-0.2-0.4z"/>
	<path id="Layer" class="s3" d="m104.2 225.7c0.2 0 0.3-0.1 0.4-0.2l-0.1 0.5z"/>
	<path id="Layer" class="s3" d="m106.1 226.5c0 0.2 0.9 0.7 0 0.4 0-0.2-0.6-0.5 0-0.4z"/>
	<path id="Layer" class="s3" d="m116.4 229.9l-0.2-0.1 0.3-0.7z"/>
	<path id="Layer" class="s3" d="m124.6 234.9c-0.9-0.1 0-0.5-0.8-0.6-0.2-0.2 0.6 0.1 0.5-0.1 0.4 0.3 0.7 0.3 0.3 0.7z"/>
	<path id="Layer" class="s3" d="m124.3 234.2q-0.1-0.1-0.2-0.2c0.1 0.1 0.2 0.1 0.2 0.2z"/>
	<path id="Layer" class="s3" d="m225.4 269.7h0.6l-0.5 0.1z"/>
	<path id="Layer" class="s3" d="m226.2 270.5l0.3-0.4 0.1 0.6c-0.1-0.1-0.3-0.2-0.4-0.2z"/>
	<path id="Layer" class="s3" d="m155.4 247.4v-0.2c0.1-0.1 0.2 0 0.5 0.1z"/>
	<path id="Layer" class="s3" d="m162.4 249.7l-0.1-0.1 0.4-0.3z"/>
	<path id="Layer" class="s3" d="m168 252.4c-0.3-0.1-0.5-0.3-0.7-0.3 0.4 0.2 0.9-0.2 0.7 0.3z"/>
	<path id="Layer" class="s3" d="m230 261.3c0.2 0.1 0 0.4 0 0.4-0.3-0.2 0-0.4 0-0.4z"/>
	<path id="Layer" class="s3" d="m226.5 259.3v0.1l-0.4-0.5z"/>
	<path id="Layer" class="s3" d="m223 257.9c0.5-0.3 1.2 0.6 1.9 0.7l0.2-0.1 0.1 0.5c-0.7-0.4-1.6-1-2.2-1.1z"/>
	<path id="Layer" class="s3" d="m220.7 258.3c0.2-0.2-0.3-0.3 0.5 0.1q-0.1 0-0.1 0-0.1-0.1-0.4-0.1z"/>
	<path id="Layer" class="s3" d="m221.1 258.4c0.4 0.1-0.3 0.1 0 0z"/>
	<path id="Layer" class="s3" d="m219.4 257.6l0.5 0.4c-0.2 0.1-0.6-0.1-0.5 0.1-0.5-0.3-0.3-0.4 0-0.5z"/>
	<path id="Layer" class="s3" d="m219.1 257.1l0.2 0.2c0 0-0.1 0-0.2-0.2z"/>
	<path id="Layer" class="s3" d="m219.8 257.6l-0.5-0.3c0.1-0.1 0.2-0.2 0.3 0.1 0-0.1 0 0 0.2 0.2z"/>
	<path id="Layer" class="s3" d="m220.1 257.7c0.3 0 0.7 0 0.3-0.3 0.9 0.4 0.6 0.7-0.3 0.3z"/>
	<path id="Layer" class="s3" d="m223 257.4h0.4l0.3 0.3c-0.1-0.2-0.8-0.2-0.7-0.3z"/>
	<path id="Layer" class="s3" d="m216.3 256.7c0-0.1 0.3-0.2 0.4-0.3l0.3 0.3c-0.2-0.1-0.6-0.1-0.7 0z"/>
	<path id="Layer" class="s3" d="m216.7 256.4l-0.5-0.4c0.5 0.2 0.5 0.3 0.5 0.4z"/>
	<path id="Layer" class="s3" d="m219.2 256.5l0.8 0.7-0.9-0.7z"/>
	<path id="Layer" class="s3" d="m214.3 255.9l0.2 0.4-0.4-0.6z"/>
	<path id="Layer" class="s3" d="m212.9 255.4c0.2 0.3-0.4 0.2-0.2 0.4-0.4-0.2-0.6-0.5-0.8-0.7 0.2 0.2 0.6 0.3 1 0.3z"/>
	<path id="Layer" class="s3" d="m211.5 254.7q0.2 0.1 0.4 0.4-0.3-0.2-0.4-0.4z"/>
	<path id="Layer" class="s3" d="m215.3 255.7c-0.1 0.1-0.2 0.2-0.6 0.1l0.4-0.2q0.1 0.1 0.2 0.1z"/>
	<path id="Layer" class="s3" d="m215.1 255.6q-0.4-0.1-0.5-0.1 0.1 0 0.5 0.1z"/>
	<path id="Layer" class="s3" d="m215.3 255.7q0 0 0 0 0 0 0 0z"/>
	<path id="Layer" class="s3" d="m217.7 256.3c-0.2-0.3-0.8-0.8-0.1-0.8 0.2 0.3-0.3 0.3 0.1 0.8z"/>
	<path id="Layer" class="s3" d="m215.7 255.5l0.6 0.1c0 0.1-0.2 0.2 0 0.3z"/>
	<path id="Layer" class="s3" d="m215.5 255.3l0.2 0.2-0.2-0.1z"/>
	<path id="Layer" class="s3" d="m212.5 254.8c-0.2-0.2-0.4-0.4-0.7-0.5q0.5 0.1 1 0.3c0 0.1 0.1 0.3-0.3 0.2z"/>
	<path id="Layer" class="s3" d="m213.8 255.2q-0.1-0.1-0.1-0.1 0.1 0 0.1 0.1z"/>
	<path id="Layer" class="s3" d="m208.8 253.2q0-0.1 0.1-0.1-0.1 0.1-0.1 0.1z"/>
	<path id="Layer" class="s3" d="m212.9 254.6c0.2 0 0.4 0.1 0.5 0.3q-0.3-0.2-0.6-0.3c0 0 0-0.1 0.1 0z"/>
	<path id="Layer" class="s3" d="m210.7 254.2q0.2 0 0.5 0c-0.2 0.1-0.5 0.1-0.5 0z"/>
	<path id="Layer" class="s3" d="m213.6 255.2q0 0 0 0c-0.1 0 0 0 0 0z"/>
	<path id="Layer" class="s3" d="m213.6 255.2c-0.1-0.1-0.2-0.2-0.2-0.3q0.2 0.1 0.3 0.2 0 0-0.1 0.1z"/>
	<path id="Layer" class="s3" d="m208.6 251c-0.1 0.2 0.5 0.7 1.2 0.7 0.4 0.4-0.3 1.1-0.9 1.4 0-0.1 0-0.2-0.5-0.6 0.3 0 1.4 0.2 1-0.3-0.7-0.4-0.6-0.1-1-0.1 0.4-0.2-0.8-0.8-0.4-1.3l0.5 0.4c0.1 0-0.1-0.2 0.1-0.2z"/>
	<path id="Layer" class="s3" d="m209.9 253.5l0.3 0.1c-0.3 0-0.6 0-1 0.1-0.3-0.3-0.3-0.4-0.3-0.5l1.1 0.4z"/>
	<path id="Layer" class="s3" d="m211.2 254c-0.1-0.3-0.6-0.7-0.1-0.8 0.7 0.2 0.4 0.4 0.7 0.7-1-0.5 0.3 0.3-0.6 0.1q0.3 0.2 0.6 0.3-0.3 0-0.6-0.1 0 0 0 0 0 0 0 0 0.1 0 0 0 0 0 0 0 0-0.1 0-0.2c-0.3 0-0.1 0.1 0 0.2q0 0 0 0 0 0 0 0l-1-0.6c0.2 0.1 0.5 0.2 1 0.4z"/>
	<path id="Layer" class="s3" d="m217.3 254.7c-0.1 0-0.1 0-0.1 0-0.1 0-0.1-0.1 0.1 0z"/>
	<path id="Layer" class="s3" d="m216.7 254.7c0.1 0.1 0.1 0.2 0.4 0.3 0.3 0 0.1-0.2 0.1-0.2 0.1 0.1 0.5 0.4-0.1 0.3-0.5-0.1-1.2 0-1.2 0.1 0.3-0.2 0.5-0.4 0.8-0.5z"/>
	<path id="Layer" class="s3" d="m214 254.3l-0.9-0.5 0.6-0.1-0.1 0.1c0.5 0.2 0.4 0.3 0.4 0.5z"/>
	<path id="Layer" class="s3" d="m208.6 253.3v0.3l-0.3-0.6z"/>
	<path id="Layer" class="s3" d="m207.5 252.8l-0.1 0.3-0.3-0.3z"/>
	<path id="Layer" class="s3" d="m141.7 223.7l-0.2-0.2q0.1 0.1 0.2 0.2z"/>
	<path id="Layer" class="s3" d="m143.7 224.4v0.2q-0.1-0.2 0-0.2z"/>
	<path id="Layer" class="s3" d="m178.3 241.5c-0.5 0.1-1.1 0.4-0.9 0.1l0.2-0.3c0.3 0.2 0.5 0.2 0.7 0.2z"/>
	<path id="Layer" class="s3" d="m159 232.1q0.1 0 0.2-0.1 0 0.3 0.1 0.4-0.1-0.1-0.3-0.3z"/>
	<path id="Layer" class="s3" d="m159.2 230.8h-0.6q0.2-0.1 0.6 0z"/>
	<path id="Layer" class="s3" d="m131.2 219.3l-0.2-0.4c0.5 0.2 0.2 0.2 0.2 0.4z"/>
	<path id="Layer" class="s3" d="m195.3 248q-0.5 0-0.9-0.2c0.5 0 0.9-0.1 0.9 0.2z"/>
	<path id="Layer" class="s3" d="m141.3 227.1q-0.2-0.2-0.2-0.3c0.2 0.1 0.2 0.2 0.2 0.3z"/>
	<path id="Layer" class="s3" d="m193.5 247.5q0.1 0 0.2 0c0.2 0.1 0.4 0.2 0.7 0.3-0.3 0.1-0.7 0-0.9-0.3z"/>
	<path id="Layer" class="s3" d="m92.6 204.7q0 0-0.1 0 0 0 0.1 0z"/>
	<path id="Layer" class="s3" d="m80.3 203.4c0.1 0 0.2 0.1 0.4 0.2q-0.1 0-0.4-0.2z"/>
	<path id="Layer" class="s3" d="m202.6 251.1c0.3 0.1 0.1 0 0 0z"/>
	<path id="Layer" class="s3" d="m204.3 250.4q-0.1-0.1 0-0.2-0.1 0.1 0 0.2z"/>
	<path id="Layer" class="s3" d="m191.6 244.7q0 0 0 0 0.1-0.1 0 0z"/>
	<path id="Layer" class="s3" d="m203.1 251.1q-0.2 0-0.4-0.1 0.1 0 0.4 0.1z"/>
	<path id="Layer" class="s3" d="m203 251.2q0.1 0 0.2 0.1c0 0 0 0-0.2-0.1z"/>
	<path id="Layer" class="s3" d="m202.3 250.9q0.2 0.1 0.4 0.1-0.1 0-0.1 0.1-0.1-0.1-0.3-0.2z"/>
	<path id="Layer" class="s3" d="m112.9 213.5q0 0 0 0c-0.2-0.3-0.1-0.2 0 0z"/>
	<path id="Layer" class="s3" d="m172.9 236q0 0 0 0 0 0 0 0z"/>
	<path id="Layer" class="s3" d="m172.1 235.4c0.2 0.5 0.5 0.6 0.8 0.6l-0.6 0.7z"/>
	<path id="Layer" fill-rule="evenodd" class="s3" d="m137.2 221.8h0.7c-0.6-0.8-1.2-0.8-0.4-1-0.3 1 2.4 1.1 2.1 2h0.5c-0.1 0-0.1-0.1-0.2-0.1 1-0.2 0.3 0.8 1.4 1.1 0.4 0.1 0.7 0.1 0.5-0.1l0.7 0.5c0.2 0.1 0.3-0.1 0.1-0.1l1.2 0.5v-0.1c0.1 0.3 0.4 0.6 0.6 0.8 0.3 0-0.2-0.2 0-0.2l0.6 0.5c0.3-0.2-0.2-0.6-0.6-0.8 1-0.6 0.4 0.5 2 0.5l-0.6-0.4c0.6-0.4 1.1 0 1.9 0-0.2 0.1-1.7 0.2-1.1 0.8 0.2 0 0.5 0.1 0.9 0.4 0.1-0.3 0.5-0.1 0.9 0.1l0.2-0.4c0.5 0.3 0.3 0.5 0.6 0.8 0.6 0.2 0.8-0.1 1.1-0.3 0.9 0.3-0.9 0.3 0.2 0.8 0.9 0.1 1.3 0.5 2.2 1.1 0.6 0.1 0-0.3 0.2-0.3l0.4 0.5c0.1 0.1 0.1-0.1 0.1-0.1 0.4 0.3-0.1 0.4 0.5 0.8 0 0.5 1.6-0.2 2.2 0.6 0.2 0 0-0.3 0.1-0.4 1 0.8 0.9 0.6 1.6 1.5h0.9c-0.7 0.1-0.2 0.7 0.4 1.3-0.3 0.1-0.5 0.1-0.7 0.2l1 0.6c0.1 0 0.1-0.2 0-0.5q0 0.1 0.1 0.2c0.4 0 0.3-0.3 0.2-0.7q-0.3 0.1-0.5 0.1c-0.2-0.3-0.3-0.7-0.1-0.9q0.1 0.1 0.3 0.2c-0.1-0.1-0.1-0.2 0-0.2 0 0 0.1 0.1 0.2 0.3l0.4-0.4v0.2l1.4 0.2c0.8 0.9 1.3 1.9 2.8 2.7-0.2-0.5 0.1-0.6 0.3-1.1-0.6 0.3-1.1-0.6-1.9-0.8 0.4 0.1 0.4-0.2 0.3-0.3l1.2 1c0.1-0.4 0.4-0.2 0.8-0.2-0.5 0.6 0.9 0.9 1.4 1.3 0.1-0.2 0.1-0.5-0.7-0.7 1-0.2 0.7 1.2 1.6 1 0.5 0.3 1.1 0.3 0.9 0.1l-0.1-0.1c1.1 0.4 3.4 1.3 3.3 2 0.1-0.1 0.1-0.8 0.1-0.9l1.3 2.7c0-0.6 1.1-1.5 0.3-2.1 0.3 0 0.6 0.1 1.1 0.5-0.2 0-0.7 0.5-0.5 0.6 0.9-0.2 0.6-0.1 1.6-0.2-0.3 0.1-0.2 0.9 0.2 1-0.1-0.1 0.3-0.7 0.2-0.9l0.7 1.1c-0.1-0.2 0.3-0.6 0.6-0.7-0.2 0.1 0.9 0.4 1.2 0.5h-0.6c1.3 0.4 0.8 1.6 2 2-0.1-0.2 0-1.1 0.7-1 0.1 0.5 0.5 2.4 1.5 3.1l0.2-0.2 0.8 0.6c-0.3-0.8-1.3-2.6-1.9-3.3 0.6 0 0.3-0.3 0.9 0 0.4-0.1-0.2-0.4-0.4-0.5l1.6 0.4c-0.2 0.5 1.1 1 0.9 1.3l-1.6-1.1c-0.2 0.4 0.5 1.7 1.7 2 0.3 0 0.1-0.9 0.1-1 0.1 0.2 1 0.7 1.1 0.6l-0.4-0.4c0.7 0.1 0.8 1 1.7 0.8 0.3 0.1 1-0.2 1 0-0.6 0.4-1.3 2-1.2 2.5 0.1 0 1.5 0 1.9-0.1 0.6-0.3-0.2-1.3 0.3-1.5-0.1 0.2 0.1 0.4 0.2 0.5 0.3 0 0-0.4 0.6-0.1-0.1 0.4 1.2 0.4 0.1 0.4 0.5 0.4 0.7 0.2 1.3 0.5-0.3 0.2 0.2 1.2 0.8 1.6 0-0.2 0.2-0.3 0.3-0.3 1.2 0.4 1.9 0.4 3 0.9 0.1-0.1 0.7 0 0.6-0.3 0.1 0.1 0.2 0.3 0.5 0.5 0.8-0.2-0.7-0.4 0-0.7-0.1 0.3 0.7 0.7 1.1 1.1-0.3 0.3-1.1-0.4-1.6-0.7-0.2 0.6 0.4 1.5 1.5 2.2 0.8 0.5 0.5-0.2 0.6-0.1 1.8 0.6 1.1 1.6 2.7 1.7 0.7-0.1 0.3-0.7 0.5-0.9-0.7-0.5-1.2-0.2-1.7-0.4h0.7c-0.2-0.2-0.7-0.5-1-0.5 0.6-0.1 3 1.1 4.4 1.3 0.2 0.2 0.5 0.5 0.3 0.6l-0.4-0.3c-0.5 0.2 0.6 0.7 0 0.7 0.5 0.4 1 1 1.9 1.1l0.3-0.3c-0.1 0.1-0.6 0-0.8-0.2 0.3 0.3 1.4-0.1 1.6 0.6l-0.7 0.1c0.5 0.4 1 1.1 1.8 1.2-0.5 0.3-0.2-0.1-0.8 0.2 0.6-0.4-1.6-0.6-1-1-0.7 0.3-0.9-0.1-1.7 0.1 0-0.1 0.3-0.2-0.3-0.3 0-0.1-0.1-0.2-0.1-0.2q0 0 0 0 0 0 0 0 0-0.1 0 0 0.3 0 0.4-0.1c-0.2-0.4-1.1-0.8-1.4-1.1-0.3 0 0.1 0.2-0.1 0.3l-0.4-0.4c-0.2 0.3-1.1 0.1-0.4 0.6l-0.7-0.2c-0.5 0-1.2-0.2-1.5-0.5-0.4 0-0.7-0.6-0.5-0.3l-1.1-0.6h-0.1c-1.1-0.4-2.1-1.4-3.6-1.3-0.4-0.2-0.8-0.5-1.5-0.6l-0.2 0.2c-0.4-0.3-1.6-0.4-1.7-0.7-0.8 0.5-2.5-0.8-3.4-1l0.1-0.3c-0.6-0.3-1.1-0.6-1.8-1l0.1-0.3c-0.5-0.5-1.7-0.4-2.7-0.8 0 0.1 0.3 0.2 0.5 0.2-1.5 0.2-2.4-1.5-3.7-1.4-0.2-0.2-0.4-0.3-0.6-0.3q0 0 0 0.1 0 0-0.1-0.1-0.2 0-0.4 0 0.2 0 0.4 0c-0.2-0.1-0.5-0.2-0.8-0.4l-0.3 0.2q0 0-0.1 0c-0.3 0-0.1-0.3 0.1-0.4q-0.2-0.2-0.3-0.4c-0.5 0.4-0.8-0.5-1.4-0.1 0-0.3-1.3-0.7-1.4-1.3-0.4 0-0.7-0.1-1-0.4l-0.3 0.4-0.5-0.9c-0.6 0.1-0.9 0.2-0.5 0.7-0.9-1-0.8-0.6-1.6-1.4l-0.1 0.3c-0.3-0.2-0.7-0.7-1-0.6-0.9 0.2-3.8-1.4-5.9-1.6 0.7-0.7-1.1 0-0.9-0.7-0.2 0.2-0.5 0.2-0.2 0.4-1-0.5-1.7-0.2-2.1-1-0.2 0.1 0.1 0.3-0.1 0.4 0-0.1-0.2-0.3-0.4-0.2-0.1 0.1 0.1 0.2 0.2 0.4-1-0.5-0.9-1.1-0.7-1.6-0.6 0-0.9-0.1-1.1-0.6-0.3 0.1-0.6 0.2 0 0.5-0.4-0.1-2.3-0.6-2.2-1.1-0.1 0.1-0.5-0.1-0.5-0.2-0.8-0.3-0.9-0.3-1.7-0.6h0.2c-0.1-0.6-0.6-0.4-1.2-0.7v0.1c-1.6-0.2-0.5-0.4-2.1-0.6l0.2-0.3c0.1-0.7-1.4 0-2.2-0.6l0.4-0.1c-0.3-0.4-1.6 0.5-2.1 0.4-0.1 0 0.1 0.2 0.2 0.2-1.3 0 0-0.4-0.8-0.9-0.3 0.2 0 0.7-0.6 0.5-0.4 0.1-1.5-1.4-2.5-1.3 0.3-0.1 0.5-0.2 0.2-0.5-0.6-0.3-2 0-2.3-0.7q-0.2 0-0.2 0c-0.4-0.3-1.5-0.8-1.7-1.2-0.8 1-2.8-1.7-3.1-0.7l-1.5-0.6v0.1c-1-0.3-1.2-0.6-1.4-1-0.3 0-0.2 0.1-0.2 0.2-1.4-0.3-1.6-0.4-2.5-1.4l-0.3 0.3c-0.2-0.3-2.2-0.2-3.4-1.2 0 0.1 0 0.2 0.1 0.3-1.4-1-4-0.5-4.1-2l-0.9-0.6c1.3 0.4 0-0.6 0.6-0.6-0.5-0.3-1.4-0.2-0.8 0.1h0.1c0 0.7-1.7-0.4-1.8 0-2.6-1-5.2-1.6-7.7-2.5l0.5-0.4-0.8-0.3c-0.3 0.1-0.5 0.3 0.1 0.5-0.4 0.2-0.9-0.6-0.9-0.7-1.2-0.3 0.3 0.7-0.1 0.6l-0.5-0.2h0.2c-0.3-0.4-0.3-0.6-1-0.9-0.5 0-0.4 0.2-0.6 0.2 0 0 0 0-0.2-0.1l-1.1-0.4 0.6-0.2c-0.4-0.4-1-0.4-0.4-0.6-1 0.4-4-1.3-4.5-1.2-0.6-0.6-1.2-0.8-2.1-1.1 0.3 0 0.6-0.4-0.1-0.6-0.1 1-1.4 0-2.2 0.3 0.4-0.3-2-0.8-1-1.1-0.6-0.2-0.1 0.3-0.7 0.3-1.2-0.8-3.1-0.9-4.7-1.7 0-0.1 0.3-0.2 0-0.5l-1.1 0.3c-0.3-0.2 0-0.9-0.8-0.7 0.1 0 0.3-0.1 0.1-0.3-3.5-0.7-6.6-3.1-10.4-3.3 0.5 0 0.2-0.2-0.1-0.3 0.2 0 0.1-0.3 0.2-0.4l-1.6-0.1c-0.1-0.6-1.5-0.7-1.5-1.1l0.4 0.2c-0.4-0.7 1.3-0.8 1.5-1.5 0.4 0.9 2.1-0.1 2.8 1.1 0.3 0-0.1-0.3 0.1-0.4 0.2 0.4 0.5 0.6 1.1 0.7v-0.1c1.7 0.7 2.6 0.8 4.6 1.3l-0.3 0.3c0.5 0.1 0.6 0 0.8 0 0.3 0.7-1.2-0.4-0.9 0.3 0.8-0.4 2.9 1.1 3.6 0.5 0.7 0.3-0.3 0.3 0.3 0.6l0.3-0.1v0.3c0.5 0.1 0.8-0.1 0.9-0.2-0.1 0-0.3-0.2-0.4-0.2 0.6-0.1 1.4 0.5 1.7 0.6l-0.6-0.1c1.7 0.9 3.9 1.5 5.5 2.5l-0.2 0.1c1.2 0.8 1.1 0.3 2.5 0.9h-0.1c0.3 0.2 0.6 0.5 1 0.6-0.3-0.3 0.8-0.1 0.4-0.5 1.3 0.9 0.6 0.6 1.3 1.5l0.4-0.2c0.2 0.3 0.2 0.5 0.9 0.8-0.5-0.4 0.6-0.2 0-0.7 1.7 0 2 1.4 3 0.8 0.5 1-1.4-0.1-1.1 0.2-0.4 0.1 0.4 0.8 0.9 0.9 0.5 0.1 1.1-0.6 2.3-0.1-0.1-0.1-0.1-0.1-0.2-0.2 0.5 0 0.8 0.6 1.5 0.5 0.1 0.6 0.7 0.3 0.6 0.9l-1.1-0.6c0.6 0.4 1 1.2 2.1 1.3 0-0.1-0.3-0.4-0.5-0.5 0.4-0.1 0.6 0.3 0.9 0.3 0.2-0.6-1.3-0.7-1.8-1.3 0.4-0.1 1.2 0.8 1 0.1 0.2 0.9 1.3 0.4 1.9 1.3v-0.4c0.1 0.1 0.4 0.4 0.6 0.5l-0.3-0.6c0.5 0.6 1.4 0.2 2 0.6-1.3-0.5-0.5 0.3-1.1 0.3 1.4 1 1.2-0.5 2.9 0.3-0.3-0.1-0.9-0.1-0.6 0.2 0.4 0.1 0.9 0.1 1.2 0 1.2 0.6-0.3 0.3 0.1 0.7 0.6-0.2 0.6 0.4 1 0.7l0.2-0.3c1.5 0.3 0.1 0.8 1.4 1l-0.3-0.6 0.6 0.3v-0.4c0.6 0.6 0.8 0.6 1.6 0.7-0.3 0.2-0.2 0.7 0.4 0.9 0.5 0-0.1-0.4 0.8 0-0.1-0.3-0.3-0.6-0.7-0.5 0-0.1-0.2-0.3-0.2-0.4 0.6 0 1.2 0.4 1.5 0.5-0.1 0-0.3 0-0.4 0l1.1 0.9c0.3 0 0.1-0.2 0-0.4 0.3 0.2 0.4 0.4 0.8 0.6 0-0.3 0.1-0.6-0.3-0.9l1 0.7c0.1-0.1 0.7-0.1 0.6-0.2 0.7 0.1 1.4 1.1 2.4 1.3q0 0.1 0.3 0.2c0.8 0.3 1.7 0.2 2.5 1l0.8-0.3c0.7 0.4-1 0.3 0.2 1 0.9 0.5 0.5-0.3 0.9-0.3 0.3 0.4 0.9 1.2 1.9 1.2-0.2-0.2-0.5-0.2-0.6-0.4zm-10.1-4.2q0 0 0.1 0zm-8-2.9q-0.1 0-0.1 0 0 0 0.1 0zm-8.6-2.6q0 0 0 0 0 0 0 0zm-16.2-6.6q-0.1 0-0.1 0zm5 5.5q0.1-0.1 0.1-0.1 0 0-0.1 0.1zm9 2.5q0 0 0 0 0 0 0 0zm66.2 25.7q0 0 0 0 0 0 0 0 0 0 0 0zm0 0q0-0.1 0-0.2c0 0.1-0.2 0.1 0 0.2zm30.8 12.3q-0.1 0-0.1 0.1 0-0.1 0.1-0.1zm-0.2-0.9q0 0 0 0zm-28.7-12.4h-0.1q0 0 0.1 0zm-0.8-1.2q0 0.1 0 0.1zm-0.4-0.2q0 0 0 0 0 0 0 0zm-8-2.5c-0.1-0.1-0.2-0.1-0.3-0.2q0.2 0.1 0.3 0.2zm0 0q0 0 0 0 0 0 0 0 0 0 0 0zm-4.6-2.2q0 0 0 0 0 0 0 0zm-20-8.1q0 0 0.1 0zm3.9 1.7c-0.1-0.2-0.4-0.5-0.6-0.4 0 0.5 0.3 0.4 0.6 0.4zm14.1 6.3c-0.1-0.2-0.3-0.2-0.6-0.2q0.3 0.2 0.6 0.2zm39.4 17.7q0 0 0 0c-0.5 0-0.3 0 0 0zm0.4 0.1c0.3 0.1 0.5 0.2 0.5 0.3q0.1-0.1 0-0.2c-0.2-0.2-0.4-0.1-0.5-0.1zm-91-35.2h0.2c-0.3-0.3-0.2-0.1-0.2 0z"/>
	<path id="Layer" class="s3" d="m159.2 230.9q-0.1 0.1-0.2 0.2c0-0.1 0-0.2 0.2-0.2z"/>
	<path id="Layer" class="s3" d="m131.3 219.4q-0.1 0-0.1 0 0-0.1 0-0.1z"/>
	<path id="Layer" class="s3" d="m188.7 242.1q-0.2 0-0.4 0c0.1-0.1 0.2-0.1 0.4 0z"/>
	<path id="Layer" class="s3" d="m205.2 252.2l-0.5-0.3c0.2 0.1 0.3 0.1 0.5 0.1 0 0.1-0.2 0.1 0 0.2z"/>
	<path id="Layer" class="s3" d="m210.7 252c0.1 0.1 0.2 0.1 0.2 0.2l-0.1 0.1c-0.3-0.1-0.5-0.4-0.1-0.3z"/>
	<path id="Layer" class="s3" d="m206.9 251.5q0 0 0 0c-0.3-0.2-0.6-0.4-0.8-0.2 0.4 0.3 0.7 0.6 0.8 0.2z"/>
	<path id="Layer" class="s3" d="m207 251.5q0.2 0.1 0.4 0.2c-0.1 0.1-0.2 0-0.4-0.2z"/>
	<path id="Layer" class="s3" d="m201.9 250.5c0.2 0 0 0.4 0.1 0.3 0.1 0.5-1-0.8-0.1-0.3z"/>
	<path id="Layer" class="s3" d="m206.8 250.5l-0.3 0.3-0.1-0.3z"/>
	<path id="Layer" class="s3" d="m203.6 249.6l0.7 0.2c0 0 0 0.1 0.1 0.2-0.4-0.2-0.8-0.3-0.8-0.4z"/>
	<path id="Layer" class="s3" d="m204.4 249.9c0.2 0.1 0.4 0.2 0.5 0.3-0.1-0.1-0.4-0.2-0.5-0.3z"/>
	<path id="Layer" class="s3" d="m206 250.1h-0.2l-0.5-0.1z"/>
	<path id="Layer" class="s3" d="m197 247.2l-0.6-0.4c0-0.1 0.2-0.1 0.4 0 0.2 0.2 0.4 0.3 0.2 0.4z"/>
	<path id="Layer" class="s3" d="m199.4 247c-0.2 0-0.2 0.1-0.4 0.2l0.2-0.5z"/>
	<path id="Layer" class="s3" d="m197.5 246.2c0-0.2-0.8-0.7 0-0.4 0 0.2 0.7 0.5 0 0.4z"/>
	<path id="Layer" class="s3" d="m187.3 242.8l0.1 0.1-0.3 0.7z"/>
	<path id="Layer" class="s3" d="m179 237.8c0.9 0.1 0.1 0.5 0.9 0.5 0.1 0.3-0.7 0-0.6 0.2-0.4-0.3-0.7-0.3-0.3-0.7z"/>
	<path id="Layer" class="s3" d="m179.3 238.5q0.1 0.1 0.2 0.2-0.1-0.1-0.2-0.2z"/>
	<path id="Layer" class="s3" d="m78.2 203h-0.5l0.4-0.1z"/>
	<path id="Layer" class="s3" d="m77.5 202.2l-0.3 0.4-0.2-0.6c0.1 0.1 0.3 0.2 0.5 0.2z"/>
	<path id="Layer" class="s3" d="m148.3 225.3v0.2c-0.2 0.1-0.3 0-0.5-0.1z"/>
	<path id="Layer" class="s3" d="m141.2 223l0.2 0.1-0.4 0.3z"/>
	<path id="Layer" class="s3" d="m135.6 220.3c0.3 0.1 0.5 0.3 0.8 0.3-0.5-0.2-1 0.2-0.8-0.3z"/>
	<path id="Layer" class="s3" d="m82.9 187.2c-0.2-0.1 0-0.3 0-0.4 0.3 0.2 0 0.5 0 0.4z"/>
	<path id="Layer" class="s3" d="m86.4 189.3v-0.2l0.4 0.5z"/>
	<path id="Layer" class="s3" d="m89.9 190.6c-0.5 0.4-1.2-0.5-1.9-0.6l-0.1 0.1-0.2-0.5c0.8 0.3 1.6 0.9 2.2 1z"/>
	<path id="Layer" class="s3" d="m92.2 190.3c-0.2 0.1 0.3 0.3-0.5-0.1q0.1 0 0.1 0 0.1 0 0.4 0.1z"/>
	<path id="Layer" class="s3" d="m91.8 190.2c-0.3-0.2 0.3-0.1 0 0z"/>
	<path id="Layer" class="s3" d="m93.5 190.9l-0.4-0.3c0.1-0.1 0.6 0 0.4-0.1 0.5 0.3 0.3 0.4 0 0.4z"/>
	<path id="Layer" class="s3" d="m93.8 191.5l-0.2-0.2c0.1 0 0.1 0 0.2 0.2z"/>
	<path id="Layer" class="s3" d="m93.1 190.9l0.5 0.4c-0.1 0-0.2 0.2-0.2-0.2-0.1 0.2-0.1 0-0.3-0.2z"/>
	<path id="Layer" class="s3" d="m92.8 190.9c-0.3 0-0.7-0.1-0.3 0.3-0.9-0.4-0.6-0.7 0.3-0.3z"/>
	<path id="Layer" class="s3" d="m89.9 191.2h-0.4l-0.3-0.3c0.2 0.1 0.8 0.1 0.7 0.3z"/>
	<path id="Layer" class="s3" d="m96.6 191.8c0 0.1-0.3 0.2-0.4 0.4l-0.3-0.3c0.2 0 0.6 0.1 0.7-0.1z"/>
	<path id="Layer" class="s3" d="m96.2 192.2l0.5 0.3c-0.5-0.1-0.5-0.2-0.5-0.3z"/>
	<path id="Layer" class="s3" d="m93.7 192l-0.7-0.7 0.9 0.8z"/>
	<path id="Layer" class="s3" d="m98.7 192.6l-0.3-0.3 0.4 0.5z"/>
	<path id="Layer" class="s3" d="m100 193.2c-0.2-0.3 0.4-0.2 0.2-0.5 0.4 0.2 0.6 0.5 0.9 0.8-0.3-0.2-0.6-0.3-1.1-0.3z"/>
	<path id="Layer" class="s3" d="m101.5 193.9q-0.2-0.2-0.4-0.4 0.2 0.1 0.4 0.4z"/>
	<path id="Layer" class="s3" d="m97.7 192.8c0 0 0.2-0.1 0.5-0.1l-0.3 0.2q-0.1 0-0.2-0.1z"/>
	<path id="Layer" class="s3" d="m97.9 192.9q0.3 0.1 0.4 0.2-0.1 0-0.4-0.2z"/>
	<path id="Layer" class="s3" d="m97.6 192.8q0 0 0.1 0-0.1 0.1-0.1 0z"/>
	<path id="Layer" class="s3" d="m95.2 192.3c0.2 0.3 0.8 0.7 0.1 0.7-0.1-0.3 0.3-0.3-0.1-0.7z"/>
	<path id="Layer" class="s3" d="m97.2 193.1l-0.6-0.2c0 0 0.2-0.1 0.1-0.3z"/>
	<path id="Layer" class="s3" d="m97.4 193.3l-0.2-0.2h0.2z"/>
	<path id="Layer" class="s3" d="m100.4 193.8c0.2 0.2 0.4 0.3 0.7 0.4q-0.5-0.1-1-0.2c0-0.2-0.1-0.4 0.3-0.2z"/>
	<path id="Layer" class="s3" d="m99.1 193.4q0.1 0 0.1 0c0 0-0.1 0-0.1 0z"/>
	<path id="Layer" class="s3" d="m104.1 195.4q0 0 0 0 0 0 0 0z"/>
	<path id="Layer" class="s3" d="m100 194c-0.2 0-0.3-0.2-0.4-0.3q0.2 0.1 0.5 0.3c0 0 0 0-0.1 0z"/>
	<path id="Layer" class="s3" d="m102.2 194.3q-0.2 0-0.4 0c0.1 0 0.4-0.1 0.4 0z"/>
	<path id="Layer" class="s3" d="m99.3 193.4q0 0 0 0c0.1-0.1 0.1 0 0 0z"/>
	<path id="Layer" class="s3" d="m99.3 193.4c0.1 0.1 0.2 0.2 0.3 0.3q-0.3-0.1-0.4-0.3 0 0 0.1 0z"/>
	<path id="Layer" class="s3" d="m104.3 197.6c0.1-0.3-0.5-0.8-1.1-0.7-0.5-0.4 0.2-1.2 0.9-1.5-0.1 0.2-0.1 0.3 0.4 0.6-0.3 0.1-1.4-0.1-1 0.3 0.7 0.4 0.6 0.2 1.1 0.2-0.5 0.2 0.7 0.8 0.4 1.2l-0.6-0.4c-0.1 0.1 0.1 0.3-0.1 0.3z"/>
	<path id="Layer" class="s3" d="m103 195l-0.2-0.1c0.2 0.1 0.5 0 0.9 0 0.3 0.2 0.4 0.4 0.4 0.5l-1.2-0.4z"/>
	<path id="Layer" class="s3" d="m101.7 194.5c0.1 0.4 0.6 0.7 0.1 0.9-0.6-0.3-0.3-0.4-0.7-0.7 1.1 0.5-0.2-0.3 0.6-0.2q-0.3-0.1-0.6-0.3 0.4 0.1 0.7 0.1 0 0-0.1 0 0 0 0 0-0.1 0.1 0 0.1 0 0 0 0 0 0.1 0 0.1c0.4 0.1 0.1 0 0-0.1q0 0 0-0.1 0 0 0 0l1.1 0.6c-0.3 0-0.6-0.1-1.1-0.4z"/>
	<path id="Layer" class="s3" d="m95.7 193.9c0 0 0-0.1 0-0.1 0.1 0.1 0.1 0.1 0 0.1z"/>
	<path id="Layer" class="s3" d="m96.2 193.9c-0.1-0.1-0.1-0.3-0.4-0.3-0.2 0 0 0.1-0.1 0.2-0.1-0.1-0.5-0.4 0.1-0.4l0.1 0.1c0.4 0.1 1.1-0.1 1.1-0.1-0.2 0.2-0.4 0.3-0.8 0.5z"/>
	<path id="Layer" class="s3" d="m98.9 194.3l0.9 0.5h-0.6l0.1-0.1c-0.5-0.1-0.3-0.3-0.4-0.4z"/>
	<path id="Layer" class="s3" d="m104.3 195.3v-0.4l0.3 0.7z"/>
	<path id="Layer" class="s3" d="m105.5 195.8v-0.3l0.3 0.3z"/>
	<path id="Layer" class="s3" d="m171.2 224.9l0.2 0.1q-0.1-0.1-0.2-0.1z"/>
	<path id="Layer" class="s3" d="m169.3 224.1v-0.1q0.1 0.2 0 0.1z"/>
	<path id="Layer" class="s3" d="m134.6 207c0.5-0.1 1.1-0.3 0.9 0l-0.2 0.2c-0.3-0.1-0.5-0.2-0.7-0.2z"/>
	<path id="Layer" class="s3" d="m153.9 216.5q0 0-0.1 0-0.1-0.2-0.2-0.4 0.2 0.2 0.3 0.4z"/>
	<path id="Layer" class="s3" d="m153.7 217.8h0.6q-0.2 0-0.6 0z"/>
	<path id="Layer" class="s3" d="m181.7 229.3l0.2 0.4c-0.5-0.2-0.2-0.3-0.2-0.4z"/>
	<path id="Layer" class="s3" d="m117.6 200.6q0.5 0 0.9 0.1c-0.5 0-0.9 0.2-0.9-0.1z"/>
	<path id="Layer" class="s3" d="m171.6 221.5q0.3 0.1 0.2 0.2c-0.1-0.1-0.2-0.2-0.2-0.2z"/>
	<path id="Layer" class="s3" d="m119.5 201.1q-0.1 0-0.2 0c-0.3-0.2-0.5-0.3-0.8-0.4 0.3 0 0.7 0.1 1 0.4z"/>
	<path id="Layer" class="s3" d="m220.3 243.8q0.1 0 0.1 0 0 0.1-0.1 0z"/>
	<path id="Layer" class="s3" d="m232.7 245.2c-0.1-0.1-0.3-0.2-0.5-0.2q0.1 0 0.5 0.2z"/>
	<path id="Layer" class="s3" d="m110.3 197.5c-0.3-0.1 0-0.1 0 0z"/>
	<path id="Layer" class="s3" d="m108.6 198.2q0.1 0.1 0.1 0.2 0-0.2-0.1-0.2z"/>
	<path id="Layer" class="s3" d="m121.3 203.9q0 0 0 0c-0.1 0-0.1 0 0 0z"/>
	<path id="Layer" class="s3" d="m109.9 197.5q0.1 0 0.3 0-0.1 0-0.3 0z"/>
	<path id="Layer" class="s3" d="m110 197.4q-0.2-0.1-0.3-0.1c0-0.1 0.1-0.1 0.3 0.1z"/>
	<path id="Layer" class="s3" d="m110.6 197.6q-0.2 0-0.4-0.1 0.1 0 0.1 0 0.1 0 0.3 0.1z"/>
	<path id="Layer" class="s3" d="m200 235.1q0 0 0 0c0.2 0.2 0.1 0.1 0 0z"/>
	<path id="Layer" class="s3" d="m140 212.6q0 0 0 0 0 0 0 0z"/>
	<path id="Layer" class="s3" d="m140.8 213.2c-0.2-0.6-0.5-0.6-0.8-0.6l0.6-0.8z"/>
	<path id="Layer" fill-rule="evenodd" class="s3" d="m175.7 226.8h-0.7c0.6 0.7 1.2 0.8 0.4 0.9 0.3-0.9-2.4-1-2.1-2l-0.5 0.1c0.1 0 0.1 0 0.2 0.1-1 0.1-0.3-0.9-1.4-1.2-0.4-0.1-0.7 0-0.5 0.2l-0.7-0.6c-0.2 0-0.3 0.1-0.1 0.2l-1.2-0.5c-0.1-0.2-0.4-0.6-0.6-0.8-0.3 0 0.2 0.2 0 0.3l-0.6-0.5c-0.3 0.1 0.2 0.6 0.6 0.7-1 0.7-0.4-0.4-2-0.4l0.6 0.3c-0.6 0.4-1.1 0-1.9 0 0.2-0.1 1.7-0.2 1.1-0.7-0.2-0.1-0.5-0.1-0.9-0.5-0.1 0.4-0.5 0.1-0.9-0.1l-0.2 0.5c-0.5-0.4-0.3-0.6-0.6-0.9-0.6-0.2-0.8 0.1-1.1 0.4-0.9-0.3 0.9-0.3-0.2-0.8-0.9-0.2-1.3-0.6-2.2-1.2-0.6-0.1 0 0.3-0.2 0.4l-0.4-0.6c-0.1 0-0.1 0.1-0.1 0.2-0.4-0.3 0.1-0.5-0.5-0.8 0-0.6-1.6 0.1-2.2-0.7-0.2 0 0 0.3-0.1 0.4-1-0.7-0.9-0.6-1.6-1.4h-0.9c0.7-0.1 0.2-0.8-0.4-1.4 0.3 0 0.5-0.1 0.7-0.1l-1-0.6c-0.1 0-0.1 0.2 0 0.4q0-0.1-0.1-0.2c-0.4 0.1-0.3 0.4-0.2 0.7q0.3 0 0.5-0.1c0.2 0.4 0.3 0.7 0.1 1q-0.1-0.1-0.3-0.3c0.1 0.1 0.1 0.2 0 0.2 0 0.1-0.1-0.1-0.2-0.2l-0.4 0.4v-0.3l-1.4-0.2c-0.8-0.8-1.3-1.8-2.8-2.6 0.2 0.5-0.1 0.6-0.3 1 0.6-0.3 1.1 0.6 1.9 0.9-0.4-0.1-0.4 0.1-0.3 0.2l-1.2-0.9c-0.1 0.3-0.4 0.1-0.8 0.1 0.5-0.6-0.9-0.9-1.4-1.3-0.1 0.2-0.1 0.5 0.7 0.7-1 0.2-0.7-1.1-1.6-1-0.5-0.2-1.1-0.3-0.9-0.1l0.1 0.1c-1.1-0.4-3.4-1.3-3.3-2-0.1 0.1-0.1 0.8-0.1 0.9l-1.3-2.7c0 0.6-1.1 1.5-0.3 2.1-0.3 0-0.6 0-1.1-0.4 0.2 0 0.7-0.6 0.5-0.7-0.9 0.3-0.6 0.1-1.6 0.2 0.3 0 0.2-0.8-0.2-1 0.1 0.2-0.3 0.7-0.2 0.9l-0.7-1.1c0.1 0.2-0.3 0.6-0.6 0.7 0.2-0.1-0.9-0.3-1.2-0.5h0.6c-1.3-0.3-0.8-1.5-2-2 0 0.3 0 1.2-0.7 1-0.1-0.5-0.5-2.3-1.5-3l-0.2 0.1-0.8-0.6c0.3 0.8 1.3 2.6 1.9 3.4-0.6 0-0.3 0.2-0.9-0.1-0.4 0.1 0.2 0.5 0.4 0.6l-1.6-0.5c0.2-0.4-1.1-0.9-0.9-1.3l1.6 1.1c0.2-0.4-0.5-1.6-1.7-2-0.3 0.1-0.1 0.9-0.1 1-0.1-0.2-1-0.7-1.1-0.6l0.4 0.4c-0.7 0-0.8-1-1.7-0.8-0.3-0.1-1 0.3-1 0 0.6-0.4 1.3-1.9 1.2-2.4-0.1 0-1.5-0.1-1.9 0.1-0.6 0.2 0.2 1.2-0.3 1.4 0.1-0.1-0.1-0.4-0.2-0.5-0.3 0 0 0.5-0.6 0.2 0.1-0.5-1.2-0.4-0.1-0.5-0.5-0.4-0.6-0.2-1.3-0.4 0.3-0.3-0.2-1.3-0.8-1.6 0 0.1-0.2 0.2-0.2 0.2-1.2-0.4-2-0.4-3.1-0.8-0.1 0-0.7 0-0.5 0.3-0.2-0.2-0.3-0.4-0.6-0.5-0.8 0.1 0.7 0.3 0.1 0.6 0-0.3-0.8-0.7-1.2-1.1 0.3-0.3 1.1 0.4 1.6 0.7 0.2-0.5-0.4-1.4-1.5-2.1-0.8-0.5-0.5 0.2-0.6 0-1.8-0.5-1.1-1.5-2.7-1.7-0.7 0.2-0.3 0.7-0.5 1 0.7 0.4 1.2 0.2 1.7 0.4l-0.7-0.1c0.2 0.2 0.7 0.5 1 0.5-0.6 0.1-3-1-4.4-1.3-0.2-0.2-0.5-0.4-0.3-0.5l0.4 0.2c0.5-0.2-0.6-0.7 0-0.6-0.5-0.5-1-1-1.9-1.2l-0.3 0.4c0.1-0.1 0.6-0.1 0.8 0.1-0.3-0.3-1.4 0.1-1.6-0.6h0.7c-0.5-0.4-1-1.2-1.8-1.3 0.5-0.3 0.2 0.1 0.8-0.2-0.6 0.4 1.6 0.7 1 1 0.7-0.3 0.9 0.1 1.7-0.1 0 0.2-0.3 0.2 0.3 0.4 0 0 0.1 0.1 0.1 0.1q0 0 0.1 0-0.1 0-0.1 0 0.1 0.1 0 0-0.2 0.1-0.4 0.1c0.2 0.5 1.1 0.8 1.4 1.1 0.4 0.1-0.1-0.2 0.2-0.3l0.3 0.4c0.2-0.2 1.2-0.1 0.4-0.6l0.8 0.3c0.5 0 1.1 0.1 1.4 0.4 0.4 0.1 0.8 0.7 0.5 0.3l1.1 0.7 0.1-0.1c1.1 0.4 2.1 1.4 3.7 1.4 0.3 0.2 0.7 0.4 1.4 0.6l0.2-0.2c0.5 0.3 1.6 0.3 1.7 0.6 0.8-0.4 2.5 0.8 3.4 1l-0.1 0.4c0.6 0.2 1.1 0.5 1.8 0.9l-0.1 0.3c0.5 0.5 1.7 0.4 2.7 0.9 0-0.2-0.3-0.2-0.5-0.2 1.5-0.3 2.4 1.4 3.7 1.4 0.2 0.2 0.4 0.2 0.6 0.2q0 0 0 0 0 0 0.1 0 0.2 0 0.4 0-0.2 0-0.3 0c0.2 0.1 0.5 0.3 0.8 0.5l0.2-0.3q0 0 0.1 0c0.3 0 0.2 0.3-0.1 0.5q0.2 0.1 0.4 0.3c0.4-0.4 0.7 0.5 1.3 0.1 0.1 0.3 1.3 0.7 1.4 1.3 0.4 0.1 0.8 0.1 1 0.4l0.3-0.3 0.6 0.8c0.5 0 0.8-0.1 0.4-0.6 1 0.9 0.9 0.5 1.6 1.4l0.1-0.3c0.3 0.1 0.7 0.7 1 0.5 1-0.2 3.8 1.4 5.9 1.7-0.7 0.6 1.1 0 0.9 0.6 0.2-0.1 0.5-0.1 0.3-0.4 0.9 0.6 1.6 0.3 2.1 1.1 0.1-0.2-0.1-0.4 0-0.5 0.1 0.1 0.3 0.3 0.4 0.2 0.1 0-0.1-0.2-0.2-0.3 1 0.4 0.9 1 0.7 1.6 0.6-0.1 0.9 0.1 1.1 0.6 0.3-0.2 0.6-0.2 0-0.5 0.4 0.1 2.3 0.5 2.2 1 0.1-0.1 0.5 0.2 0.6 0.2 0.8 0.3 0.9 0.3 1.6 0.7l-0.2-0.1c0.1 0.7 0.6 0.4 1.2 0.7 1.6 0.1 0.5 0.4 2.1 0.5l-0.2 0.3c-0.1 0.7 1.4 0.1 2.2 0.7h-0.4c0.4 0.4 1.6-0.4 2.1-0.3 0.1-0.1-0.1-0.2-0.2-0.3 1.3 0 0 0.5 0.8 0.9 0.3-0.1 0-0.6 0.7-0.5 0.3 0 1.4 1.4 2.4 1.3-0.3 0.1-0.5 0.2-0.2 0.5 0.7 0.3 2 0 2.4 0.8q0.1 0 0.1-0.1c0.5 0.3 1.5 0.8 1.7 1.2 0.9-0.9 2.8 1.7 3.2 0.7l1.4 0.6v-0.1c1 0.3 1.2 0.7 1.5 1.1 0.2 0 0.1-0.2 0.1-0.2 1.4 0.3 1.6 0.4 2.5 1.3l0.3-0.2c0.2 0.3 2.2 0.2 3.4 1.1 0 0 0-0.1-0.1-0.2 1.4 1 4 0.5 4.1 1.9l0.9 0.7c-1.3-0.4 0 0.6-0.6 0.6 0.5 0.3 1.5 0.1 0.8-0.2l-0.1 0.1c0-0.8 1.7 0.4 1.9-0.1 2.5 1 5.2 1.6 7.6 2.5l-0.5 0.4 0.9 0.3c0.2 0 0.4-0.3-0.2-0.5 0.4-0.1 0.9 0.7 0.9 0.8 1.2 0.2-0.3-0.8 0.1-0.7l0.5 0.3h-0.2c0.4 0.3 0.3 0.6 1 0.8 0.5 0.1 0.4-0.2 0.6-0.1 0-0.1 0.1-0.1 0.3 0.1l1 0.3-0.5 0.2c0.3 0.4 0.9 0.4 0.3 0.7 1-0.4 4 1.2 4.6 1.2 0.5 0.5 1.2 0.8 2 1.1-0.3 0-0.6 0.4 0.2 0.6 0.1-1 1.3 0 2.1-0.3-0.4 0.2 2 0.8 1 1.1 0.6 0.1 0.2-0.3 0.7-0.4 1.2 0.9 3.1 1 4.8 1.7-0.1 0.2-0.4 0.2-0.1 0.5l1.1-0.2c0.3 0.2 0.1 0.8 0.8 0.6-0.1 0.1-0.3 0.2-0.1 0.3 3.6 0.7 6.6 3.1 10.4 3.3-0.5 0.1-0.2 0.2 0.1 0.4-0.2-0.1-0.1 0.3-0.2 0.4l1.6 0.1c0.1 0.5 1.5 0.6 1.5 1.1l-0.4-0.3c0.4 0.8-1.3 0.8-1.5 1.5-0.4-0.8-2 0.2-2.8-1-0.3 0 0.1 0.2-0.1 0.3-0.1-0.3-0.5-0.5-1.1-0.6v0.1c-1.7-0.8-2.5-0.8-4.6-1.4l0.3-0.2c-0.5-0.2-0.6-0.1-0.8-0.1-0.3-0.7 1.2 0.4 0.9-0.3-0.8 0.5-2.9-1.1-3.6-0.5-0.6-0.2 0.3-0.3-0.3-0.5l-0.2 0.1-0.1-0.3c-0.5-0.2-0.8 0-0.8 0.2 0.1 0 0.2 0.1 0.3 0.2-0.6 0-1.4-0.6-1.6-0.7l0.6 0.1c-1.7-0.8-4-1.4-5.5-2.5l0.2-0.1c-1.2-0.8-1.2-0.2-2.5-0.9v0.1c-0.2-0.3-0.6-0.5-1-0.6 0.3 0.3-0.8 0-0.4 0.4-1.3-0.8-0.6-0.5-1.3-1.4l-0.3 0.2c-0.3-0.4-0.3-0.5-0.9-0.9 0.5 0.5-0.6 0.2-0.1 0.8-1.7 0-2-1.4-3-0.9-0.4-0.9 1.4 0.1 1.1-0.2 0.4-0.1-0.4-0.7-0.9-0.8-0.5-0.2-1.1 0.6-2.3 0.1 0.1 0 0.1 0.1 0.2 0.1-0.5 0-0.8-0.6-1.5-0.5-0.1-0.5-0.7-0.2-0.6-0.8l1.1 0.5c-0.6-0.3-0.9-1.2-2.1-1.3 0.1 0.2 0.3 0.4 0.5 0.6-0.4 0-0.5-0.3-0.9-0.3-0.1 0.6 1.3 0.6 1.8 1.3-0.4 0.1-1.1-0.9-1-0.2-0.2-0.9-1.2-0.3-1.8-1.2l-0.1 0.3c-0.1-0.1-0.3-0.3-0.6-0.4l0.3 0.6c-0.5-0.6-1.4-0.2-2-0.6 1.4 0.5 0.5-0.3 1.1-0.3-1.4-1.1-1.2 0.4-2.9-0.4 0.3 0.1 0.9 0.1 0.6-0.1-0.4-0.1-0.9-0.2-1.2-0.1-1.2-0.5 0.3-0.2-0.1-0.6-0.6 0.2-0.5-0.4-1-0.8l-0.2 0.4c-1.4-0.4-0.1-0.9-1.4-1.1l0.3 0.7-0.6-0.4v0.4c-0.6-0.5-0.8-0.5-1.6-0.7 0.3-0.2 0.2-0.6-0.4-0.9-0.5 0.1 0.1 0.4-0.8 0.1 0.2 0.2 0.3 0.6 0.8 0.4 0 0.2 0.1 0.3 0.1 0.4-0.6 0.1-1.2-0.4-1.5-0.5 0.1 0.1 0.3 0.1 0.4 0.1l-1.1-1c-0.3 0.1-0.1 0.3 0 0.4-0.3-0.1-0.4-0.3-0.7-0.5 0 0.3-0.2 0.5 0.3 0.8l-1.1-0.7c-0.1 0.1-0.7 0.1-0.6 0.3-0.7-0.1-1.4-1.2-2.4-1.3q0-0.1-0.3-0.3c-0.8-0.2-1.7-0.2-2.5-0.9l-0.8 0.2c-0.7-0.4 1-0.3-0.2-1-0.8-0.5-0.5 0.3-0.9 0.3-0.3-0.4-0.9-1.2-1.9-1.1 0.2 0.2 0.5 0.2 0.6 0.4zm10.1 4.2q0 0 0-0.1zm8 3q0 0 0 0 0 0 0 0zm8.5 2.5q0 0 0 0 0 0 0 0zm16.2 6.7q0.1 0 0.1 0zm-5-5.5q0 0-0.1 0 0 0 0.1 0zm-9-2.6q0 0 0 0 0 0 0 0zm-66.2-25.6q0 0 0 0 0 0 0 0 0 0 0 0zm0 0q0 0.1 0 0.1c0.1-0.1 0.2-0.1 0-0.1zm-30.8-12.4q0.1 0 0.1 0 0 0-0.1 0zm0.2 1v-0.1q0 0 0 0.1zm28.7 12.3l0.1 0.1q0-0.1-0.1-0.1zm0.8 1.2q0 0 0 0zm0.4 0.1q0 0 0 0 0 0 0 0zm8 2.6c0.1 0 0.2 0 0.3 0.2q-0.2-0.2-0.3-0.2zm0 0q0 0 0 0 0 0 0 0 0 0 0 0zm4.6 2.1q0 0 0 0 0 0 0 0zm20 8.2q0 0-0.1-0.1zm-3.9-1.6c0.2 0.1 0.5 0.5 0.7 0.3-0.1-0.4-0.3-0.3-0.7-0.3zm-14.1-6.3c0.1 0.1 0.3 0.1 0.6 0.1q-0.2-0.1-0.6-0.1zm-39.4-17.8q0 0 0.1 0c0.4 0.1 0.2 0.1-0.1 0zm-0.4-0.1c-0.2 0-0.4-0.1-0.5-0.2q-0.1 0 0 0.1c0.3 0.2 0.4 0.2 0.5 0.1zm91 35.3h-0.2c0.3 0.2 0.3 0.1 0.2 0z"/>
	<path id="Layer" class="s3" d="m153.7 217.6q0.2 0 0.2-0.1c0 0.1 0 0.1-0.2 0.1z"/>
	<path id="Layer" class="s3" d="m181.7 229.2q0 0 0 0 0 0 0 0.1z"/>
	<path id="Layer" class="s3" d="m124.2 206.5q0.3 0 0.4-0.1c0 0.1-0.1 0.1-0.4 0.1z"/>
	<path id="Layer" class="s3" d="m107.7 196.3l0.6 0.3c-0.3-0.1-0.4-0.1-0.6-0.1 0.1 0 0.2-0.1 0-0.2z"/>
	<path id="Layer" class="s3" d="m102.2 196.5c0 0-0.1 0-0.2-0.1l0.1-0.1c0.3 0.1 0.5 0.3 0.1 0.2z"/>
	<path id="Layer" class="s3" d="m106.1 197.1q-0.1 0-0.1 0c0.4 0.2 0.7 0.4 0.8 0.1-0.3-0.3-0.7-0.5-0.7-0.1z"/>
	<path id="Layer" class="s3" d="m105.9 197q-0.2-0.1-0.3-0.1c0-0.2 0.1 0 0.3 0.1z"/>
	<path id="Layer" class="s3" d="m111 198c-0.2 0 0.1-0.4-0.1-0.3-0.1-0.4 1.1 0.9 0.1 0.3z"/>
	<path id="Layer" class="s3" d="m106.2 198l0.2-0.3 0.1 0.4z"/>
	<path id="Layer" class="s3" d="m109.3 198.9l-0.7-0.1c0.1-0.1 0-0.1-0.1-0.2 0.4 0.1 0.8 0.2 0.8 0.3z"/>
	<path id="Layer" class="s3" d="m108.5 198.6c-0.2-0.1-0.4-0.1-0.5-0.2 0.1 0 0.4 0.1 0.5 0.2z"/>
	<path id="Layer" class="s3" d="m107 198.4h0.2l0.4 0.2z"/>
	<path id="Layer" class="s3" d="m115.9 201.4l0.6 0.3c0 0.2-0.2 0.2-0.4 0-0.1-0.1-0.4-0.2-0.2-0.3z"/>
	<path id="Layer" class="s3" d="m113.5 201.5c0.2 0 0.2 0 0.4-0.1l-0.2 0.4z"/>
	<path id="Layer" class="s3" d="m115.4 202.4c0 0.1 0.8 0.7 0 0.3 0-0.1-0.6-0.5 0-0.3z"/>
	<path id="Layer" class="s3" d="m125.7 205.7l-0.2-0.1 0.3-0.6z"/>
	<path id="Layer" class="s3" d="m133.9 210.8c-0.9-0.2 0-0.5-0.8-0.6-0.2-0.2 0.6 0.1 0.5-0.1 0.4 0.3 0.7 0.3 0.3 0.7z"/>
	<path id="Layer" class="s3" d="m133.6 210q-0.1 0-0.2-0.2 0.1 0.2 0.2 0.2z"/>
	<path id="Layer" class="s3" d="m234.7 245.5l0.5 0.1-0.4 0.1z"/>
	<path id="Layer" class="s3" d="m235.5 246.4l0.2-0.4 0.2 0.5c-0.1 0-0.3-0.2-0.4-0.1z"/>
	<path id="Layer" class="s3" d="m164.7 223.2v-0.1c0.1-0.1 0.2-0.1 0.5 0z"/>
	<path id="Layer" class="s3" d="m171.7 225.5h-0.1l0.3-0.3z"/>
	<path id="Layer" class="s3" d="m177.3 228.3c-0.3-0.1-0.5-0.3-0.8-0.4 0.5 0.3 1-0.1 0.8 0.4z"/>
	<path id="Layer" class="s0" d="m39.2 178c-7.4 7.4-21 5.7-30.4-3.7-9.5-9.4-11.1-23.1-3.7-30.5l139.3-139.3c7.4-7.4 21.1-5.8 30.5 3.7 9.4 9.4 11.1 23.1 3.7 30.4z"/>
	<path id="Layer" class="s4" d="m152.6 37.6l0.8-21.3 24.8-4.2c6.4 9 6.8 20.1 0.4 26.5l-139.4 139.4c-6.4 6.4-17.6 6-26.6-0.4z"/>
	<path id="Layer" class="s5" d="m174.9 8.2c9.4 9.4 11.2 22.9 4 30.1-4.3 4.3-20.4 1.1-21-16.4-0.1-3.1-5.2 15.7-5.2 15.7 0 0-2.7-2.1-3.9-3.3-9.4-9.5-11.2-22.9-4-30.1 7.2-7.3 20.6-5.5 30.1 4z"/>
	<path id="Layer" class="s6" d="m81.6 104.4c0 0-3.5 7.7-19.9 15.9-16.3 8.1-27.4 6.1-27.4 6.1l10.8-16.9-16.4-7.9c25.3-1.4 39.4-10.4 39.4-10.4"/>
	<path id="Layer" class="s7" d="m70.5 115.2q-1.2-1-2.2-2.1c-5.8-5.7-8.9-12.9-10.4-17.2 6.7-2.4 10.2-4.7 10.2-4.7l13.5 13.2c0 0-2.2 4.8-11.1 10.8z"/>
	<path id="Layer" class="s6" d="m96 84.9c10.6 10.6 23.9 12.4 23.9 12.4l-23 23c0 0-14.9-3.4-23.7-12.2-8.8-8.8-11.5-20.9-11.5-20.9l23.3-23.3c0 0 1.5 11.5 11 21z"/>
	<path id="Layer" class="s1" d="m292.6 83.3l12.1 72.5c0 0-16.8 35.9-66.8 41.7-50 5.8-66.8-21.5-66.8-21.5l-8.4-63.2"/>
	<path id="Layer" class="s8" d="m166 138l-3.3-35.2 126.7-23.1c0 0 7.4 28.4 7.7 30.3 0.3 1.9-63.4 49.1-63.4 49.1z"/>
	<path id="Layer" class="s1" d="m330 77l-94.2 66.3-113.6-33.3 96.8-66.1z"/>
	<path id="Layer" class="s6" d="m216.1 101l-66.6 17.6 11.1 74.2c8.9 22.6 0.5 49.5-4.2 52.6-4.8 3.2-31.3-8.4-22.4-11.8 8.9-3.4 17.1-41.3 17.1-41.3l-11.2-77.1 73-20.3"/>
	<path id="Layer" class="s8" d="m226.3 100.7c-9 1.6-16.9-0.2-17.6-4.2-0.7-3.9 6-8.4 15-10 9.1-1.7 16.9 0.2 17.6 4.1 0.8 4-6 8.5-15 10.1z"/>
</svg>