<svg version="1.2" xmlns="http://www.w3.org/2000/svg" viewBox="0 0 330 330" width="330" height="330">
	<title>New Project</title>
	<style>
		.s0 { fill: #d8d8d8 } 
		.s1 { fill: #e62b7a } 
		.s2 { fill: #004f4f } 
		.s3 { fill: #1d6364 } 
		.s4 { fill: #000000 } 
		.s5 { fill: #00aec3 } 
		.s6 { fill: #cfcfce } 
		.s7 { fill: #ffffff } 
	</style>
	<path id="Layer copy 6191" class="s0" d="m215 302.2l-192.9-69.5 83.8-232.7 138 49.7 35.2 74.7z"/>
	<path id="Layer copy 6192" class="s1" d="m279.1 124.4l-55-19.8 19.8-54.9"/>
	<path id="Layer copy 6193" class="s1" d="m112.9 216.3c-1.2 3.2-7.3 3.5-9.4 5.9-2.3 2.5-2 8.5-5 9.9-3 1.4-7.5-2.7-10.8-2.5-3.2 0.1-7.3 4.7-10.5 3.5-3.2-1.2-3.5-7.2-5.9-9.4-2.5-2.3-8.5-2-9.9-5-1.4-3 2.7-7.4 2.5-10.8-0.1-3.2-4.7-7.3-3.5-10.5 1.2-3.2 7.2-3.5 9.4-5.8 2.3-2.5 2-8.6 5-10 3-1.4 7.4 2.7 10.8 2.5 3.2-0.1 7.3-4.6 10.5-3.5 3.2 1.2 3.5 7.3 5.9 9.4 2.4 2.3 8.5 2 9.9 5 1.4 3-2.7 7.5-2.5 10.8 0.1 3.2 4.6 7.3 3.5 10.5z"/>
	<path id="Layer copy 6194" class="s2" d="m117.2 39.7l60.5 21.7-5.2 14.4-60.5-21.8z"/>
	<path id="Layer copy 6195" class="s2" d="m111.3 237.3l85 30.6-1.7 4.9-85-30.6z"/>
	<path id="Layer copy 6196" class="s2" d="m108.8 63.1l101.7 36.6-5.2 14.4-101.7-36.6z"/>
	<path id="Layer copy 6197" class="s2" d="m100.3 86.5l142.8 51.5-5.2 14.3-142.8-51.4z"/>
	<path id="Layer copy 6198" class="s2" d="m83.4 133.4l114.7 41.3-5.2 14.4-114.6-41.3z"/>
	<path id="Layer copy 6199" class="s2" d="m91.9 110l142.8 51.4-5.2 14.4-142.8-51.5z"/>
	<path id="Layer copy 6200" class="s3" d="m196.6 257.5q0 0-0.1 0 0 0 0 0 0 0 0.1 0c0.1 0 0.1 0 0.1 0 0.1 0 0 0-0.1 0z"/>
	<path id="Layer copy 6201" class="s3" d="m194.8 259.2q0.3-0.1 0.5-0.3v0.1q-0.2 0.1-0.5 0.2z"/>
	<path id="Layer copy 6202" class="s3" d="m194.2 258.7q-0.2 0.2-0.4 0.4l-0.1-0.2c-0.6-0.3-1.8 0-2-0.7 0.5 0.4 1.7 0.4 2.5 0.5z"/>
	<path id="Layer copy 6203" class="s3" d="m190.5 256.6q0 0 0.1 0.1c-0.9-0.2-0.4 0-0.4-0.3q0.2 0.2 0.3 0.2z"/>
	<path id="Layer copy 6204" class="s3" d="m190.5 256.6c0.4 0.1-0.2-0.3 0 0z"/>
	<path id="Layer copy 6205" class="s3" d="m189.2 255.6c-0.2 0.1 0.1 0.3 0.2 0.4q-0.3 0-0.5 0c-0.2-0.3-0.2-0.5 0.3-0.4z"/>
	<path id="Layer copy 6206" class="s3" d="m188.3 256.1q0.1 0 0.2 0.1c0-0.1 0-0.1-0.2-0.1z"/>
	<path id="Layer copy 6207" class="s3" d="m188.8 256.2c-0.3 0.2-0.2 0.1-0.3 0l0.6 0.1c-0.3 0-0.4 0.1-0.3-0.1z"/>
	<path id="Layer copy 6208" class="s3" d="m189.3 256.5c0.2 0.2 0.6 0.4 0 0.4 1 0.3 0.9-0.1 0-0.4z"/>
	<path id="Layer copy 6209" class="s3" d="m192.1 258.9l-0.4 0.1-0.4-0.3c0-0.2 0.6 0.3 0.8 0.2z"/>
	<path id="Layer copy 6210" class="s3" d="m187 254.7q-0.1 0-0.3-0.1c0.1-0.1 0.2-0.3 0.3-0.4-0.1 0.1 0 0.4 0 0.5z"/>
	<path id="Layer copy 6211" class="s3" d="m186.7 254.6q-0.2-0.1-0.4-0.2c0.2 0.3 0.4 0.3 0.4 0.2z"/>
	<path id="Layer copy 6212" class="s3" d="m187.7 256.5q0.6 0.1 1.2 0.2-0.5 0-1-0.1z"/>
	<path id="Layer copy 6213" class="s3" d="m186.2 253q0.3 0.1 0.5 0.2-0.1-0.1-0.3-0.1z"/>
	<path id="Layer copy 6214" class="s3" d="m186.4 250.8c0.1 0.4 0.3 0.8 0.4 1.1-0.2-0.2-0.3 0.3-0.5 0.1q0.2-0.6 0.1-1.2z"/>
	<path id="Layer copy 6215" class="s3" d="m186.1 250.1q0.1 0.3 0.2 0.7 0-0.4-0.2-0.7z"/>
	<path id="Layer copy 6216" class="s3" d="m186 253.6q0.1-0.1 0.2-0.2c0 0.2-0.1 0.3-0.2 0.4q0-0.1 0-0.2z"/>
	<path id="Layer copy 6217" class="s3" d="m185.9 253.3q0 0.1 0 0.3 0-0.2 0-0.3z"/>
	<path id="Layer copy 6218" class="s3" d="m186 253.8q0 0 0 0z"/>
	<path id="Layer copy 6219" class="s3" d="m186.9 255.5c-0.3 0-1-0.3-0.7 0.3 0.3 0 0.2-0.4 0.7-0.3z"/>
	<path id="Layer copy 6220" class="s3" d="m186.2 254.5c-0.1-0.1-0.2 0.1-0.3 0.1q-0.1-0.2-0.1-0.4 0.2 0.1 0.4 0.3z"/>
	<path id="Layer copy 6221" class="s3" d="m185.7 254l0.1 0.2-0.3-0.2z"/>
	<path id="Layer copy 6222" class="s3" d="m185.5 251.6q0-0.5 0.1-1.2c0 0.4 0.1 0.7 0.2 1 0 0.4-0.2 0.3-0.3 0.2z"/>
	<path id="Layer copy 6223" class="s3" d="m185.8 252.7l-0.1-0.1q0 0.1 0.1 0.1z"/>
	<path id="Layer copy 6224" class="s3" d="m183 246.1l-0.1-0.1z"/>
	<path id="Layer copy 6225" class="s3" d="m185.5 251.6q0 0.4 0.1 0.7c-0.1-0.2-0.2-0.3-0.1-0.6-0.1-0.1 0-0.1 0-0.1z"/>
	<path id="Layer copy 6226" class="s3" d="m185.6 248.7c0 0.2 0.1 0.5 0 0.8 0.1-0.2 0.1-0.8 0-0.8z"/>
	<path id="Layer copy 6227" class="s3" d="m185.8 252.6q0 0 0 0c0.1-0.1 0.1-0.1 0 0z"/>
	<path id="Layer copy 6228" class="s3" d="m185.7 252.6q0-0.1-0.1-0.3 0.1 0.1 0.2 0.3 0 0-0.1 0z"/>
	<path id="Layer copy 6229" class="s3" d="m181.2 247.2h-0.8c0-0.6 1.4-0.3 1.2-0.8 0.2 0.2 0.2 0.3 0.3 0.4 0.1 0.1 0.3 0.2 0.8 0.4 0.4 0.1 0.3-0.1 0-0.4-0.2-0.3-0.6-0.5-0.7-0.7 0.8 0.2 0.9 0.1 1 0 0.2 0.5 0.3 1 0.1 1.3-0.1 0.4-0.4 0.5-0.7 0.5-0.4-0.7-1.3-0.7-1.4-0.4-0.2-0.1 0.1-0.2 0.2-0.3z"/>
	<path id="Layer copy 6230" class="s3" d="m184.6 247.5c-0.4-0.6-1-1.1-1.6-1.4 0.1-0.1 0.3-0.2 1 0.2 0.4 0.6 0.5 1 0.7 1.4q-0.1-0.2-0.2-0.3z"/>
	<path id="Layer copy 6231" class="s3" d="m184.8 247.7q0.3 0.4 0.5 0.9c0.1 0.3 0.3 0.7 0.3 0.9q0 0 0 0c-0.1-0.1-0.2-0.6-0.2 0q0.1 0 0.2 0 0 0 0 0.1c0 0 0 0 0-0.1q0 0 0 0 0 0.4 0 0.9 0-0.4-0.2-0.9c0 1.2-0.6-0.8-0.3 0.7-0.1-0.2-0.2-0.3-0.3-0.4-0.1-0.1-0.2-0.2-0.3-0.8 0.1-0.3 0.2-0.2 0.4-0.1 0.2 0.2 0.3 0.5 0.5 0.6-0.2-0.9-0.5-1.4-0.6-1.8z"/>
	<path id="Layer copy 6232" class="s3" d="m185.3 255.8q0 0 0-0.1c-0.1 0-0.1 0 0 0.1z"/>
	<path id="Layer copy 6233" class="s3" d="m185.5 254.4c-0.1 0-0.2 0.7 0.1 1.1 0.3 0.5-0.1 0.3-0.3 0.2 0.1 0 0.3 0.1 0.2-0.1-0.2-0.3-0.3-0.2-0.4-0.3 0.1-0.4 0.2-0.6 0.4-0.9z"/>
	<path id="Layer copy 6234" class="s3" d="m184.5 252.1l-0.2 0.1 0.3-0.6q0.1 0.6 0.2 1c-0.1 0-0.3 0.1-0.3-0.5z"/>
	<path id="Layer copy 6235" class="s3" d="m182.2 245.7q0.4-0.1 1-0.1-0.2 0.1-0.4 0.2-0.3-0.1-0.6-0.1z"/>
	<path id="Layer copy 6236" class="s3" d="m181 245h0.4l-0.1 0.2z"/>
	<path id="Layer copy 6237" class="s3" d="m138.4 211q0.1-0.2 0.1-0.3-0.1 0.2-0.1 0.3z"/>
	<path id="Layer copy 6238" class="s3" d="m137 213.1l0.1 0.1c0-0.2 0-0.2-0.1-0.1z"/>
	<path id="Layer copy 6239" class="s3" d="m159.7 236.1q-0.1-0.1-0.2-0.2 0-0.2 0.1-0.4c0.1-0.2 0.2 0.1 0.3 0.4 0.1 0.3 0.2 0.7 0.2 1.1q-0.1-0.4-0.4-0.9z"/>
	<path id="Layer copy 6240" class="s3" d="m138.1 232.2q-0.2-0.1-0.4-0.1 0-0.1 0-0.2 0.2 0.2 0.4 0.3z"/>
	<path id="Layer copy 6241" class="s3" d="m136.3 232.3q-0.1-0.4-0.1-0.7 0 0.2 0.1 0.7z"/>
	<path id="Layer copy 6242" class="s3" d="m151.1 206.5l0.5-0.1c-0.6-0.3-0.4 0-0.5 0.1z"/>
	<path id="Layer copy 6243" class="s3" d="m166.6 248.1q-0.5 0-0.8 0.1c0.4 0.1 0.8 0.2 0.8-0.1z"/>
	<path id="Layer copy 6244" class="s3" d="m140.8 213.8q0-0.3 0-0.4c-0.1 0.2-0.1 0.3 0 0.4z"/>
	<path id="Layer copy 6245" class="s3" d="m165.8 248.2q-0.5 0.1-0.8 0.3-0.1 0-0.1 0c0.2-0.3 0.5-0.3 0.9-0.3z"/>
	<path id="Layer copy 6246" class="s3" d="m128.2 222.4q0 0 0-0.1-0.1 0 0 0.1z"/>
	<path id="Layer copy 6247" class="s3" d="m124.9 209.6c0 0.1 0 0.2 0 0.4q0.1-0.1 0-0.4z"/>
	<path id="Layer copy 6248" class="s3" d="m174.8 244.3c0.4-0.1 0.1-0.1 0 0z"/>
	<path id="Layer copy 6249" class="s3" d="m176.6 245.4q-0.1 0.1-0.1 0.2 0-0.1 0.1-0.2z"/>
	<path id="Layer copy 6250" class="s3" d="m162.3 250.6q0 0 0 0c0.1 0.1 0.1 0 0 0z"/>
	<path id="Layer copy 6251" class="s3" d="m175.4 244.3q-0.2 0-0.5 0 0.1 0 0.5 0z"/>
	<path id="Layer copy 6252" class="s3" d="m175.3 244.2q0.2 0 0.3 0c0.1-0.1 0-0.1-0.3 0z"/>
	<path id="Layer copy 6253" class="s3" d="m174.8 244.3q0 0 0.1 0-0.3 0-0.6 0.1c0.3-0.1 0.4-0.1 0.5-0.1z"/>
	<path id="Layer copy 6254" class="s3" d="m152.4 225.7q-0.1 0-0.1 0c-0.2 0.3-0.1 0.2 0.1 0z"/>
	<path id="Layer copy 6255" class="s3" d="m151.4 236.2q0 0 0 0 0 0 0 0z"/>
	<path id="Layer copy 6256" class="s3" d="m151.2 235.2q0.1 0.5 0.2 1c-0.3-0.1-0.5-0.2-0.8 0.2q0.2-0.6 0.6-1.2z"/>
	<path id="Layer copy 6257" fill-rule="evenodd" class="s4" d="m141.8 207.3c0.6-0.2 1-0.5 1.3-0.9 0.3-0.4 0.6-0.8 1-1.1 0.4-0.1 0.3 0.1 0.4 0.3 0.1 0.1 0.2 0.1 0.9-0.1q0.1 0 0.1 0c0.6-0.1 0.9-0.2 1-0.2 0.1-0.1 0-0.2-0.1-0.3-0.3-0.2-0.7-0.4 0.1-0.4q0.3 0.2 0.6 0.3 0.2 0.2 0.4 0.4c0.8 0 1.2 0.2 1.7 0.4 0.5 0.2 0.9 0.5 1.4 0.8 0.3 0 0.4 0.1 0.5 0 0.9 0.7 2.4 0.7 3 1.5-0.2-0.1 0.2 0.5 0.2 0.7q0.8 0.4 1.5 0.8c-0.6-0.4-0.8-0.1-1.1 0 0.4 0.3 0.7 0.4 0.9 0.6-0.2 0-0.4-0.1-0.3 0.2q0.7 0.4 1.5 1c-0.1-0.2-0.2-0.3-0.3-0.5 0.2 0.2 0.4 0.5 0.7 0.8 0.2 0.3 0.4 0.7 0.4 1-0.1 0-0.3-0.1-0.4-0.1 0-0.7-0.4-0.8-0.8-0.8 0.7 0.9 0.1 0.2 0.2 0.8 0.4 0.7 0.9 0.9 1.1 0.6 0.3 1 0.3 1.3 0.8 2.2l-0.5-0.1q0.2 0.4 0.3 0.9-0.3-0.4-0.6-0.7c0 0.9 0.2 0.9 0.4 1 0.1 0.1 0.4 0.3 0.2 1.3l-0.4-0.1c0.1 0.4 0.2 0.7 0.3 0.9 0.1 0.3 0.1 0.5-0.2 0.7 0 0.8 0.8-1.1 0.4 0.6-0.2 0.3-0.6 0.9-0.9 1.3 0 0.5 0.5 0 0.6-0.4-0.4 1.1-0.9 1.3-1.2 1.4-0.5 0.2-0.8 0.3-1.3 1.3 0.7-0.4 0.2 1 1.3-0.5-0.4 0.9-1.5 1.1-1.9 2q0.1-0.4 0.1-0.8c-0.2 0.2-0.3 0.6-0.4 0.8l-0.2-0.3c-0.2 0.6-0.7 0.8-1.1 1-0.4 0.3-0.7 0.4-0.8 1 0.1-0.8-0.7 0.4-1.2 0.4 0.3-0.4 0.8-0.7 1.3-1 0.4-0.3 0.8-0.6 0.7-0.9-0.5 0.1-0.6 0.5-1 0.6 0.1-0.2 0.4-0.6 0.4-0.7-1.2 0.4-1.6 1.3-2.2 1.8q0.6-0.4 1.2-0.7c0.1 0.5-0.5 0.3-0.7 0.9-0.8 0-1.2 0.6-1.8 0.6 0.1 0 0.1-0.1 0.3-0.1-1.5 0.4-2.1-0.5-2.7-0.4-0.6 0-1.6 0.4-1.2 0.7-0.2 0.1 0.3 0 0.7-0.1 0.5 0 0.9 0.1 0.5 0.5-0.5-0.4-0.9-0.2-1.5-0.1-0.5 0.2-1.2 0.4-2.2 0.1 0.9-0.4-0.4-0.6 0.3-0.8-0.9 0.1-0.9 0.2-1.3 0.4l-0.2-0.3c-1.3 0.5-0.4 0.6-2.2 0.6 0.6-0.1-0.6-0.5-0.1-0.6-0.5-0.2-1-0.2-1.4-0.1l0.1-0.1c-0.6 0-1-0.2-1.2-0.3 0.1 0.4 0.1 0.6 0.2 1.3 0.1 0.1 0.3 0.5 0.2 0.6 0.3 0 0.5 0.4 0.6 0.9 0.2 0.5 0.4 1.1 0.5 1.2-0.4-0.5-0.4-0.2-0.5 0.1 0.5 0.2 0.7 0.4 0.7 1 0.6-0.3 1.2-0.5 1.8 0.1-0.2 0-0.4-0.2-0.4 0 0 0.2 0.2 0.2 0.3 0.3 0 0.1-0.3 0-0.4 0.2 0.5 0 0.6 0.2 0.9 0.4 0.2 0.2 0.4 0.5 0.8 0.6-0.3 0.1-0.1 0.3-0.1 0.5 0.2-0.3 0.4 0 0.6 0.3 0.2 0.2 0.3 0.3 0.3-0.1 0.8 0.5 2 0.7 2.9 0.4 1-0.3 2.1-0.8 2.7-0.6 0.3 0.1 0.9-0.5 1.4-0.6l-0.1 0.3c0.6-0.3 0.9-0.4 1.2-0.4 0.3-0.1 0.6-0.1 1.4-0.3-0.7 0.3-0.4 0.4 0.1 0.8q0.5-0.2 1.1-0.4l0.1 0.5c0.4-0.1 0.8 0.1 1.2 0.3 0.5-0.3 1.8 0.2 2.1 0.1 0.1 0.3 0.4 0.4 0.7 0.5 0.4 0.1 0.8 0.3 0.7 0.7q0.4 0 0.7 0.3c0-0.4 0.2-0.7 0.5-0.2q0 0 0.1 0.1-0.1 0.2-0.2 0.4h0.1c0.4 0.4 0.6 1 0.7 1.3q0-0.3 0-0.6 0 0.4 0 0.7 0 0.1 0.1 0.2-0.1 0-0.1-0.1c0 0.4 0 0.7 0.1 1.2-0.3 0.9-0.3 1.7-0.2 2.3 0 0.7 0.1 1.4-0.3 2 0.1-0.2 0.2-0.4 0-0.5 0 1-0.5 2.1-0.1 2.7l0.4-0.1c0.2 0.7 0.5 1.1 0.7 1.5l0.4-0.1c0 0.3 0.4 0.6 0.7 0.7 0.3 0.3 0.6 0.4 0.6 0.8 0.1-0.1 0.3 0 0.5 0.1 0.3 0.1 0.5 0.2 0.7 0.1l0.2 0.3c0.5 0.1 0.9-0.1 1.2-0.3 0.7 0.2 1.4 0 1.9-0.4 0.6-0.3 1.1-0.7 1.7-1v0.1l1.1-0.8c-0.2 0.4 0.2-0.3 0.6-0.5 0.3-0.3 1.1-0.6 1.7-0.6q0.4-0.2 0.9-0.4c-1 0.6 0.2 0.4 0.4 0.7q0.2-0.2 0.5-0.5c0.3 0.1-0.3 0.4 0.2 0.4 0.3-0.4 1.5-0.6 1.9-0.9q-0.1-0.2-0.4-0.2-0.1 0 0 0l-0.1-0.1q0.1 0 0.1 0c0 0 0.1-0.1 0.2-0.1 0.8 0 0.5-0.1 0.5-0.3 1 0.5 1.5 0.3 2.1 0.9-0.3-0.3 0.2-0.2 0.7-0.1 0.5 0.1 1.1 0.3 0.9-0.1 0.5 0.7 0.4 0.1 0.7 0.7-0.8-0.4-1.8-0.2-2.6 0q0.3 0.2 0.6 0.4c-0.2 0.3-0.6 0.1-1 0-0.3-0.2-0.7-0.4-0.9-0.3 0.2-0.1 0.8 0.1 0.9 0.2l-0.1-0.4c-1.1-0.3-2 0.1-2.6 0.5 0.3 0 0.1 0.1-0.1 0.2-0.2 0.2-0.4 0.3-0.1 0.5q0.2-0.1 0.5-0.2c0.2 0.1-0.2 0.3-0.4 0.5-0.8 0-1.9 0.4-2.7 0.8-0.9 0.5-1.7 0.9-2 0.8 0.3 0 0.8-0.4 1-0.6l-0.7 0.1c0.5-0.3 1.1-0.1 1.8-0.6-0.3-0.2 0.2-0.9-0.6-1-1.8 0.4-0.9 1.4-2.8 2.2-0.1 0.2 0.2-0.6-0.7 0-1 0.9-1.7 1.8-1.5 2.4 0.5-0.3 1.4-1.1 1.8-0.8-0.5 0.4-1.4 0.9-1.4 1.2-0.7-0.3 1.1-0.5 0.1-0.7-0.3 0.2-0.5 0.4-0.6 0.5 0.2-0.3-0.5-0.2-0.6-0.3-1.3 0.3-2.2 0.2-3.5-0.1-0.1-0.1-0.2-0.3-0.1-0.4-0.3 0-0.8 0.1-1.2 0.2-0.4 0.1-0.7 0.2-0.7 0.5-0.8-0.5-0.6-0.8-1.3-1.2 0.6 1.2-0.2-0.2-0.6 0-0.6-0.7 0-0.4-0.1-0.8-0.1-0.1-0.5-0.3-0.6-0.2 0.1-0.3 0.4-0.2 0.7-0.2 0.4 0.1 0.7 0.1 0.8-0.3 0-0.2 0-0.7 0-1.1 0-0.4 0-0.8 0.1-0.8-0.5-0.2-2.3 0.3-2.7 1-0.3 0.1 0.1-0.8 0.1-1.1 0.1-0.6 0-0.9-0.2-1.3-0.1-0.3-0.3-0.6-0.2-1.1l0.3 0.7c0.1-0.2-0.1-1.4-0.3-1.6 0.2 0 0.9 0.7 1.1 0.3 0.2-1.3-0.6-2.7-1.1-2.7q0.1 1.1 0.3 2.2c-0.4 0.1-0.3-1.6-0.8-1.5q0.1-0.5 0.2-1l0.2-0.8c0 0.1 0 0.8 0.3 0.6 0.1-0.7 0.2-0.4 0.4-0.8 0.3 0.4 0.6 1.1 1 1.8 0.4 0.7 0.9 1.3 1.2 1.6q-0.1-0.5-0.2-1l0.3-0.1q-0.1-0.5-0.4-1-0.2-0.5-0.6-0.9c-0.4-0.5-0.9-0.7-1.2-0.8 0.1-0.4 1-0.6 1.2-0.4-0.1-0.5-0.4-0.7-0.7-0.8-0.6-0.1-1 0.2-1.4-0.1q0.1 0.2 0.1 0.3 0 0-0.1 0-0.2-0.1-0.4-0.2c-0.2-0.1-0.5-0.3-0.5-0.2-0.1-0.3-0.1-0.8 0.1-0.9q-0.7 0.1-1.3 0.3c0.2-0.1 0.3-0.7 0.4-0.8-0.4-0.2-1 0.5-0.8 0.7-0.7-0.8-0.6-0.4-1.1-1.2-0.3 0-0.2 0.8 0 0.9-0.6 0.1-0.9-0.1-1.1-0.2 0.4-0.1 0.6-0.5 0.6-0.9 0-0.5-0.1-0.9 0.1-1.2-0.9 0.6-1.7 1.3-2.2 2.2 0.1-0.2 0.1-0.9 0.1-1-0.1 0.4-0.6 0.6-1.3 1-0.7 0.4-1.7 0.8-2.4 0.9h0.2c0.2-0.3-1-0.1-1.6 0.1 0.1-0.1 0.2-0.1 0.5-0.1-0.6-0.2-0.9 0-1.2 0.3-0.4 0.2-0.8 0.4-1.3 0 1 0.2 1.2-0.1 1.2-0.3-0.4 0.1-1 0-1.5-0.1-0.5 0-0.9 0-0.9 0.4-0.4-0.3-0.8-0.4-0.6-0.8q-1-0.2-1.9-0.6c0.1 0.1 0.3 0 0-0.4 0.4 0.3 0.9 0.5 1.3 0.6 0.5 0.2 0.8 0.3 1 0.6 0.2-0.4-0.1-0.8 0.5-1-0.9-0.2-1.6-0.4-2.3-0.5-0.7-0.2-1.4-0.3-2-0.6q-0.5-0.8-0.8-1.7l-0.3 0.1q0.2-0.3 0.4-0.6c-0.3-0.1-0.4-0.2-0.4-0.2 0-0.1 0.1-0.1 0.2 0q-0.2-0.3-0.3-0.3c0.2-0.2 0.7-0.1 1.1 0q-0.1 0.2-0.1 0.5c0.4 0.1 0.8 0.2 0.7-0.3q-0.1 0-0.2-0.1c0.3 0 0.5 0 0.5-0.1q-0.4-0.4-0.8-0.9 0 0.3-0.1 0.7c-0.7-0.5-1.4-1.1-1.5-0.3q0-0.6-0.1-1.1c-0.9-0.9-0.7-0.7-1.4-2 0.1-0.1 0.4 0.2 0.4 0-0.4-0.5-0.3-1.1-0.2-1.7q0.1-0.2 0.1-0.4c-0.9-0.2-1.8-0.7-2.6-1.2-1.1-0.6-2.1-1.3-3-2q0.2 0.3 0.5 0.6c-0.2-0.2-1.3-0.8-1.7-1.4 0.1 0.1 0.4 0.2 0.4 0.3 0.2-0.2 0.1-0.5-0.2-0.9h-0.3v-0.3c-0.6-0.6-0.2 0.5-0.7-0.1 0.1-0.5-0.5-1.1-1-1.8-0.6-0.8-1.1-1.5-1-2-0.4-0.1-0.2 0.3 0 0.6 0.2 0.3 0.4 0.6 0 0.5 0-0.3 0-0.4-0.3-0.9l-0.2 0.4q-0.4-0.8-0.7-1.5c-0.2-0.4-0.3-0.8-0.4-1.2-0.3-0.8-0.5-1.5-0.9-2.5h0.1c-0.1-0.8-0.3-1.1-0.7-1.4 0.1-0.2 0.4 0.3 0.4 0-0.6-0.6-0.5-1.4-0.4-2 0.2-0.7 0.5-1.2 0.2-1.7 0.4 0.1 0.8-0.3 1.2-0.5 0.4-0.2 0.7-0.3 0.9 0q0-0.2 0.1-0.4c0.2 0.1 0.1 0.5 0 0.8 0 0.3-0.1 0.7 0.2 0.9q-0.3 0.6-0.5 1.4c0.2-0.1 0.5 0.1 0.5-0.1 0.1 0.3 0.2 0.6 0.4 0.2-0.2 0.8-0.1 1.8 0.2 2.7 0.2 0.9 0.7 1.7 1.1 2.5 1 1.6 2.3 3 3.4 4.5 0.2 0.2 0.2-0.1 0.2-0.2 0.1 0.8 0.6 0.2 0.9 0.4l0.4 1.2c0.4 0.1 0.3-0.3 0.4-0.4 0.8 0.6 1.5 1.3 2.3 1.8q0 0 0-0.1c-0.1-0.4 0-0.9 0.1-1.4 0.1-1.4-0.8 0.5-0.6-0.7 0.3-0.1 0.8-0.2 1-0.9-0.2-0.5-0.5-0.5-0.4-1.2l0.5 0.2c0.1-0.6 0.2-1.1 0.5-1 0-0.6 0.1-0.9 0.3-1.1 0.1-1-1.2 0.3-1.4 0.5 0.3-0.4 0.5-0.8 0.7-1.1 0.1-0.3 0.4-0.6 0.7-0.7l-0.2 0.8c1.3-1.4 0.1-1.8 1.4-2.1-0.3 0.5-0.4 1.3 0 1.1l0.2-0.9c0.1 0-0.2 0.5 0.1 0.2 0-0.3 0-0.8 0-1.1 0.3-0.4 0.5-0.9 0.7-1.3 0 0.2 0.1 0.3 0.2 0.1l0.4-1c-0.1 0.3 0.2 0.1 0.6-0.2 0.9-0.9-0.2-1.5 0.9-2-0.1 0.1-0.1 0.2-0.2 0.3l0.5-0.2c-0.3-0.5 0.2-1.1 0.8-1.6 0.6-0.6 1.3-1.1 1-1.5 0.9-0.2 0.2 0.1-0.3 1.1l0.8-0.2c-0.2 0.2-0.5 0.3-0.7 0.6zm-3.9 4.5q0 0.1-0.1 0.1 0.1 0 0.1-0.1zm-3.5 12.4c-0.1 0.7-0.3-0.2-0.4 0.1l0.4 0.6c0 0.2-0.1 0.1-0.2 0.1 0.2 0.5 0.5 0 0.7 0.8 0.2 0.1 0.2 0.3 0.1 0.6q0.3 0.1 0.6 0.1l-0.1-0.2c0.8 0.2 1.1 0.3 1.4 0.5q0.1 0.1 0.3 0.2 0-0.2-0.1-0.5v0.3c-0.7-0.3-0.3-0.7-0.4-1.4h0.1c0.1-0.8 0.1-1 0-1.2q0 0 0 0c-0.3-0.1-0.5-0.1-0.3 0.3-0.6-0.4 0.1-0.4-0.3-0.8-0.7-0.1-1.4-0.5-2-1 0 0.4 0.1 0.9 0.2 1.5zm4.9 11.5q0 0 0 0 0 0 0 0zm14.4 1q0 0 0 0 0 0 0 0zm0.4 0.1q0 0 0 0 0 0 0 0zm1.4-0.3q-0.1 0-0.1 0 0.1 0 0.1 0zm22.1 9.1q0 0 0 0zm0.7-0.7q0-0.1 0-0.1 0 0 0 0.1zm-2.9-0.6q0 0 0 0zm-20.7-9.9c-0.2-0.1-0.1 0-0.2 0.1q0.1-0.1 0.2-0.1zm0 0q0 0 0 0 0 0 0 0 0 0 0 0zm-17.9-10.3q0.2 0.1 0.3 0.1c0.5 0.1 0.9 0.2 0.9 0 0.4 0.9 2.1 0.7 1.6 1.6 0.8 0.3 0.7-0.3 0.5-0.4q0.7 0.2 1.2 0.2 0.6 0 1.2-0.1c0.2 0.1 1.2 0.1 2.2 0.1 1.1-0.1 2.1-0.2 2.6 0.1-0.6-0.4 0-0.3 0.5-0.6l-0.6-0.3q0.6-0.1 1.1-0.2c0.2-0.1 0.3-0.1 0.3-0.1 0.2 0 0 0.2 0.5 0.2 0.8-0.2 0.7-0.5 1-0.9h-0.2q0.2-0.1 0.4-0.2c0.2-0.1 0 0.1-0.2 0.4-0.1 0.2-0.2 0.4 0.5 0.2-0.1-0.1 0.3-0.9 0.7-0.9-0.5 0.3-0.3 0.6-0.1 0.6q0.4-0.2 0.8-0.5-0.3-0.1-0.6-0.3c1.1-0.6 2-1.4 2.7-2.4 0.8-1 1.3-2.3 1.3-3.5 0.3 0 0.3-0.5 0.3-0.9 0-0.5-0.1-0.9 0.3-0.8v0.1c0.2 0.7 0.5-0.3 0.2-0.9 0 0.3-0.2 0.1-0.4 0-0.3-0.1-0.4-0.1-0.3 0.6q-0.3-0.5-0.6-0.9c-0.8 0.1-1-0.4-1.3-1.1-0.3-0.7-0.9-1.6-1.6-1.9 0.1 0 0.2 0 0.2 0-0.7-0.3-1.3-0.8-1.8-1.3-0.6-0.4-1-0.8-1.2-0.7v-0.4c-0.7 0-1.1 0-1.5-0.1-0.3-0.1-0.8-0.3-1.3-0.5 0-0.1 0.2-0.2 0-0.3-0.2 0.2-0.3 0.3-0.5 0.5q-0.2 0.1-0.5 0.2v-0.1c-0.3 0.1-0.8 0.5-1.2 0.8-0.3-0.4-0.8 0.2-1.2 0.8-0.5 0.6-0.8 1.3-1.5 1.1 0 0.5-0.6 1.5-0.8 2q0 0-0.2 0c0.1 0.4-0.2 0.8-0.5 1.1-0.3 0.3-0.7 0.7-0.8 1-0.1 0.5 0.2 0.4 0.4 0.3-0.4 0.3-0.5 0.9-0.6 1.5 0 0.5 0.1 1-0.1 1.1-0.2 0.6-0.5 0.1-0.8 0.2-0.1 1 1.1 0.1 0.3 1.2 0-0.1 0-0.4-0.1-0.3-0.1 0.2-0.5 0.5-0.9 0.7-0.4 0.3-0.7 0.6-0.6 0.9q0.1-0.1 0.2-0.3c0.1 0.5-0.2 1-0.4 1.4-0.2 0.5-0.4 0.8 0 0.9h0.4c-0.3 0.7-0.2 0.9-0.2 1zm1.2 0q0 0.1 0 0.1 0 0 0-0.1zm-8.1-0.3q0 0 0 0 0 0 0 0zm19.7 3.6q0 0 0 0 0 0 0 0zm8.6-6.9q0 0-0.1 0.1 0.1 0 0.1-0.1zm-2.4-11q0 0 0 0 0 0 0 0zm-20 6.1c-0.2 0.1-0.2 0.6-0.2 0.8 0.2-0.3 0.5-0.4 0.2-0.8zm1.9 17.5c0 0.3 0.1 0.5 0.3 0.6q-0.1-0.4-0.3-0.6zm33.7 12.7v-0.1c-0.4 0.1-0.6 0.2 0 0.1zm1-0.4c0.1 0 0.1-0.1 0-0.1 0 0.1-0.2 0.2-0.5 0.3 0.1 0 0.3 0 0.5-0.2zm-23.7-20.7h-0.2c-0.1 0.1-0.1 0.2 0.2 0z"/>
	<path id="Layer copy 6258" class="s3" d="m136.5 232.2q0-0.1 0.1-0.2c-0.1 0-0.2 0-0.1 0.2z"/>
	<path id="Layer copy 6259" class="s3" d="m151.1 206.5q0 0.1-0.1 0.1z"/>
	<path id="Layer copy 6260" class="s3" d="m157.9 249.2c-0.1-0.3-0.1-0.4-0.1-0.5-0.1 0-0.1 0.1 0.1 0.5z"/>
	<path id="Layer copy 6261" class="s3" d="m178.6 244.4c-0.2-0.1-0.3-0.2-0.7-0.2q0.4 0 0.8 0c-0.3 0-0.1 0.1-0.1 0.2z"/>
	<path id="Layer copy 6262" class="s3" d="m183.5 248.7l-0.1 0.1c-0.1 0-0.1-0.1-0.2-0.2-0.2-0.4 0.1-0.3 0.3 0.1z"/>
	<path id="Layer copy 6263" class="s3" d="m179.1 245.5c-0.1 0.4 0.4 0.4 0.8 0.4q0 0-0.1 0c0.3-0.4-0.2-0.4-0.7-0.4z"/>
	<path id="Layer copy 6264" class="s3" d="m180 246q0.2 0 0.4 0.1c0.1-0.2-0.1-0.1-0.4-0.1z"/>
	<path id="Layer copy 6265" class="s3" d="m173.7 244.8c0.3 0 0.1-0.4 0.3-0.3 0.1-0.5-1.5 0.9-0.3 0.3z"/>
	<path id="Layer copy 6266" class="s3" d="m178.8 246.5l0.3-0.3 0.1 0.4z"/>
	<path id="Layer copy 6267" class="s3" d="m176.6 245.9c-0.1 0-0.2 0.1-0.2 0.1q-0.4 0-0.8 0c0-0.1 0.5-0.1 1-0.1z"/>
	<path id="Layer copy 6268" class="s3" d="m176.6 245.9c0.2 0 0.4 0 0.6 0-0.2 0-0.4 0-0.6 0z"/>
	<path id="Layer copy 6269" class="s3" d="m177.5 246.3q0.2 0 0.5 0.1l0.2 0.1q-0.4-0.1-0.7-0.2z"/>
	<path id="Layer copy 6270" class="s3" d="m168.3 249.3c-0.3 0.2-0.5 0.2-0.5 0q0.3-0.2 0.6-0.4c0.2 0.1 0 0.2-0.1 0.4z"/>
	<path id="Layer copy 6271" class="s3" d="m170.8 249.1l-0.2-0.5c0.1 0.1 0.2 0.2 0.4 0.1z"/>
	<path id="Layer copy 6272" class="s3" d="m169 249.9c0 0.2-0.9 0.9 0.1 0.4 0-0.2 0.6-0.6-0.1-0.4z"/>
	<path id="Layer copy 6273" class="s3" d="m159.2 247.2l-0.7 0.4-0.1-0.2q0.4-0.1 0.8-0.2z"/>
	<path id="Layer copy 6274" class="s3" d="m156.7 238.2q0.1 0 0.2 0.1c-0.2 0-0.1 0.4-0.3 0.3 0.2-0.4-0.3 0.1-0.3-0.1q0-0.1 0-0.1c0.2-0.2 0.3-0.3 0.4-0.2z"/>
	<path id="Layer copy 6275" class="s3" d="m156.9 238.3q0.1 0 0.2 0.1-0.1-0.1-0.2-0.1z"/>
	<path id="Layer copy 6276" class="s3" d="m125.3 207.7q0.2-0.1 0.3-0.2-0.1 0.2-0.2 0.4z"/>
	<path id="Layer copy 6277" class="s3" d="m125.3 206.6q0.1 0.2 0.3 0.4-0.3 0-0.5-0.1c0.1 0 0.1-0.2 0.2-0.3z"/>
	<path id="Layer copy 6278" class="s3" d="m134.5 217.5c-0.1 0.3-0.2 0.4-0.3 0.5l-0.1-0.1z"/>
	<path id="Layer copy 6279" class="s3" d="m139 210.2h-0.6l0.1-0.2z"/>
	<path id="Layer copy 6280" class="s3" d="m144.6 204.7c-0.3 0-0.9 0.1-1.3 0.4 0.4-0.3 1-0.6 1.6-0.7 0.1 0.2 0 0.3-0.3 0.3z"/>
	<path id="Layer copy 6281" class="s2" d="m203.2 226.2l17.5 15.4-5.6 6.4-17.5-15.4z"/>
	<path id="Layer copy 6282" class="s5" d="m190.6 258.3l7-25.7 17.5 15.4z"/>
	<path id="Layer copy 6283" class="s2" d="m260.8 166.3l11.8 10.5-10.4 11.8-11.9-10.4z"/>
	<path id="Layer copy 6284" class="s2" d="m316.3 123.1c-4.4 0-7.9-3.5-7.9-7.9 0-4.4 3.5-7.9 7.9-7.9 4.4 0 7.9 3.5 7.9 7.9 0 4.4-3.5 7.9-7.9 7.9z"/>
	<path id="Layer copy 6285" class="s5" d="m307.5 107.5l17.5 15.3-51.1 58.2-17.5-15.4z"/>
	<path id="Layer copy 6286" class="s5" d="m252.4 170.3l17.4 15.3-51.1 58.2-17.4-15.4z"/>
	<path id="Layer copy 6287" class="s3" d="m284.1 190.5c0 0.1 0.3 0 0.4 0-0.1-0.2-0.5 0-0.4 0z"/>
	<path id="Layer copy 6288" class="s3" d="m282.7 188.2l0.4 0.3-0.2-0.1z"/>
	<path id="Layer copy 6289" class="s3" d="m283.1 187.7l-0.5-0.2h0.1c0.2-0.4-0.5-1 0.1-1.2-0.2 0.4 0.2 0.9 0.3 1.4z"/>
	<path id="Layer copy 6290" class="s3" d="m284.2 185.5q0 0 0 0c-0.2-0.4-0.2-0.2 0.1-0.2q-0.1 0.1-0.1 0.2z"/>
	<path id="Layer copy 6291" class="s3" d="m284.2 185.5c0 0.2 0.3-0.1 0 0z"/>
	<path id="Layer copy 6292" class="s3" d="m284.7 184.6c-0.1-0.1-0.2 0.2-0.3 0.2l-0.2-0.3c0.2-0.1 0.4-0.2 0.5 0.1z"/>
	<path id="Layer copy 6293" class="s3" d="m283.7 184.2l0.1 0.2c0-0.1 0.1-0.1-0.1-0.2z"/>
	<path id="Layer copy 6294" class="s3" d="m283.8 184.5c-0.3-0.1-0.1-0.1 0-0.1l0.2 0.3c-0.2-0.2-0.3-0.2-0.2-0.2z"/>
	<path id="Layer copy 6295" class="s3" d="m283.8 184.9c-0.1 0.1-0.2 0.3-0.4 0 0.1 0.6 0.5 0.5 0.4 0z"/>
	<path id="Layer copy 6296" class="s3" d="m282.2 186.6l-0.2-0.1 0.1-0.3c0.3 0 0 0.4 0.1 0.4z"/>
	<path id="Layer copy 6297" class="s3" d="m284.3 183.1l-0.2-0.2c0.2 0 0.5-0.1 0.6-0.1-0.2 0-0.3 0.2-0.4 0.3z"/>
	<path id="Layer copy 6298" class="s3" d="m284.1 182.9l-0.1-0.4c-0.1 0.3 0 0.4 0.1 0.4z"/>
	<path id="Layer copy 6299" class="s3" d="m283 184l0.4 0.7-0.4-0.6z"/>
	<path id="Layer copy 6300" class="s3" d="m284.8 181.5l0.4 0.4-0.3-0.2z"/>
	<path id="Layer copy 6301" class="s3" d="m285.3 180.4c0.2 0.2 0.3 0.4 0.3 0.6-0.1-0.1-0.3 0.1-0.6-0.1 0.3-0.1 0.4-0.3 0.3-0.5z"/>
	<path id="Layer copy 6302" class="s3" d="m285.1 180q0.1 0.2 0.2 0.4 0-0.2-0.2-0.4z"/>
	<path id="Layer copy 6303" class="s3" d="m284.1 181.9l0.5-0.1c-0.2 0.2-0.4 0.2-0.5 0.2q0 0 0-0.1z"/>
	<path id="Layer copy 6304" class="s3" d="m284.2 181.6q0 0.1-0.1 0.3 0.1-0.2 0.1-0.3z"/>
	<path id="Layer copy 6305" class="s3" d="m284.1 182q0 0 0 0z"/>
	<path id="Layer copy 6306" class="s3" d="m283.4 183.3c-0.2-0.2-0.3-0.6-0.7-0.3 0.2 0.2 0.4 0 0.7 0.3z"/>
	<path id="Layer copy 6307" class="s3" d="m283.8 182.5c-0.1-0.1-0.2-0.1-0.3-0.1l0.1-0.3z"/>
	<path id="Layer copy 6308" class="s3" d="m283.7 182l-0.1 0.1-0.1-0.2z"/>
	<path id="Layer copy 6309" class="s3" d="m284.3 180.5q0-0.3 0.2-0.5c0 0.2 0 0.3 0.1 0.5 0 0.2-0.2 0.1-0.3 0z"/>
	<path id="Layer copy 6310" class="s3" d="m284.3 181.2v-0.1q-0.1 0.1 0 0.1z"/>
	<path id="Layer copy 6311" class="s3" d="m285 178.3q0 0 0 0z"/>
	<path id="Layer copy 6312" class="s3" d="m284.3 180.5q-0.1 0.2-0.1 0.4c-0.1-0.1-0.1-0.2 0-0.4 0 0 0 0 0.1 0z"/>
	<path id="Layer copy 6313" class="s3" d="m285 179.5q-0.1 0.1-0.2 0.2c0.1 0 0.3-0.1 0.2-0.2z"/>
	<path id="Layer copy 6314" class="s3" d="m284.4 181.1q0 0 0 0c0.1 0 0.1 0 0 0z"/>
	<path id="Layer copy 6315" class="s3" d="m284.3 181.1q-0.1-0.1-0.1-0.2 0.2 0.1 0.2 0.2 0 0-0.1 0z"/>
	<path id="Layer copy 6316" class="s3" d="m283.2 177.1l-0.1-0.5c0.7 0.2 0.6 1 1.1 0.9-0.3 0.2-0.5 0-0.5 0.5 0.2 0.4 0.7-0.2 0.9-0.2 0.1 0.4 0.2 0.4 0.4 0.5-0.8 0.1-2-0.1-2.1-0.5 0.5-0.2 0.3-0.7 0-0.9 0.1 0 0.2 0.2 0.3 0.2z"/>
	<path id="Layer copy 6317" class="s3" d="m284.8 178.9l0.2-0.6c0.1 0.1 0.2 0.2 0.3 0.4-0.3 0.1-0.5 0.2-0.6 0.3v-0.1z"/>
	<path id="Layer copy 6318" class="s3" d="m284.7 179q0 0.4 0 0.7c0-0.1 0-0.2-0.1-0.1q0 0.1 0.1 0.1 0 0 0 0-0.1 0 0 0h0.1q-0.2 0.1-0.3 0.3 0-0.2 0-0.4c-0.3 0.4-0.4-0.5-0.5 0.2-0.1-0.3-0.4-0.3-0.3-0.7 0.4-0.1 0.5 0.3 0.9 0.5 0-0.3 0-0.5 0.1-0.6z"/>
	<path id="Layer copy 6319" class="s3" d="m281.9 182.5q0.1 0 0.1 0c0-0.1-0.1-0.1-0.1 0z"/>
	<path id="Layer copy 6320" class="s3" d="m283.2 182.1c-0.1-0.1-0.6 0.2-0.8 0.4l0.1 0.1c-0.3 0.3-0.4 0-0.5-0.1 0.1 0 0.2 0.2 0.3 0 0.1-0.1-0.1-0.2-0.1-0.2 0.4-0.2 0.6-0.2 1-0.2z"/>
	<path id="Layer copy 6321" class="s3" d="m283 180.5h-0.2l0.4-0.2v0.6c-0.1-0.1-0.4-0.1-0.2-0.4z"/>
	<path id="Layer copy 6322" class="s3" d="m285.1 178l0.5 0.5-0.4-0.2z"/>
	<path id="Layer copy 6323" class="s3" d="m285.6 177.5l0.2 0.3-0.4-0.2z"/>
	<path id="Layer copy 6324" class="s3" d="m309.8 143.4l0.1-0.2q-0.1 0.1-0.1 0.2z"/>
	<path id="Layer copy 6325" class="s3" d="m308.7 144l0.1 0.2q0-0.2-0.1-0.2z"/>
	<path id="Layer copy 6326" class="s3" d="m295.2 162.5l0.4 0.2c0.3 0.2-0.3 0.1-0.7 0 0.1 0 0.2-0.1 0.3-0.2z"/>
	<path id="Layer copy 6327" class="s3" d="m301.9 152.3q0-0.1-0.1-0.3 0.1 0 0.1 0 0 0.2 0 0.3z"/>
	<path id="Layer copy 6328" class="s3" d="m301 150.7l0.4-0.1q-0.2 0-0.4 0.1z"/>
	<path id="Layer copy 6329" class="s3" d="m315.6 139.4v-0.4c-0.2 0.1 0 0.2 0 0.4z"/>
	<path id="Layer copy 6330" class="s3" d="m288.5 171q0.3-0.1 0.5-0.3c-0.4 0.1-0.7 0.1-0.5 0.3z"/>
	<path id="Layer copy 6331" class="s3" d="m311.7 147.1q0.1-0.2 0-0.3-0.1 0.2 0 0.3z"/>
	<path id="Layer copy 6332" class="s3" d="m289 170.7c0.1-0.1 0.1-0.3 0.1-0.4q0.1-0.1 0.2-0.1c0.1 0.3-0.1 0.4-0.3 0.5z"/>
	<path id="Layer copy 6333" class="s3" d="m318.4 128.9q0-0.1 0-0.1 0 0.1 0 0.1z"/>
	<path id="Layer copy 6334" class="s3" d="m315.6 121.2q0.1 0 0.2 0.2 0-0.1-0.2-0.2z"/>
	<path id="Layer copy 6335" class="s3" d="m286.7 175.1c-0.1 0.1 0 0 0 0z"/>
	<path id="Layer copy 6336" class="s3" d="m284.9 175.1q0-0.1-0.1-0.1 0.1 0 0.1 0.1z"/>
	<path id="Layer copy 6337" class="s3" d="m288.1 167.5q-0.1 0 0 0z"/>
	<path id="Layer copy 6338" class="s3" d="m286.4 175.2q0.1-0.1 0.2-0.1-0.1 0-0.2 0.1z"/>
	<path id="Layer copy 6339" class="s3" d="m286.6 175.2q-0.1 0.1-0.1 0.1c0.1 0.1 0.1 0.1 0.1-0.1z"/>
	<path id="Layer copy 6340" class="s3" d="m286.7 175.1q-0.1-0.1-0.1 0 0.1-0.1 0.1-0.2 0 0.1 0 0.2z"/>
	<path id="Layer copy 6341" class="s3" d="m325.4 135.4q0 0 0 0c-0.1-0.1-0.1-0.1 0 0z"/>
	<path id="Layer copy 6342" class="s3" d="m294.7 156.9h-0.1q0 0 0 0z"/>
	<path id="Layer copy 6343" class="s3" d="m295.6 157.5l-0.9-0.6c0.2-0.1 0.3-0.1 0.1-0.6z"/>
	<path id="Layer copy 6344" fill-rule="evenodd" class="s3" d="m311.8 141.9c0.7 0.1 1-0.8 1.1-1.2 0.3 0 0.3 0.9 0.7 0.4 0.6-0.6-0.6-0.7-0.2-1.1l0.6 0.4c0.4-0.7 1-0.5 1.5-0.7q0.1-0.2 0.1-0.3c0.6 0 0.7-1.1 1.2-1.1 0 0.2 0.4 0.3 0.5 0.4l0.5-0.7c-0.2 0.3 0 0.6 0.1 1 0.2-0.2 0.2-0.4 0.3-0.5 0 0.1 0 0.3 0.1 0.4l0.5-0.9c-0.1-0.1-0.2 0-0.3 0 0.2-0.1 0.5-0.5 0.9-0.4 0 0.1 0 0.3 0 0.4-0.4-0.2-0.3 0.2-0.3 0.5 0.5-0.3 0.2 0 0.5 0.1 0.3-0.2 0.3-0.7 0-0.9 0.5-0.1 0.6-0.1 0.8-0.6l0.2 0.4 0.3-0.3v0.7c0.8-0.1-0.3-0.8 0.6-1l0.2 0.4c0.2-0.3-0.1-1 0.4-0.7 0.2-0.4-0.8-0.3-0.2-0.7 0.3 0.1 0.6 0.1 0.8 0.1 0.1-0.3-0.3-0.4-0.4-0.3 0.4-0.3 0.7-0.1 1 0.1 0.1 0.1 0.3 0.2 0.4 0.2 0.2 0 0.3-0.1 0.3-0.2-0.4-0.2-0.4-0.8-0.7-0.6q0 0 0-0.1 0.1 0 0.1 0 0.1 0.1 0.2 0.1c0.1 0.1 0.3 0.1 0.2-0.1q0.1 0.2 0.3 0.5c0.1-0.1 0-0.3-0.1-0.3l0.4 0.3c-0.2-0.4-0.1-0.3 0.1-0.4 0.1 0 0.2-0.1-0.3-0.3 0.8 0.4 0.1-0.1 0.5-0.1 0.3 0.2 0.1 0.3 0.1 0.4-0.1 0.1-0.2 0.1 0.1 0.4 0.4 0 0.1-0.2 0.4-0.2 0.1 0.1 0.2 0.3 0.3 0.4 0.4-0.1 0.5-0.3 0.4-0.4-0.1-0.2-0.3-0.4-0.4-0.5q0 0.2-0.1 0.3c-0.8-0.3 0-0.1-0.6-0.4 0.6 0 0-0.2 0.4-0.3-0.1 0 0 0 0 0.1 0.1-0.2 0.6-0.3 0.9-0.4 0.4-0.1 0.7-0.2 0.6-0.3-0.1-0.2-0.9-0.4-1.1-0.2-0.4-0.1 0.7 0.4-0.7 0.3 0.5-0.1 0.4-0.2 0.2-0.2-0.2-0.1-0.5-0.1-0.6-0.2q0-0.1 0.1-0.3c0.5 0 0.4-0.4 0.9-0.4-0.4-0.2-0.5-0.1-0.9 0q0.1-0.1 0.2-0.3c-0.4 0.2-0.6 0.3-0.7 0.3-0.1 0.1-0.1 0.2-0.6 0 0.4 0 0-0.6 0.3-0.6q-0.2-0.3-0.7-0.3h0.1c-0.8-0.4-0.3-0.8-1.2-1v0.2c-1.2-0.3-2-1.5-3.1-2l0.2 0.3c-0.1-0.1-0.8-0.2-0.8-0.7 0.1 0.1 0.2 0.1 0.2 0.1 0.2-0.1 0.3-0.5 0.1-0.7l-0.3 0.2 0.1-0.3c-0.3-0.3-0.2 0.5-0.5 0.2 0.5-0.9-1.3-1.2-1-2.1-0.7 0.3 0.5 0.5-0.1 0.8 0-0.1 0-0.3-0.2-0.5l-0.2 0.4c-0.8-1-0.9-1.6-1.8-2.2l0.1-0.1c-0.2-0.4-0.4-0.4-0.8-0.3 0.1-0.2 0.4-0.1 0.4-0.3-1.3 0.4-0.6-1.5-1.4-1.2 0.6-0.6 0.5-1.9 1.2-2.1l-0.3-0.1c0.5-0.4 0.7 0.5 1.2 0.2l0.3 1c0.1-0.2 0.5-0.3 0.4-0.5 0.2 0.2 0.4 0.3 0.3-0.1 0.7 2.5 3.3 2.8 4.4 4.8 0.2 0.1 0.2-0.2 0.3-0.3-0.1 0.7 0.4 0 0.7 0.1l-0.1 1c0.3 0 0.3-0.3 0.4-0.4 1 0.5 1.3 1.8 2.2 2 0.1 0.4-0.4 0.5-0.2 0.8 0.1-0.9 1 0.3 1.2-0.2-0.3 0.8 0.8 1-0.1 1.8 0.3 0.3 0.7-0.2 0.6-0.4 0.4 0.4 0.8 0.8 1.6 0.9 0 0.2 0.4 0.5 0.9 0.9 0.3 0.4 0.7 0.7 0.9 1.1 0.1 0.3 0.1 0.5-0.1 0.7 0.4-0.3 0.4 0 0.7 0.3l0.5-0.3c0 0.2 0 0.6-0.1 0.9 0 0.1-0.1 0.2-0.1 0.2-0.1 0.1-0.3-0.1-0.6 0.2-0.3 0.5 0 0.5 0 0.9h0.2q-0.1 0.1-0.2 0.3c-0.1 0.1-0.1-0.1-0.1-0.3-0.1-0.2-0.2-0.3-0.7 0 0.2 0 0.5 0.7-0.1 0.8 0.4-0.4-0.1-0.5-0.3-0.4q-0.3 0.2-0.6 0.4 0.4 0.1 0.8 0.2c-0.4 0.4-0.9 0.7-1.5 1-0.4 0.3-1.1 0.6-1.4 0.7-0.8 0.4-1.5 0.7-2.2 1.1-0.3-0.5-1.1 0.6-1.4-0.3l0.1 0.1c0.3-0.3-0.4-0.6-0.6-0.3 0.4 0.1-0.2 1 0.6 0.8l-0.4 0.6c0.5 1.6-1.5 0.7-2.2 1.6 0.1 0 0-0.1 0-0.2-0.5 0.9-1.9 0.5-2 0.9l-0.2-0.4c-0.4 0.9-0.4 1-1.3 1.2-0.1-0.1 0-0.2-0.2-0.3 0 0.4-0.1 0.8-0.6 1v-0.1c-0.3 0.2-0.4 0.2-0.7 0.5-0.8-1.2-0.9 1.5-1.9 0.4 0 0.5-0.5 1-0.6 1.3q0-0.1-0.2-0.1c0.2 0.8-0.9 0.4-1.2 0.7-0.1 0.3 0.1 0.4 0.3 0.5-0.7-0.2-0.7 1.4-1 1.3-0.4 0.2-0.5-0.4-0.7-0.6-0.4 0.5 0.8 1-0.1 1 0-0.1 0.1-0.2 0-0.3-0.3 0.1-1.6-0.9-1.7-0.4h0.3c-0.2 0.6-1.7-0.1-1.1 0.7l0.3 0.3c-1.1 0.1-0.2 0.4-1.3 0.5-0.2 0.3-0.8 0-0.5 0.7l0.2-0.1c-0.3 0.4-0.4 0.4-0.8 0.7 0 0.1-0.1 0.3-0.3 0.2 0.4 0.5-0.7 1-0.9 1.1 0.3-0.3 0-0.4-0.3-0.5 0.2 0.5 0.1 0.7-0.4 0.6 0.5 0.6 0.9 1.2 0.5 1.7 0-0.2 0.1-0.3-0.1-0.4-0.1-0.1-0.1 0.2-0.1 0.2-0.2 0-0.1-0.3-0.3-0.4 0.1 0.8-0.5 0.5-0.8 1.1 0-0.2-0.2-0.2-0.4-0.4 0.5 0.7-1.1 0.1-0.2 0.7-1.3 0.4-2.2 2.2-3 2.1-0.3-0.1-0.2 0.5-0.3 0.6l-0.3-0.2c0.1 0.9-0.1 0.5-0.1 1.4-0.1-0.5-0.4-0.5-0.8-0.5l0.2 0.8-0.5-0.3c0.1 0.3-0.2 0.4-0.4 0.5 0.3 0.6-0.2 1.1 0 1.4-0.7-0.3-0.3 0.6-0.9 0.2q0 0.2 0 0.4c0.3 0.1 0.6 0.4 0.4 0.4q0 0 0 0l-0.4-0.2c-0.1 0.2-0.2 0.4-0.2 0.5q0.1 0 0.3 0-0.2 0-0.4 0 0 0.1 0 0.1 0 0 0 0c-0.2 0-0.3 0-0.3 0.3-0.9 0.1-0.3 1.7-1.4 1.7 0.1 0 0.2-0.1 0.1-0.2-0.3 0.5-1.2 0.6-1.2 1.1l0.3 0.2c-0.1 0.5-0.2 0.9-0.5 1.1l0.4 0.3c-0.5 0.3-0.5 1.7-1.5 1.4 0.2 0.3-0.5 0.6-0.6 0.9l-0.3-0.2c-0.3 0.3-0.3 0.6-0.4 0.8-1 0.3-0.8 1.3-1.2 1.9h-0.1l-0.1 0.7c-0.2-0.3 0.1 0.2-0.1 0.4 0.1 0.2-0.2 0.5-0.5 0.6l-0.2 0.4c0-0.5-0.5-0.2-0.8-0.3l0.1 0.4c-0.2 0-0.2-0.3-0.4-0.2 0.2 0.3-0.1 0.8 0.2 1.1q0.2 0 0.3 0 0-0.1 0.1 0 0 0 0 0 0 0.1 0.1 0.1c-0.2 0.3 0 0.3 0.1 0.3-0.7 0.1-0.4 0.5-1.1 0.5 0.7 0-0.4 0.9 0.4 0.9-0.7 0.1-0.1 0.2-0.7 0.2 0.3-0.4-0.1-1-0.2-1.4l-0.5 0.2c-0.6-0.5 0.6-0.6 0.4-0.9 0.1 0.2-0.1 0.4-0.3 0.3l0.5 0.2c0.4-0.4 0.2-0.9 0.1-1.3-0.3 0.2-0.1-0.6-0.6-0.5v0.3c-0.3 0-0.3-0.3-0.4-0.5 0.7-0.6 1.1-2.1 1.7-2.2-0.2 0.1-0.3 0.4-0.2 0.6l0.4-0.2c-0.2 0.3-0.7 0.3-0.8 0.8 0.4 0.1 0.7 0.6 1.2 0.5 0.9-0.5-0.4-1.1 0.2-1.9 0-0.2 0.4 0.5 0.5-0.1 0.1-0.8-0.3-1.7-0.9-2.1 0 0.4 0 1.1-0.5 0.9 0-0.4 0.2-0.9-0.1-1.1 0.7 0.1-0.2 0.6 0.5 0.5 0.1-0.2 0-0.4-0.1-0.5 0.2 0.3 0.5 0.1 0.7 0.1 0.4-0.6 0.8-0.8 1.3-1.4 0.1 0.1 0.3 0.1 0.4 0.2 0.1-0.4-0.4-1.4-0.8-1.5 0.3-0.4 0.5-0.2 0.6-0.6-0.8 0.1 0.1-0.1-0.3-0.5 0.2-0.3 0.3 0.1 0.5 0 0-0.1-0.1-0.3-0.2-0.4 0.5 0.1 0.7 1.1 1.3 1.2 0.4 0.1 1.4-0.2 1.5-0.2-0.3-0.5-2.1-1.8-2.8-2-0.3-0.2 0.5 0 0.7-0.1 0.7 0 0.1-0.9 0.5-1.1l0.1 0.5c0.1 0 0.3-0.6 0.2-0.8 0.2 0.1 0.7 0.9 1 0.9 0.5-0.4 0.1-1.7-0.4-2.1l-0.2 1.3c-0.5-0.3 0.1-0.9-0.4-1.3l0.8-0.7c-0.1 0.2-0.2 0.6 0.1 0.6 0.2-0.3 0.2-0.1 0.6-0.2 0.1 0.8 0.8 2.6 1.2 3.4l0.1-0.7 0.3 0.1c0.1-0.7-1-2.5-1.3-3 0.4-0.2 1.1 0.6 1.2 0.8 0.6-0.5-0.6-1.6 0-2h-0.4c0.1-0.2 0.7-0.5 0.5-0.6 0.3 0 0.8 0.3 0.9 0.6l-0.3-1.1c0.1 0.2 0.7 0.6 0.8 0.8 0.2-0.2-0.4-1-0.6-1 0.8 0 0.4-0.1 1.3 0 0-0.1-0.7-0.6-0.9-0.5 0.1-0.5 0.3-0.6 0.5-0.6-0.1 0.7 1.4 1.4 1.8 2l-1.1-2.7c0.1 0.1 0.6 0.7 0.7 0.8-0.5-0.6 0.5-1.7 1-2.2v0.1c0 0.3 0.6 0 0.6-0.4 0.1 0.1 0 0.2 0 0.2 0.7 0.1-0.5-1.2 0.4-1.1-0.4 0.3-0.2 0.6 0 0.7 0.1-0.4 0.9-0.8 0.1-1.3 0.3-0.1 0.4-0.3 0.7 0.1l0.3-1.1c0 0.1 0.1 0.4 0.4 0.2-0.5 0.3-0.2 1.3-0.8 1 0.3 0.4 0.7 0.5 0.9 1 0.4-0.8 0.2-1.9 0.2-2.8l0.9-0.3-0.2-0.2 0.6 0.4c0-0.2-0.1-0.3 0-0.3q0.1 0 0.1 0.2 0.1-0.1 0.1-0.3c0.2 0.3 0.4 0.7 0.5 1q-0.2 0-0.4-0.1c0.1 0.4 0.2 0.7 0.5 0.7q0-0.1 0-0.2c0.1 0.3 0.2 0.5 0.3 0.5l0.3-0.7c-0.1 0-0.3 0-0.6-0.1 0.1-0.6 0.1-1.3-0.5-1.4h0.6c0.1-0.9 0.1-0.7 0.3-1.6 0.2 0.2 0.2 0.4 0.4 0.5-0.1-0.9 1.5-0.2 1.2-0.7 0.2-0.4-0.2-0.6-0.2-0.9 0.1 0.1 0.1 0.2 0.2 0.2v-0.6c0.2 0.1-0.1 0.5 0.4 0.4 0.2-0.7 0.4-1.1 0.9-1.2 0.5-0.5-0.8-0.6-0.2-0.9 0.3 0.3 0.6 0.6 0.9 0.4 0-0.3-0.2-0.5 0-0.9l0.4 0.5c0.2-0.2 0.3-0.5 0.6-0.1 0.1-0.4 0.2-0.4 0.4-0.4 0.2-0.6-1-0.8-1.2-0.9 0.6 0.1 0.8-0.3 1.4 0.1l-0.3 0.4c1.2 0 0.3-1.2 1.3-0.4-0.3 0.1-0.4 0.6 0 0.7l0.1-0.5c0.2 0.1-0.1 0.3 0.2 0.3 0-0.2 0-0.6 0-0.8l0.6-0.5c-0.1 0.1 0 0.2 0.1 0.2l0.3-0.5c-0.1 0.2 0.2 0.2 0.4 0.2 0.7-0.3-0.2-1.4 0.5-1.2 0 0 0 0.1-0.1 0.1l0.4 0.1c-0.7-1.1 1.2-1 0.6-2.1 0.1 0.1 0.3 0.1 0.4 0.1q0 0.1-0.1 0.2c0 0.1-0.1 0.3-0.2 0.7l0.5 0.1c-0.1 0.1-0.2 0.1-0.4 0.3zm-2.4 1.8q0 0 0 0zm-15.7 14.3q0 0 0 0 0 0 0 0zm-0.2 0.2q0 0 0 0zm0.3 1.2q0-0.1 0-0.1zm-9.2 16.1q0 0 0 0zm0.8 0.6q0.1 0 0.1 0 0 0-0.1 0zm10.3-16c0.1-0.1 0-0.1-0.1-0.1q0.1 0 0.1 0.1zm0 0q0 0 0 0 0 0 0 0 0 0 0 0zm33.1-26.1q0 0 0.1 0-0.1 0-0.1 0zm-3.8-5q0 0 0 0.1 0-0.1 0-0.1zm-5.8 0.6q0 0 0 0zm6.1 5q0 0 0 0 0 0 0 0zm-3.1 1.2q0 0 0.1 0-0.1 0-0.1 0zm-4.4 2.2v0.1q0-0.1 0-0.1zm-10.2 7c-0.2-0.2-0.2 0.2-0.3 0.3 0.3 0 0.5 0.2 0.3-0.3zm-6.6 6.8c-0.2 0-0.3 0.1-0.3 0.2q0.3 0 0.3-0.2zm-13.9 21.6v0.1c0.1-0.1 0.2-0.2 0-0.1zm-0.4 0.4q0 0.1 0.1 0.1c-0.1 0 0-0.1 0.1-0.3-0.1 0-0.2 0.1-0.2 0.2zm42.8-38.7q0.1 0 0.2-0.1c-0.1-0.1-0.2-0.1-0.2 0.1z"/>
	<path id="Layer copy 6345" class="s3" d="m301.1 150.8q0.1 0.1 0.2 0.2c0-0.1-0.1-0.2-0.2-0.2z"/>
	<path id="Layer copy 6346" class="s3" d="m315.6 139.4q0.1 0.1 0.1 0.1h-0.1z"/>
	<path id="Layer copy 6347" class="s3" d="m288 164.8q0.2-0.1 0.3-0.1c-0.1-0.1-0.2-0.1-0.3 0.1z"/>
	<path id="Layer copy 6348" class="s3" d="m286 176.4c0.1 0 0.2 0 0.2-0.2v0.4c0.1-0.1-0.1-0.1-0.2-0.2z"/>
	<path id="Layer copy 6349" class="s3" d="m282.9 178.6l-0.2-0.1c0 0 0-0.1 0-0.1 0.1-0.2 0.3 0 0.2 0.2z"/>
	<path id="Layer copy 6350" class="s3" d="m284.8 176.3c-0.4-0.1-0.4 0.1-0.4 0.4q0-0.1 0-0.1c0.5 0.3 0.4 0 0.4-0.3z"/>
	<path id="Layer copy 6351" class="s3" d="m284.4 176.7q0 0.1 0 0.2c0.1 0.1 0 0 0-0.2z"/>
	<path id="Layer copy 6352" class="s3" d="m286.6 174.5c-0.1 0 0.4 0.3 0.2 0.2 0.4 0.4-0.2-0.9-0.2-0.2z"/>
	<path id="Layer copy 6353" class="s3" d="m283.7 175.8l0.3 0.3-0.4-0.1z"/>
	<path id="Layer copy 6354" class="s3" d="m284.4 174.8q0-0.1-0.1-0.1l0.3-0.3c0.1 0 0 0.2-0.2 0.4z"/>
	<path id="Layer copy 6355" class="s3" d="m284.4 174.8q-0.1 0.2 0 0.4c0-0.1 0.1-0.2 0-0.4z"/>
	<path id="Layer copy 6356" class="s3" d="m283.9 175.2l-0.1 0.2-0.2 0.1z"/>
	<path id="Layer copy 6357" class="s3" d="m286.4 170.4c0.1-0.1 0.2-0.2 0.3-0.1l-0.1 0.5c-0.1-0.1-0.1-0.2-0.2-0.4z"/>
	<path id="Layer copy 6358" class="s3" d="m284.8 171l0.5 0.3c-0.2-0.1-0.3-0.1-0.4 0z"/>
	<path id="Layer copy 6359" class="s3" d="m285.4 170.1c-0.1-0.1-0.1-0.8-0.3-0.3 0.1 0.1 0 0.6 0.3 0.3z"/>
	<path id="Layer copy 6360" class="s3" d="m290.3 165.8l-0.7-0.6z"/>
	<path id="Layer copy 6361" class="s3" d="m291.9 160c-0.1-0.2-0.4 0.2-0.5 0 0.5-0.2-0.3-0.4 0.2-0.7 0.5 0.3 0.3 0.4 0.3 0.7z"/>
	<path id="Layer copy 6362" class="s3" d="m291.9 160q0 0.1 0 0.3 0-0.2 0-0.3z"/>
	<path id="Layer copy 6363" class="s3" d="m314.9 120.1v-0.4l0.1 0.3z"/>
	<path id="Layer copy 6364" class="s3" d="m313.9 119.9l0.5-0.2-0.3 0.5c0-0.2-0.1-0.2-0.2-0.3z"/>
	<path id="Layer copy 6365" class="s3" d="m306.3 145c-0.2 0-0.2 0.1-0.4 0v-0.1z"/>
	<path id="Layer copy 6366" class="s3" d="m310.2 143l-0.5-0.3 0.1-0.1z"/>
	<path id="Layer copy 6367" class="s3" d="m312.9 139.9c-0.2 0.1-0.3 0.3-0.5 0.3 0.3-0.2 0.8 0.3 0.5-0.3z"/>
	<path id="Layer copy 6368" class="s5" d="m178.3 50.4l28.7 60.9-60.5 28.5-28.7-61z"/>
	<path id="Layer copy 6369" class="s2" d="m91.5 69.3l-61 28.7-30.5-64.8 61-28.7z"/>
	<path id="Layer copy 6370" class="s6" d="m91.5 69.3l36.6 78.3c0 0-59.1 32.2-97.6-49.6z"/>
	<path id="Layer copy 6371" class="s7" d="m146.6 138.9l-18.5 8.7-20.6-43.9c0 0-16.3-5.3-27.6-9.4-11.2-4-3.1-14.9-3.1-14.9l37.5 3.1 4.3-1.9"/>
	<path id="Layer copy 6372" class="s3" d="m91.1 119.1c0 0-0.3 0.1-0.4 0.1 0.1 0.1 0.4-0.1 0.4-0.1z"/>
	<path id="Layer copy 6373" class="s3" d="m92.4 119.8h-0.4l0.2-0.1z"/>
	<path id="Layer copy 6374" class="s3" d="m92.1 120.1l0.4-0.1v0.1c-0.1 0.2 0.5 0.2 0.1 0.5 0.1-0.2-0.3-0.3-0.5-0.5z"/>
	<path id="Layer copy 6375" class="s3" d="m91.7 121.5q0.1 0 0.1-0.1c0.2 0.2 0.1 0 0 0.2q0-0.1-0.1-0.1z"/>
	<path id="Layer copy 6376" class="s3" d="m91.7 121.5c0-0.1-0.1 0.1 0 0z"/>
	<path id="Layer copy 6377" class="s3" d="m91.7 122c0.1 0 0-0.1 0.1-0.2h0.3c-0.2 0.2-0.3 0.3-0.4 0.2z"/>
	<path id="Layer copy 6378" class="s3" d="m92.5 121.8l-0.1-0.1c-0.1 0.1-0.1 0.1 0.1 0.1z"/>
	<path id="Layer copy 6379" class="s3" d="m92.3 121.7c0.3-0.1 0.1 0 0.1 0h-0.2c0.1 0 0.2 0 0.1 0z"/>
	<path id="Layer copy 6380" class="s3" d="m92.2 121.6c0.1-0.1 0.1-0.3 0.3-0.2-0.2-0.2-0.5 0-0.3 0.2z"/>
	<path id="Layer copy 6381" class="s3" d="m93 120.2h0.2l-0.1 0.2c-0.1 0.1 0-0.2-0.1-0.2z"/>
	<path id="Layer copy 6382" class="s3" d="m92.4 122.4l0.2 0.1c-0.2 0-0.3 0.2-0.4 0.2 0.1-0.1 0.1-0.2 0.2-0.3z"/>
	<path id="Layer copy 6383" class="s3" d="m92.6 122.5h0.2c0-0.1-0.1-0.1-0.2 0z"/>
	<path id="Layer copy 6384" class="s3" d="m93.1 121.6l-0.6-0.1h0.5z"/>
	<path id="Layer copy 6385" class="s3" d="m92.6 123.2l-0.5 0.1 0.3-0.1z"/>
	<path id="Layer copy 6386" class="s3" d="m92.7 123.8c-0.2 0.1-0.4 0.1-0.5 0 0.1 0 0.2-0.2 0.4-0.3q-0.1 0.3 0.1 0.3z"/>
	<path id="Layer copy 6387" class="s3" d="m92.9 123.8q-0.1 0-0.2 0 0.1 0.1 0.2 0z"/>
	<path id="Layer copy 6388" class="s3" d="m92.9 122.8l-0.3 0.2c0.1-0.1 0.2-0.2 0.3-0.3z"/>
	<path id="Layer copy 6389" class="s3" d="m92.9 122.9q0 0 0-0.1 0 0.1 0 0.1z"/>
	<path id="Layer copy 6390" class="s3" d="m92.9 122.7v0.1q0-0.1 0-0.1z"/>
	<path id="Layer copy 6391" class="s3" d="m92.9 122c0.2 0 0.5 0.1 0.7-0.2-0.3 0-0.4 0.2-0.7 0.2z"/>
	<path id="Layer copy 6392" class="s3" d="m92.9 122.4c0.1 0 0.2 0 0.3-0.1v0.2z"/>
	<path id="Layer copy 6393" class="s3" d="m93.2 122.5h0.1z"/>
	<path id="Layer copy 6394" class="s3" d="m93.3 123.3q0.1 0.1 0.1 0.3c-0.1-0.1-0.1-0.1-0.3-0.1 0-0.1 0.1-0.2 0.2-0.2z"/>
	<path id="Layer copy 6395" class="s3" d="m93 123.1h0.1q0 0-0.1 0z"/>
	<path id="Layer copy 6396" class="s3" d="m93.7 124.3h0.1q0 0-0.1 0z"/>
	<path id="Layer copy 6397" class="s3" d="m93.3 123.3q0-0.1-0.1-0.1c0.1 0 0.2 0 0.2 0.1q0 0-0.1 0z"/>
	<path id="Layer copy 6398" class="s3" d="m93.2 124q0.1-0.1 0.1-0.2c-0.1 0.1-0.2 0.2-0.1 0.2z"/>
	<path id="Layer copy 6399" class="s3" d="m93 123.2q0 0 0 0c-0.1 0-0.1 0 0 0z"/>
	<path id="Layer copy 6400" class="s3" d="m93.1 123.1q0 0.1 0.1 0.1-0.1 0-0.2 0 0 0 0.1-0.1z"/>
	<path id="Layer copy 6401" class="s3" d="m95.4 123.7l0.3 0.1c-0.5 0.3-0.8 0-1.1 0.3 0.1-0.2 0.4-0.3 0.1-0.4-0.3 0-0.3 0.4-0.5 0.5-0.2 0-0.3 0-0.4 0.1 0.4-0.4 1.3-0.9 1.5-0.9-0.2 0.3 0.1 0.3 0.4 0.2 0 0.1-0.2 0.1-0.3 0.1z"/>
	<path id="Layer copy 6402" class="s3" d="m93.6 124l0.1 0.3c-0.1 0-0.2 0.1-0.3 0.1 0.1-0.2 0.2-0.3 0.2-0.4h0.1z"/>
	<path id="Layer copy 6403" class="s3" d="m93.6 124l-0.3-0.2h0.1c0 0 0.1 0 0.1-0.1q-0.1 0-0.1 0.1 0 0-0.1 0 0.1-0.1 0 0 0-0.1 0.1-0.2 0 0.1 0.1 0.1c0.1-0.3 0.5-0.1 0.3-0.3 0.2 0 0.4-0.1 0.5 0-0.3 0.3-0.5 0.2-0.8 0.3q0.1 0.2 0.1 0.3z"/>
	<path id="Layer copy 6404" class="s3" d="m94.3 121.6q-0.1 0-0.1 0.1 0.1 0 0.1-0.1z"/>
	<path id="Layer copy 6405" class="s3" d="m93.5 122.3c0.1 0 0.4-0.3 0.4-0.5h-0.1c0.1-0.2 0.3-0.2 0.4-0.2-0.1 0.1-0.2 0.1-0.2 0.2 0 0.1 0.1 0 0.1 0-0.2 0.2-0.3 0.3-0.6 0.5z"/>
	<path id="Layer copy 6406" class="s3" d="m94.2 122.7l0.1-0.1-0.2 0.3-0.2-0.2c0.1 0 0.3-0.1 0.3 0z"/>
	<path id="Layer copy 6407" class="s3" d="m93.8 124.5l-0.5 0.1 0.3-0.2z"/>
	<path id="Layer copy 6408" class="s3" d="m93.7 124.8h-0.2l0.3-0.1z"/>
	<path id="Layer copy 6409" class="s3" d="m105.8 139.2h0.1q-0.1 0-0.1 0z"/>
	<path id="Layer copy 6410" class="s3" d="m105.5 138.7l-0.1 0.1q0.1-0.1 0.1-0.1z"/>
	<path id="Layer copy 6411" class="s3" d="m97.6 132l-0.3 0.2c-0.3 0.2 0-0.2 0.2-0.4q0 0.1 0.1 0.2z"/>
	<path id="Layer copy 6412" class="s3" d="m101.6 135.7q0.2 0 0.4 0-0.1 0-0.1 0-0.1 0-0.3 0z"/>
	<path id="Layer copy 6413" class="s3" d="m103.1 135.1l-0.1 0.3q0.1-0.1 0.1-0.3z"/>
	<path id="Layer copy 6414" class="s3" d="m107.5 141.5l0.4-0.1c-0.1-0.1-0.2 0.1-0.4 0.1z"/>
	<path id="Layer copy 6415" class="s3" d="m95.4 127.6q-0.1 0.2 0 0.3c0.1-0.2 0.3-0.4 0-0.3z"/>
	<path id="Layer copy 6416" class="s3" d="m102.6 140.7q0.1 0 0.2 0-0.1 0-0.2 0z"/>
	<path id="Layer copy 6417" class="s3" d="m95.4 127.9c0 0.1 0.1 0.1 0.1 0.2q0 0 0 0.1c-0.3 0-0.2-0.1-0.1-0.3z"/>
	<path id="Layer copy 6418" class="s3" d="m112.8 150.5q0 0-0.1 0 0.1 0 0.1 0z"/>
	<path id="Layer copy 6419" class="s3" d="m112.3 155.1q-0.1-0.1-0.1-0.1 0 0 0.1 0.1z"/>
	<path id="Layer copy 6420" class="s3" d="m94.3 125.9c-0.1 0-0.1 0 0 0z"/>
	<path id="Layer copy 6421" class="s3" d="m95.3 125q0 0 0.1 0-0.1 0-0.1 0z"/>
	<path id="Layer copy 6422" class="s3" d="m97.6 127.8q0.1 0 0 0z"/>
	<path id="Layer copy 6423" class="s3" d="m94.3 125.8q0 0 0 0.1 0 0 0-0.1z"/>
	<path id="Layer copy 6424" class="s3" d="m94.2 125.9q0-0.1 0-0.1c0 0-0.1 0 0 0.1z"/>
	<path id="Layer copy 6425" class="s3" d="m94.3 125.9q0 0 0 0 0 0.1 0 0.1 0-0.1 0-0.1z"/>
	<path id="Layer copy 6426" class="s3" d="m109 146.3q0 0 0 0.1c0.1-0.1 0.1-0.1 0-0.1z"/>
	<path id="Layer copy 6427" class="s3" d="m101.4 131.8z"/>
	<path id="Layer copy 6428" class="s3" d="m100.6 132.3l0.8-0.5c0 0.1 0 0.2 0.4 0.1z"/>
	<path id="Layer copy 6429" fill-rule="evenodd" class="s3" d="m106.4 140.1c-0.3 0.4 0.3 0.3 0.6 0.3-0.1 0.1-0.7 0.3-0.5 0.4 0.4 0.2 0.7-0.4 0.9-0.3l-0.4 0.4c0.5 0 0.3 0.4 0.3 0.6q0.1 0.1 0.2 0c-0.1 0.4 0.7 0.2 0.6 0.4-0.1 0.1-0.2 0.3-0.3 0.4l0.4 0.1c-0.2 0-0.4 0.1-0.7 0.2 0.1 0.1 0.3 0.1 0.3 0.1-0.1 0-0.2 0.1-0.3 0.2h0.6q0.1-0.1 0-0.1c0.1 0.1 0.4 0.1 0.2 0.4q-0.2 0-0.3 0.1c0.2-0.3-0.1-0.2-0.3-0.1 0.2 0.2 0 0.1-0.2 0.3 0.1 0.1 0.5 0 0.7-0.2 0 0.2 0 0.3 0.3 0.3l-0.3 0.2 0.2 0.1-0.5 0.1c-0.1 0.5 0.6-0.3 0.6 0.2l-0.3 0.2c0.2 0 0.7-0.3 0.4 0.1 0.3 0 0.3-0.5 0.6-0.3-0.2 0.2-0.2 0.4-0.2 0.5 0.1 0 0.3-0.2 0.2-0.3 0.4 0.3-0.9 0.9-0.3 1 0.2-0.3 0.7-0.2 0.5-0.5 0.3 0-0.3 0.5 0.2 0.5l-0.5 0.1c0 0.1 0.2 0 0.3 0l-0.3 0.2c0.6-0.1-0.1 0.5 0.7 0.2-0.6 0.3 0.1 0.1 0 0.3-0.5 0.1-0.3-0.4-0.8-0.1-0.1 0.2 0.1 0.1 0 0.2-0.1 0-0.2 0-0.4 0.1-0.1 0.4 0.6 0.2 0.8 0.2l-0.3-0.1c0.6-0.3 0.2 0 0.6-0.2-0.2 0.3 0.3 0.2 0.2 0.4 0 0-0.1 0-0.1 0 0.2 0.2-0.6 0.8-0.5 1 0 0.1 0.4 0.1 0.5-0.1 0.2 0-0.3-0.2 0.4-0.5-0.6 0.6 0.5 0.1 0.2 0.8-0.4 0-0.4 0.4-0.7 0.4 0.2 0.1 0.3 0 0.6 0l-0.2 0.2c0.7-0.2 0.5-0.3 1-0.1-0.3 0-0.3 0.3-0.5 0.3q0.1 0.2 0.4 0.1l-0.1 0.1c0.3 0.2-0.1 0.4 0.3 0.5l0.2-0.1c0.6 0.1 0.7 0.8 1.1 1l0.1-0.2c0 0.1 0.3 0.1 0.2 0.4 0 0-0.1 0-0.1-0.1-0.2 0.2-0.3 0.4-0.3 0.5l0.2-0.2-0.1 0.2c0.1 0.2 0.3-0.3 0.4-0.1-0.6 0.6 0.3 0.6-0.2 1.2 0.6-0.3-0.1-0.3 0.4-0.6 0 0.1-0.1 0.2-0.1 0.3l0.3-0.2c0.1 0.5 0 0.8 0.4 1.1h-0.1q0 0.3 0.4 0.1c-0.1 0.1-0.2 0.1-0.3 0.2 0.4-0.2 0.4 0 0.3 0.2-0.1 0.2-0.1 0.5 0.1 0.2q-0.3 0.5-0.4 1c-0.1 0.3-0.2 0.7-0.4 0.9h0.2c-0.1 0.2-0.2 0.1-0.4 0.1-0.1-0.1-0.3-0.2-0.5 0 0-0.3-0.1-0.5 0-0.7-0.2 0.1-0.4 0.3-0.4 0.4-0.1-0.1-0.2-0.2-0.2 0.1-0.1-0.8-0.4-1.2-0.7-1.5-0.4-0.4-0.8-0.7-0.8-1.3-0.1 0-0.2 0.1-0.3 0.2 0.3-0.4-0.3 0-0.4 0l0.4-0.6c-0.2 0-0.3 0.2-0.5 0.3-0.4-0.3-0.1-1.1-0.6-1.2 0.1-0.2 0.4-0.3 0.4-0.5-0.4 0.6-0.5-0.1-0.8 0.2 0.5-0.5-0.2-0.6 0.7-1.1-0.1-0.2-0.5 0.1-0.5 0.2-0.1-0.2-0.2-0.3-0.6-0.3 0.1-0.2-0.7-0.7-0.2-1.3-0.3 0.4-0.2 0.1-0.5 0.1l-0.3 0.4-0.1-0.3q-0.1-0.1 0-0.1c0 0 0-0.1 0.1-0.1v0.1c0.1-0.1 0.2-0.1 0-0.1q0.1-0.1 0.1-0.2c-0.1-0.2-0.3 0-0.5 0h-0.1-0.1c0-0.1 0.6 0 0.6-0.4-0.1 0.1-0.7 0.2-0.5 0 0.1 0.1 0.3 0 0.4-0.2l-0.1-0.2-0.4 0.4c-0.3-0.6-0.3-1.4-0.7-2 0.4-0.2-0.3-0.5 0.4-0.8l-0.1 0.1c0.2 0.1 0.5-0.3 0.4-0.4-0.2 0.2-0.8 0.1-0.7 0.5l-0.4-0.1c-1.3 0.6-0.3-0.7-0.9-0.8 0.1 0 0.1-0.1 0.2-0.1-0.6-0.1-0.1-0.9-0.4-0.9l0.3-0.2c-0.6 0-0.7 0-0.7-0.4 0.1 0 0.2-0.1 0.2-0.2-0.3 0.1-0.5 0.2-0.6-0.1l0.1-0.1-0.3-0.3c1.1-0.6-0.9-0.2 0.1-1-0.3 0.1-0.5-0.1-0.8-0.1q0.1-0.1 0.2-0.1c-0.7 0.1-0.1-0.5-0.2-0.6-0.2-0.1-0.4 0.1-0.5 0.2 0.3-0.4-0.8-0.2-0.7-0.4 0-0.2 0.4-0.3 0.6-0.5-0.2-0.1-0.9 0.6-0.7 0.1 0.1 0 0.2 0 0.2 0 0-0.2 1.1-1 0.8-1l-0.1 0.2c-0.4-0.1 0.5-1-0.2-0.6l-0.3 0.2c0.3-0.6-0.2-0.1 0-0.7h0.1c-0.2-0.1 0.2-0.4-0.4-0.2v0.1c-0.2-0.2-0.1-0.2-0.2-0.4-0.1 0-0.2-0.1-0.1-0.1-0.4 0.2-0.5-0.4-0.5-0.5 0.2 0.1 0.3 0 0.5-0.2-0.4 0.1-0.5 0.1-0.3-0.2-0.6 0.3-1.2 0.6-1.3 0.3 0.1 0 0.2 0.1 0.3 0 0.1-0.1-0.1-0.1-0.1-0.1 0.1-0.1 0.2 0 0.4-0.2-0.6 0.2-0.2-0.2-0.5-0.4 0.2 0 0.2-0.1 0.4-0.2-0.6 0.3 0.4-0.6-0.4-0.1 0.2-0.8-0.6-1.2-0.2-1.7 0.2-0.2-0.2-0.1-0.3-0.2l0.3-0.1c-0.6 0-0.3-0.1-0.9-0.1 0.4-0.1 0.5-0.2 0.7-0.4l-0.7 0.1 0.4-0.3c-0.2 0-0.2-0.1-0.1-0.2-0.5 0.1-0.6-0.2-0.9-0.1 0.5-0.4-0.3-0.1 0.2-0.5q-0.1 0-0.2 0c-0.3 0.2-0.5 0.4-0.4 0.2q-0.1 0-0.1 0l0.3-0.2q-0.1-0.1-0.2-0.1 0 0-0.1 0.1 0-0.1 0.1-0.2 0 0 0 0 0 0 0 0c0.1-0.1 0.1-0.1-0.1-0.1 0.4-0.6-1-0.3-0.4-0.9-0.1 0.1-0.1 0.1 0 0.1-0.1-0.2 0.2-0.7-0.1-0.8l-0.3 0.2c-0.2-0.1-0.4-0.2-0.5-0.3l-0.3 0.1c0-0.3-0.8-0.4-0.2-0.9-0.3 0.1 0-0.4-0.2-0.4l0.3-0.2c0-0.2-0.2-0.3-0.3-0.3 0.4-0.6-0.3-0.6-0.4-0.9l0.1-0.1-0.4-0.2c0.3 0-0.2 0.1-0.2-0.1-0.1 0-0.1-0.2 0-0.4l-0.1-0.2q0.1 0.1 0.2 0 0.1 0 0.1 0.1c0.1 0 0.1-0.1 0-0.1q0 0 0 0c0.1-0.1 0.2-0.2 0.4-0.3h-0.3c0.1-0.2 0.2-0.1 0.3-0.2-0.2 0-0.3-0.2-0.7-0.1q-0.1 0-0.2 0.1 0.1 0 0 0v0.1-0.1q0 0.1-0.1 0.1c0-0.2-0.1-0.1-0.3 0 0.4-0.4 0.1-0.4 0.5-0.7-0.5 0.4-0.2-0.4-0.7 0 0.4-0.4 0-0.1 0.4-0.4-0.1 0.2 0.5 0.2 0.7 0.2l0.3-0.3c0.5-0.2-0.1 0.4 0.1 0.4-0.1 0-0.1-0.1 0-0.2l-0.3 0.2c-0.1 0.3 0.3 0.3 0.6 0.3 0.1-0.2 0.3 0 0.6-0.2l-0.1-0.1c0.1-0.1 0.3-0.1 0.4-0.1-0.1 0.5 0.5 1 0.2 1.3 0.1-0.2-0.1-0.2-0.2-0.2l-0.1 0.2c-0.1-0.1 0.2-0.4 0-0.5-0.3 0.2-0.7 0.2-1 0.5-0.2 0.6 0.8 0 0.9 0.5 0.1 0-0.4 0.1-0.2 0.2 0.4 0.2 1.1 0.1 1.7-0.2-0.2 0-0.7-0.1-0.3-0.4 0.3 0.1 0.5 0.2 0.7 0.1-0.4 0.4-0.2-0.2-0.5 0.2 0 0.1 0.2 0 0.3 0-0.2 0.1-0.3 0.3-0.4 0.4 0.1 0.2 0 0.5 0.1 0.8-0.1 0.1-0.2 0.2-0.3 0.2 0.2 0.1 1-0.1 1.3-0.3 0.1 0.2-0.1 0.3 0.1 0.4 0.3-0.5-0.1 0.1 0.4-0.2 0.1 0.1-0.2 0.2-0.3 0.3 0.1 0 0.3 0 0.4-0.1-0.3 0.3-1 0.3-1.4 0.7-0.2 0.2-0.5 0.7-0.5 0.8 0.4-0.2 2-1 2.5-1.4 0.3-0.2-0.2 0.3-0.2 0.3-0.4 0.5 0.5 0.1 0.4 0.4h-0.3c-0.1 0.1 0.1 0.2 0.3 0.2-0.2 0.1-0.8 0.3-1 0.4 0.1 0.4 1 0.2 1.5-0.1l-0.7-0.2c0.4-0.2 0.5 0.1 1-0.1v0.4c0 0-0.2-0.1-0.4 0.1 0.1 0.1 0 0.1-0.1 0.3-0.6 0.1-2 0.4-2.7 0.6h0.4l-0.2 0.2c0.4 0.1 2-0.5 2.5-0.6 0 0.2-0.9 0.6-1.1 0.6 0.2 0.3 1.3-0.3 1.4 0.1l0.1-0.2c0.1 0 0.1 0.3 0.2 0.2-0.2 0.2-0.6 0.5-0.8 0.5l0.9-0.1c-0.2 0-0.8 0.3-0.9 0.4 0 0.1 0.8-0.2 0.9-0.3-0.3 0.4-0.1 0.2-0.6 0.7 0.1 0 0.7-0.4 0.8-0.5 0.2 0 0.2 0.2 0.1 0.3-0.4-0.1-1.5 0.7-2 0.9l2.2-0.5c-0.1 0-0.7 0.3-0.8 0.3 0.6-0.2 0.9 0.3 1 0.6-0.2 0-0.3 0.3 0 0.3-0.1 0.1-0.1 0-0.2 0-0.3 0.4 1.1-0.2 0.6 0.2 0-0.2-0.2-0.1-0.5 0 0.3 0.1 0.3 0.5 0.9 0.1-0.1 0.2 0 0.2-0.3 0.4l0.6 0.1c-0.1 0-0.3 0.1-0.3 0.2 0-0.2-0.8-0.1-0.4-0.4-0.4 0.2-0.6 0.4-1 0.5 0.4 0.3 1.2 0.1 1.8 0l-0.1 0.5 0.2-0.1-0.4 0.3c0.1 0 0.2 0 0.2 0q-0.1 0.1-0.2 0.1 0 0 0.1 0c-0.2 0.2-0.5 0.3-0.8 0.4q0.1-0.2 0.2-0.3c-0.3 0.1-0.6 0.2-0.7 0.4q0.1-0.1 0.2-0.1c-0.2 0.1-0.4 0.2-0.5 0.2l0.4 0.1q0.1-0.1 0.3-0.3c0.4 0 0.9 0 1.1-0.3l-0.2 0.3c0.6 0 0.5 0 1 0.1-0.1 0.1-0.3 0.1-0.4 0.2 0.6-0.1-0.4 0.8 0.1 0.6 0.2 0.1 0.5-0.2 0.6-0.2 0 0.1-0.1 0.1-0.1 0.2l0.4-0.1c-0.1 0.1-0.3 0-0.4 0.2 0.4 0.1 0.6 0.1 0.6 0.4 0.2 0.2 0.6-0.5 0.7-0.2-0.3 0.2-0.6 0.4-0.6 0.6 0.3-0.1 0.5-0.2 0.7-0.1l-0.5 0.2c0.1 0.1 0.2 0.1-0.1 0.3 0.2 0 0.3 0.1 0.2 0.2 0.3 0.1 0.8-0.6 1-0.8-0.3 0.4 0 0.4-0.5 0.8l-0.2-0.1c-0.3 0.6 0.8 0 0 0.7 0-0.2-0.3-0.2-0.5 0l0.3 0.1c-0.1 0-0.2-0.1-0.3 0.1 0.2 0 0.4-0.1 0.6-0.1l0.2 0.2c-0.1 0-0.2 0.1-0.2 0.1l0.4 0.1c-0.2 0-0.3 0.1-0.3 0.3 0 0.3 1.1-0.4 0.8 0.1 0-0.1-0.1 0-0.1-0.1l-0.1 0.2c0.9-0.5 0.4 0.6 1.3 0.1-0.3 0.3-0.2 0.1-0.7 0.2l-0.2 0.3c-0.1-0.1 0-0.2-0.1-0.2zm-0.8-1v-0.1q0 0 0 0.1zm-4.5-7.9q0 0 0 0.1 0 0 0-0.1zm0 0q0 0 0 0zm-0.9 0.1q0 0 0 0zm-4.8-6.5q0 0 0 0zm-0.8 0.2q-0.1 0.1-0.1 0.1 0 0 0.1-0.1zm4.4 7.4c0 0 0 0 0.1-0.1q0 0.1-0.1 0.1zm0 0q0 0 0 0 0 0 0 0 0 0 0 0zm9.1 15.8q0 0 0 0 0 0 0 0zm0.6 2.5q0 0 0 0 0 0 0 0zm3.9-0.6q0 0 0 0zm-2.8-3.4q0 0 0 0 0 0 0 0zm-0.5-2.3q0 0 0 0 0 0 0 0zm-1-2q0 0 0 0zm-3.1-4.2c0.2-0.1-0.1-0.1-0.2-0.1 0 0.1-0.2 0.3 0.2 0.1zm-2.8-3c0.1-0.1 0.1-0.2-0.1-0.1q0 0.1 0.1 0.1zm-7.5-8.7c0 0.1-0.1 0.1 0 0zm0-0.3q0 0-0.1 0 0 0 0 0.1 0-0.1 0.1-0.1zm12.4 22q0 0 0 0 0 0 0 0z"/>
	<path id="Layer copy 6430" class="s3" d="m103 135.2q-0.1 0.1-0.2 0.1 0.1 0 0.2-0.1z"/>
	<path id="Layer copy 6431" class="s3" d="m107.5 141.5l-0.1 0.1q0 0 0 0z"/>
	<path id="Layer copy 6432" class="s3" d="m99.4 128q-0.1 0.1-0.2 0.1 0.2 0 0.2-0.1z"/>
	<path id="Layer copy 6433" class="s3" d="m94 125.3c0 0-0.1 0.1-0.1 0.2l-0.1-0.1c0 0 0.1-0.1 0.2-0.1z"/>
	<path id="Layer copy 6434" class="s3" d="m95 123.2l0.2-0.1c0 0 0 0.1 0 0.1 0 0.1-0.2 0.1-0.2 0z"/>
	<path id="Layer copy 6435" class="s3" d="m94.8 124.7c0.3-0.2 0.1-0.2 0-0.3q0.1 0 0.1 0c-0.4 0.2-0.3 0.2-0.1 0.3z"/>
	<path id="Layer copy 6436" class="s3" d="m94.8 124.4q0 0 0-0.1c-0.2 0.1 0 0.1 0 0.1z"/>
	<path id="Layer copy 6437" class="s3" d="m94.6 126c0-0.1-0.4 0.2-0.3 0.1-0.3 0.1 0.6 0.1 0.3-0.1z"/>
	<path id="Layer copy 6438" class="s3" d="m95.7 124.3l-0.3 0.1 0.3-0.3z"/>
	<path id="Layer copy 6439" class="s3" d="m95.7 124.8q0 0 0.1 0v0.2c-0.1 0.1-0.1-0.1-0.1-0.2z"/>
	<path id="Layer copy 6440" class="s3" d="m95.7 124.8q0-0.1-0.1-0.1 0 0.1 0.1 0.1z"/>
	<path id="Layer copy 6441" class="s3" d="m95.9 124.5l-0.1-0.1 0.1-0.1z"/>
	<path id="Layer copy 6442" class="s3" d="m96.9 126.6c0 0 0 0.1-0.1 0.2l-0.2-0.2c0.1 0 0.2 0 0.3 0z"/>
	<path id="Layer copy 6443" class="s3" d="m97.5 125.7l-0.5 0.2c0.1-0.1 0.2-0.1 0.3-0.2z"/>
	<path id="Layer copy 6444" class="s3" d="m97.6 126.1c0.1-0.1 0.5 0.1 0.3-0.1-0.1 0-0.3-0.1-0.3 0.1z"/>
	<path id="Layer copy 6445" class="s3" d="m97.6 129.2l0.7-0.4z"/>
	<path id="Layer copy 6446" class="s3" d="m100.5 130.3c0.2-0.1 0.1-0.3 0.3-0.3-0.1 0.3 0.4-0.2 0.3 0.1-0.4 0.3-0.3 0.2-0.6 0.2z"/>
	<path id="Layer copy 6447" class="s3" d="m100.5 130.3q0-0.1-0.1 0 0.1 0 0.1 0z"/>
	<path id="Layer copy 6448" class="s3" d="m112.9 155.8v0.3l-0.1-0.2z"/>
	<path id="Layer copy 6449" class="s3" d="m113.6 155.6q-0.2 0.2-0.3 0.4l0.1-0.5c0 0.1 0.1 0.1 0.2 0.1z"/>
	<path id="Layer copy 6450" class="s3" d="m105.5 137.5c0 0 0-0.1 0.1-0.2h0.1z"/>
	<path id="Layer copy 6451" class="s3" d="m105.9 139.3l0.4-0.2z"/>
	<path id="Layer copy 6452" class="s3" d="m107.6 140.2c-0.1-0.1-0.2-0.1-0.2-0.2 0.1 0.1-0.3 0.5 0.2 0.2z"/>
	<path id="Layer copy 6453" class="s3" d="m73.3 120.6c0 0-0.2 0.1-0.3 0.2 0.1 0 0.4-0.2 0.3-0.2z"/>
	<path id="Layer copy 6454" class="s3" d="m74.7 121.2h-0.4 0.2z"/>
	<path id="Layer copy 6455" class="s3" d="m74.4 121.6l0.4-0.1h-0.1c0 0.3 0.6 0.2 0.2 0.5 0.1-0.2-0.3-0.3-0.5-0.4z"/>
	<path id="Layer copy 6456" class="s3" d="m74.1 123q0-0.1 0-0.1c0.2 0.2 0.2 0 0 0.1q0 0 0 0z"/>
	<path id="Layer copy 6457" class="s3" d="m74 123c0-0.1-0.1 0.1 0 0z"/>
	<path id="Layer copy 6458" class="s3" d="m74 123.5c0.1 0 0-0.1 0.1-0.2h0.3c-0.2 0.2-0.3 0.2-0.4 0.2z"/>
	<path id="Layer copy 6459" class="s3" d="m74.8 123.2h-0.1c-0.1 0-0.1 0.1 0.1 0z"/>
	<path id="Layer copy 6460" class="s3" d="m74.6 123.2c0.3-0.1 0.1 0 0.1 0h-0.2c0.1 0 0.2-0.1 0.1 0z"/>
	<path id="Layer copy 6461" class="s3" d="m74.5 123c0.1-0.1 0.1-0.2 0.3-0.2-0.2-0.2-0.5 0.1-0.3 0.2z"/>
	<path id="Layer copy 6462" class="s3" d="m75.3 121.7h0.2l-0.1 0.1c-0.1 0.1 0-0.1-0.1-0.1z"/>
	<path id="Layer copy 6463" class="s3" d="m74.7 123.9h0.2c-0.1 0.1-0.3 0.2-0.4 0.3 0.2-0.1 0.2-0.2 0.2-0.3z"/>
	<path id="Layer copy 6464" class="s3" d="m74.9 123.9h0.2c0-0.1-0.1-0.1-0.2 0z"/>
	<path id="Layer copy 6465" class="s3" d="m75.4 123h-0.6 0.5z"/>
	<path id="Layer copy 6466" class="s3" d="m74.9 124.6l-0.4 0.1h0.3z"/>
	<path id="Layer copy 6467" class="s3" d="m75 125.3c-0.2 0-0.4 0-0.5-0.1 0.2 0 0.2-0.2 0.5-0.2q-0.2 0.2 0 0.3z"/>
	<path id="Layer copy 6468" class="s3" d="m75.3 125.3q-0.1 0-0.3 0 0.1 0 0.3 0z"/>
	<path id="Layer copy 6469" class="s3" d="m75.2 124.2l-0.2 0.2c0-0.1 0.1-0.2 0.2-0.2z"/>
	<path id="Layer copy 6470" class="s3" d="m75.3 124.4q0-0.1-0.1-0.2 0.1 0.1 0.1 0.2z"/>
	<path id="Layer copy 6471" class="s3" d="m75.2 124.2q0-0.1 0 0z"/>
	<path id="Layer copy 6472" class="s3" d="m75.2 123.4c0.2 0 0.5 0.1 0.7-0.2-0.3 0.1-0.3 0.2-0.7 0.2z"/>
	<path id="Layer copy 6473" class="s3" d="m75.2 123.9c0.1 0 0.2-0.1 0.3-0.2v0.2z"/>
	<path id="Layer copy 6474" class="s3" d="m75.5 124v-0.1h0.1z"/>
	<path id="Layer copy 6475" class="s3" d="m75.7 124.7q0 0.1 0 0.3c-0.1-0.1-0.1-0.1-0.3-0.1 0-0.1 0.2-0.1 0.3-0.2z"/>
	<path id="Layer copy 6476" class="s3" d="m75.4 124.6q0-0.1 0 0z"/>
	<path id="Layer copy 6477" class="s3" d="m76.1 125.7q0 0 0 0z"/>
	<path id="Layer copy 6478" class="s3" d="m75.7 124.7q-0.1-0.1-0.2-0.1c0.1 0 0.2 0 0.2 0.1q0 0 0 0z"/>
	<path id="Layer copy 6479" class="s3" d="m75.5 125.4q0.1-0.1 0.1-0.2c0 0.1-0.2 0.2-0.1 0.2z"/>
	<path id="Layer copy 6480" class="s3" d="m75.3 124.6q0 0 0 0c-0.1 0.1 0 0 0 0z"/>
	<path id="Layer copy 6481" class="s3" d="m75.4 124.6q0.1 0 0.1 0-0.1 0-0.2 0 0.1 0 0.1 0z"/>
	<path id="Layer copy 6482" class="s3" d="m77.8 125.1h0.2c-0.4 0.3-0.7 0.1-1 0.4 0.1-0.2 0.3-0.3 0.1-0.4-0.3 0-0.4 0.4-0.5 0.5-0.2-0.1-0.4 0-0.5 0.1 0.5-0.4 1.3-1 1.6-0.9-0.3 0.2 0.1 0.3 0.3 0.1 0 0.1-0.2 0.1-0.2 0.2z"/>
	<path id="Layer copy 6483" class="s3" d="m76 125.4l0.1 0.3c-0.1 0-0.2 0.1-0.4 0 0.1-0.1 0.2-0.2 0.2-0.3h0.1z"/>
	<path id="Layer copy 6484" class="s3" d="m76 125.4l-0.3-0.2c0 0 0.1 0 0.1-0.1q-0.1 0-0.1 0.1 0 0 0 0 0-0.1 0 0h-0.1q0.1-0.1 0.1-0.2 0 0 0.2 0.1c0-0.3 0.4-0.1 0.2-0.3 0.2 0 0.4-0.1 0.5 0-0.3 0.3-0.5 0.2-0.8 0.3q0.2 0.2 0.2 0.3z"/>
	<path id="Layer copy 6485" class="s3" d="m76.6 123q-0.1 0-0.1 0.1 0.1 0 0.1-0.1z"/>
	<path id="Layer copy 6486" class="s3" d="m75.8 123.7c0.1 0 0.4-0.3 0.4-0.5h-0.1c0.1-0.2 0.3-0.1 0.4-0.1-0.1 0-0.2 0-0.2 0.1 0 0.1 0.1 0 0.1 0-0.2 0.2-0.3 0.4-0.6 0.5z"/>
	<path id="Layer copy 6487" class="s3" d="m76.5 124.1l0.2-0.1-0.2 0.3-0.3-0.2c0.1 0 0.3-0.1 0.3 0z"/>
	<path id="Layer copy 6488" class="s3" d="m76.1 125.8l-0.5 0.2 0.3-0.2z"/>
	<path id="Layer copy 6489" class="s3" d="m76.1 126.2h-0.2l0.2-0.1z"/>
	<path id="Layer copy 6490" class="s3" d="m88.2 140.1h0.2q-0.1 0-0.2 0z"/>
	<path id="Layer copy 6491" class="s3" d="m88 139.6l-0.1 0.1q0.1 0 0.1-0.1z"/>
	<path id="Layer copy 6492" class="s3" d="m80 133.2l-0.3 0.2c-0.3 0.2 0-0.1 0.2-0.4 0 0.1 0 0.2 0.1 0.2z"/>
	<path id="Layer copy 6493" class="s3" d="m84.1 136.8q0.1 0 0.3-0.1 0 0-0.1 0.1-0.1 0-0.2 0z"/>
	<path id="Layer copy 6494" class="s3" d="m85.6 136.2l-0.2 0.2q0.1-0.1 0.2-0.2z"/>
	<path id="Layer copy 6495" class="s3" d="m90 142.4l0.3-0.1c0-0.1-0.2 0-0.3 0.1z"/>
	<path id="Layer copy 6496" class="s3" d="m77.8 128.9q-0.1 0.2-0.1 0.3c0.2-0.2 0.4-0.4 0.1-0.3z"/>
	<path id="Layer copy 6497" class="s3" d="m85.1 141.7q0.1 0 0.2 0-0.1-0.1-0.2 0z"/>
	<path id="Layer copy 6498" class="s3" d="m77.7 129.2q0.1 0.1 0.2 0.2 0 0 0 0.1c-0.3 0-0.2-0.1-0.2-0.3z"/>
	<path id="Layer copy 6499" class="s3" d="m95.3 151.1q0 0 0 0 0.1 0 0 0z"/>
	<path id="Layer copy 6500" class="s3" d="m94.9 155.6q0 0-0.1-0.1 0 0.1 0.1 0.1z"/>
	<path id="Layer copy 6501" class="s3" d="m76.6 127.3c0-0.1 0 0 0 0z"/>
	<path id="Layer copy 6502" class="s3" d="m77.6 126.4q0.1 0 0.2-0.1-0.1 0.1-0.2 0.1z"/>
	<path id="Layer copy 6503" class="s3" d="m80 129.1q0.1-0.1 0 0z"/>
	<path id="Layer copy 6504" class="s3" d="m76.7 127.1q0 0.1 0 0.2 0-0.1 0-0.2z"/>
	<path id="Layer copy 6505" class="s3" d="m76.6 127.2q0 0 0-0.1c-0.1 0.1-0.1 0.1 0 0.1z"/>
	<path id="Layer copy 6506" class="s3" d="m76.6 127.3q0 0 0.1 0-0.1 0 0 0.1-0.1-0.1-0.1-0.1z"/>
	<path id="Layer copy 6507" class="s3" d="m91.5 147.1q0 0 0 0c0.2 0 0.1 0 0 0z"/>
	<path id="Layer copy 6508" class="s3" d="m83.8 132.9z"/>
	<path id="Layer copy 6509" class="s3" d="m83 133.5l0.8-0.6c0 0.1 0 0.2 0.4 0.1z"/>
	<path id="Layer copy 6510" fill-rule="evenodd" class="s3" d="m88.8 140.9c-0.3 0.4 0.3 0.3 0.6 0.3-0.1 0.2-0.7 0.4-0.4 0.5 0.3 0.2 0.6-0.5 0.8-0.4l-0.4 0.4c0.5 0.1 0.3 0.4 0.4 0.6q0 0.1 0.1 0c0 0.4 0.7 0.2 0.7 0.4-0.1 0.1-0.3 0.3-0.4 0.4l0.5 0.1c-0.2-0.1-0.5 0.1-0.7 0.2 0 0.1 0.2 0.1 0.3 0.1-0.1 0-0.3 0-0.3 0.2h0.6q0-0.1 0-0.1c0 0 0.3 0.1 0.1 0.3-0.1 0.1-0.2 0.1-0.3 0.2 0.3-0.3 0-0.2-0.2-0.1 0.1 0.1-0.1 0.1-0.2 0.3 0.1 0.1 0.5-0.1 0.7-0.2 0 0.2-0.1 0.3 0.3 0.3l-0.4 0.2 0.2 0.1-0.5 0.1c-0.1 0.4 0.7-0.3 0.6 0.1l-0.3 0.2c0.2 0.1 0.8-0.2 0.5 0.1 0.2 0 0.3-0.5 0.5-0.2-0.1 0.1-0.2 0.3-0.2 0.4 0.2 0 0.3-0.2 0.3-0.3 0.3 0.3-0.9 0.9-0.3 1 0.1-0.2 0.7-0.2 0.5-0.5 0.3 0-0.3 0.5 0.1 0.5l-0.4 0.1c0 0.1 0.2 0 0.3 0l-0.4 0.2c0.7-0.1 0 0.5 0.8 0.2-0.6 0.3 0.1 0.1-0.1 0.3-0.5 0.1-0.2-0.4-0.8-0.1-0.1 0.2 0.2 0.1 0.1 0.2-0.1 0-0.3 0-0.4 0.1-0.1 0.4 0.6 0.2 0.8 0.2l-0.3-0.2c0.5-0.3 0.2 0.1 0.6-0.1-0.2 0.3 0.3 0.2 0.2 0.4 0-0.1-0.1 0-0.1-0.1 0.2 0.3-0.6 0.9-0.6 1 0.1 0.2 0.5 0.2 0.6 0 0.2 0-0.4-0.3 0.4-0.6-0.7 0.7 0.5 0.2 0.2 0.8-0.4 0.1-0.4 0.4-0.7 0.4 0.2 0.1 0.3 0.1 0.6 0l-0.2 0.2c0.6-0.1 0.5-0.3 1-0.1-0.3 0-0.3 0.3-0.5 0.4q0.1 0.1 0.3 0.1c0.3 0.2-0.1 0.4 0.3 0.5l0.2-0.1c0.6 0.1 0.7 0.8 1.1 1v-0.2c0.1 0.1 0.4 0.1 0.3 0.3 0 0-0.1 0-0.1 0-0.2 0.1-0.4 0.3-0.3 0.5l0.2-0.2-0.1 0.2c0.1 0.1 0.3-0.3 0.4-0.2-0.6 0.6 0.3 0.6-0.1 1.2 0.5-0.3-0.2-0.3 0.3-0.5 0 0.1-0.1 0.2-0.1 0.3l0.3-0.3c0.1 0.5 0 0.9 0.4 1.1l-0.1 0.1q0 0.3 0.4 0c-0.1 0.1-0.2 0.1-0.3 0.3 0.4-0.3 0.4-0.1 0.3 0.1 0 0.2-0.1 0.5 0.1 0.2q-0.3 0.5-0.4 1c-0.1 0.4-0.1 0.7-0.3 0.9h0.2c-0.2 0.2-0.3 0.2-0.4 0.1-0.2-0.1-0.3-0.1-0.5 0 0-0.2-0.1-0.5-0.1-0.7-0.1 0.2-0.3 0.3-0.3 0.4-0.1-0.1-0.2-0.1-0.3 0.2 0-0.9-0.3-1.2-0.7-1.6-0.4-0.3-0.8-0.6-0.8-1.2-0.1 0-0.2 0.2-0.2 0.2 0.2-0.4-0.3 0.1-0.5 0l0.4-0.6c-0.2 0.1-0.3 0.2-0.4 0.3-0.4-0.3-0.1-1-0.7-1.1 0.1-0.3 0.5-0.3 0.5-0.5-0.5 0.6-0.6-0.1-0.9 0.2 0.5-0.5-0.2-0.6 0.7-1.1-0.1-0.2-0.5 0.1-0.5 0.2-0.1-0.2-0.2-0.3-0.6-0.3 0.2-0.2-0.7-0.7-0.2-1.3-0.3 0.4-0.2 0.2-0.5 0.2l-0.3 0.3-0.1-0.3q-0.1 0 0 0c0-0.1 0.2-0.2 0.2-0.3-0.1-0.2-0.3-0.1-0.5 0h-0.1l-0.1-0.1c0-0.1 0.6 0.1 0.6-0.3-0.1 0-0.7 0.2-0.5 0 0.1 0.1 0.4-0.1 0.4-0.2l-0.1-0.2-0.4 0.4c-0.3-0.6-0.4-1.4-0.8-2 0.5-0.2-0.2-0.4 0.5-0.7h-0.1c0.2 0.1 0.5-0.3 0.3-0.4-0.1 0.2-0.7 0.2-0.6 0.5h-0.5c-1.2 0.5-0.2-0.7-0.8-0.9q0.1 0 0.1 0c-0.5-0.1-0.1-0.9-0.3-0.9l0.3-0.2c-0.7 0-0.7 0-0.7-0.4 0 0 0.2-0.1 0.2-0.2-0.3 0.1-0.6 0.2-0.6-0.1h0.1l-0.3-0.4c1-0.5-1-0.2 0.1-0.9-0.4 0.1-0.6-0.1-0.8-0.2q0.1 0 0.1-0.1c-0.6 0.2 0-0.5-0.2-0.6-0.2 0-0.3 0.2-0.5 0.3 0.3-0.4-0.8-0.2-0.6-0.4-0.1-0.2 0.3-0.3 0.5-0.5-0.2-0.1-0.9 0.6-0.6 0.1 0 0 0.1 0 0.2 0 0-0.2 1-1 0.7-1l-0.1 0.2c-0.4-0.1 0.6-1-0.1-0.6l-0.4 0.2c0.3-0.6-0.2-0.1 0-0.6l0.1-0.1c-0.2-0.1 0.2-0.4-0.4-0.2v0.1c-0.2-0.1-0.1-0.2-0.2-0.4-0.1 0-0.2 0-0.1-0.1-0.4 0.2-0.5-0.3-0.5-0.4 0.2 0.1 0.3-0.1 0.5-0.2-0.4 0.1-0.5 0-0.3-0.2-0.6 0.2-1.1 0.5-1.3 0.3 0.1 0 0.2 0.1 0.3 0 0.1-0.1-0.1-0.1-0.1-0.1 0.1-0.1 0.2-0.1 0.4-0.2-0.7 0.1-0.2-0.3-0.6-0.4 0.2 0 0.3-0.1 0.5-0.3-0.6 0.4 0.3-0.6-0.4 0 0.2-0.8-0.6-1.2-0.2-1.7 0.2-0.2-0.3-0.1-0.3-0.2l0.3-0.1c-0.6 0-0.3-0.1-0.9-0.1 0.3-0.1 0.4-0.2 0.6-0.4l-0.6 0.1 0.4-0.3c-0.2 0-0.2-0.1-0.2-0.2-0.5 0.2-0.6-0.1-0.9 0 0.6-0.4-0.2-0.2 0.3-0.5q-0.2 0-0.3 0c-0.2 0.2-0.5 0.3-0.4 0.2q0 0 0 0l0.3-0.2q-0.2-0.1-0.2-0.2-0.1 0.1-0.2 0.2 0.1-0.1 0.2-0.2-0.1 0-0.1 0 0.1 0 0.1 0c0-0.1 0-0.2-0.1-0.2 0.3-0.5-1-0.2-0.5-0.8 0 0.1 0 0.1 0.1 0.1-0.2-0.2 0.2-0.7-0.2-0.8l-0.3 0.2c-0.2-0.1-0.4-0.2-0.4-0.3l-0.4 0.2c0-0.3-0.8-0.5-0.1-1-0.3 0.1-0.1-0.3-0.3-0.4l0.3-0.1c0-0.2-0.2-0.3-0.3-0.3 0.4-0.6-0.3-0.6-0.4-0.9l0.1-0.1-0.4-0.2c0.3 0-0.2 0.1-0.2 0-0.1-0.1-0.1-0.2 0-0.4l-0.1-0.2c0.3 0.1 0.4-0.2 0.7-0.4h-0.3c0.1-0.1 0.2-0.1 0.2-0.2-0.2 0-0.3-0.2-0.6-0.1q-0.1 0.1-0.2 0.2 0 0 0 0-0.1 0-0.1 0c0-0.2-0.1 0-0.3 0 0.4-0.3 0.1-0.3 0.5-0.6-0.5 0.3-0.2-0.4-0.7 0 0.4-0.4 0-0.1 0.3-0.4 0 0.2 0.5 0.1 0.8 0.2l0.2-0.3c0.6-0.2 0 0.4 0.2 0.4-0.1 0-0.1-0.2 0-0.3l-0.4 0.3c0 0.2 0.4 0.2 0.6 0.2 0.1-0.2 0.4 0.1 0.6-0.2l-0.1-0.1c0.1-0.1 0.3-0.1 0.5-0.1-0.2 0.5 0.4 1 0.1 1.2 0.1-0.1 0-0.1-0.2-0.1l-0.1 0.2c-0.1-0.1 0.3-0.4 0-0.5-0.2 0.2-0.7 0.2-0.9 0.6-0.3 0.5 0.8-0.1 0.9 0.3 0.1 0-0.5 0.2-0.2 0.3 0.4 0.1 1.1 0 1.7-0.3-0.2 0-0.7-0.1-0.3-0.3 0.2 0 0.4 0.2 0.7 0-0.4 0.4-0.3-0.1-0.6 0.3 0.1 0 0.3 0 0.4 0-0.3 0-0.3 0.2-0.4 0.3 0.1 0.3 0 0.5 0.1 0.9-0.1 0-0.2 0.1-0.3 0.2 0.2 0 1-0.2 1.3-0.4 0.1 0.2-0.1 0.3 0.1 0.4 0.3-0.5-0.1 0.1 0.4-0.2 0.1 0.1-0.2 0.2-0.3 0.3 0.1 0 0.3 0 0.4-0.1-0.3 0.3-1 0.4-1.4 0.7-0.2 0.2-0.5 0.7-0.5 0.8 0.4-0.2 2-1.1 2.5-1.4 0.2-0.2-0.2 0.3-0.2 0.3-0.4 0.4 0.5 0.1 0.4 0.4h-0.3c-0.1 0.1 0.1 0.2 0.3 0.1-0.1 0.1-0.8 0.4-1 0.5 0.1 0.3 1.1 0.1 1.5-0.1l-0.7-0.2c0.4-0.2 0.5 0.1 1-0.2l0.1 0.5c-0.1-0.1-0.3-0.1-0.4 0 0.1 0.2-0.1 0.1-0.2 0.3-0.5 0.1-2 0.5-2.6 0.7h0.4l-0.2 0.2c0.4 0.1 2-0.5 2.4-0.7 0 0.2-0.8 0.6-1 0.7 0.1 0.3 1.3-0.4 1.3 0l0.1-0.2c0.2 0 0.1 0.3 0.3 0.2-0.2 0.2-0.6 0.5-0.8 0.5l0.8-0.1c-0.1 0-0.7 0.4-0.8 0.4 0 0.1 0.7-0.2 0.9-0.3-0.4 0.4-0.1 0.2-0.6 0.7 0.1 0 0.7-0.4 0.7-0.5 0.3 0.1 0.2 0.2 0.2 0.3-0.4-0.1-1.5 0.7-2 1l2.2-0.6c-0.1 0-0.8 0.3-0.8 0.4 0.6-0.3 0.9 0.2 1 0.5v-0.1c-0.2 0.1-0.3 0.3-0.2 0.4-0.3 0.4 1-0.3 0.6 0.2 0-0.2-0.3-0.1-0.5 0 0.3 0 0.2 0.5 0.9 0-0.1 0.2 0 0.2-0.3 0.4l0.6 0.1c-0.1 0-0.3 0.1-0.3 0.2 0-0.2-0.8 0-0.4-0.4-0.4 0.3-0.6 0.5-1 0.6 0.4 0.2 1.2 0 1.8 0l-0.1 0.4 0.2-0.1-0.4 0.4c0.1-0.1 0.2-0.1 0.2-0.1q-0.1 0.1-0.2 0.1 0.1 0.1 0.2 0c-0.3 0.2-0.6 0.3-0.9 0.4q0.1-0.1 0.2-0.2c-0.3 0-0.5 0.1-0.6 0.3q0 0 0.1 0c-0.2 0.1-0.4 0.1-0.4 0.2l0.3 0.1c0.1-0.1 0.2-0.2 0.3-0.3 0.4-0.1 0.9-0.1 1.1-0.4l-0.1 0.3c0.5 0 0.4 0 0.9 0-0.1 0.2-0.3 0.2-0.4 0.3 0.6-0.1-0.4 0.8 0.1 0.6 0.2 0.1 0.5-0.2 0.7-0.2-0.1 0.1-0.2 0.1-0.2 0.1h0.4c-0.1 0.1-0.3 0-0.4 0.2 0.4 0.1 0.7 0.1 0.6 0.4 0.3 0.2 0.6-0.5 0.7-0.3-0.3 0.2-0.6 0.5-0.5 0.6 0.2 0 0.4-0.2 0.6-0.1l-0.4 0.2c0.1 0.1 0.2 0.2-0.1 0.4 0.2 0 0.2 0 0.2 0.1 0.3 0.1 0.8-0.6 0.9-0.7-0.2 0.3 0 0.3-0.4 0.7l-0.2-0.1c-0.4 0.7 0.8 0-0.1 0.7 0-0.2-0.3-0.2-0.5 0l0.3 0.1c-0.1 0.1-0.1-0.1-0.2 0.1 0.1 0 0.4-0.1 0.6-0.1h-0.1l0.3 0.2c-0.1 0-0.2 0.1-0.2 0.1l0.3 0.1c-0.1 0-0.2 0.1-0.2 0.3 0 0.3 1.1-0.4 0.7 0.1 0-0.1 0-0.1 0-0.1l-0.2 0.2c0.9-0.5 0.5 0.5 1.4 0-0.3 0.4-0.2 0.2-0.8 0.2l-0.1 0.3c-0.1 0-0.1-0.1-0.2-0.2zm-0.7-0.9v-0.1q0 0.1 0 0.1zm-4.1-5.5q0 0 0 0 0 0 0 0 0 0 0 0zm0 0q0.1 0 0.2 0c-0.2 0-0.1 0-0.2 0zm-0.5-2.1q0 0 0 0 0 0 0 0zm-0.1-0.1q0 0 0 0zm-0.9 0.1q0.1 0 0.1 0zm-4.9-6.3q-0.1 0-0.1 0zm0 0.3q0 0 0 0 0 0 0 0zm-0.8 0q0 0 0 0.1 0-0.1 0-0.1zm4.5 7.1c0.1 0.1 0.1 0 0.2 0q-0.1 0-0.2 0zm0 0q0 0 0 0 0 0 0 0 0 0 0 0zm9.3 15.4q0 0 0 0.1 0-0.1 0-0.1zm0.6 2.5q0 0 0.1 0-0.1 0-0.1 0zm3.9-0.7q0 0 0 0zm-2.8-3.4q0 0 0 0 0 0 0 0zm-0.6-2.2q0 0 0 0 0 0 0 0zm-1-1.9q0 0 0 0zm-3-4c0.1-0.2-0.1-0.1-0.2-0.1-0.1 0.1-0.2 0.2 0.2 0.1zm-2.9-2.9c0.1-0.1 0.1-0.2 0-0.2q-0.1 0.2 0 0.2zm-7.5-8.5c-0.1 0.1-0.1 0.2 0 0zm0-0.3q-0.1 0-0.2 0.1c0.1 0 0.2 0 0.2 0.1 0-0.1 0.1-0.1 0-0.2zm12.6 21.5h-0.1c0.1 0 0.2 0 0.1 0z"/>
	<path id="Layer copy 6511" class="s3" d="m85.4 136.2q-0.1 0.1-0.2 0.2 0.2-0.1 0.2-0.2z"/>
	<path id="Layer copy 6512" class="s3" d="m90 142.4h-0.1q0 0 0 0z"/>
	<path id="Layer copy 6513" class="s3" d="m81.7 129.2q0 0.1-0.1 0.1 0.1 0 0.1-0.1z"/>
	<path id="Layer copy 6514" class="s3" d="m76.3 126.7c0 0-0.1 0.1 0 0.1l-0.2-0.1c0.1 0.1 0.2 0 0.2 0z"/>
	<path id="Layer copy 6515" class="s3" d="m77.3 124.6l0.2-0.1c0 0 0 0 0 0 0 0.1-0.1 0.2-0.2 0.1z"/>
	<path id="Layer copy 6516" class="s3" d="m77.2 126c0.2-0.1 0.1-0.2 0-0.2q0 0 0 0c-0.4 0.2-0.2 0.2 0 0.2z"/>
	<path id="Layer copy 6517" class="s3" d="m77.2 125.8q-0.1-0.1-0.1-0.1c-0.1 0.1 0 0 0.1 0.1z"/>
	<path id="Layer copy 6518" class="s3" d="m77 127.4c0-0.1-0.4 0.1-0.3 0-0.4 0.2 0.6 0.1 0.3 0z"/>
	<path id="Layer copy 6519" class="s3" d="m78 125.6l-0.3 0.1 0.3-0.2z"/>
	<path id="Layer copy 6520" class="s3" d="m78 126.2q0.1 0 0.2-0.1v0.2c-0.1 0.1-0.1 0-0.2-0.1z"/>
	<path id="Layer copy 6521" class="s3" d="m78 126.2q0-0.1-0.1-0.1c0 0 0.1 0.1 0.1 0.1z"/>
	<path id="Layer copy 6522" class="s3" d="m78.2 125.8v-0.1-0.1z"/>
	<path id="Layer copy 6523" class="s3" d="m79.2 127.9c0.1 0 0 0.1-0.1 0.1l-0.2-0.1c0.1 0 0.2 0 0.3 0z"/>
	<path id="Layer copy 6524" class="s3" d="m79.8 126.9l-0.4 0.3c0.1-0.1 0.2-0.2 0.2-0.2z"/>
	<path id="Layer copy 6525" class="s3" d="m79.9 127.4c0.2-0.1 0.5 0 0.4-0.2-0.2 0.1-0.3 0-0.4 0.2z"/>
	<path id="Layer copy 6526" class="s3" d="m80 130.4l0.7-0.4z"/>
	<path id="Layer copy 6527" class="s3" d="m82.9 131.4c0.2 0 0.1-0.2 0.3-0.3-0.1 0.3 0.4-0.1 0.3 0.1-0.4 0.3-0.3 0.2-0.6 0.2z"/>
	<path id="Layer copy 6528" class="s3" d="m82.9 131.4q0 0-0.1 0 0.1 0 0.1 0z"/>
	<path id="Layer copy 6529" class="s3" d="m95.5 156.4l0.1 0.3-0.2-0.3z"/>
	<path id="Layer copy 6530" class="s3" d="m96.2 156.2q-0.1 0.2-0.3 0.3l0.1-0.4c0 0.1 0.1 0.1 0.2 0.1z"/>
	<path id="Layer copy 6531" class="s3" d="m87.9 138.5c0-0.1 0-0.2 0.1-0.2l0.1-0.1z"/>
	<path id="Layer copy 6532" class="s3" d="m88.4 140.3l0.3-0.3h0.1z"/>
	<path id="Layer copy 6533" class="s3" d="m90 141c0 0-0.1 0-0.1-0.1 0.1 0.1-0.3 0.5 0.1 0.1z"/>
	<path id="Layer copy 6534" class="s3" d="m59.1 121.8c0 0-0.2 0.1-0.3 0.1 0.1 0.1 0.4-0.1 0.3-0.1z"/>
	<path id="Layer copy 6535" class="s3" d="m60.4 122.2l-0.4 0.1 0.1-0.1z"/>
	<path id="Layer copy 6536" class="s3" d="m60.1 122.6l0.4-0.2-0.1 0.1c-0.1 0.2 0.5 0.1 0.1 0.4 0.1-0.2-0.3-0.2-0.4-0.3z"/>
	<path id="Layer copy 6537" class="s3" d="m59.6 123.7q0 0 0 0c0.2 0.1 0.2 0 0 0.1q0-0.1 0-0.1z"/>
	<path id="Layer copy 6538" class="s3" d="m59.6 123.7c-0.1 0-0.2 0.1 0 0z"/>
	<path id="Layer copy 6539" class="s3" d="m59.4 124.2c0.1 0 0.1-0.1 0.2-0.2h0.2c-0.1 0.1-0.2 0.2-0.4 0.2z"/>
	<path id="Layer copy 6540" class="s3" d="m60.2 123.9c-0.1 0-0.1 0 0 0z"/>
	<path id="Layer copy 6541" class="s3" d="m60.1 123.9c0.3-0.1 0.1-0.1 0.1 0h-0.3c0.2 0 0.3-0.1 0.2 0z"/>
	<path id="Layer copy 6542" class="s3" d="m60 123.8c0.1-0.1 0.1-0.2 0.3-0.2-0.1-0.2-0.5 0-0.3 0.2z"/>
	<path id="Layer copy 6543" class="s3" d="m60.9 122.6l0.2-0.1-0.1 0.2c-0.2 0.1 0-0.1-0.1-0.1z"/>
	<path id="Layer copy 6544" class="s3" d="m60.1 124.4l0.2 0.1c-0.2 0-0.3 0.2-0.4 0.2 0.1-0.1 0.2-0.2 0.2-0.3z"/>
	<path id="Layer copy 6545" class="s3" d="m60.3 124.5h0.2c0-0.1-0.1-0.1-0.2 0z"/>
	<path id="Layer copy 6546" class="s3" d="m60.8 123.7h-0.5l0.5-0.1z"/>
	<path id="Layer copy 6547" class="s3" d="m60.2 125.1l-0.4 0.1 0.3-0.1z"/>
	<path id="Layer copy 6548" class="s3" d="m60.2 125.6c-0.1 0-0.3 0-0.4 0 0.1 0 0.2-0.2 0.4-0.3q-0.1 0.3 0 0.3z"/>
	<path id="Layer copy 6549" class="s3" d="m60.5 125.6q-0.1 0-0.3 0 0.1 0 0.3 0z"/>
	<path id="Layer copy 6550" class="s3" d="m60.5 124.7l-0.2 0.2c0-0.1 0.2-0.2 0.2-0.2z"/>
	<path id="Layer copy 6551" class="s3" d="m60.6 124.8q0 0 0-0.1 0 0.1 0 0.1z"/>
	<path id="Layer copy 6552" class="s3" d="m60.5 124.7q0.1-0.1 0 0z"/>
	<path id="Layer copy 6553" class="s3" d="m60.7 124.1c0.2-0.1 0.4 0 0.6-0.3-0.2 0.1-0.3 0.2-0.6 0.3z"/>
	<path id="Layer copy 6554" class="s3" d="m60.6 124.4c0.1 0 0.2-0.1 0.3-0.1v0.1z"/>
	<path id="Layer copy 6555" class="s3" d="m60.9 124.5v-0.1h0.1z"/>
	<path id="Layer copy 6556" class="s3" d="m60.9 125.1q0.1 0.1 0 0.2c0 0-0.1-0.1-0.2-0.1-0.1 0 0.1-0.1 0.2-0.1z"/>
	<path id="Layer copy 6557" class="s3" d="m60.7 125q0-0.1 0 0z"/>
	<path id="Layer copy 6558" class="s3" d="m61.2 125.9h0.1q-0.1 0-0.1 0z"/>
	<path id="Layer copy 6559" class="s3" d="m60.9 125.1q0-0.1-0.1-0.1c0.1 0 0.2 0 0.2 0.1q0 0-0.1 0z"/>
	<path id="Layer copy 6560" class="s3" d="m60.7 125.7q0.1-0.1 0.1-0.2c0 0.1-0.2 0.2-0.1 0.2z"/>
	<path id="Layer copy 6561" class="s3" d="m60.6 125c-0.1 0.1 0 0.1 0 0z"/>
	<path id="Layer copy 6562" class="s3" d="m60.7 125q0.1 0 0.1 0-0.1 0-0.2 0 0.1 0 0.1 0z"/>
	<path id="Layer copy 6563" class="s3" d="m62.9 125.3h0.2c-0.4 0.3-0.7 0.1-1 0.3 0.1-0.1 0.3-0.2 0.1-0.3-0.3 0.1-0.4 0.4-0.5 0.5-0.2 0-0.3 0-0.4 0.1 0.4-0.4 1.3-0.9 1.5-0.9-0.2 0.3 0.1 0.3 0.4 0.1-0.1 0.1-0.2 0.1-0.3 0.2z"/>
	<path id="Layer copy 6564" class="s3" d="m61.1 125.7l0.1 0.2q-0.1 0.1-0.4 0.1c0.2-0.2 0.3-0.3 0.3-0.4h0.1z"/>
	<path id="Layer copy 6565" class="s3" d="m61.1 125.6l-0.2-0.1c0.1 0 0.1 0 0.1-0.1q0 0-0.1 0.1 0 0 0 0 0-0.1 0 0h-0.1q0.1-0.1 0.1-0.2 0.1 0.1 0.2 0.1c0.1-0.2 0.4-0.1 0.2-0.3 0.2 0 0.4-0.1 0.5 0-0.3 0.2-0.5 0.2-0.8 0.3q0.2 0.1 0.1 0.2z"/>
	<path id="Layer copy 6566" class="s3" d="m62 123.6q-0.1 0-0.1 0.1 0.1 0 0.1-0.1z"/>
	<path id="Layer copy 6567" class="s3" d="m61.2 124.3c0-0.1 0.3-0.3 0.4-0.5h-0.1c0.1-0.1 0.3-0.1 0.4-0.1-0.1 0-0.2 0-0.2 0.1 0 0 0.1 0 0.1 0-0.2 0.2-0.4 0.3-0.6 0.5z"/>
	<path id="Layer copy 6568" class="s3" d="m61.8 124.5l0.2-0.1-0.2 0.3-0.3-0.1c0.1-0.1 0.3-0.2 0.3-0.1z"/>
	<path id="Layer copy 6569" class="s3" d="m61.3 126l-0.5 0.1 0.3-0.1z"/>
	<path id="Layer copy 6570" class="s3" d="m61.2 126.3h-0.2l0.2-0.1z"/>
	<path id="Layer copy 6571" class="s3" d="m71.3 137.1h0.1q0 0-0.1 0z"/>
	<path id="Layer copy 6572" class="s3" d="m71.1 136.7l-0.1 0.1q0.1 0 0.1-0.1z"/>
	<path id="Layer copy 6573" class="s3" d="m64.2 131.9l-0.3 0.2c-0.3 0.2 0-0.1 0.2-0.3 0 0 0 0.1 0.1 0.1z"/>
	<path id="Layer copy 6574" class="s3" d="m67.7 134.6q0.1 0 0.3-0.1 0 0.1-0.1 0.1-0.1 0-0.2 0z"/>
	<path id="Layer copy 6575" class="s3" d="m69.2 134l-0.2 0.2q0.1-0.1 0.2-0.2z"/>
	<path id="Layer copy 6576" class="s3" d="m72.7 138.9l0.4-0.2c-0.1 0-0.2 0.1-0.4 0.2z"/>
	<path id="Layer copy 6577" class="s3" d="m62.5 128.5q-0.1 0.2-0.1 0.2c0.2-0.1 0.4-0.3 0.1-0.2z"/>
	<path id="Layer copy 6578" class="s3" d="m68.2 138.7q0.1 0 0.2-0.1-0.1 0-0.2 0.1z"/>
	<path id="Layer copy 6579" class="s3" d="m62.4 128.7q0.1 0.1 0.2 0.2 0 0-0.1 0c-0.2 0.1-0.2 0-0.1-0.2z"/>
	<path id="Layer copy 6580" class="s3" d="m76.9 145.7q0 0 0 0 0 0 0 0z"/>
	<path id="Layer copy 6581" class="s3" d="m76.3 149.8q-0.1 0-0.1-0.1 0 0.1 0.1 0.1z"/>
	<path id="Layer copy 6582" class="s3" d="m61.6 127.2c-0.1-0.1-0.1 0 0 0z"/>
	<path id="Layer copy 6583" class="s3" d="m62.6 126.4q0.1-0.1 0.2-0.1-0.1 0-0.2 0.1z"/>
	<path id="Layer copy 6584" class="s3" d="m64.6 128.4q0.1 0 0 0z"/>
	<path id="Layer copy 6585" class="s3" d="m61.7 127q-0.1 0.1-0.1 0.1 0 0 0.1-0.1z"/>
	<path id="Layer copy 6586" class="s3" d="m61.5 127.1q0 0 0 0c0 0 0 0 0 0z"/>
	<path id="Layer copy 6587" class="s3" d="m61.6 127.2q0 0 0-0.1 0 0.1 0 0.1 0 0 0 0z"/>
	<path id="Layer copy 6588" class="s3" d="m73.7 142.7q0 0 0 0c0.1 0 0.1 0 0 0z"/>
	<path id="Layer copy 6589" class="s3" d="m67.8 131.4q0 0 0.1 0z"/>
	<path id="Layer copy 6590" class="s3" d="m67 131.9l0.8-0.5c0 0.1 0 0.2 0.4 0z"/>
	<path id="Layer copy 6591" fill-rule="evenodd" class="s3" d="m71.7 137.7c-0.3 0.4 0.3 0.2 0.6 0.2-0.1 0.1-0.7 0.3-0.5 0.4 0.4 0.1 0.7-0.4 0.9-0.3l-0.4 0.3c0.4 0 0.2 0.3 0.2 0.5q0.1 0 0.2 0c-0.1 0.3 0.6 0.1 0.5 0.3-0.1 0-0.2 0.2-0.3 0.3h0.4c-0.2 0-0.5 0.2-0.7 0.3 0.1 0.1 0.2 0 0.3 0-0.1 0.1-0.2 0.1-0.3 0.2h0.5q0.1-0.1 0.1-0.1c0 0 0.3 0 0.1 0.2q-0.2 0.1-0.3 0.2c0.2-0.3-0.1-0.1-0.3-0.1 0.2 0.2 0 0.1-0.2 0.3 0.1 0.1 0.5-0.1 0.7-0.2 0 0.2-0.1 0.3 0.3 0.2l-0.4 0.2 0.2 0.1-0.5 0.1c-0.1 0.4 0.6-0.3 0.6 0.1l-0.3 0.2c0.1 0 0.7-0.3 0.4 0 0.2 0 0.3-0.4 0.5-0.3-0.1 0.2-0.2 0.3-0.2 0.4 0.1 0 0.3-0.2 0.3-0.3 0.2 0.3-1 0.9-0.4 0.9 0.1-0.2 0.6-0.3 0.5-0.5 0.2 0-0.3 0.5 0.1 0.4l-0.5 0.2c0.1 0 0.2 0 0.3 0l-0.3 0.2c0.6-0.2-0.1 0.4 0.7 0-0.6 0.3 0.1 0.1-0.1 0.3-0.5 0.2-0.2-0.3-0.8 0-0.1 0.1 0.2 0 0.1 0.2-0.1 0-0.3 0-0.4 0.1-0.2 0.3 0.5 0.1 0.7 0.1l-0.2-0.1c0.5-0.3 0.1 0 0.5-0.2-0.2 0.3 0.3 0.1 0.2 0.3 0 0-0.1 0-0.1 0 0.1 0.2-0.6 0.8-0.6 0.9 0 0.1 0.4 0.1 0.5-0.1 0.2 0-0.3-0.2 0.4-0.5-0.6 0.6 0.5 0 0.1 0.6-0.3 0.1-0.3 0.4-0.6 0.4 0.1 0.1 0.3 0.1 0.5 0l-0.2 0.2c0.6-0.2 0.5-0.3 0.9-0.3-0.2 0.1-0.2 0.4-0.4 0.4q0 0.1 0.3 0.1h-0.1c0.3 0.1-0.1 0.4 0.3 0.4l0.1-0.1c0.6 0 0.6 0.5 1 0.7l0.1-0.2c0 0.1 0.3 0 0.2 0.3-0.1 0-0.1 0-0.1-0.1-0.2 0.2-0.4 0.4-0.4 0.5l0.3-0.2-0.2 0.2c0.1 0.1 0.3-0.3 0.4-0.2-0.6 0.6 0.3 0.5-0.2 1 0.5-0.3-0.1-0.2 0.4-0.5-0.1 0.1-0.1 0.2-0.1 0.3l0.2-0.3c0.1 0.4 0 0.7 0.3 0.9h-0.1q0 0.3 0.3 0c-0.1 0.1-0.2 0.1-0.2 0.3 0.3-0.3 0.3-0.2 0.2 0.1-0.1 0.2-0.1 0.4 0.1 0.1-0.4 0.7-0.3 1.4-0.7 1.9q0.1 0 0.2 0c-0.2 0.4-0.4-0.1-0.7 0.3-0.1-0.3-0.1-0.5-0.2-0.7-0.1 0.1-0.3 0.3-0.2 0.4-0.1 0-0.2-0.1-0.3 0.2 0-0.8-0.3-1.1-0.6-1.3-0.3-0.3-0.7-0.5-0.7-1-0.1 0-0.2 0.1-0.3 0.2 0.3-0.4-0.2 0.1-0.3 0l0.4-0.5c-0.2 0-0.4 0.2-0.5 0.3-0.3-0.2 0-0.9-0.5-0.9 0.1-0.3 0.4-0.3 0.4-0.5-0.4 0.5-0.4-0.1-0.7 0.2 0.4-0.5-0.2-0.4 0.7-0.9-0.1-0.2-0.5 0.1-0.5 0.2-0.1-0.2-0.2-0.3-0.5-0.2 0.1-0.2-0.7-0.6-0.1-1.1-0.4 0.3-0.2 0.1-0.5 0.2l-0.3 0.3-0.1-0.2q-0.1-0.1 0-0.1c0-0.1 0.2-0.1 0.3-0.3-0.1-0.1-0.3 0-0.6 0v0.1l-0.1-0.1c0 0 0.5 0 0.6-0.3-0.1 0.1-0.7 0.3-0.5 0 0.1 0.1 0.3 0 0.4-0.1l-0.1-0.2-0.4 0.3c-0.3-0.4-0.2-1.1-0.5-1.6 0.4-0.2-0.2-0.3 0.4-0.6 0.1 0.1 0.4-0.3 0.3-0.4-0.1 0.3-0.7 0.2-0.7 0.5h-0.4c-1.2 0.6-0.2-0.5-0.7-0.6q0.1 0 0.1 0c-0.5-0.1 0-0.8-0.2-0.7l0.3-0.3c-0.6 0.1-0.7 0.1-0.6-0.3 0.1 0 0.2 0 0.2-0.1-0.3 0.1-0.6 0.2-0.6-0.1h0.1l-0.2-0.3c1-0.5-0.9-0.1 0.2-0.8-0.4 0.1-0.6 0-0.8 0q0.1-0.1 0.2-0.1c-0.6 0.2 0-0.4-0.2-0.5-0.1 0-0.3 0.1-0.5 0.2 0.4-0.4-0.7-0.1-0.5-0.3 0-0.1 0.3-0.2 0.6-0.4-0.2-0.1-1 0.6-0.7 0.1 0.1 0 0.1 0 0.2 0 0-0.1 1.1-1 0.8-0.9l-0.1 0.1c-0.4 0 0.6-0.8-0.1-0.4l-0.3 0.2c0.3-0.5-0.2-0.1 0-0.6h0.1c-0.1-0.1 0.2-0.4-0.3-0.1l-0.1 0.1c-0.1-0.2-0.1-0.2-0.1-0.4-0.1 0-0.2 0-0.1-0.1-0.4 0.3-0.4-0.2-0.4-0.3 0.1 0.1 0.3-0.1 0.4-0.2-0.4 0.1-0.4 0.1-0.2-0.1-0.6 0.2-1.1 0.5-1.3 0.4 0.1-0.1 0.2 0 0.3-0.1 0.1-0.1-0.1-0.1-0.1-0.1 0.1 0 0.2 0 0.4-0.1-0.6 0.1-0.2-0.3-0.5-0.3 0.2-0.1 0.3-0.2 0.5-0.3-0.6 0.3 0.4-0.5-0.4 0 0.3-0.7-0.4-1 0-1.4 0.2-0.2-0.2-0.1-0.3-0.1l0.3-0.2c-0.6 0.1-0.2 0-0.9 0 0.4-0.1 0.5-0.2 0.7-0.4l-0.6 0.2 0.4-0.3c-0.2 0-0.1-0.1-0.1-0.2-0.5 0.2-0.6 0-0.9 0.1 0.6-0.4-0.2-0.1 0.3-0.5q-0.1 0.1-0.2 0.1c-0.3 0.1-0.5 0.3-0.4 0.2q0 0 0 0l0.3-0.2q-0.2-0.1-0.2-0.1-0.1 0-0.2 0.1 0.1-0.1 0.2-0.1-0.1-0.1-0.1-0.1 0.1 0 0.1 0c0 0 0-0.1-0.1-0.1 0.4-0.5-0.9-0.1-0.4-0.7 0 0.1 0 0.1 0.1 0.1-0.1-0.2 0.2-0.6-0.1-0.6l-0.3 0.2c-0.2-0.1-0.4-0.2-0.4-0.3l-0.3 0.2c0-0.2-0.7-0.3-0.1-0.8-0.3 0.1 0-0.3-0.2-0.3l0.3-0.2c0-0.1-0.1-0.2-0.2-0.2 0.4-0.5-0.3-0.5-0.4-0.7l0.1-0.1-0.3-0.1c0.3-0.1-0.2 0.1-0.1-0.1-0.2 0-0.2-0.1-0.1-0.3v-0.1c0.2 0 0.4-0.2 0.7-0.4h-0.3c0.1-0.1 0.2 0 0.3-0.1-0.2 0-0.3-0.2-0.7-0.1q-0.1 0.1-0.1 0.2 0 0 0 0h-0.1q0 0-0.1 0c0-0.1-0.1 0-0.2 0.1 0.4-0.4 0.1-0.3 0.5-0.7-0.5 0.4-0.1-0.3-0.7 0.1 0.5-0.3 0-0.1 0.4-0.4-0.1 0.2 0.5 0.2 0.7 0.2l0.3-0.3c0.5-0.2-0.1 0.3 0.1 0.3-0.1 0-0.1-0.1 0-0.2l-0.4 0.3c0 0.2 0.3 0.1 0.6 0.1 0.1-0.1 0.3 0 0.6-0.2h-0.1c0.1-0.1 0.3-0.1 0.4-0.2-0.1 0.5 0.4 0.8 0.1 1 0.1-0.1-0.1-0.1-0.2-0.1l-0.1 0.2c-0.1-0.1 0.2-0.3 0-0.4-0.2 0.1-0.7 0.2-1 0.5-0.2 0.5 0.8-0.1 0.9 0.3 0.1 0-0.5 0.1-0.2 0.2 0.3 0.1 1 0 1.6-0.3-0.2 0-0.6 0-0.2-0.3 0.2 0 0.4 0.1 0.6 0-0.4 0.3-0.2-0.1-0.5 0.2 0 0.1 0.2 0 0.3 0-0.2 0.1-0.3 0.3-0.4 0.3 0.1 0.2-0.1 0.5 0 0.7-0.1 0.1-0.2 0.2-0.3 0.2 0.2 0.1 1-0.2 1.3-0.4 0 0.2-0.2 0.3 0 0.3 0.3-0.4 0 0.1 0.4-0.1 0.1 0.1-0.2 0.1-0.3 0.2 0.1 0 0.3 0 0.4-0.1-0.3 0.3-1 0.4-1.3 0.7-0.3 0.2-0.6 0.7-0.6 0.7 0.4-0.2 2-1 2.5-1.4 0.2-0.1-0.3 0.3-0.3 0.4-0.3 0.3 0.5 0 0.4 0.2h-0.3c-0.1 0.1 0.1 0.2 0.3 0.1-0.2 0.1-0.8 0.4-1 0.5 0 0.3 1 0 1.4-0.2l-0.6-0.1c0.4-0.2 0.5 0 0.9-0.2l0.1 0.4c-0.1-0.1-0.2-0.1-0.4 0 0.1 0.1 0 0.1-0.2 0.3-0.5 0.1-1.9 0.5-2.6 0.7h0.4l-0.2 0.2c0.4 0 2-0.6 2.4-0.7 0 0.1-0.9 0.5-1.1 0.6 0.1 0.2 1.3-0.4 1.3-0.1l0.1-0.2c0.2 0 0.1 0.3 0.2 0.2-0.1 0.2-0.6 0.4-0.8 0.5l0.9-0.2c-0.2 0-0.8 0.4-0.9 0.4 0 0.1 0.8-0.2 0.9-0.3-0.4 0.4-0.2 0.2-0.6 0.6 0 0 0.7-0.4 0.7-0.4 0.2 0 0.2 0.1 0.2 0.2-0.4 0-1.5 0.7-2 0.9l2.1-0.6c-0.1 0-0.8 0.3-0.8 0.4 0.6-0.3 0.9 0.1 0.9 0.3-0.2 0.1-0.3 0.3-0.1 0.3-0.1 0.1-0.1 0-0.1 0-0.3 0.4 1-0.3 0.5 0.1 0-0.1-0.2 0-0.4 0.1 0.2 0 0.1 0.4 0.8-0.1-0.1 0.2 0 0.2-0.4 0.4h0.6c-0.1 0-0.3 0.1-0.3 0.2 0-0.2-0.7 0-0.3-0.3-0.4 0.2-0.6 0.4-1 0.5 0.4 0.2 1.1 0 1.7-0.1l-0.1 0.4 0.2-0.1-0.5 0.3c0.1 0 0.2 0 0.2 0q-0.1 0-0.2 0.1 0.1 0 0.2 0c-0.3 0.1-0.6 0.2-0.9 0.3q0.1-0.1 0.2-0.2c-0.2 0.1-0.5 0.2-0.6 0.4q0 0 0.1-0.1-0.3 0.1-0.4 0.2l0.3 0.1q0.1-0.1 0.3-0.3c0.4 0 0.9-0.1 1.1-0.4l-0.2 0.3c0.6-0.1 0.5-0.1 1-0.1-0.2 0.2-0.4 0.2-0.5 0.3 0.6-0.2-0.4 0.7 0.1 0.5 0.2 0 0.4-0.2 0.6-0.2-0.1 0-0.2 0.1-0.2 0.1l0.4-0.1c-0.1 0.1-0.3 0-0.4 0.2 0.4 0.1 0.6 0.1 0.6 0.3 0.2 0.2 0.6-0.5 0.6-0.2-0.3 0.1-0.6 0.3-0.6 0.5 0.3-0.1 0.5-0.2 0.7-0.2l-0.5 0.3c0.1 0 0.2 0.1-0.1 0.3 0.2-0.1 0.2 0 0.2 0.1-0.1 0.1-0.3 0.2 0.1 0.1 0.2-0.2 0.1-0.1-0.1-0.1 0.4-0.1 0.8-0.6 0.9-0.7-0.2 0.3 0 0.3-0.4 0.6h-0.2c-0.4 0.5 0.7-0.1-0.1 0.5 0-0.1-0.3-0.1-0.5 0.1h0.3c-0.1 0.1-0.1 0-0.2 0.1 0.1 0 0.3-0.1 0.5-0.1l0.1 0.2c0 0-0.1 0-0.1 0.1h0.3c-0.1 0-0.2 0.1-0.3 0.2 0 0.3 1.1-0.4 0.7 0 0 0 0 0 0 0l-0.2 0.2c0.9-0.5 0.4 0.4 1.3-0.1-0.3 0.3-0.2 0.1-0.7 0.2l-0.2 0.3c-0.1 0 0-0.1-0.2-0.2zm-0.5-0.7h-0.1q0.1 0 0.1 0zm-2.5-3.6q0 0 0 0 0 0 0 0zm-1.1-2.4q0 0 0 0 0 0 0 0zm0-0.1q0 0 0 0zm-0.9 0.2q0 0 0 0zm-4-5q0 0 0 0zm-0.8 0.3q-0.1 0-0.1 0 0 0 0.1 0zm3.5 5.6c0 0.1 0.1 0 0.1 0q0 0-0.1 0zm0 0q0 0 0 0 0 0 0 0 0 0 0 0zm7.3 12.3q0 0 0 0 0 0 0 0zm0.3 2.1q0.1-0.1 0.1-0.1 0 0-0.1 0.1zm3.7-1.1q0 0 0 0zm-2.3-2.5q0 0 0 0 0 0 0 0zm-0.3-1.9q0 0 0 0 0 0 0 0zm-0.8-1.5q0 0 0 0zm-2.5-3.1q-0.1 0-0.1 0 0 0 0.1 0zm-2.4-2.1c0.1-0.2 0.2-0.2 0-0.2q0 0.1 0 0.2zm-6.3-6.5q0-0.1 0-0.1 0 0 0 0.1zm0.1-0.4q-0.1 0.1-0.1 0.1 0.1 0 0.1 0.1c0-0.1 0.1-0.1 0-0.2zm9.8 17.1v0.1c0.1 0 0.2 0 0-0.1z"/>
	<path id="Layer copy 6592" class="s3" d="m69 134.1q-0.1 0-0.1 0.1 0.1 0 0.1-0.1z"/>
	<path id="Layer copy 6593" class="s3" d="m72.7 138.9z"/>
	<path id="Layer copy 6594" class="s3" d="m66.3 128.4q-0.1 0.1-0.2 0.2 0.2-0.1 0.2-0.2z"/>
	<path id="Layer copy 6595" class="s3" d="m61.4 126.7c-0.1 0-0.1 0.1-0.1 0.1h-0.1c0 0 0.1-0.1 0.2-0.1z"/>
	<path id="Layer copy 6596" class="s3" d="m62.5 124.9l0.2-0.1c0 0 0 0 0 0 0 0.1-0.1 0.1-0.2 0.1z"/>
	<path id="Layer copy 6597" class="s3" d="m62.2 126.1c0.3-0.1 0.2-0.2 0.1-0.2q0 0 0 0c-0.4 0.2-0.3 0.2-0.1 0.2z"/>
	<path id="Layer copy 6598" class="s3" d="m62.3 125.9q-0.1 0-0.1-0.1c-0.2 0.1 0 0.1 0.1 0.1z"/>
	<path id="Layer copy 6599" class="s3" d="m61.9 127.2c0 0-0.4 0.2-0.3 0.1-0.4 0.2 0.6 0 0.3-0.1z"/>
	<path id="Layer copy 6600" class="s3" d="m63.1 125.7l-0.3 0.1 0.3-0.2z"/>
	<path id="Layer copy 6601" class="s3" d="m63 126.2q0.1 0 0.2-0.1l-0.1 0.2c-0.1 0 0-0.1-0.1-0.1z"/>
	<path id="Layer copy 6602" class="s3" d="m63 126.2q0-0.1-0.1-0.1 0.1 0 0.1 0.1z"/>
	<path id="Layer copy 6603" class="s3" d="m63.2 125.9v-0.1l0.1-0.1z"/>
	<path id="Layer copy 6604" class="s3" d="m64 127.5c0.1 0 0 0.1-0.1 0.1h-0.2c0.1-0.1 0.2-0.1 0.3-0.1z"/>
	<path id="Layer copy 6605" class="s3" d="m64.7 126.7l-0.5 0.2c0.1-0.1 0.2-0.1 0.3-0.2z"/>
	<path id="Layer copy 6606" class="s3" d="m64.7 127c0.2 0 0.5 0 0.4-0.1-0.2 0-0.3 0-0.4 0.1z"/>
	<path id="Layer copy 6607" class="s3" d="m64.5 129.6l0.7-0.4z"/>
	<path id="Layer copy 6608" class="s3" d="m67.2 130.2c0.1 0 0-0.2 0.2-0.2-0.1 0.2 0.4-0.2 0.3 0-0.4 0.3-0.3 0.2-0.5 0.2z"/>
	<path id="Layer copy 6609" class="s3" d="m67.2 130.2q-0.1 0-0.2 0 0.1 0 0.2 0z"/>
	<path id="Layer copy 6610" class="s3" d="m76.8 150.4v0.3l-0.1-0.2z"/>
	<path id="Layer copy 6611" class="s3" d="m77.3 150.1l-0.2 0.4 0.1-0.5c0 0.1 0.1 0.1 0.1 0.1z"/>
	<path id="Layer copy 6612" class="s3" d="m71.2 135.7c0 0 0 0 0.1-0.1l0.1-0.1z"/>
	<path id="Layer copy 6613" class="s3" d="m71.4 137.2l0.4-0.3v0.1z"/>
	<path id="Layer copy 6614" class="s3" d="m72.9 137.7c0 0-0.1 0-0.1-0.1 0.1 0.1-0.4 0.4 0.1 0.1z"/>
</svg>