<svg version="1.2" xmlns="http://www.w3.org/2000/svg" viewBox="0 0 330 330" width="330" height="330">
	<title>New Project</title>
	<style>
		.s0 { fill: #a9802a } 
		.s1 { fill: #00aec3 } 
		.s2 { fill: #004f4f } 
		.s3 { fill: none;stroke: #00aec3;stroke-width: 4.2 } 
		.s4 { fill: none;stroke: #00aec3;stroke-linecap: square;stroke-linejoin: round;stroke-width: 4.2 } 
		.s5 { fill: #f6c158 } 
		.s6 { fill: #e62b7a } 
		.s7 { fill: #ffffff } 
		.s8 { fill: none;stroke: #00aec3;stroke-linecap: round;stroke-linejoin: round;stroke-width: 4.2 } 
	</style>
	<path id="Layer" class="s0" d="m277.9 152.7l-3.6 5.9-58.2 95.5-8.1-4.8 58.5-95.9 3.3-5.5z"/>
	<path id="Layer" fill-rule="evenodd" class="s1" d="m265.7 163.6c-2.1-1.2-2.7-3.8-1.5-5.9 2.9-4.8 1.5-9.1-1-15.2-0.6-1.6-1.3-3.1-1.7-4.7-2.1-7.2 1.6-17 2.1-18.1 0.5-1.2 1.4-2.1 2.7-2.5 1.2-0.4 2.5-0.3 3.6 0.4l35 20.8c1.1 0.7 1.9 1.8 2.1 3 0.2 1.3-0.2 2.6-1 3.6-0.8 0.9-7.8 8.7-15.2 10.3-1.6 0.3-3.3 0.5-5 0.6-6.6 0.7-11.2 1.5-14.1 6.3-1.2 2-3.9 2.7-6 1.4zm4.5-35.7c-0.6 2.7-0.9 5.6-0.3 7.5 0.3 1.1 0.9 2.4 1.5 3.9 1.1 2.7 2.5 6.2 3 10.1 3.7-1.4 7.5-1.8 10.5-2.1 1.5-0.2 2.9-0.3 4.1-0.5 2.1-0.5 4.5-2.1 6.5-3.8z"/>
	<path id="Layer" class="s2" d="m252.1 233.4l-18.8 30.9c-1.3 2.1-4 2.7-6 1.5l-35-20.8c-2.1-1.3-2.8-3.9-1.5-6l18.8-30.9c0.9-1.5 2.9-2.9 4.4-2 13.8 8.2 22.8-3.4 25.4-7.8 1.3-2 4-2.7 6.1-1.5 2 1.3 2.7 3.9 1.5 6-2.7 4.4-9.6 17.2 4.9 25.8 1.5 0.9 1.1 3.3 0.2 4.8z"/>
	<path id="Layer" class="s3" d="m82.5 109.9l16.6 10.8-16.6 10.9 16.6 10.8-16.6 10.9 16.6 10.9-16.6 10.8 16.6 10.9-16.6 10.8 16.6 10.9-16.6 10.9 16.6 10.8-16.6 10.9 16.6 10.8-16.6 10.9"/>
	<path id="Layer" class="s4" d="m78.3 261.9v-253.9l25 62.9"/>
	<path id="Layer" class="s3" d="m102.3 261.9v-153"/>
	<path id="Layer" class="s3" d="m278.1 49.4l-11 16.4-10.9-16.4-11 16.4-11-16.4-11 16.4-11-16.4-11 16.4-11-16.4-10.9 16.4-11-16.4-11 16.4-11-16.4-11 16.4-13.3-18.7"/>
	<path id="Layer" class="s5" d="m232.3 296.7c6.6-6.7 11.8-14.9 17.3-22.6 7.1-9.8 15.7-19.3 27.4-22.7 2.2-0.6 4.4-1 6.7-0.9 3.5 0.1 6.9 1.5 9.9 3.2 8.5 4.7 14.9 12.4 20.7 20.2q8.3 11.1 15.7 22.8z"/>
	<path id="Layer" class="s0" d="m265.9 296.8q0.1-0.1 0.2-0.1c6-3.2 10.3-8.8 14.4-14.3 2.9-3.8 5.8-7.8 6.8-12.5 1.4-6.9-1.9-14.1-6.7-19.4 3.1-1.5 7-1.1 10.2 0.3 3.3 1.4 6.1 3.6 8.8 5.9 6.7 5.6 13.5 11.3 18.5 18.4 4.7 6.7 7.7 14.5 11.6 21.6 0 0.1-63.8 0.1-63.8 0.1z"/>
	<path id="Layer" class="s5" d="m85.2 296.8c12.4-12.9 22.1-28.4 32.6-42.9 13.5-18.7 30.2-37.1 52.5-43.5 4.2-1.2 8.5-2 12.9-1.8 6.7 0.3 13.2 2.8 19.1 6.1 16.3 9.1 28.5 23.9 39.6 38.8q15.8 21 29.8 43.2c0 0.1-186.5 0.1-186.5 0.1z"/>
	<path id="Layer" class="s0" d="m150.4 296.7c11.1-6.2 19.1-16.7 26.7-26.9 5.6-7.3 11.2-14.9 13-23.9 2.8-13.4-3.7-27.1-12.9-37.3 6.1-3 13.5-2.2 19.8 0.5 6.2 2.7 11.5 7 16.7 11.3 12.9 10.8 26 21.7 35.7 35.5 8.8 12.6 14.5 27.3 21.8 40.8 0 0-120.8 0-120.8 0z"/>
	<path id="Layer" class="s6" d="m15.7 270.5h63.5v26.6h-63.5z"/>
	<path id="Layer" class="s7" d="m79.2 296.9c0 0 0 0.1 0 0.2 0-0.5 0-0.2 0-0.2z"/>
	<path id="Layer" class="s7" d="m79.4 291.9l0.1 0.6z"/>
	<path id="Layer" class="s7" d="m79.6 291l-0.1-0.3v-0.1c0.2-0.8-0.1-1.9 0.2-2.2-0.1 0.6 0 1.7-0.1 2.6z"/>
	<path id="Layer" class="s7" d="m80.4 286.6q0 0 0 0.1c0-1 0-0.4 0.1-0.5q0 0.3-0.1 0.4z"/>
	<path id="Layer" class="s7" d="m80.4 286.6c0 0.4 0.2-0.3 0 0z"/>
	<path id="Layer" class="s7" d="m80.9 284.7c-0.1-0.2-0.2 0.3-0.3 0.5v-0.6c0.2-0.3 0.3-0.5 0.3 0.1z"/>
	<path id="Layer" class="s7" d="m80.4 284v0.3c0 0 0.1-0.1 0-0.3z"/>
	<path id="Layer" class="s7" d="m80.4 284.6c-0.2-0.2-0.1-0.2 0-0.3l0.1 0.7c-0.1-0.3-0.2-0.4-0.1-0.4z"/>
	<path id="Layer" class="s7" d="m80.4 285.3c-0.1 0.3-0.2 0.8-0.3 0.2 0 1.1 0.2 0.9 0.3-0.2z"/>
	<path id="Layer" class="s7" d="m79.4 289v-0.4-0.4c0.1-0.1 0 0.6 0 0.8z"/>
	<path id="Layer" class="s7" d="m80.9 281.7l-0.1-0.4c0.1-0.1 0.3-0.3 0.4-0.3-0.2 0.1-0.3 0.5-0.3 0.7z"/>
	<path id="Layer" class="s7" d="m80.8 281.3l-0.1-0.7c-0.1 0.6 0 0.7 0.1 0.7z"/>
	<path id="Layer" class="s7" d="m80 283.7q0.1 0.7 0.2 1.3l-0.2-1.1z"/>
	<path id="Layer" class="s7" d="m81.4 278.4l0.3 0.6-0.2-0.4z"/>
	<path id="Layer" class="s7" d="m81.8 275.8c0.2 0.3 0.3 0.7 0.3 1.2-0.1-0.3-0.3 0.3-0.5 0 0.2-0.4 0.3-0.8 0.2-1.2z"/>
	<path id="Layer" class="s7" d="m81.6 275.3q0.1 0.2 0.2 0.5 0-0.3-0.2-0.5z"/>
	<path id="Layer" class="s7" d="m80.8 279.3l0.4-0.2c-0.1 0.3-0.3 0.4-0.4 0.5q0-0.2 0-0.3z"/>
	<path id="Layer" class="s7" d="m80.8 279.3q0.1-0.4 0.1-0.5 0 0.1-0.1 0.5z"/>
	<path id="Layer" class="s7" d="m80.8 279.6q0 0 0 0z"/>
	<path id="Layer" class="s7" d="m80.3 282.3c-0.1-0.4-0.2-1.1-0.5-0.4 0.2 0.3 0.3-0.2 0.5 0.4z"/>
	<path id="Layer" class="s7" d="m80.6 280.6c-0.1-0.1-0.2 0-0.3 0l0.1-0.7z"/>
	<path id="Layer" class="s7" d="m80.5 279.7l-0.1 0.2v-0.3z"/>
	<path id="Layer" class="s7" d="m80.9 276.6q0-0.6 0.2-1.2c0 0.4 0 0.7 0.1 1 0 0.4-0.2 0.3-0.3 0.2z"/>
	<path id="Layer" class="s7" d="m81 277.8q-0.1 0 0 0z"/>
	<path id="Layer" class="s7" d="m81.2 270.8h-0.1q0 0 0.1-0.1z"/>
	<path id="Layer" class="s7" d="m80.9 276.6q0 0.4 0 0.7c-0.1-0.2-0.1-0.3-0.1-0.6q0-0.2 0.1-0.1z"/>
	<path id="Layer" class="s7" d="m81.6 274.3q-0.2 0.2-0.3 0.5c0.1-0.2 0.3-0.5 0.3-0.5z"/>
	<path id="Layer" class="s7" d="m81.1 277.7c0.1-0.1 0-0.1 0 0z"/>
	<path id="Layer" class="s7" d="m81 277.8q-0.1-0.3-0.1-0.5 0.1 0.2 0.2 0.4-0.1 0-0.1 0.1z"/>
	<path id="Layer" class="s7" d="m79.2 270.9l-0.1-0.3c0-0.1-0.1-0.1-0.1 0h-0.3q0.1-0.2 0.5-0.4 0.1 0 0.3-0.1 0.1 0 0.1 0.1c0.2 0.2 0.4 0.4 0.5 0-0.1 0.7-0.4 0.7-0.2 1.6 0.3 0.6 0.5-1.1 0.7-1.6 0.2 0.8 0.4 0.7 0.5 0.6-0.6 1.3-1.7 2.1-1.9 1.5 0.3-0.8 0-1.4-0.3-1.2 0.1-0.2 0.2-0.1 0.3-0.2z"/>
	<path id="Layer" class="s7" d="m81.2 273.1c0-0.8 0-1.6 0-2.3 0.1 0 0.2 0 0.4 0.8-0.3 0.9-0.4 1.3-0.5 1.8v-0.5z"/>
	<path id="Layer" class="s7" d="m81.1 274c0-0.2 0-0.4 0-0.6l0.1 0.8 0.1 0.6q-0.1 0-0.1 0c0-0.1 0-0.4-0.1-0.1q0.1 0.1 0.2 0.1c-0.1 0.1 0 0.1 0 0q-0.1 0.3-0.2 0.6 0-0.3 0-0.7c-0.3 1-0.5-0.7-0.5 0.6-0.1-0.5-0.4-0.2-0.4-1 0.4-0.4 0.6 0.2 0.9 0.4q0-0.4 0-0.7z"/>
	<path id="Layer" class="s7" d="m79.3 281.2q0 0 0 0c0-0.1 0-0.1 0 0z"/>
	<path id="Layer" class="s7" d="m80.1 280.1c0-0.1-0.4 0.5-0.5 1.1h0.1c-0.2 0.6-0.3 0.2-0.4 0 0.1 0 0.2 0.2 0.2 0 0.1-0.4 0-0.4-0.1-0.5 0.3-0.4 0.5-0.5 0.7-0.6z"/>
	<path id="Layer" class="s7" d="m79.9 277.1h-0.2l0.3-0.5 0.1 1.1c-0.1-0.1-0.3 0-0.2-0.6z"/>
	<path id="Layer" class="s7" d="m81.1 269.8q0.3 0.2 0.6 0.6h-0.4z"/>
	<path id="Layer" class="s7" d="m80.6 268.2c0.2-0.1 0.5-0.2 0.7-0.2l-0.3 0.3z"/>
	<path id="Layer" class="s7" d="m17.7 285.8l0.1 0.3q-0.1-0.2-0.1-0.3z"/>
	<path id="Layer" class="s7" d="m17.7 283.5l-0.2-0.1c0.1 0.1 0.2 0.2 0.2 0.1z"/>
	<path id="Layer" class="s7" d="m44.1 268.3l-0.2-0.4c0-0.3 0.5 0.1 0.9 0.5-0.2-0.1-0.4-0.2-0.7-0.1z"/>
	<path id="Layer" class="s7" d="m21.8 270.3q-0.1 0.2-0.3 0.4l-0.1-0.2q0.2-0.1 0.4-0.2z"/>
	<path id="Layer" class="s7" d="m21 272l-0.6-0.2q0.2 0.1 0.6 0.2z"/>
	<path id="Layer" class="s7" d="m18.4 294.8q0.2-0.2 0.3-0.4c-0.1 0.1-0.2 0.2-0.3 0.4z"/>
	<path id="Layer" class="s7" d="m64.8 268.5c-0.4-0.2-0.7-0.2-1-0.3 0.5 0.2 0.9 0.6 1 0.3z"/>
	<path id="Layer" class="s7" d="m13.8 284.9q0.1 0.3 0.2 0.3c0-0.2-0.1-0.4-0.2-0.3z"/>
	<path id="Layer" class="s7" d="m63.8 268.2c-0.3 0-0.6 0.1-0.9 0.1q-0.1 0-0.2-0.1c0.4-0.2 0.8-0.1 1.1 0z"/>
	<path id="Layer" class="s7" d="m62.1 295.4q0.1 0 0.1 0 0.1 0-0.1 0z"/>
	<path id="Layer" class="s7" d="m75.3 297.4c-0.1 0-0.3 0-0.5 0.1 0.1-0.1 0.2-0.1 0.5-0.1z"/>
	<path id="Layer" class="s7" d="m73.5 268.2c0.3-0.1 0.1-0.1 0 0z"/>
	<path id="Layer" class="s7" d="m74.9 269.6q-0.1 0.1-0.1 0.2 0.1-0.2 0.1-0.2z"/>
	<path id="Layer" class="s7" d="m59.7 270.5c0.1 0.1 0.1 0.1 0 0z"/>
	<path id="Layer" class="s7" d="m74 268.3q-0.2 0-0.4-0.1 0.1 0.1 0.4 0.1z"/>
	<path id="Layer" class="s7" d="m73.9 268.2q0.1 0 0.3 0c0-0.1 0-0.1-0.3 0z"/>
	<path id="Layer" class="s7" d="m73.5 268.2q0 0 0.1 0-0.2 0-0.5 0c0.2 0 0.3 0 0.4 0z"/>
	<path id="Layer" class="s7" d="m37.9 296q0 0 0 0c0.3-0.2 0.2-0.1 0 0z"/>
	<path id="Layer" class="s7" d="m37.1 272.1h0.1q-0.1 0.1-0.1 0.1z"/>
	<path id="Layer" class="s7" d="m36.8 271.1l0.3 1c-0.3-0.1-0.6-0.1-1 0.3z"/>
	<path id="Layer" fill-rule="evenodd" class="s7" d="m17.7 290.4c-0.5 1 0.1 1.9 0.4 2.5-0.2 0.3-0.9-0.3-0.7 0.7 0 0.2 0.1 0.4 0.1 0.4q0.1 0.1 0.1 0.1 0.2 0 0.3 0 0.2-0.1 0.3-0.1 0.1 0 0.1 0 0.1 0 0.1 0.1-0.3 0-0.6 0.2c0.2 0.1 0.2 0.2 0.2 0.4 0 0.1-0.1 0.2-0.1 0.3q0 0 0.1 0.1 0.2-0.1 0.3-0.2c0.1 0.1 0.3-0.1 0.5-0.2-0.1-0.2 0.6-0.4 0.9-0.3-0.1 0.1 0.5 0.4 0.6 0.5l1.3-0.3c-0.5 0.1-0.5 0.5-0.6 0.8 0.4-0.1 0.6-0.3 0.9-0.3-0.1 0.1-0.3 0.2-0.1 0.4l1.5-0.6c-0.1 0-0.3-0.1-0.4-0.1 0.3 0 1.2-0.2 1.7 0.1-0.1 0.1-0.2 0.2-0.3 0.4-0.4-0.4-0.7-0.1-0.9 0.2 1-0.1 0.2 0.1 0.7 0.3 0.8 0 1.1-0.5 0.9-0.8 0.8 0.2 1 0.3 1.9-0.1l-0.2 0.5 0.8-0.2-0.6 0.6c1.4 0.3 0.2-0.8 1.8-0.5v0.4c0.7-0.2 0.9-0.9 1.4-0.4 0.6-0.2-1.1-0.5 0.4-0.6 0.2 0.2 0.8 0.3 1.2 0.4 0.4-0.1-0.3-0.4-0.6-0.4 2.1-0.2 1.3 1.4 3.2 0.8-0.7-0.3 0.5-0.8-1-0.7 0.7-0.3 1.4 0.5 2.2 0.1l-0.5 0.5c0.3 0 0.6-0.2 0.8-0.2l-0.1 0.4c1-0.7 1.8 0.3 2.4-0.6-0.4 0.7 0.7 0 1.1 0.2-0.8 0.6-2.3 0-2.4 0.7 0.4 0.2 0.7-0.1 1 0.1-0.2 0.1-0.6 0.3-0.7 0.4 1.2 0.4 1.9-0.4 2.7-0.6l-1.3 0.2c0.1-0.7 0.6-0.2 0.9-0.7 0.7 0.4 1.2-0.2 1.7 0.1-0.1 0-0.1 0-0.2 0 1.4 0 1.8 1.1 2.3 1.1 0.6 0.1 1.6-0.2 1.2-0.5 0.5-0.2-1.8 0.2-1-0.7 0.8 1 1.6-0.4 3.4 0.3-0.8 0.4 0.5 0.6-0.2 0.9 0.8-0.1 0.8-0.3 1.2-0.6l0.3 0.4c1.1-0.7 0.2-0.7 1.9-1-0.6 0.2 0.7 0.4 0.2 0.6 0.5 0.1 0.9 0 1.3-0.2h-0.1c1.7-0.1 1.4 0.4 2.9 0l-0.1-0.1c2-0.7 4.5-0.1 6.6-0.1l-0.7-0.2c0.4 0 1.4-0.1 2 0.1-0.1 0-0.3 0.1-0.4 0.1 0 0.1 0.2 0.4 0.7 0.5l0.2-0.3 0.2 0.3c0.8 0-0.2-0.4 0.6-0.4 0.4 0.7 3.2 0.4 3.9 0.9 0.5-0.3-1.4-0.1-0.9-0.5 0.3 0.1 0.4 0.2 0.9 0.3l-0.2-0.3c2.3 0.4 3.2 0.5 5.2 0.6l-0.1 0.1c0.8 0.1 1.2 0.1 1.5 0 0.1 0.1-0.4 0-0.1 0.1 0.6-0.1 1.3 0 1.9 0.1 0.5 0.1 1.1 0.1 1.5 0.1-0.1 0.1 1.5 0.2 0.8 0.2h0.6c-0.2 0-1.7 0.1-2 0.2q-0.8 0-1.7 0c0.1 0-0.2 0.1 0.1 0.1-0.4 0-0.8 0.1-0.3 0.1-1.9 0-3.9 0-6 0.2-2 0.2-3.9 0.4-5.9 0.2-0.3 0.1-0.1 0.2 0 0.3-0.7-0.3-0.7 0.3-1.1 0.4q-0.5-0.3-1.1-0.6c-0.4 0.2-0.1 0.4-0.1 0.5-2 0.3-3.9-0.2-5.5 0.2-0.6-0.3 0.1-0.6-0.6-0.7 0.9 0.7-1.8 0.3-1.4 0.8-0.7-0.7-2.4-0.2-2.1-1.3-0.8 0-0.7 0.5-0.5 0.6-0.9 0-1.7 0-2.4 0.3-0.6-0.2-4.3 0.3-5.2-0.5 0.6 0.5 0 0.2-0.6 0.5l0.5 0.5-1.2-0.1c-0.3 0.1-0.4 0-0.4 0-0.2 0 0.1-0.3-0.4-0.4-0.9 0-0.9 0.2-1.4 0.5l0.1 0.1h-0.5c-0.5 0 1.5-0.5 0.1-0.7 0 0.1-0.8 0.7-1.2 0.4 0.7 0 0.6-0.3 0.3-0.5h-0.9l0.3 0.6c-2.8 0-5.8-0.5-8.8-0.4 0-0.6-2.1-0.1-1.9-0.9l0.2 0.1c0.7-0.1-0.3-0.6-0.9-0.5 0.7 0.2-1.1 0.8 0.4 0.9l-1.1 0.4c-0.7 1.5-3.2-0.2-5 0.3 0.1 0 0.1-0.1 0.2-0.2q-0.6 0.2-1.3 0.2-0.4 0-0.8-0.1-0.5 0-0.9 0c-1.1-0.2-1.7-0.4-2.1-0.3q0.1-0.2 0.2-0.4c-0.6 0.1-1.2 0.4-1.2 0q-0.1-0.4-0.1-0.8c-0.1-0.5-0.1-1.3 0.1-2.5 0 0.1 0.1 0.3 0.2-0.1-0.1-0.2-0.3-0.6-0.4-0.8-0.1-0.3-0.1-0.7-0.1-1.2h0.1v-1.7c1.3 0-0.8-3 0.6-3.5-0.4-0.4-0.5-1.7-0.7-2.2q0.1 0 0.2-0.2c-0.7-0.6 0.2-1.9 0.1-2.6-0.1-0.5-0.4-0.3-0.6-0.1 0.5-0.9-0.6-2.6-0.4-3 0.1-0.7 0.5-0.2 0.8-0.4-0.1-1.1-1.2 0.1-0.6-1.3 0 0.2 0.1 0.5 0.1 0.4 0.1-0.5 1.6-1.5 1.3-2l-0.2 0.3c-0.3-0.9 1-2.3 0.2-2.4l-0.4 0.1c0.5-2-0.2-1.1 0.3-3h0.1c-0.1-0.6 0.1-0.9 0.1-1.2 0.1 0 0.2-0.1 0.2-0.4h-0.4c1.2-0.1 1.3 0 2.6 0 0.1-0.1 0.7-0.2 0.9 0 0.3-0.6 2.3-0.3 2.8-0.3-0.8 0.1-0.4 0.4-0.2 0.6 0.4-0.5 0.7-0.5 1.3-0.2 0.1-0.7 0.2-1.4 1.4-1.4-0.2 0.1-0.4 0.1-0.3 0.3 0.1 0.1 0.4 0 0.5-0.1 0.1 0.2-0.3 0.3-0.2 0.5 0.8-0.6 1.4 0 2.6-0.3-0.4 0.2 0 0.4 0.1 0.6 0.1-0.8 1.6 0.6 1.1-0.3 2.3 0.6 5.9 0 6.8 0.6 0.2 0.3 0.8-0.1 1.2-0.1v0.3c1.1-0.6 0.8-0.2 2.1-0.8-0.5 0.4-0.3 0.5 0.3 0.9l0.9-0.7 0.1 0.5c0.4-0.2 0.8-0.2 1.2-0.1 0.4-0.5 1.8-0.5 2-0.8 0.4 0.7 1.1-0.2 1.4 0.5q0.2-0.2 0.5-0.3c-0.2-0.3-0.3-0.6 0.1-0.5q0 0 0.1 0l0.1 0.4c0.4-0.1 0.8-0.1 1-0.1q-0.1-0.1-0.4-0.2 0.3 0.1 0.5 0.2 0.1 0 0.1 0 0 0-0.1 0c0.3 0.1 0.5 0.1 0.8 0 1.3 0.6 2.9-0.9 4.3 0-0.2-0.1-0.5-0.1-0.6 0 1.2 0 2.4 0.5 3.2 0.2l-0.1-0.3c0.9-0.2 1.6-0.3 2.3-0.3v-0.4c1 0.1 3.2-0.6 3.9 0.3 0.2-0.3 1.4 0.1 2 0l0.1 0.3c0.8 0.1 1.2 0 1.7-0.1 1.5 0.7 3 0 4.3 0.1v0.1l1.4-0.3c-0.4 0.3 0.3-0.2 0.7-0.1 0.4-0.1 1.1-0.1 1.6 0.2h0.9c-1 0.2 0.1 0.4 0.1 0.8l0.6-0.3c0.2 0.2-0.4 0.3 0 0.4 0.4-0.2 1.5-0.2 1.8-0.6q0-0.1-0.3-0.2-0.1 0 0 0 0.1-0.1 0.1-0.2c0.7 0.1 0.5-0.1 0.4-0.2 0.8 0.5 1.1 0.2 1.7 0.6-0.2-0.4 3 0.2 2.5-0.5 0.7 0.6 0.7 0 1 0.5-1.2-0.1-2.8 0.4-3.6 0.7 0.2 0.1 0.6 0.2 0.8 0.3-0.6 0.7-1.5-0.2-2 0 0.3-0.1 0.8 0 0.9 0.1l-0.2-0.5c-0.9-0.2-1.6 0.2-2.3 0.5 0.6 0.2-0.7 0.3-0.3 0.7l0.5-0.1c0.2 0.2-0.2 0.4-0.5 0.5-1.6-0.3-4.4 0-5-0.4 0.3 0.1 0.9 0 1.2-0.2l-0.7-0.2c0.5 0 1 0.5 1.9 0.3-0.1-0.3 0.5-0.8-0.2-1.2-1.7-0.6-1.4 0.8-3.4 0.7-0.2 0.1 0.5-0.5-0.6-0.4-1.4 0.4-2.4 1.1-2.4 1.8 0.6-0.2 1.8-0.6 1.9-0.1-0.5 0.2-1.5 0.3-1.6 0.7-0.6-0.6 1.1-0.2 0.3-0.7-0.4 0-0.6 0.2-0.7 0.3 0.2-0.2-0.4-0.4-0.5-0.5-1.3 0-2.1-0.3-3.4-0.4-0.1 0-0.3-0.2-0.2-0.4-0.7 0.2-1.7 1.1-1.4 1.5-0.8 0-0.9-0.3-1.5-0.1 1 0.5-0.3-0.1-0.4 0.4-0.7 0.1-0.2-0.2-0.5-0.4-0.1 0.1-0.4 0.3-0.4 0.4-0.5-0.4 0.8-1.1 0.3-1.6-0.4-0.3-1.8-0.9-1.9-1-0.4 0.5-0.3 2.5 0.2 3.2 0 0.3-0.6-0.4-0.9-0.4-0.9-0.5-1.4 0.4-2.1 0.2l0.5-0.3c-0.1-0.1-1.2 0-1.3 0.2-0.1-0.1 0.5-0.9 0.2-1.1-1.3-0.1-2.6 0.9-2.5 1.5l2-0.6c0.1 0.4-1.4 0.4-1.3 1l-1.9-0.2c0.3 0 1-0.1 0.7-0.4-0.8 0.1-0.4-0.1-0.9-0.3 0.9-0.6 2.5-2.1 3.1-2.8l-0.9 0.3-0.2-0.3c-1.3 0.4-2.4 2.2-2.8 2.7-0.7-0.1-0.4-1.1-0.2-1.3-1.5-0.1-1.4 1.4-2.9 1.3l0.6 0.2c-0.4 0.1-1.6-0.1-1.4 0-0.3-0.2-0.5-0.8-0.3-1l-1.2 0.9c0.1-0.1 0-0.9 0.1-1-0.5-0.1-0.8 0.8-0.6 1-0.9-0.5-0.7-0.2-1.5-0.9-0.3 0 0 0.8 0.3 0.9-0.7 0.2-1.1 0.1-1.4 0.1 1.1-0.4 0.3-1.9 0.5-2.5l-2.4 2.4c0.1-0.1 0.3-0.9 0.3-1-0.2 0.7-2.9 0.8-4.2 0.7h0.2c0.3-0.2-0.8-0.4-1.3-0.1 0.1-0.2 0.2-0.1 0.4-0.2-0.9-0.5-1.2 1.1-2.1 0.5 0.8 0 1-0.2 1-0.5-0.7 0.2-2.2 0-1.9 0.8-0.4-0.2-0.8-0.1-0.8-0.5l-1.6 0.5c0.1-0.1 0.2-0.3-0.3-0.4q0 0 0 0c1 0.1 1.8-0.7 2.3-0.1 0-0.5-0.3-0.8 0.1-1.3-1.7 0.3-2.7 1.2-3.8 1.8l-1.6-0.4-0.1 0.2-0.2-0.6c-0.2 0.2-0.3 0.3-0.4 0.2 0 0 0-0.1 0.1-0.2-0.2 0-0.3 0.1-0.4 0.2 0-0.4 0.2-0.7 0.5-1.1q0.2 0.2 0.5 0.4c0.3-0.3 0.5-0.6 0.1-0.8q-0.1 0-0.3 0.1c0.2-0.2 0.4-0.4 0.2-0.5l-1.2 0.3c0.1 0.1 0.3 0.2 0.6 0.4-0.8 0.4-1.6 0.9-0.9 1.3l-0.9-0.3q-0.4 0.2-0.6 0.3-0.2 0.1-0.3 0.2c-0.1 0.1-0.2 0.1-0.4 0.4-0.1-0.3 0-0.4-0.2-0.6-0.1 0.4-0.6 0.1-1.1-0.1-0.2 0.1-0.4 0.2-0.1 0.4 0.1 0.6 0.5 0.6 0.7 0.9-0.1-0.1-0.2-0.2-0.2-0.1q0.2 0.3 0.4 0.4c-0.2 0.1-0.3-0.3-0.5-0.1q0.1 0.3 0.2 0.4c0.1 0.1 0.1 0.4 0.2 0.6 0 0.4 0 0.8-0.1 1.3 0.1 1.3 0.9-0.6 0.8 0.5-0.4 0.2-0.8 0.4-0.8 1.1 0.2 0.3 0.5 0.3 0.6 0.9l-0.5-0.1c0 0.6 0.1 1.1-0.3 1.1 0.2 0.5 0.2 0.8 0.1 1.1 0.3 0.8 1.1-0.7 1.3-0.9-0.4 0.9-0.1 1.4-0.8 1.9l-0.1-0.7c-0.7 1.6 0.7 1.5-0.4 2.3 0-0.6-0.3-1.2-0.6-0.9l0.3 0.8c-0.1 0.1-0.1-0.5-0.2-0.1 0.1 0.2 0.3 0.7 0.5 0.9l0.1 1.3c-0.1-0.1-0.2-0.1-0.2 0.1l0.3 1c-0.2-0.3-0.3 0-0.4 0.4-0.2 1.2 1.2 1 0.7 1.9 0-0.1-0.1-0.1-0.1-0.3l-0.2 0.5c1.1 0.2 0.1 3 1.2 3.1-0.4 0.6-0.2 0-0.8-0.9l-0.3 0.8c-0.1-0.3 0-0.6-0.1-0.9zm7.3-18.5q0 0 0 0 0 0 0 0zm-7.4 13v-0.2q0 0.1 0 0.2zm22.3-12.8q-0.1 0-0.1 0 0 0 0.1 0zm0.4 0q0 0 0 0zm1.2-0.9q0 0 0 0zm34.3-1.4q0 0-0.1 0zm0.7-0.9q-0.2-0.2-0.3-0.2 0 0 0.3 0.2zm-2.5-0.5q0 0 0 0zm-28.5 0.2q0 0 0 0zm-5.4 0.8c-0.2 0-0.1 0.1-0.1 0.2q0-0.1 0.1-0.2zm0 0q0 0 0 0 0 0 0 0 0 0 0 0zm2.5 28.6q0 0 0.1 0-0.1 0-0.1 0zm10.2 1q0-0.1 0-0.1 0 0 0 0.1zm7.3-3.7h0.1q-0.1 0-0.1 0zm-19.2 0.1q0 0 0 0 0 0 0 0zm-9.8-0.7q0 0 0 0 0 0 0 0zm-9.4-0.1q0 0 0 0zm52.3-26.2q0 0 0 0zm-56.4 12.5c0.3-0.1 0-0.6-0.1-0.8-0.1 0.4-0.3 0.6 0.1 0.8zm4.7-9.7c0.3 0.2 0.5 0.3 0.7 0.1q-0.4-0.1-0.7-0.1zm47.9-2.7h0.1c-0.4-0.1-0.5-0.1-0.1 0zm1.1 0.2q0.1-0.1 0-0.2c0 0.1-0.3 0.1-0.5 0.1 0 0.1 0.2 0.2 0.5 0.1zm-30.4 29.9l0.2 0.1c0.1-0.1 0.2-0.2-0.2-0.1z"/>
	<path id="Layer" class="s7" d="m21.1 271.9q-0.1-0.1-0.1-0.2c-0.1 0-0.1 0.1 0.1 0.2z"/>
	<path id="Layer" class="s7" d="m18.3 294.9l0.1-0.1z"/>
	<path id="Layer" class="s7" d="m55.7 272.1q-0.3-0.1-0.4-0.2c0 0.1 0.1 0.2 0.4 0.2z"/>
	<path id="Layer" class="s7" d="m76.6 268.2q-0.2 0-0.3-0.1c-0.1 0-0.2 0-0.4 0l0.3-0.1h0.6c-0.4 0-0.2 0.1-0.2 0.2z"/>
	<path id="Layer" class="s7" d="m79.4 273.7h-0.2c-0.1-0.1 0-0.2-0.1-0.3 0.1-0.4 0.3-0.1 0.3 0.3z"/>
	<path id="Layer" class="s7" d="m77.5 269.3c-0.1 0.4 0.5 0.2 1.1 0.2q-0.1 0-0.1 0c0.4-0.5-0.4-0.3-1-0.2z"/>
	<path id="Layer" class="s7" d="m78.7 269.5c0.2 0 0.4-0.1 0.6 0 0.2-0.2-0.2-0.1-0.6 0z"/>
	<path id="Layer" class="s7" d="m72.5 268.4c0.2 0.1 0.2-0.4 0.3-0.3 0.2-0.4-1.4 0.6-0.3 0.3z"/>
	<path id="Layer" class="s7" d="m77.1 270.4q0.2-0.2 0.4-0.4 0 0.2 0 0.5z"/>
	<path id="Layer" class="s7" d="m74.9 270.1c-0.1 0-0.2 0.1-0.2 0.2l-0.7-0.2c0-0.1 0.4 0 0.9 0z"/>
	<path id="Layer" class="s7" d="m74.9 270.1c0.2 0 0.4 0 0.6-0.1-0.2 0-0.4 0.1-0.6 0.1z"/>
	<path id="Layer" class="s7" d="m75.8 270.5h0.5l0.2 0.1z"/>
	<path id="Layer" class="s7" d="m65.9 270.4c-0.3 0-0.5-0.1-0.4-0.2l0.8-0.1c0.1 0.1-0.2 0.2-0.4 0.3z"/>
	<path id="Layer" class="s7" d="m68.3 271.4v-0.5c0.1 0.1 0.1 0.2 0.3 0.3z"/>
	<path id="Layer" class="s7" d="m66.3 271.3c0 0.2-1.1 0.5-0.1 0.4 0.1-0.1 0.9-0.2 0.1-0.4z"/>
	<path id="Layer" class="s7" d="m54.7 269.8v0.9h-0.2z"/>
	<path id="Layer" class="s7" d="m44.7 272.1c-0.2 0.1 0.7 0.2 0.5 0.4-0.8-0.3-0.1 0.4-1.1 0.2-0.2-0.5 0.1-0.4 0.6-0.6z"/>
	<path id="Layer" class="s7" d="m44.7 272.1q0.2-0.1 0.3-0.2c-0.2 0.1-0.2 0.1-0.3 0.2z"/>
	<path id="Layer" class="s7" d="m77.7 297.2h0.4l-0.6 0.1z"/>
	<path id="Layer" class="s7" d="m79.2 297.1h-0.4-0.1q0.3 0 0.5 0z"/>
	<path id="Layer" class="s7" d="m18.3 278.9c0-0.3 0.1-0.4 0.2-0.5h0.1z"/>
	<path id="Layer" class="s7" d="m17.7 286.7l0.5-0.3v0.1z"/>
	<path id="Layer" class="s7" d="m18.9 293.3c0-0.2-0.1-0.6-0.1-0.8 0.1 0.6-0.6 0.9 0.1 0.8z"/>
	<path id="Layer" class="s6" d="m43.8 239.4h63.5v26.6h-63.5z"/>
	<path id="Layer" class="s7" d="m41.8 239.6c0-0.3-0.4-0.2-0.4-0.2 0 0.4 0.4 0.2 0.4 0.2z"/>
	<path id="Layer" class="s7" d="m42.8 244.6l-0.4-0.7 0.2 0.1z"/>
	<path id="Layer" class="s7" d="m42.3 245.4l0.5 0.4-0.1 0.1c-0.2 0.7 0.4 1.8-0.1 2.2 0.1-0.6-0.2-1.8-0.3-2.7z"/>
	<path id="Layer" class="s7" d="m41.3 249.9q0-0.1 0-0.1c0.1 1 0.2 0.3-0.1 0.5q0.1-0.3 0.1-0.4z"/>
	<path id="Layer" class="s7" d="m41.3 249.9c-0.1-0.5-0.2 0.2 0 0z"/>
	<path id="Layer" class="s7" d="m40.9 251.7c0.1 0.2 0.1-0.3 0.3-0.4l0.2 0.6c-0.2 0.3-0.4 0.4-0.5-0.2z"/>
	<path id="Layer" class="s7" d="m41.8 252.4l-0.1-0.3c0 0.1 0 0.1 0.1 0.3z"/>
	<path id="Layer" class="s7" d="m41.7 251.8c0.3 0.2 0.1 0.2 0 0.3l-0.1-0.6c0.1 0.3 0.3 0.4 0.1 0.3z"/>
	<path id="Layer" class="s7" d="m41.6 251.1c0.2-0.3 0.3-0.7 0.5-0.1-0.1-1.1-0.5-1-0.5 0.1z"/>
	<path id="Layer" class="s7" d="m43.1 247.5l0.2 0.4-0.1 0.4c-0.2 0 0-0.6-0.1-0.8z"/>
	<path id="Layer" class="s7" d="m41.5 254.7l0.1 0.5c-0.2 0-0.4 0.2-0.5 0.2 0.2 0 0.3-0.4 0.4-0.7z"/>
	<path id="Layer" class="s7" d="m41.6 255.2l0.2 0.6c0-0.6-0.1-0.7-0.2-0.6z"/>
	<path id="Layer" class="s7" d="m42.5 252.7l-0.5-1.2 0.5 1z"/>
	<path id="Layer" class="s7" d="m41.2 258.1l-0.4-0.6 0.3 0.3z"/>
	<path id="Layer" class="s7" d="m41 260.6c-0.2-0.3-0.4-0.7-0.5-1.1 0.2 0.3 0.4-0.4 0.6-0.1-0.2 0.5-0.2 0.9-0.1 1.2z"/>
	<path id="Layer" class="s7" d="m41.3 261.2c-0.1-0.2-0.2-0.4-0.3-0.6q0.1 0.3 0.3 0.6z"/>
	<path id="Layer" class="s7" d="m41.7 257.1l-0.3 0.3c0.1-0.4 0.3-0.5 0.3-0.5q0 0.1 0 0.2z"/>
	<path id="Layer" class="s7" d="m41.8 257.1q-0.1 0.4-0.1 0.5 0 0 0.1-0.5z"/>
	<path id="Layer" class="s7" d="m41.7 256.8v0.1q0.1-0.1 0-0.1z"/>
	<path id="Layer" class="s7" d="m42.2 254.2c0.2 0.3 0.4 1.1 0.7 0.4-0.2-0.3-0.4 0.1-0.7-0.4z"/>
	<path id="Layer" class="s7" d="m41.9 255.8c0.2 0.2 0.3 0.1 0.4 0l-0.1 0.7z"/>
	<path id="Layer" class="s7" d="m42.2 256.8v-0.3l0.1 0.3z"/>
	<path id="Layer" class="s7" d="m41.9 259.9q0 0.5-0.1 1.1c0-0.4 0-0.7-0.2-1 0-0.4 0.2-0.2 0.3-0.1z"/>
	<path id="Layer" class="s7" d="m41.7 258.6v0.1q0.1-0.1 0-0.1z"/>
	<path id="Layer" class="s7" d="m41.8 265.5h0.1q-0.1 0-0.1 0.1z"/>
	<path id="Layer" class="s7" d="m41.9 259.8q0-0.3 0-0.6c0.1 0.1 0.2 0.3 0.1 0.6 0 0.1 0 0.1-0.1 0z"/>
	<path id="Layer" class="s7" d="m41.4 262.2q0.2-0.3 0.2-0.5c-0.1 0.1-0.3 0.4-0.2 0.5z"/>
	<path id="Layer" class="s7" d="m41.6 258.8v-0.1c-0.1 0.1 0 0.1 0 0.1z"/>
	<path id="Layer" class="s7" d="m41.7 258.7q0.1 0.2 0.1 0.5-0.1-0.2-0.2-0.4 0.1-0.1 0.1-0.1z"/>
	<path id="Layer" class="s7" d="m43.8 265.6l0.1 0.3 0.4-0.1c-0.2 0.3-0.5 0.4-0.9 0.6-0.2-0.2-0.4-0.7-0.6-0.2 0.2-0.7 0.4-0.6 0.3-1.6-0.3-0.6-0.6 1.1-0.7 1.6-0.2-0.8-0.4-0.8-0.5-0.7 0.6-1.3 1.7-1.9 1.9-1.4-0.3 0.9 0 1.5 0.3 1.2-0.1 0.3-0.2 0.2-0.3 0.3z"/>
	<path id="Layer" class="s7" d="m41.8 263.3v2.2c-0.1 0-0.2-0.1-0.4-0.8 0.3-0.8 0.4-1.2 0.5-1.6v0.4z"/>
	<path id="Layer" class="s7" d="m41.9 262.4q0 0.2 0 0.3 0 0.2 0 0.4c-0.1-0.5-0.1-0.6-0.1-0.8l-0.1-0.7q0 0.1 0 0.1c0.1 0.1 0.1 0.4 0.2 0q-0.1 0-0.2 0v-0.1q0 0 0 0l-0.1 0.1q0.1-0.4 0.2-0.7 0 0.3 0.1 0.7c0.2-0.9 0.5 0.7 0.4-0.6 0.2 0.5 0.4 0.3 0.5 1.1-0.4 0.4-0.6-0.3-0.9-0.5q0 0.5 0 0.7z"/>
	<path id="Layer" class="s7" d="m43.7 255.2q-0.1 0.1-0.1 0.1c0 0.1 0.1 0.1 0.1-0.1z"/>
	<path id="Layer" class="s7" d="m42.6 256.4c0 0.1 0.5-0.6 0.6-1.1v-0.1c0.1-0.6 0.3-0.1 0.4 0.1-0.1 0-0.2-0.3-0.3 0 0 0.3 0.1 0.4 0.2 0.5-0.4 0.3-0.6 0.4-0.9 0.6z"/>
	<path id="Layer" class="s7" d="m43.1 259.3h0.1l-0.3 0.6-0.1-1.1c0.1 0 0.3-0.1 0.3 0.5z"/>
	<path id="Layer" class="s7" d="m41.8 266.6q-0.3-0.3-0.6-0.7 0.2 0 0.4 0z"/>
	<path id="Layer" class="s7" d="m42.1 268.3l-0.8 0.2 0.1-0.1 0.3-0.3z"/>
	<path id="Layer" class="s7" d="m105.3 250.7l-0.1-0.4q0 0.3 0.1 0.4z"/>
	<path id="Layer" class="s7" d="m105.3 252.9l0.1 0.1c-0.1-0.1-0.1-0.1-0.1-0.1z"/>
	<path id="Layer" class="s7" d="m78.9 268.2l0.2 0.3c0 0.4-0.5-0.1-1-0.4 0.2 0.1 0.5 0.1 0.8 0.1z"/>
	<path id="Layer" class="s7" d="m101.2 266.1q0.1-0.1 0.3-0.3l0.1 0.1q-0.2 0.1-0.4 0.2z"/>
	<path id="Layer" class="s7" d="m101.9 264.4l0.7 0.2c-0.2-0.1-0.4-0.1-0.7-0.2z"/>
	<path id="Layer" class="s7" d="m104.6 241.8q-0.2 0.2-0.3 0.3c0.1 0 0.2-0.1 0.3-0.3z"/>
	<path id="Layer" class="s7" d="m58.1 268c0.4 0.1 0.8 0.2 1 0.2-0.4-0.2-0.8-0.5-1-0.2z"/>
	<path id="Layer" class="s7" d="m109.2 251.6q-0.1-0.3-0.3-0.3c0.1 0.2 0.2 0.3 0.3 0.3z"/>
	<path id="Layer" class="s7" d="m59.1 268.2c0.4 0.1 0.7 0 1-0.1q0.1 0.1 0.2 0.1c-0.4 0.3-0.8 0.2-1.2 0z"/>
	<path id="Layer" class="s7" d="m60.8 241.5q0 0-0.1-0.1 0 0.1 0.1 0.1z"/>
	<path id="Layer" class="s7" d="m47.6 237.8c0.2-0.1 0.4-0.1 0.6-0.1-0.1 0-0.3 0-0.6 0.1z"/>
	<path id="Layer" class="s7" d="m49.5 268.3c-0.3 0-0.1 0 0 0z"/>
	<path id="Layer" class="s7" d="m48 266.8q0.1 0 0.1-0.1 0 0.1-0.1 0.1z"/>
	<path id="Layer" class="s7" d="m63.2 265.9h0.1c-0.1 0-0.1 0-0.1 0z"/>
	<path id="Layer" class="s7" d="m49 268.1q0.2 0.1 0.4 0.1-0.1 0-0.4-0.1z"/>
	<path id="Layer" class="s7" d="m49.1 268.3q-0.2 0-0.3 0c0 0 0 0.1 0.3 0z"/>
	<path id="Layer" class="s7" d="m49.5 268.3q0 0-0.1-0.1 0.2 0.1 0.5 0.1c-0.2 0-0.3 0-0.4 0z"/>
	<path id="Layer" class="s7" d="m85.1 240.5q0 0-0.1 0c-0.3 0.1-0.1 0.1 0.1 0z"/>
	<path id="Layer" class="s7" d="m85.9 264.3h-0.1q0 0 0 0z"/>
	<path id="Layer" class="s7" d="m86.2 265.4l-0.4-1.1c0.4 0.1 0.6 0.2 1.1-0.3z"/>
	<path id="Layer" fill-rule="evenodd" class="s7" d="m105.3 245.9c0.5-0.9-0.1-1.9-0.4-2.4 0.2-0.4 0.8 0.3 0.7-0.8-0.1-0.2-0.1-0.2-0.1-0.3q-0.1 0-0.2 0c-0.1 0-0.2 0-0.3 0-0.2 0.1-0.3 0.1-0.4 0.1q0.3-0.1 0.6-0.3c-0.3-0.2-0.2-0.3-0.1-0.7q-0.1-0.1-0.2-0.1-0.1 0.1-0.2 0.2c-0.1-0.2-0.4 0-0.5 0.1 0.1 0.2-0.6 0.4-1 0.3 0.2-0.2-0.4-0.4-0.5-0.6l-1.4 0.4c0.6-0.2 0.6-0.5 0.7-0.8-0.4 0-0.7 0.2-1 0.3 0.2-0.2 0.4-0.3 0.2-0.4l-1.5 0.5c0.1 0.1 0.3 0.1 0.4 0.1-0.4 0-1.2 0.3-1.7 0 0-0.2 0.2-0.3 0.3-0.4 0.4 0.4 0.7 0 0.9-0.2-1 0-0.3-0.1-0.8-0.3-0.7 0-1 0.4-0.8 0.7-0.8-0.1-1.1-0.2-1.9 0.1l0.2-0.4-0.8 0.1 0.6-0.6c-1.5-0.3-0.3 0.8-1.9 0.6v-0.4c-0.6 0.1-0.8 0.8-1.3 0.3-0.6 0.3 1 0.6-0.4 0.7-0.2-0.2-0.8-0.4-1.2-0.5-0.4 0.2 0.2 0.5 0.6 0.5-2.1 0.1-1.3-1.4-3.2-0.9 0.6 0.3-0.6 0.8 1 0.8-0.8 0.2-1.5-0.6-2.3-0.1l0.6-0.6c-0.3 0-0.6 0.2-0.8 0.3l0.1-0.4c-1 0.7-1.8-0.4-2.4 0.6 0.4-0.8-0.7 0-1.1-0.3 0.8-0.5 2.3 0 2.4-0.6-0.4-0.2-0.7 0.1-1.1-0.1 0.3-0.1 0.6-0.3 0.7-0.4-1.2-0.4-1.9 0.4-2.6 0.6l1.3-0.2c-0.1 0.7-0.6 0.1-1 0.6-0.6-0.3-1.1 0.2-1.7 0 0.2 0 0.2-0.1 0.3-0.1-1.4 0-1.8-1-2.3-1.1-0.6-0.1-1.7 0.3-1.3 0.6-0.4 0.2 1.9-0.2 1.1 0.7-0.8-1-1.7 0.3-3.4-0.4 0.8-0.3-0.5-0.5 0.2-0.8-0.8 0.1-0.9 0.2-1.2 0.5l-0.3-0.3c-1.1 0.7-0.3 0.6-1.9 1 0.5-0.2-0.7-0.4-0.3-0.7-0.4 0-0.9 0.1-1.2 0.3v-0.1c-1.6 0.2-1.3-0.3-2.9 0l0.2 0.2c-2 0.5-4.6 0.2-6.6 0.4l0.6 0.1c-0.3 0-1.4 0.3-2 0.1 0.2-0.1 0.4-0.1 0.5-0.1 0-0.2-0.3-0.5-0.8-0.6l-0.2 0.3-0.2-0.2c-0.7 0 0.3 0.4-0.5 0.4-0.4-0.9-3.3-0.1-3.9-0.9-0.6 0.7 1.4 0.1 0.8 0.7-0.2-0.1-0.3-0.2-0.8-0.3l0.2 0.4c-2.3-0.2-3.2-0.6-5.2-0.5v-0.1c-0.7-0.1-1.1 0-1.4 0.3-0.2-0.2 0.4-0.3 0.1-0.4-1.3 1-2.6-0.8-3.4-0.1 0.1-0.8-1.6-1.6-0.9-2.2l-0.5 0.1c0.2-0.5 1.7 0 2-0.6l1.6 0.6c0-0.2 0.3-0.5 0-0.6 0.4 0 0.8 0 0.2-0.3 4 1.4 8.1 0.1 12 0.8 0.3-0.1 0.1-0.3 0-0.4 0.7 0.5 0.7-0.2 1.1-0.3l1 0.7c0.5-0.2 0.1-0.4 0.2-0.6 2-0.1 3.9 0.6 5.5 0.2 0.5 0.2-0.1 0.6 0.6 0.7-0.9-0.8 1.7-0.4 1.4-0.9 0.7 0.7 2.4 0.2 2.1 1.3 0.8 0 0.7-0.5 0.5-0.6 0.9 0 1.7 0 2.4-0.3 0.5 0.2 4.3-0.3 5.2 0.5-0.6-0.5 0-0.2 0.6-0.5l-0.5-0.5 1.2 0.1c0.3-0.1 0.3 0 0.3 0 0.3 0 0 0.3 0.5 0.4 0.9 0 0.9-0.2 1.4-0.5h-0.2l0.6-0.1c0.4 0-1.5 0.5-0.1 0.7 0-0.1 0.8-0.7 1.2-0.4-0.7 0-0.6 0.3-0.4 0.5h1l-0.3-0.6c2.8 0 5.8 0.5 8.8 0.4-0.1 0.6 2.1 0.1 1.8 0.9l-0.1-0.1c-0.7 0.1 0.3 0.6 0.9 0.5-0.7-0.2 1.1-0.8-0.4-0.9l1.1-0.3c0.7-1.6 3.2 0.1 5-0.4-0.1 0-0.2 0.1-0.2 0.2q0.6-0.2 1.3-0.2 0.4 0.1 0.8 0.1 0.4 0 0.9 0.1c1 0.1 1.7 0.3 2.1 0.1q-0.1 0.2-0.2 0.4 0.6-0.1 1-0.2c0.4 0.8 0.4 1.5 0.2 3.5-0.1 0-0.2-0.3-0.3 0.1 0.2 0.2 0.3 0.5 0.4 0.9 0.1 0.3 0.2 0.7 0.2 1.2h-0.2l0.1 1.7c-1.3 0 0.8 3-0.6 3.5 0.4 0.4 0.5 1.7 0.7 2.2q-0.1 0-0.2 0.2c0.7 0.6-0.2 1.9-0.2 2.6 0.2 0.5 0.4 0.3 0.7 0.1-0.6 0.9 0.6 2.6 0.3 3 0 0.7-0.5 0.2-0.7 0.4 0.1 1.1 1.1-0.1 0.6 1.3 0-0.2-0.1-0.5-0.2-0.4-0.1 0.5-1.5 1.5-1.2 2l0.2-0.3c0.3 0.9-1.1 2.3-0.2 2.4h0.4c-0.5 1.9 0.1 1-0.3 3l-0.1-0.1c0.1 0.6-0.1 0.9-0.1 1.2-0.2 0-0.2 0.1-0.2 0.4h0.4c-1.2 0.1-1.3 0-2.6 0-0.1 0.1-0.7 0.2-0.9 0-0.3 0.6-2.4 0.3-2.8 0.3 0.8-0.1 0.4-0.4 0.2-0.6-0.4 0.5-0.7 0.5-1.4 0.2-0.1 0.7-0.2 1.4-1.4 1.4 0.2-0.1 0.5-0.1 0.4-0.3-0.1-0.1-0.4 0-0.5 0.1-0.1-0.1 0.3-0.3 0.1-0.5-0.8 0.7-1.4 0.1-2.5 0.3 0.3-0.2 0-0.4-0.1-0.6-0.1 0.8-1.6-0.6-1.2 0.3-2.3-0.6-5.8 0-6.7-0.6-0.2-0.3-0.9 0.1-1.3 0.1l0.1-0.3c-1.1 0.6-0.9 0.2-2.2 0.8 0.6-0.4 0.3-0.5-0.2-0.9l-0.9 0.7-0.2-0.5c-0.3 0.2-0.7 0.2-1.2 0.1-0.3 0.5-1.7 0.5-2 0.8-0.4-0.7-1 0.2-1.3-0.5q-0.2 0.2-0.5 0.3c0.2 0.3 0.3 0.6-0.1 0.5q-0.1 0-0.1 0l-0.2-0.4c-0.3 0.1-0.7 0.1-1 0.1q0.2 0.1 0.4 0.2-0.2-0.1-0.4-0.2-0.1 0-0.2 0 0.1 0 0.1 0c-0.2-0.1-0.4-0.1-0.7 0-1.3-0.6-2.9 0.9-4.4 0 0.3 0.1 0.6 0.1 0.6 0-1.2 0-2.3-0.5-3.1-0.2l0.1 0.4c-0.9 0.1-1.6 0.3-2.3 0.2v0.5c-1.1-0.2-3.3 0.5-3.9-0.4-0.3 0.3-1.4-0.1-2 0l-0.1-0.3c-0.8-0.1-1.3 0-1.7 0.1-1.6-0.7-3 0-4.3-0.1l-0.1-0.1-1.3 0.3c0.3-0.3-0.3 0.2-0.7 0.1-0.4 0.2-1.1 0.1-1.7-0.1l-0.8-0.1c0.9-0.2-0.1-0.4-0.1-0.8l-0.6 0.3c-0.2-0.2 0.4-0.3-0.1-0.4-0.3 0.2-1.4 0.2-1.8 0.6q0.1 0.1 0.4 0.2 0 0 0 0.1-0.1 0-0.2 0.1c-0.7-0.1-0.4 0.1-0.4 0.3-0.4-0.3-0.7-0.4-1-0.4-0.1-0.1-0.2-0.1-0.4-0.2q-0.3 0-0.5-0.2c0.6 0.6-2.9-0.1-2.5 0.6-0.6-0.6-0.7 0-0.9-0.5 1.2 0.2 2.8-0.4 3.6-0.6q-0.4-0.2-0.8-0.4c0.4-0.3 0.8-0.3 1.2-0.2 0.4 0.2 0.7 0.3 0.9 0.2-0.2 0.2-0.8 0.1-0.8-0.1l0.1 0.5c1 0.2 1.7-0.2 2.4-0.5-0.7-0.1 0.7-0.3 0.3-0.6h-0.5c-0.3-0.2 0.2-0.3 0.5-0.5 1.5 0.4 4.4 0.1 5 0.5-0.4-0.2-0.9-0.1-1.2 0.1l0.7 0.2c-0.6 0-1-0.4-1.9-0.3 0.1 0.4-0.5 0.8 0.1 1.3 1.7 0.5 1.4-0.9 3.4-0.8 0.2-0.1-0.4 0.6 0.7 0.4 1.3-0.3 2.3-1.1 2.3-1.8-0.5 0.2-1.7 0.6-1.9 0.1 0.6-0.2 1.6-0.3 1.7-0.6 0.6 0.6-1.1 0.1-0.3 0.6 0.4 0 0.5-0.2 0.7-0.3-0.2 0.3 0.4 0.4 0.5 0.6 1.3 0 2 0.2 3.4 0.3 0.1 0.1 0.2 0.3 0.2 0.4 0.7-0.2 1.7-1 1.4-1.4 0.8 0 0.8 0.3 1.5 0.1-1.1-0.5 0.2 0.1 0.3-0.5 0.7-0.1 0.3 0.3 0.6 0.4 0.1-0.1 0.4-0.2 0.4-0.4 0.4 0.4-0.8 1.1-0.3 1.6 0.3 0.4 1.8 0.9 1.9 1 0.4-0.5 0.3-2.5-0.2-3.2 0-0.3 0.6 0.4 0.9 0.4 0.9 0.6 1.4-0.4 2.1-0.2l-0.6 0.3c0.1 0.2 1.2 0 1.4-0.2 0 0.2-0.6 1-0.2 1.2 1.3 0.1 2.5-1 2.4-1.5l-2 0.6c0-0.5 1.5-0.5 1.4-1.1l1.8 0.2c-0.2 0-0.9 0.1-0.6 0.4 0.8 0 0.4 0.1 0.9 0.3-0.9 0.6-2.6 2.1-3.2 2.9l1-0.3 0.2 0.2c1.3-0.3 2.4-2.2 2.7-2.7 0.7 0.1 0.5 1.2 0.3 1.4 1.4 0 1.4-1.5 2.8-1.3l-0.5-0.2c0.3-0.1 1.5 0.1 1.4-0.1 0.3 0.2 0.5 0.8 0.3 1l1.2-0.9c-0.2 0.2-0.1 0.9-0.1 1.1 0.4 0 0.8-0.9 0.6-1.1 0.9 0.6 0.7 0.3 1.5 1 0.2-0.1-0.1-0.9-0.3-1 0.7-0.2 1.1-0.1 1.4 0-1.1 0.3-0.3 1.8-0.5 2.4l2.3-2.4c-0.1 0.1-0.2 0.9-0.2 1 0.2-0.7 2.8-0.8 4.2-0.7h-0.2c-0.3 0.2 0.8 0.4 1.3 0.2-0.1 0.1-0.2 0.1-0.4 0.1 0.9 0.5 1.1-1.1 2-0.5-0.8 0-0.9 0.3-0.9 0.6 0.7-0.3 2.2 0 1.9-0.9 0.4 0.2 0.8 0.1 0.8 0.5l1.6-0.5c-0.1 0.1-0.2 0.4 0.2 0.4-0.9-0.1-1.8 0.7-2.2 0.2-0.1 0.5 0.3 0.8-0.2 1.2 1.8-0.2 2.8-1.1 3.9-1.7l1.6 0.3v-0.2l0.3 0.6c0.2-0.1 0.3-0.3 0.4-0.2 0 0.1-0.1 0.1-0.1 0.2 0.1 0 0.3-0.1 0.4-0.1 0 0.3-0.3 0.7-0.6 1q-0.2-0.2-0.4-0.3c-0.3 0.3-0.5 0.6-0.1 0.8q0.1-0.1 0.2-0.2c-0.2 0.3-0.3 0.5-0.1 0.5l1.2-0.2c-0.2-0.1-0.4-0.3-0.6-0.5 0.7-0.4 1.6-0.9 0.9-1.3l0.9 0.4q0.4-0.2 0.6-0.3 0.1-0.1 0.2-0.2c0.1-0.1 0.3-0.2 0.5-0.4 0.1 0.2 0 0.4 0.2 0.5 0.1-0.4 0.5-0.1 1.1 0.2 0.2-0.1 0.3-0.2 0.1-0.5-0.2-0.6-0.5-0.5-0.7-0.9 0.1 0.1 0.2 0.2 0.2 0.1q-0.2-0.2-0.4-0.4c0.1-0.1 0.3 0.3 0.5 0.1q-0.2-0.2-0.2-0.4c-0.1-0.1-0.2-0.4-0.2-0.6-0.1-0.4-0.1-0.8 0-1.3-0.1-1.3-0.8 0.6-0.7-0.5 0.3-0.2 0.7-0.3 0.8-1-0.2-0.4-0.5-0.3-0.7-1l0.6 0.1c-0.1-0.6-0.2-1.1 0.3-1.1-0.3-0.4-0.2-0.8-0.1-1-0.3-0.9-1.1 0.6-1.4 0.8 0.5-0.8 0.2-1.4 0.9-1.9l0.1 0.8c0.7-1.7-0.8-1.6 0.4-2.3 0 0.5 0.2 1.2 0.5 0.9l-0.3-0.9c0.2-0.1 0.1 0.5 0.3 0.1-0.1-0.2-0.4-0.7-0.6-0.9h0.1l-0.1-1.3c0 0.2 0.2 0.2 0.2-0.1l-0.3-0.9c0.1 0.3 0.3 0 0.4-0.5 0.1-1.2-1.2-1-0.7-1.9 0 0.1 0.1 0.2 0.1 0.3l0.2-0.5c-1.2-0.1-0.1-2.9-1.3-3 0.5-0.7 0.3-0.1 0.9 0.8l0.3-0.7c0 0.3-0.1 0.6 0.1 0.7zm0.1 5.7v0.1q0 0 0-0.1zm-7.5 12.9q0 0 0 0 0 0 0 0zm-14.8-0.2q0 0 0.1 0-0.1 0-0.1 0zm-0.4 0q0 0 0 0zm-1.3 1q0.1-0.1 0.1-0.1zm-34.3 1.4q0 0 0 0.1zm-0.8 0.9q0.1 0 0.2 0.1-0.1-0.1-0.2-0.1zm2.7 0.4v0.1q0 0 0-0.1zm33.9-1c0.2 0 0.1-0.1 0.1-0.2q0 0.1-0.1 0.2zm0 0q0 0 0 0 0 0 0 0 0 0 0 0zm-2.6-28.6q0 0 0 0 0 0 0 0zm-10.2-0.9q0.1 0 0.1 0 0 0-0.1 0zm-7.2 3.8h-0.1q0 0 0.1 0zm19.2-0.4q0 0 0 0 0 0 0 0zm9.8 0.8q0 0-0.1 0 0.1 0 0.1 0zm9.4 0.1q0 0 0 0zm-52.3 26.2q0 0 0 0zm56.3-12.5c-0.2 0.2 0.1 0.6 0.1 0.8 0.2-0.3 0.4-0.5-0.1-0.8zm-4.6 9.7c-0.3-0.2-0.6-0.2-0.7-0.1q0.4 0.2 0.7 0.1zm-48 2.7v0.1c0.3 0 0.5 0.1 0-0.1zm-1-0.1q-0.1 0.1-0.1 0.1c0.1-0.1 0.3-0.1 0.6 0-0.1-0.1-0.2-0.2-0.5-0.1zm30.4-30l-0.2-0.1c-0.1 0.2-0.2 0.3 0.2 0.1z"/>
	<path id="Layer" class="s7" d="m101.9 264.6q0.1 0.1 0.1 0.2c0.1-0.1 0.1-0.2-0.1-0.2z"/>
	<path id="Layer" class="s7" d="m104.6 241.7v0.1z"/>
	<path id="Layer" class="s7" d="m67.2 264.3q0.3 0.1 0.4 0.2c0-0.1-0.1-0.1-0.4-0.2z"/>
	<path id="Layer" class="s7" d="m46 268.3c0.3 0 0.5 0.1 1 0.1l-1.1 0.1c0.3 0 0.2-0.2 0.1-0.2z"/>
	<path id="Layer" class="s7" d="m43.6 262.8l0.2-0.1c0 0.1 0 0.2 0 0.3 0 0.4-0.2 0.2-0.2-0.2z"/>
	<path id="Layer" class="s7" d="m45.4 267.1c0-0.3-0.5-0.2-1.1-0.1q0 0 0.1 0c-0.5 0.4 0.3 0.3 1 0.1z"/>
	<path id="Layer" class="s7" d="m44.1 267q-0.3 0-0.5 0c-0.3 0.2 0.2 0 0.5 0z"/>
	<path id="Layer" class="s7" d="m50.4 268c-0.2-0.1-0.1 0.5-0.2 0.3-0.3 0.5 1.4-0.5 0.2-0.3z"/>
	<path id="Layer" class="s7" d="m45.8 266.1l-0.4 0.3q0-0.2 0-0.4z"/>
	<path id="Layer" class="s7" d="m48.1 266.3c0.1 0 0.2 0 0.2-0.1l0.7 0.1c0 0.1-0.5 0-0.9 0z"/>
	<path id="Layer" class="s7" d="m48.1 266.3c-0.2 0-0.5 0-0.6 0.1 0.1 0 0.4 0 0.6-0.1z"/>
	<path id="Layer" class="s7" d="m47.1 266h-0.5l-0.2-0.1z"/>
	<path id="Layer" class="s7" d="m57.1 266.1c0.3-0.1 0.5 0 0.4 0.2l-0.8 0.1c-0.1-0.2 0.2-0.2 0.4-0.3z"/>
	<path id="Layer" class="s7" d="m54.7 265v0.6c-0.1-0.2-0.1-0.3-0.4-0.4z"/>
	<path id="Layer" class="s7" d="m56.6 265.1c0.1-0.1 1.2-0.4 0.2-0.4-0.1 0.2-0.9 0.3-0.2 0.4z"/>
	<path id="Layer" class="s7" d="m68.3 266.6l-0.1-0.8h0.2z"/>
	<path id="Layer" class="s7" d="m78.3 264.4c0.2-0.2-0.7-0.2-0.5-0.4 0.8 0.2 0.1-0.5 1.1-0.3 0.2 0.6-0.1 0.5-0.6 0.7z"/>
	<path id="Layer" class="s7" d="m78.3 264.4q-0.2 0-0.3 0.1c0.1-0.1 0.2-0.1 0.3-0.1z"/>
	<path id="Layer" class="s7" d="m45.2 237.4l-0.3-0.3 0.6 0.2z"/>
	<path id="Layer" class="s7" d="m43.8 237.9l0.4-0.5 0.1 0.5c-0.1-0.1-0.4 0-0.5 0z"/>
	<path id="Layer" class="s7" d="m104.6 257.5c0 0.3 0 0.4-0.1 0.5h-0.2z"/>
	<path id="Layer" class="s7" d="m105.2 249.8l-0.5 0.2 0.1-0.1z"/>
	<path id="Layer" class="s7" d="m104.1 243.1c0 0.3 0.1 0.6 0.1 0.9-0.1-0.6 0.5-1-0.1-0.9z"/>
	<path id="Layer" class="s6" d="m157.3 141.3h59.3v24.8h-59.3z"/>
	<path id="Layer" class="s7" d="m216.6 165.9c0 0.1 0 0.2 0 0.2 0-0.4 0-0.1 0-0.2z"/>
	<path id="Layer" class="s7" d="m216.8 161.3l0.1 0.6v-0.1z"/>
	<path id="Layer" class="s7" d="m217 160.5l-0.1-0.3v-0.1c0.2-0.7-0.1-1.7 0.2-2.1-0.1 0.6 0 1.7-0.1 2.5z"/>
	<path id="Layer" class="s7" d="m217.8 156.4q0 0 0 0.1c0-1 0-0.4 0.1-0.5q0 0.2-0.1 0.4z"/>
	<path id="Layer" class="s7" d="m217.8 156.4c0 0.4 0.2-0.3 0 0z"/>
	<path id="Layer" class="s7" d="m218.3 154.6c-0.1-0.2-0.2 0.3-0.3 0.4v-0.5c0.2-0.3 0.3-0.4 0.3 0.1z"/>
	<path id="Layer" class="s7" d="m217.8 154v0.3c0-0.1 0.1-0.2 0-0.3z"/>
	<path id="Layer" class="s7" d="m217.8 154.5c-0.2-0.1-0.1-0.2 0-0.2l0.1 0.5c-0.1-0.2-0.2-0.3-0.1-0.3z"/>
	<path id="Layer" class="s7" d="m217.8 155.2c-0.1 0.3-0.2 0.7-0.3 0.1 0 1 0.2 0.9 0.3-0.1z"/>
	<path id="Layer" class="s7" d="m216.8 158.6v-0.4-0.4c0.1 0 0 0.6 0 0.8z"/>
	<path id="Layer" class="s7" d="m218.3 151.8l-0.1-0.4c0.1 0 0.3-0.2 0.4-0.2-0.2 0-0.3 0.4-0.3 0.6z"/>
	<path id="Layer" class="s7" d="m218.2 151.4l-0.1-0.6c-0.1 0.5 0 0.6 0.1 0.6z"/>
	<path id="Layer" class="s7" d="m217.4 153.7q0.1 0.6 0.2 1.2l-0.2-1z"/>
	<path id="Layer" class="s7" d="m218.8 148.7l0.3 0.6-0.2-0.4z"/>
	<path id="Layer" class="s7" d="m219.3 146.3c0.1 0.3 0.2 0.7 0.2 1.1-0.1-0.3-0.3 0.3-0.5 0 0.2-0.4 0.3-0.8 0.3-1.1z"/>
	<path id="Layer" class="s7" d="m219 145.8q0.1 0.2 0.2 0.5 0-0.3-0.2-0.5z"/>
	<path id="Layer" class="s7" d="m218.2 149.6l0.4-0.3c-0.1 0.4-0.3 0.5-0.4 0.5q0-0.1 0-0.2z"/>
	<path id="Layer" class="s7" d="m218.2 149.6q0.1-0.4 0.1-0.5c0 0 0 0.2-0.1 0.5z"/>
	<path id="Layer" class="s7" d="m218.2 149.9v-0.1q0 0 0 0.1z"/>
	<path id="Layer" class="s7" d="m217.7 152.3c-0.1-0.3-0.2-1-0.5-0.3 0.2 0.2 0.3-0.2 0.5 0.3z"/>
	<path id="Layer" class="s7" d="m218 150.8c-0.1-0.1-0.2 0-0.3 0l0.1-0.6z"/>
	<path id="Layer" class="s7" d="m217.9 149.9l-0.1 0.3v-0.4z"/>
	<path id="Layer" class="s7" d="m218.3 147q0-0.5 0.2-1c0 0.3 0 0.6 0.1 0.9 0 0.3-0.2 0.2-0.3 0.1z"/>
	<path id="Layer" class="s7" d="m218.4 148.2v-0.1c0 0.1-0.1 0.1 0 0.1z"/>
	<path id="Layer" class="s7" d="m218.5 141.5q0 0 0-0.1z"/>
	<path id="Layer" class="s7" d="m218.3 147q0 0.4 0 0.7c-0.1-0.2-0.1-0.3-0.1-0.6 0-0.1 0.1-0.1 0.1-0.1z"/>
	<path id="Layer" class="s7" d="m219 144.9q-0.2 0.2-0.3 0.4c0.1-0.1 0.4-0.4 0.3-0.4z"/>
	<path id="Layer" class="s7" d="m218.5 148v0.1c0.1-0.1 0-0.1 0-0.1z"/>
	<path id="Layer" class="s7" d="m218.4 148.1q-0.1-0.2-0.1-0.4c0.1 0.1 0.1 0.2 0.2 0.3q-0.1 0.1-0.1 0.1z"/>
	<path id="Layer" class="s7" d="m216.6 141.7l-0.1-0.3c0 0-0.1 0-0.2 0l-0.2 0.1q0.1-0.2 0.4-0.4 0.2-0.1 0.4-0.2 0 0.1 0.1 0.1c0.1 0.2 0.3 0.4 0.5 0-0.1 0.7-0.4 0.7-0.2 1.5 0.3 0.5 0.5-1.1 0.6-1.6 0.3 0.7 0.4 0.7 0.6 0.6-0.3 0.6-0.7 1.2-1.1 1.4-0.4 0.3-0.7 0.4-0.9 0.2 0.4-0.9 0.1-1.4-0.2-1.1 0.1-0.3 0.2-0.2 0.3-0.3z"/>
	<path id="Layer" class="s7" d="m218.6 143.6c-0.1-0.7 0-1.5-0.1-2.1 0.1 0 0.3 0 0.5 0.7-0.3 0.8-0.4 1.2-0.5 1.7v-0.4z"/>
	<path id="Layer" class="s7" d="m218.5 144.6c0-0.2 0-0.5 0-0.7 0.1 0.8 0.2 1 0.2 1.5q-0.1 0-0.1 0c0-0.2 0-0.4-0.1-0.1q0.1 0.1 0.2 0v0.1c-0.1 0 0 0 0 0v-0.1q-0.1 0.3-0.2 0.7 0-0.3 0-0.7c-0.3 0.9-0.5-0.7-0.5 0.5-0.1-0.4-0.4-0.2-0.4-0.9 0.4-0.4 0.6 0.2 0.9 0.4q0-0.4 0-0.7z"/>
	<path id="Layer" class="s7" d="m216.7 151.3q0 0 0 0c0-0.1 0-0.1 0 0z"/>
	<path id="Layer" class="s7" d="m217.5 150.2c0 0-0.4 0.6-0.5 1.1l0.1 0.1c-0.2 0.5-0.3 0.1-0.4-0.1 0.1 0 0.2 0.2 0.2 0 0.1-0.3 0-0.4-0.1-0.5 0.3-0.3 0.5-0.4 0.7-0.6z"/>
	<path id="Layer" class="s7" d="m217.2 147.5h-0.1l0.3-0.5 0.1 1c-0.1 0-0.3 0.1-0.3-0.5z"/>
	<path id="Layer" class="s7" d="m218.5 140.5q0.3 0.3 0.6 0.6h-0.4z"/>
	<path id="Layer" class="s7" d="m218 139c0.2 0 0.5-0.1 0.7-0.2l-0.3 0.4z"/>
	<path id="Layer" class="s7" d="m159.3 155.6l0.1 0.3q0-0.2-0.1-0.3z"/>
	<path id="Layer" class="s7" d="m159.4 153.5l-0.2-0.1c0.1 0.1 0.1 0.2 0.2 0.1z"/>
	<path id="Layer" class="s7" d="m183.8 139.1l-0.1-0.3c-0.1-0.4 0.4 0.1 0.8 0.4q-0.2-0.1-0.7-0.1z"/>
	<path id="Layer" class="s7" d="m163 141.1q-0.1 0.2-0.2 0.4l-0.2-0.1q0.2-0.1 0.4-0.3z"/>
	<path id="Layer" class="s7" d="m162.3 142.9l-0.6-0.2c0.2 0.1 0.4 0.1 0.6 0.2z"/>
	<path id="Layer" class="s7" d="m160 163.9q0.2-0.2 0.3-0.4c-0.1 0-0.2 0.2-0.3 0.4z"/>
	<path id="Layer" class="s7" d="m203.2 139.3c-0.4-0.1-0.7-0.2-0.9-0.2 0.4 0.2 0.8 0.5 0.9 0.2z"/>
	<path id="Layer" class="s7" d="m155.4 154.8q0.1 0.2 0.3 0.2-0.1-0.3-0.3-0.2z"/>
	<path id="Layer" class="s7" d="m202.3 139.1c-0.4-0.1-0.6 0-0.9 0.1q-0.1-0.1-0.2-0.1c0.4-0.3 0.7-0.2 1.1 0z"/>
	<path id="Layer" class="s7" d="m200.7 164.5q0 0 0.1 0 0 0-0.1 0z"/>
	<path id="Layer" class="s7" d="m213 166.5q-0.2 0-0.5 0 0.1 0 0.5 0z"/>
	<path id="Layer" class="s7" d="m211.3 139c0.3 0 0 0 0 0z"/>
	<path id="Layer" class="s7" d="m212.6 140.4q-0.1 0.1-0.1 0.2 0.1-0.1 0.1-0.2z"/>
	<path id="Layer" class="s7" d="m198.4 141.4c0.1 0 0.1 0 0 0z"/>
	<path id="Layer" class="s7" d="m211.7 139.2q-0.2-0.1-0.3-0.1 0 0 0.3 0.1z"/>
	<path id="Layer" class="s7" d="m211.6 139q0.2 0 0.3 0c0 0 0-0.1-0.3 0z"/>
	<path id="Layer" class="s7" d="m211.3 139q0 0 0 0.1-0.2-0.1-0.4-0.1 0.3 0 0.4 0z"/>
	<path id="Layer" class="s7" d="m178 165q0.1 0 0.1 0.1c0.3-0.2 0.2-0.2-0.1-0.1z"/>
	<path id="Layer" class="s7" d="m177.3 143h0.1q-0.1 0-0.1 0z"/>
	<path id="Layer" class="s7" d="m177 141.9l0.3 1.1c-0.3-0.1-0.5-0.2-0.9 0.3z"/>
	<path id="Layer" fill-rule="evenodd" class="s7" d="m159.4 159.9c-0.5 1 0.1 1.8 0.4 2.3-0.2 0.4-0.9-0.3-0.7 0.7 0 0.3 0.1 0.3 0.1 0.3q0.1 0.1 0.1 0.1 0.2 0 0.3-0.1c0.2 0 0.4-0.1 0.5 0q-0.3 0.1-0.6 0.3c0.2 0.1 0.2 0.1 0.2 0.3 0 0.1-0.1 0.2-0.1 0.3q0 0 0.1 0.1 0.2-0.1 0.3-0.2c0 0.1 0.3 0 0.4-0.2q0.1-0.2 0.2-0.3 0.3-0.1 0.6 0c-0.2 0.1 0.4 0.4 0.5 0.5l1.3-0.3c-0.6 0.1-0.6 0.5-0.7 0.8 0.4-0.1 0.6-0.3 0.9-0.3-0.2 0.1-0.3 0.2-0.1 0.4l1.4-0.6c-0.1 0-0.3-0.1-0.4-0.1 0.3 0 1.1-0.2 1.6 0.1-0.1 0.1-0.2 0.2-0.3 0.4-0.4-0.4-0.6-0.1-0.8 0.2 0.9-0.1 0.2 0.1 0.7 0.3 0.6 0 0.9-0.5 0.7-0.8 0.8 0.2 1 0.3 1.8-0.1l-0.1 0.5 0.7-0.2-0.6 0.6c1.4 0.3 0.2-0.8 1.8-0.5v0.4c0.5-0.2 0.7-0.9 1.2-0.4 0.6-0.2-1-0.5 0.4-0.6 0.2 0.2 0.7 0.3 1.1 0.4 0.4-0.2-0.2-0.4-0.5-0.4q0 0 0 0 0 0 0 0c1.9-0.2 1.2 1.4 2.9 0.8-0.6-0.3 0.5-0.8-0.9-0.7 0.7-0.3 1.4 0.5 2.1 0.1l-0.5 0.5c0.3 0 0.6-0.2 0.7-0.2v0.4c0.9-0.7 1.6 0.3 2.2-0.6-0.4 0.7 0.6 0 1 0.2-0.8 0.6-2.1 0-2.2 0.7 0.3 0.2 0.6-0.1 0.9 0.1-0.2 0.1-0.5 0.3-0.6 0.4 1.1 0.4 1.8-0.4 2.5-0.6l-1.2 0.2c0.1-0.7 0.5-0.2 0.8-0.7 0.6 0.4 1.1-0.2 1.6 0.1-0.1 0-0.1 0-0.2 0 1.3 0 1.6 1.1 2.2 1.1 0.5 0.1 1.5-0.2 1.1-0.5 0.4-0.2-1.7 0.2-1-0.7 0.8 1 1.6-0.4 3.2 0.3-0.7 0.4 0.4 0.6-0.2 0.9 0.8-0.1 0.8-0.3 1.2-0.6l0.2 0.4c1-0.7 0.2-0.7 1.8-1-0.5 0.2 0.6 0.4 0.2 0.6 0.4 0.1 0.9 0 1.2-0.2h-0.1c1.6-0.1 1.3 0.4 2.7 0l-0.1-0.1c1.9-0.7 4.2-0.1 6.2-0.1l-0.6-0.2c0.3 0 1.2-0.1 1.8 0.1-0.1 0.1-0.3 0.1-0.4 0.1 0 0.1 0.2 0.4 0.7 0.5l0.2-0.3 0.2 0.3c0.7 0-0.3-0.4 0.5-0.4 0.4 0.7 3 0.4 3.6 0.9 0.5-0.3-1.3-0.1-0.8-0.5 0.2 0.1 0.3 0.2 0.8 0.3l-0.2-0.3c2.2 0.4 3 0.5 4.9 0.6v0.1c0.6 0.1 1 0.1 1.3 0 0.1 0.1-0.3 0-0.1 0.1 0.6-0.1 1.2 0 1.8 0.1 0.5 0.1 1 0.1 1.3 0.1 0 0.1 1.5 0.1 0.9 0.2h0.5c-0.2 0-1.6 0-1.8 0.1q-0.8 0.1-1.6 0.1c0 0-0.2 0.1 0 0.1-0.3 0-0.7 0.1-0.2 0.1-1.8 0-3.7 0-5.6 0.2-1.8 0.2-3.7 0.4-5.5 0.2-0.3 0.1-0.1 0.2 0 0.3-0.7-0.3-0.7 0.3-1.1 0.4q-0.4-0.3-0.9-0.6c-0.4 0.2-0.1 0.4-0.1 0.5-1.9 0.3-3.7-0.2-5.2 0.2-0.5-0.3 0.1-0.6-0.6-0.7 0.9 0.7-1.6 0.3-1.3 0.8-0.7-0.7-2.2-0.2-2-1.3-0.7 0-0.6 0.5-0.4 0.6-0.9 0-1.6 0-2.3 0.3-0.5-0.2-3.9 0.3-4.8-0.5 0.5 0.5 0 0.2-0.5 0.5l0.4 0.5-1.1-0.1c-0.3 0.1-0.3 0-0.3 0-0.2 0 0-0.3-0.5-0.4-0.8 0-0.8 0.2-1.3 0.5l0.2 0.1h-0.6c-0.4 0 1.4-0.5 0.1-0.7 0 0.1-0.8 0.7-1.1 0.4 0.7 0 0.6-0.3 0.3-0.5h-0.9l0.3 0.6c-2.6 0-5.4-0.5-8.2-0.4 0-0.6-2-0.1-1.7-0.9l0.1 0.1c0.7-0.1-0.2-0.6-0.8-0.5 0.6 0.2-1.1 0.8 0.4 0.9l-1.1 0.4c-0.6 1.5-3-0.2-4.7 0.3 0.2 0 0.2-0.1 0.2-0.2-0.4 0.2-0.7 0.2-1.2 0.2-0.6 0-1.1-0.1-1.6-0.2-1.1-0.1-1.6-0.3-2-0.2l0.2-0.4c-0.5 0.1-1.1 0.4-1.1 0q-0.1-0.3-0.2-0.7c0-0.5 0-1.2 0.1-2.3 0.1 0 0.2 0.2 0.3-0.1-0.1-0.3-0.3-0.5-0.4-0.9-0.1-0.3-0.2-0.6-0.1-1.1h0.1l-0.1-1.6c1.3 0-0.7-2.8 0.7-3.3-0.4-0.3-0.5-1.5-0.7-2q0.1 0 0.2-0.1c-0.7-0.7 0.2-1.8 0.1-2.5-0.2-0.5-0.4-0.3-0.6-0.1 0.5-0.9-0.6-2.5-0.4-2.8 0.1-0.6 0.5-0.2 0.8-0.4-0.1-1-1.2 0.2-0.7-1.1 0.1 0.1 0.1 0.4 0.2 0.3 0.1-0.5 1.6-1.4 1.3-1.9l-0.2 0.3c-0.4-0.9 1-2.1 0.2-2.3l-0.4 0.1c0.2-1 0.2-1.2 0.1-1.5 0-0.2-0.1-0.5 0.2-1.4v0.1c0-0.6 0.2-0.8 0.2-1.2 0.1 0 0.2-0.1 0.1-0.3l-0.4-0.1c1.1 0 1.3 0 2.5 0.1 0.1-0.1 0.6-0.2 0.8-0.1q0-0.2 0.5-0.2c0.1 0 0.3-0.1 0.4-0.1q0.2 0 0.4 0c0.6 0 1.2 0.1 1.4 0.1-0.7 0.1-0.4 0.3-0.2 0.5 0.4-0.4 0.7-0.4 1.2-0.1 0.1-0.7 0.2-1.4 1.4-1.5-0.2 0.1-0.5 0.2-0.4 0.3 0.1 0.2 0.4 0 0.5 0 0.1 0.1-0.3 0.2-0.1 0.5 0.7-0.7 1.2-0.1 2.3-0.3-0.3 0.2 0 0.3 0.1 0.6 0.1-0.8 1.5 0.6 1.1-0.4 2.1 0.6 5.4 0.1 6.2 0.7 0.3 0.3 0.9-0.2 1.2-0.2v0.4c1-0.6 0.8-0.3 2-0.9-0.5 0.4-0.3 0.6 0.2 0.9l0.9-0.7 0.1 0.5c0.4-0.2 0.7-0.1 1.1 0 0.4-0.6 1.7-0.5 1.9-0.8 0.4 0.7 1-0.2 1.3 0.4q0.2-0.1 0.4-0.2c-0.2-0.3-0.2-0.7 0.1-0.5q0.1 0 0.1 0l0.1 0.4c0.4-0.1 0.7-0.1 1-0.2q-0.2 0-0.4-0.2 0.2 0.1 0.4 0.2 0.1 0 0.1 0 0 0 0 0.1c0.2 0 0.4 0.1 0.7 0 1.2 0.6 2.7-0.9 4 0-0.2-0.1-0.5-0.2-0.5 0 1.1-0.1 2.2 0.5 2.9 0.2l-0.1-0.4c0.8-0.2 1.5-0.3 2.1-0.3l0.1-0.4c0.9 0.2 3-0.5 3.6 0.4 0.2-0.4 1.3 0.1 1.8 0l0.2 0.3c0.7 0.1 1.1 0 1.6-0.1 1.4 0.7 2.7 0 4 0v0.1l1.3-0.2c-0.3 0.3 0.2-0.2 0.6-0.1 0.4-0.2 1.1-0.1 1.6 0.1h0.8c-0.9 0.3 0 0.5 0.1 0.9l0.5-0.3c0.2 0.2-0.3 0.3 0.1 0.4 0.3-0.2 1.3-0.2 1.7-0.6-0.1-0.1-0.2-0.2-0.4-0.3q0 0.1 0 0c0.1 0 0.1-0.1 0.2-0.1 0.6 0.1 0.4-0.1 0.3-0.3 0.4 0.3 0.7 0.4 1 0.4 0.2 0.1 0.4 0.2 0.8 0.5-0.9-0.7 2.7 0 2.2-0.7 0.7 0.6 0.7 0 0.9 0.5-1.1-0.2-2.6 0.4-3.4 0.6q0.5 0.2 0.8 0.4c-0.6 0.7-1.5-0.3-1.9 0 0.2-0.2 0.7-0.1 0.8 0.1l-0.1-0.5c-0.9-0.2-1.6 0.2-2.2 0.5 0.6 0.1-0.7 0.3-0.3 0.6h0.5c0.2 0.2-0.3 0.3-0.5 0.5-1.5-0.4-4.1-0.1-4.7-0.5 0.3 0.2 0.9 0.1 1.1-0.1l-0.6-0.2c0.5 0 0.9 0.4 1.8 0.3-0.2-0.4 0.4-0.8-0.2-1.3-1.6-0.5-1.3 0.9-3.2 0.7-0.1 0.1 0.4-0.5-0.6-0.3-1.3 0.3-2.2 1.1-2.2 1.8 0.6-0.2 1.6-0.6 1.8-0.1-0.5 0.2-1.5 0.3-1.5 0.6-0.5-0.6 1-0.1 0.3-0.6-0.4 0-0.6 0.2-0.7 0.3 0.2-0.3-0.4-0.4-0.5-0.6-1.2 0-1.9-0.2-3.2-0.3 0-0.1-0.2-0.3-0.1-0.4-0.7 0.1-1.6 1-1.3 1.4-0.8 0-0.8-0.3-1.4-0.1 1 0.5-0.2-0.1-0.3 0.5-0.7 0.1-0.3-0.3-0.6-0.4-0.1 0.1-0.3 0.2-0.4 0.4-0.3-0.4 0.8-1.1 0.3-1.7-0.3-0.3-1.7-0.8-1.8-0.9-0.3 0.5-0.2 2.5 0.3 3.1-0.1 0.4-0.6-0.3-0.9-0.3-0.8-0.6-1.3 0.4-1.9 0.2l0.5-0.3c-0.1-0.2-1.1 0-1.3 0.2 0-0.2 0.5-1 0.2-1.2-1.2-0.1-2.4 1-2.3 1.5l1.9-0.6c0 0.5-1.3 0.5-1.3 1.1l-1.7-0.2c0.2 0 0.9-0.2 0.6-0.4-0.7 0-0.4-0.1-0.9-0.3 0.9-0.6 2.5-2.2 3-2.9l-0.9 0.3-0.2-0.2c-1.2 0.3-2.2 2.2-2.5 2.7-0.7-0.1-0.5-1.2-0.3-1.4-1.3 0-1.3 1.5-2.6 1.3l0.5 0.2c-0.4 0.1-1.5-0.1-1.4 0.1-0.2-0.2-0.4-0.8-0.2-1l-1.1 0.9c0.1-0.2 0-0.9 0.1-1.1-0.5 0-0.8 0.9-0.6 1.1-0.9-0.6-0.6-0.3-1.4-1-0.3 0.1 0 0.9 0.2 1-0.6 0.2-0.9 0.1-1.2 0 1-0.3 0.2-1.8 0.4-2.4l-2.1 2.4c0-0.1 0.2-0.9 0.2-1-0.2 0.7-2.7 0.8-3.9 0.7h0.2c0.2-0.2-0.8-0.4-1.3-0.2 0.1-0.1 0.2-0.1 0.4-0.1-0.8-0.5-1.1 1.1-1.9 0.5 0.7 0 0.9-0.3 0.8-0.6-0.6 0.3-2 0-1.7 0.9-0.4-0.2-0.8-0.1-0.7-0.5l-1.6 0.5c0.1-0.1 0.2-0.4-0.2-0.4 0.9 0.1 1.7-0.7 2.1-0.2 0.1-0.5-0.3-0.8 0.2-1.2-1.7 0.2-2.6 1.1-3.6 1.7l-1.5-0.3-0.1 0.2-0.2-0.6c-0.2 0.1-0.3 0.3-0.3 0.2q-0.1-0.1 0-0.2c-0.1 0-0.3 0.1-0.3 0.1-0.1-0.3 0.2-0.7 0.4-1q0.2 0.2 0.4 0.3c0.3-0.3 0.5-0.6 0.1-0.8q-0.1 0.1-0.2 0.1c0.2-0.2 0.3-0.4 0.2-0.5l-1.1 0.3q0.2 0.2 0.5 0.5c-0.7 0.4-1.5 0.9-0.8 1.3l-0.9-0.4q-0.2 0.1-0.3 0.2-0.1 0.1-0.2 0.2-0.1 0.1-0.2 0.1c-0.1 0.1-0.2 0.2-0.3 0.4-0.2-0.2-0.1-0.3-0.3-0.5 0 0.4-0.5 0.1-1-0.1-0.2 0-0.3 0.1-0.1 0.4 0.2 0.5 0.5 0.5 0.7 0.8-0.1 0-0.2-0.1-0.2-0.1q0.2 0.3 0.4 0.4c-0.1 0.1-0.3-0.3-0.5-0.1q0.1 0.3 0.2 0.4l0.1 0.2q0.1 0.1 0.1 0.2c0.1 0.4 0.1 0.8 0 1.2 0.1 1.3 0.8-0.5 0.7 0.5-0.3 0.2-0.7 0.3-0.8 1 0.3 0.3 0.5 0.3 0.7 0.9l-0.6-0.1c0.1 0.6 0.2 1-0.2 1 0.2 0.4 0.1 0.8 0.1 1q0 0 0 0c-0.2 0.3-0.4 0.5 0.1 0.8 0.2-0.2 0-0.4-0.1-0.6 0.4 0.4 1.1-0.8 1.3-1-0.5 0.8-0.2 1.4-0.9 1.8l-0.1-0.7c-0.7 1.5 0.8 1.4-0.4 2.1 0.1-0.5-0.2-1.1-0.5-0.8l0.3 0.8c-0.2 0-0.1-0.5-0.3-0.1 0.1 0.2 0.4 0.6 0.6 0.8h-0.1l0.1 1.2c0-0.1-0.2-0.1-0.2 0.1l0.3 0.9c-0.1-0.3-0.3 0-0.4 0.4-0.1 1.2 1.2 1 0.7 1.8 0-0.1-0.1-0.1 0-0.2l-0.3 0.4c1.2 0.1 0.1 2.7 1.3 2.8-0.5 0.7-0.3 0.1-0.8-0.8l-0.4 0.7c0-0.3 0.1-0.5 0-0.8zm12.4 3.9q0 0 0 0-0.1 0-0.1 0 0 0 0.1 0 0 0 0 0zm-12.6-9v-0.2q0 0.1 0 0.2zm6.8-12q0 0 0 0 0 0 0 0zm13.9 0.2q-0.1 0-0.1 0 0 0 0.1 0zm0.3 0h0.1q-0.1 0-0.1 0zm1.2-1q0 0 0 0.1zm32-1.4q0 0 0-0.1zm0.6-0.9q0 0-0.1 0 0.1 0 0.1 0zm-2.4-0.5q0 0 0 0zm-31.6 1.1c-0.2 0-0.1 0.1-0.1 0.2q0-0.1 0.1-0.2zm0 0q0 0 0 0 0 0 0 0 0 0 0 0zm2.4 26.8q0 0 0.1 0 0 0-0.1 0zm9.6 1q-0.1-0.1-0.1-0.1 0.1 0 0.1 0.1zm6.7-3.7h0.1q0 0-0.1 0zm-17.9 0.1q0 0 0 0 0 0 0 0zm-17.9-0.8q0 0 0 0zm48.7-24.5q0 0 0 0zm-52.4 11.3q-0.1-0.1-0.1-0.2 0 0 0 0 0 0.1 0.1 0.2zm4.2-8.4c0.3 0.2 0.5 0.2 0.7 0.1q-0.4-0.2-0.7-0.1zm44.7-2.7l0.1-0.1c-0.3 0-0.5-0.1-0.1 0.1zm1 0.1c0.1 0 0.1-0.1 0-0.1 0 0.1-0.2 0.1-0.5 0 0.1 0.1 0.2 0.2 0.5 0.1zm-28.4 28.2l0.2 0.1c0.1-0.1 0.2-0.2-0.2-0.1z"/>
	<path id="Layer" class="s7" d="m162.4 142.7q-0.1-0.1-0.1-0.2c-0.1 0.1-0.1 0.2 0.1 0.2z"/>
	<path id="Layer" class="s7" d="m160 163.9z"/>
	<path id="Layer" class="s7" d="m194.7 143c-0.2-0.1-0.3-0.2-0.4-0.2 0 0.1 0.1 0.1 0.4 0.2z"/>
	<path id="Layer" class="s7" d="m214.3 139c-0.1 0-0.2 0-0.3-0.1q-0.1 0-0.3 0 0 0-0.1 0c0.1 0 0.5-0.1 0.9-0.1-0.4 0-0.2 0.2-0.2 0.2z"/>
	<path id="Layer" class="s7" d="m216.8 144.3l-0.2 0.1c-0.1-0.1 0-0.2-0.1-0.3 0.1-0.4 0.3-0.2 0.3 0.2z"/>
	<path id="Layer" class="s7" d="m215 140.2c0 0.3 0.5 0.2 1.1 0.1q-0.1 0-0.1 0c0.4-0.4-0.3-0.3-1-0.1z"/>
	<path id="Layer" class="s7" d="m216.2 140.3q0.3 0 0.5 0c0.2-0.2-0.2 0-0.5 0z"/>
	<path id="Layer" class="s7" d="m210.4 139.3c0.2 0.1 0.1-0.5 0.2-0.3 0.2-0.5-1.3 0.5-0.2 0.3z"/>
	<path id="Layer" class="s7" d="m214.7 141.2q0.1-0.2 0.3-0.3 0 0.2 0 0.4z"/>
	<path id="Layer" class="s7" d="m212.6 141c-0.1 0-0.2 0-0.2 0.1l-0.7-0.1c0-0.1 0.5-0.1 0.9 0z"/>
	<path id="Layer" class="s7" d="m212.6 141c0.2 0 0.4 0 0.5-0.1-0.1 0-0.3 0-0.5 0.1z"/>
	<path id="Layer" class="s7" d="m213.5 141.3h0.4l0.2 0.1z"/>
	<path id="Layer" class="s7" d="m204.2 141.2c-0.3 0.1-0.5 0-0.4-0.2l0.7-0.1c0.1 0.1-0.1 0.2-0.3 0.3z"/>
	<path id="Layer" class="s7" d="m206.4 142.3v-0.6c0.1 0.2 0.1 0.3 0.3 0.4z"/>
	<path id="Layer" class="s7" d="m204.6 142.2c-0.1 0.1-1.1 0.4-0.1 0.4 0-0.2 0.8-0.3 0.1-0.4z"/>
	<path id="Layer" class="s7" d="m193.7 140.7l0.1 0.8h-0.2z"/>
	<path id="Layer" class="s7" d="m184.4 142.9c-0.2 0.2 0.7 0.2 0.5 0.4-0.8-0.2-0.2 0.5-1 0.3-0.3-0.6 0-0.5 0.5-0.7z"/>
	<path id="Layer" class="s7" d="m184.4 142.9q0.2 0 0.3-0.1c-0.2 0.1-0.2 0.1-0.3 0.1z"/>
	<path id="Layer" class="s7" d="m215.2 166.3h0.4-0.6z"/>
	<path id="Layer" class="s7" d="m216.6 166.1l-0.4 0.1h-0.1q0.3 0 0.5-0.1z"/>
	<path id="Layer" class="s7" d="m160 149.2c0-0.3 0-0.4 0.1-0.5l0.2 0.1z"/>
	<path id="Layer" class="s7" d="m159.4 156.4l0.5-0.2v0.1z"/>
	<path id="Layer" class="s7" d="m160.5 162.7c0-0.3-0.1-0.6-0.1-0.9 0.1 0.6-0.5 0.9 0.1 0.9z"/>
	<path id="Layer" class="s6" d="m183.6 112.3h59.2v24.8h-59.2z"/>
	<path id="Layer" class="s7" d="m181.5 112.5c0-0.2-0.3-0.2-0.4-0.2 0.1 0.4 0.5 0.2 0.4 0.2z"/>
	<path id="Layer" class="s7" d="m182.5 117.1l-0.3-0.6 0.1 0.1z"/>
	<path id="Layer" class="s7" d="m182.1 117.9l0.5 0.3-0.2 0.2c-0.2 0.6 0.5 1.7-0.1 2 0.2-0.5-0.1-1.6-0.2-2.5z"/>
	<path id="Layer" class="s7" d="m181 122.1q0-0.1 0.1-0.1c0.1 0.9 0.1 0.3-0.1 0.5q0-0.3 0-0.4z"/>
	<path id="Layer" class="s7" d="m181 122.1c0-0.4-0.2 0.3 0 0z"/>
	<path id="Layer" class="s7" d="m180.7 123.8c0.1 0.2 0.1-0.3 0.2-0.4l0.3 0.5c-0.3 0.4-0.4 0.5-0.5-0.1z"/>
	<path id="Layer" class="s7" d="m181.6 124.5l-0.1-0.3c0 0-0.1 0.1 0.1 0.3z"/>
	<path id="Layer" class="s7" d="m181.4 123.9c0.4 0.2 0.2 0.2 0.1 0.3l-0.2-0.6c0.1 0.2 0.3 0.4 0.1 0.3z"/>
	<path id="Layer" class="s7" d="m181.4 123.3c0.1-0.3 0.2-0.7 0.4-0.2 0-1-0.5-0.9-0.4 0.2z"/>
	<path id="Layer" class="s7" d="m182.9 119.9l0.2 0.3-0.2 0.4c-0.1 0 0.1-0.5 0-0.7z"/>
	<path id="Layer" class="s7" d="m181.2 126.6l0.2 0.4c-0.2 0.1-0.4 0.3-0.6 0.3 0.2-0.1 0.3-0.5 0.4-0.7z"/>
	<path id="Layer" class="s7" d="m181.4 127l0.2 0.6c0-0.5-0.1-0.6-0.2-0.6z"/>
	<path id="Layer" class="s7" d="m182.3 124.7l-0.5-1.1 0.5 0.9z"/>
	<path id="Layer" class="s7" d="m181 129.8l-0.5-0.6 0.3 0.3z"/>
	<path id="Layer" class="s7" d="m180.8 132.1c-0.2-0.3-0.4-0.6-0.5-1 0.2 0.2 0.3-0.3 0.6-0.1-0.2 0.5-0.3 0.8-0.1 1.1z"/>
	<path id="Layer" class="s7" d="m181 132.6c0-0.1-0.1-0.3-0.2-0.5q0 0.3 0.2 0.5z"/>
	<path id="Layer" class="s7" d="m181.5 128.9l-0.4 0.2c0.1-0.3 0.3-0.4 0.4-0.5q0 0.2 0 0.3z"/>
	<path id="Layer" class="s7" d="m181.5 128.9q0 0.3 0 0.5c0-0.1 0-0.3 0-0.5z"/>
	<path id="Layer" class="s7" d="m181.5 128.6q0.1 0 0 0z"/>
	<path id="Layer" class="s7" d="m181.9 126.1c0.2 0.3 0.5 1.1 0.8 0.4-0.3-0.3-0.5 0.1-0.8-0.4z"/>
	<path id="Layer" class="s7" d="m181.7 127.6c0.1 0.2 0.2 0.1 0.3 0.1v0.6z"/>
	<path id="Layer" class="s7" d="m181.9 128.5l0.1-0.2 0.1 0.3z"/>
	<path id="Layer" class="s7" d="m181.7 131.4q0 0.5-0.1 1.1c-0.1-0.4-0.1-0.7-0.2-0.9 0-0.4 0.2-0.2 0.3-0.2z"/>
	<path id="Layer" class="s7" d="m181.5 130.3c0 0 0-0.1 0 0z"/>
	<path id="Layer" class="s7" d="m181.6 136.8q0 0.1 0 0.1z"/>
	<path id="Layer" class="s7" d="m181.7 131.4q0-0.3-0.1-0.6c0.1 0.1 0.2 0.3 0.1 0.5 0.1 0.1 0 0.1 0 0.1z"/>
	<path id="Layer" class="s7" d="m181.2 133.6q0.1-0.2 0.2-0.5c-0.1 0.1-0.3 0.4-0.2 0.5z"/>
	<path id="Layer" class="s7" d="m181.4 130.4c-0.1 0.1-0.1 0 0 0z"/>
	<path id="Layer" class="s7" d="m181.5 130.3q0.1 0.2 0.1 0.5c-0.1-0.1-0.1-0.2-0.2-0.4q0 0 0.1-0.1z"/>
	<path id="Layer" class="s7" d="m183.5 136.8l0.2 0.3 0.3-0.1c-0.1 0.2-0.4 0.4-0.8 0.5-0.2-0.1-0.4-0.6-0.6-0.1 0.1-0.6 0.4-0.6 0.2-1.5-0.2-0.6-0.5 1.1-0.7 1.6-0.2-0.8-0.3-0.7-0.5-0.7 0.7-1.2 1.7-1.9 2-1.4-0.4 0.8-0.1 1.4 0.3 1.1-0.1 0.2-0.3 0.1-0.4 0.3z"/>
	<path id="Layer" class="s7" d="m181.6 134.8v2c-0.1 0-0.3 0-0.4-0.7 0.2-0.8 0.4-1.1 0.4-1.6l0.1 0.4z"/>
	<path id="Layer" class="s7" d="m181.7 133.8c0 0.2 0 0.5-0.1 0.7 0-0.7-0.1-1-0.2-1.4q0.1 0 0.1 0c0 0.1 0.1 0.4 0.1 0q0 0-0.1 0 0-0.1-0.1 0 0.1-0.3 0.2-0.6 0 0.3 0.1 0.6c0.2-0.8 0.5 0.7 0.4-0.5 0.1 0.5 0.4 0.2 0.4 1-0.4 0.4-0.5-0.3-0.9-0.5q0.1 0.5 0.1 0.7z"/>
	<path id="Layer" class="s7" d="m183.4 127.1q0 0.1 0 0c0 0.1 0 0.1 0 0z"/>
	<path id="Layer" class="s7" d="m182.4 128.2c0 0.1 0.4-0.5 0.6-1l-0.1-0.1c0.2-0.6 0.4-0.1 0.5 0-0.2 0.1-0.2-0.2-0.3 0.1-0.1 0.2 0.1 0.3 0.1 0.4-0.3 0.3-0.5 0.4-0.8 0.6z"/>
	<path id="Layer" class="s7" d="m182.8 130.9h0.2l-0.3 0.5-0.2-1c0.2 0.1 0.4-0.1 0.3 0.5z"/>
	<path id="Layer" class="s7" d="m181.5 137.8q-0.2-0.2-0.5-0.6 0.2 0 0.4 0z"/>
	<path id="Layer" class="s7" d="m181.9 139.4l-0.8 0.2h0.1l0.3-0.3z"/>
	<path id="Layer" class="s7" d="m240.8 122.8l-0.1-0.3q0.1 0.2 0.1 0.3z"/>
	<path id="Layer" class="s7" d="m240.8 125h0.2c-0.1-0.1-0.2-0.1-0.2 0z"/>
	<path id="Layer" class="s7" d="m216.3 139.3l0.2 0.4c0 0.3-0.5-0.1-0.9-0.5q0.3 0.2 0.7 0.1z"/>
	<path id="Layer" class="s7" d="m237.1 137.3q0.1-0.2 0.3-0.4l0.1 0.2q-0.2 0.1-0.4 0.2z"/>
	<path id="Layer" class="s7" d="m237.8 135.5l0.6 0.3c-0.1-0.1-0.3-0.2-0.6-0.3z"/>
	<path id="Layer" class="s7" d="m240.1 114.7q-0.1 0.2-0.3 0.4c0.1 0 0.2-0.2 0.3-0.4z"/>
	<path id="Layer" class="s7" d="m197 139.1c0.3 0.2 0.6 0.2 0.9 0.3-0.5-0.2-0.8-0.6-0.9-0.3z"/>
	<path id="Layer" class="s7" d="m244.7 123.7q-0.1-0.3-0.2-0.3 0.1 0.3 0.2 0.3z"/>
	<path id="Layer" class="s7" d="m197.9 139.4c0.3 0 0.6-0.1 0.9-0.1q0.1 0 0.2 0.1c-0.4 0.2-0.8 0.1-1.1 0z"/>
	<path id="Layer" class="s7" d="m199.5 114.4q-0.1 0-0.1 0 0 0 0.1 0z"/>
	<path id="Layer" class="s7" d="m187.2 110.7q0.2 0 0.5 0-0.2-0.1-0.5 0z"/>
	<path id="Layer" class="s7" d="m188.8 139.4c-0.2 0.1 0 0.1 0 0z"/>
	<path id="Layer" class="s7" d="m187.5 138q0.1-0.1 0.1-0.2 0 0.2-0.1 0.2z"/>
	<path id="Layer" class="s7" d="m201.7 137.1c-0.1-0.1 0-0.1 0 0z"/>
	<path id="Layer" class="s7" d="m188.4 139.3q0.2 0 0.4 0.1-0.1-0.1-0.4-0.1z"/>
	<path id="Layer" class="s7" d="m188.5 139.4q-0.1 0-0.2 0c-0.1 0.1 0 0.1 0.2 0z"/>
	<path id="Layer" class="s7" d="m188.8 139.4q0.1 0 0 0 0.2 0 0.4 0-0.2 0-0.4 0z"/>
	<path id="Layer" class="s7" d="m222.1 113.4q0 0-0.1 0c-0.2 0.1-0.1 0.1 0.1 0z"/>
	<path id="Layer" class="s7" d="m222.8 135.5v-0.1q0 0 0 0z"/>
	<path id="Layer" class="s7" d="m223.1 136.5l-0.3-1c0.3 0.1 0.6 0.1 1-0.3z"/>
	<path id="Layer" fill-rule="evenodd" class="s7" d="m240.7 118.4c0.5-0.9-0.1-1.7-0.4-2.2 0.1-0.4 0.8 0.3 0.7-0.7-0.2-0.4-0.4-0.3-0.6-0.2-0.2 0.1-0.4 0.1-0.4 0.1q0.3-0.1 0.6-0.3c-0.4-0.2-0.2-0.3-0.1-0.6q0-0.1-0.2-0.1-0.1 0-0.2 0.1c-0.1-0.1-0.3 0-0.4 0.2-0.1 0.1-0.2 0.1-0.2 0.2q-0.3 0.1-0.6 0c0.2-0.1-0.4-0.4-0.5-0.5l-1.3 0.4c0.5-0.2 0.5-0.5 0.6-0.9-0.4 0.1-0.6 0.3-0.8 0.3 0.1-0.1 0.3-0.2 0.1-0.4l-1.4 0.6c0.1 0 0.2 0.1 0.4 0.1-0.4 0-1.1 0.2-1.6-0.1 0-0.1 0.2-0.2 0.2-0.4 0.4 0.4 0.7 0.1 0.9-0.2-1 0.1-0.2 0-0.7-0.3-0.7 0-0.9 0.5-0.8 0.8-0.7-0.2-1-0.2-1.7 0.1l0.1-0.5-0.7 0.2 0.6-0.6c-1.4-0.3-0.3 0.8-1.8 0.5v-0.4c-0.6 0.2-0.8 0.9-1.2 0.4-0.6 0.2 0.9 0.6-0.4 0.6-0.2-0.2-0.7-0.3-1.1-0.4-0.4 0.2 0.2 0.4 0.5 0.4-1.9 0.2-1.2-1.4-3-0.8 0.6 0.3-0.5 0.8 1 0.8-0.7 0.2-1.4-0.6-2.1-0.2l0.4-0.5c-0.2 0-0.5 0.2-0.7 0.2l0.1-0.4c-0.9 0.7-1.7-0.3-2.2 0.6 0.4-0.7-0.7 0.1-1-0.2 0.7-0.5 2.1 0 2.2-0.7-0.3-0.2-0.7 0.1-1-0.1 0.2-0.1 0.6-0.2 0.7-0.4-1.2-0.3-1.8 0.4-2.5 0.6l1.2-0.1c-0.1 0.6-0.5 0.1-0.9 0.6-0.6-0.4-1.1 0.2-1.6-0.1 0.2 0 0.2 0 0.3 0-1.3 0-1.7-1.1-2.2-1.1-0.5-0.1-1.5 0.3-1.1 0.5-0.5 0.2 1.7-0.2 1 0.7-0.8-1-1.6 0.4-3.2-0.3 0.7-0.4-0.5-0.6 0.2-0.8-0.8 0-0.8 0.2-1.2 0.5l-0.2-0.3c-1.1 0.7-0.3 0.6-1.8 1 0.5-0.3-0.7-0.5-0.3-0.7-0.4 0-0.8 0.1-1.1 0.2-1.5 0.2-1.2-0.4-2.7 0l0.2 0.1c-1.9 0.6-4.3 0.2-6.2 0.5l0.6 0.1c-0.3 0-1.3 0.3-1.8 0 0.1 0 0.3-0.1 0.4-0.1 0-0.2-0.3-0.5-0.7-0.5l-0.2 0.3-0.2-0.3c-0.7 0 0.2 0.5-0.5 0.5-0.4-0.9-3.1-0.1-3.7-1-0.4 0.7 1.4 0.1 0.8 0.7-0.2-0.1-0.3-0.2-0.7-0.2l0.1 0.4c-2.1-0.3-3-0.6-4.9-0.5l0.1-0.1c-0.7-0.2-1.1-0.1-1.4 0.3-0.1-0.2 0.4-0.3 0.1-0.5-1.2 1-2.4-0.8-3.1 0 0.1-0.8-1.5-1.6-0.8-2.2l-0.5 0.1c0.1-0.6 1.5-0.1 1.8-0.6l1.6 0.5c-0.1-0.2 0.2-0.5-0.1-0.5 0.4 0 0.7-0.1 0.2-0.4 3.7 1.4 7.5 0.1 11.2 0.8 0.3 0 0.1-0.2 0-0.3 0.7 0.5 0.7-0.3 1-0.4l1 0.8c0.4-0.3 0.1-0.5 0.1-0.6 1.9-0.2 3.7 0.5 5.2 0.1 0.5 0.3-0.1 0.6 0.5 0.7-0.8-0.7 1.6-0.4 1.4-0.8 0.6 0.7 2.2 0.1 1.9 1.2 0.8 0.1 0.7-0.5 0.4-0.6 0.9 0.1 1.6 0.1 2.4-0.3 0.4 0.3 3.9-0.3 4.7 0.6-0.5-0.6 0.1-0.3 0.6-0.5l-0.5-0.5h1.2c0.2 0 0.3 0 0.3 0 0.2 0.1 0 0.3 0.5 0.4 0.8 0.1 0.8-0.2 1.2-0.4l-0.1-0.1 0.6-0.1c0.3 0.1-1.4 0.5-0.2 0.8 0.1-0.1 0.8-0.8 1.2-0.4-0.7-0.1-0.6 0.3-0.4 0.4h1l-0.3-0.6c2.6 0.1 5.4 0.5 8.2 0.5-0.1 0.5 2 0 1.7 0.8l-0.1-0.1c-0.7 0.1 0.2 0.6 0.8 0.6-0.6-0.3 1-0.8-0.4-0.9l1.1-0.4c0.6-1.6 3 0.1 4.6-0.4-0.1 0.1-0.1 0.2-0.1 0.2 0.3-0.1 0.7-0.2 1.1-0.1 0.6 0 1.2 0 1.7 0.1 1 0.1 1.6 0.3 1.9 0.2l-0.1 0.4q0.6-0.2 1-0.3c0.3 0.8 0.3 1.4 0.1 3.3 0 0-0.2-0.2-0.2 0.1 0.3 0.4 0.6 1.1 0.5 2.1l-0.1-0.1v1.6c-1.3 0 0.8 2.8-0.6 3.3 0.4 0.3 0.5 1.5 0.7 2q-0.1 0-0.2 0.2c0.7 0.6-0.2 1.8-0.1 2.5 0.2 0.4 0.4 0.2 0.6 0-0.5 0.9 0.6 2.5 0.4 2.8-0.1 0.7-0.5 0.2-0.8 0.4 0.1 1 1.2-0.1 0.7 1.2-0.1-0.2-0.1-0.5-0.2-0.4-0.1 0.5-1.6 1.4-1.3 1.9l0.2-0.3c0.3 0.9-1 2.1-0.2 2.3l0.4-0.1c-0.2 1.1-0.2 1.2-0.2 1.5 0.1 0.2 0.2 0.5-0.1 1.4l-0.1-0.1c0.1 0.6-0.1 0.8-0.1 1.2-0.1 0-0.2 0.1-0.1 0.3l0.4 0.1c-1.1 0-1.3 0-2.5 0-0.1 0-0.7 0.1-0.9 0q0.1 0.2-0.4 0.3c-0.1 0-0.3 0-0.4 0q-0.2 0-0.4 0c-0.6 0-1.2-0.1-1.4-0.1 0.7-0.1 0.4-0.3 0.2-0.5-0.4 0.4-0.7 0.5-1.3 0.2 0 0.6-0.2 1.4-1.3 1.4 0.2-0.1 0.5-0.2 0.4-0.3-0.2-0.1-0.4 0-0.5 0.1-0.1-0.2 0.3-0.3 0.1-0.5-0.7 0.6-1.3 0-2.4 0.2 0.4-0.2 0.1-0.3 0-0.5-0.1 0.7-1.5-0.7-1.1 0.3-2.1-0.6-5.4 0-6.3-0.7-0.2-0.3-0.8 0.2-1.2 0.2l0.1-0.3c-1 0.6-0.8 0.2-2 0.8 0.5-0.4 0.3-0.6-0.2-0.9l-0.9 0.7-0.1-0.5c-0.4 0.2-0.8 0.1-1.1 0-0.4 0.6-1.7 0.6-1.9 0.9-0.4-0.7-1 0.1-1.3-0.5q-0.2 0.1-0.4 0.2c0.2 0.3 0.2 0.7-0.1 0.5q-0.1 0-0.1 0l-0.1-0.4c-0.4 0.1-0.7 0.2-1 0.2q0.2 0 0.4 0.2-0.2-0.1-0.4-0.2-0.1 0-0.2 0 0.1 0 0.1 0c-0.2-0.1-0.4-0.2-0.7 0-1.2-0.7-2.7 0.8-4 0 0.2 0.1 0.5 0.1 0.5 0-1.1 0-2.2-0.6-2.9-0.3l0.1 0.4c-0.9 0.2-1.5 0.3-2.2 0.3v0.4c-0.9-0.1-3 0.5-3.6-0.3-0.2 0.3-1.3-0.1-1.9 0l-0.1-0.4c-0.7-0.1-1.1 0-1.6 0.1-1.4-0.6-2.7 0-4 0v-0.1l-1.3 0.2c0.3-0.3-0.3 0.2-0.6 0.2-0.5 0.1-1.1 0-1.6-0.2h-0.8c0.9-0.2-0.1-0.5-0.1-0.9l-0.5 0.3c-0.2-0.1 0.3-0.3-0.1-0.3-0.3 0.2-1.3 0.1-1.7 0.5 0.1 0.1 0.2 0.2 0.4 0.3q0 0 0 0c-0.1 0.1-0.1 0.1-0.2 0.2-0.6-0.1-0.4 0-0.4 0.2-0.3-0.3-0.6-0.3-0.9-0.4-0.2 0-0.7-0.1-1-0.4 0.5 0.6-2.7 0-2.4 0.7-0.5-0.6-0.6 0-0.8-0.6 1.2 0.2 2.7-0.3 3.5-0.6q-0.4-0.2-0.7-0.4c0.6-0.6 1.6 0.3 2 0.1-0.3 0.1-0.8 0-0.9-0.2l0.2 0.5c0.9 0.2 1.6-0.2 2.2-0.4-0.6-0.2 0.7-0.3 0.3-0.7l-0.5 0.1c-0.2-0.2 0.3-0.4 0.5-0.5 1.5 0.3 4.2 0 4.7 0.4-0.3-0.1-0.9 0-1.1 0.1l0.7 0.2c-0.6 0.1-1-0.4-1.9-0.2 0.2 0.3-0.4 0.8 0.2 1.2 1.6 0.5 1.3-0.8 3.2-0.7 0.2-0.1-0.4 0.5 0.6 0.3 1.3-0.3 2.2-1 2.2-1.7-0.6 0.2-1.6 0.6-1.8 0.1 0.6-0.2 1.5-0.4 1.5-0.7 0.6 0.6-1 0.2-0.3 0.7 0.4 0 0.6-0.2 0.7-0.3-0.2 0.2 0.4 0.4 0.5 0.5 1.2 0 1.9 0.3 3.2 0.3 0.1 0.1 0.2 0.3 0.2 0.5 0.6-0.2 1.5-1.1 1.2-1.5 0.8 0 0.8 0.3 1.5 0.1-1.1-0.5 0.1 0.1 0.3-0.5 0.6 0 0.2 0.3 0.5 0.5 0.1-0.1 0.3-0.3 0.4-0.5 0.4 0.5-0.8 1.2-0.3 1.7 0.3 0.3 1.7 0.9 1.8 0.9 0.3-0.5 0.2-2.5-0.3-3.1 0.1-0.3 0.6 0.3 0.9 0.4 0.8 0.5 1.3-0.4 2-0.2l-0.6 0.3c0.1 0.1 1.2-0.1 1.3-0.3 0 0.2-0.5 1-0.2 1.2 1.2 0.1 2.4-0.9 2.3-1.5l-1.9 0.6c0-0.5 1.4-0.5 1.3-1l1.7 0.1c-0.2 0-0.9 0.2-0.6 0.4 0.7 0 0.4 0.1 0.9 0.3-0.9 0.6-2.4 2.2-3 2.9l0.9-0.3 0.2 0.3c1.2-0.4 2.2-2.2 2.5-2.7 0.7 0.1 0.5 1.1 0.3 1.3 1.3 0.1 1.3-1.4 2.6-1.3l-0.5-0.2c0.4-0.1 1.5 0.1 1.4-0.1 0.2 0.3 0.5 0.8 0.3 1.1l1.1-0.9c-0.2 0.1-0.1 0.9-0.1 1 0.4 0 0.7-0.8 0.5-1 0.9 0.5 0.7 0.2 1.4 0.9 0.3-0.1 0-0.9-0.2-1 0.6-0.2 0.9-0.1 1.2 0-1 0.4-0.2 1.8-0.4 2.4l2.2-2.4c-0.1 0.2-0.3 0.9-0.3 1 0.2-0.7 2.7-0.8 3.9-0.7h-0.1c-0.3 0.3 0.8 0.5 1.2 0.2-0.1 0.2-0.2 0.1-0.4 0.1 0.9 0.6 1.1-1.1 1.9-0.4-0.7-0.1-0.9 0.2-0.8 0.5 0.6-0.3 2 0 1.7-0.8 0.4 0.1 0.8 0 0.8 0.5l1.5-0.5c-0.1 0.1-0.2 0.3 0.2 0.4-0.8-0.1-1.7 0.7-2.1 0.1 0 0.5 0.3 0.8-0.1 1.3 1.6-0.3 2.5-1.2 3.6-1.8l1.4 0.4 0.1-0.3 0.2 0.6c0.2-0.1 0.3-0.2 0.4-0.2q0 0.1-0.1 0.3c0.1-0.1 0.3-0.1 0.4-0.2 0 0.3-0.2 0.7-0.5 1q-0.2-0.1-0.4-0.3c-0.3 0.3-0.5 0.6-0.1 0.8q0.1 0 0.2-0.1c-0.2 0.2-0.3 0.4-0.2 0.5l1.1-0.3q-0.2-0.1-0.5-0.4c0.7-0.4 1.5-0.9 0.9-1.3l0.8 0.3q0.2-0.1 0.4-0.2 0-0.1 0.1-0.1 0.1-0.1 0.2-0.2c0.1-0.1 0.2-0.2 0.3-0.4 0.2 0.2 0.1 0.4 0.3 0.5 0.1-0.3 0.5 0 1.1 0.2 0.1-0.1 0.3-0.2 0-0.4-0.1-0.6-0.5-0.6-0.7-0.9 0.1 0.1 0.2 0.2 0.2 0.1q-0.2-0.2-0.4-0.4c0.2 0 0.3 0.3 0.5 0.1q-0.1-0.2-0.2-0.4l-0.1-0.1q0-0.1-0.1-0.3c0-0.4 0-0.8 0.1-1.2-0.1-1.2-0.9 0.5-0.8-0.5 0.3-0.2 0.8-0.3 0.8-0.9-0.2-0.4-0.5-0.3-0.7-0.9h0.6c0-0.5-0.1-1 0.3-1-0.3-0.4-0.2-0.7-0.1-0.9-0.3-0.9-1.1 0.6-1.3 0.7 0.4-0.8 0.1-1.3 0.8-1.8l0.1 0.7c0.7-1.5-0.7-1.4 0.4-2.1 0 0.5 0.3 1.1 0.6 0.8l-0.3-0.7c0.1-0.1 0.1 0.4 0.2 0.1-0.1-0.2-0.4-0.7-0.5-0.9l-0.1-1.2c0 0.1 0.2 0.1 0.2-0.1l-0.3-0.9c0.1 0.3 0.3 0 0.4-0.4 0.2-1.1-1.2-0.9-0.7-1.8 0 0.1 0.1 0.1 0.1 0.3l0.2-0.5c-1.1-0.1-0.1-2.7-1.2-2.8 0.4-0.6 0.2 0 0.8 0.8l0.3-0.7c0.1 0.3 0 0.5 0 0.7zm0.2 5.3v0.1q0-0.1 0-0.1zm-6.8 12q0 0 0 0 0 0 0 0zm-13.8-0.3q0 0.1 0 0.1 0 0 0-0.1zm-0.4 0.1q0 0 0 0zm-1.2 0.9q0 0 0.1 0zm-32.1 1.4q0 0 0 0zm0.8 0.1q0 0 0 0 0 0 0 0zm-1.6 0.8q0 0 0.1 0.1-0.1-0.1-0.1-0.1zm2.6 0.5q0 0 0 0zm31.6-1.1c0.2 0 0.1-0.1 0.1-0.2q0 0.1-0.1 0.2zm0 0q0 0 0 0 0 0 0 0 0 0 0 0zm-2.5-26.8q0 0 0 0 0 0 0 0zm-9.5-0.9q0 0 0 0 0 0 0 0zm-6.8 3.9v-0.1q0 0.1 0 0.1zm18-0.5q0 0 0 0 0 0 0 0zm9.1 0.8q0 0-0.1 0 0.1 0 0.1 0zm8.7 0.1h0.1q-0.1 0-0.1 0zm-48.7 24.5q0 0 0.1 0zm52.4-11.9c-0.2 0.2 0.1 0.6 0.2 0.8 0.1-0.3 0.3-0.5-0.2-0.8zm-4.2 9c-0.2-0.1-0.5-0.2-0.6-0.1q0.3 0.2 0.6 0.1zm-44.7 2.8c0.3 0 0.4 0.1 0 0zm-1-0.2c-0.1 0 0 0.1 0 0.2 0.1-0.1 0.3-0.2 0.5-0.1-0.1-0.1-0.2-0.2-0.5-0.1zm28.4-28.2l-0.2-0.1c-0.1 0.1-0.2 0.3 0.2 0.1z"/>
	<path id="Layer" class="s7" d="m237.8 135.7q0.1 0.1 0.1 0.2c0 0 0-0.1-0.1-0.2z"/>
	<path id="Layer" class="s7" d="m240.2 114.6l-0.1 0.1z"/>
	<path id="Layer" class="s7" d="m205.4 135.5c0.2 0 0.3 0.1 0.4 0.2 0-0.1-0.1-0.2-0.4-0.2z"/>
	<path id="Layer" class="s7" d="m185.5 139.4c0.2 0.1 0.4 0.1 0.9 0.1l-1 0.1c0.3 0 0.1-0.1 0.1-0.2z"/>
	<path id="Layer" class="s7" d="m183.4 134.1h0.1c0.1 0.1 0 0.2 0.1 0.3-0.1 0.3-0.2 0.1-0.2-0.3z"/>
	<path id="Layer" class="s7" d="m185 138.3c0-0.4-0.5-0.3-1.1-0.2q0.1 0 0.1 0c-0.5 0.5 0.3 0.3 1 0.2z"/>
	<path id="Layer" class="s7" d="m183.8 138.1q-0.3 0-0.5 0c-0.2 0.2 0.2 0.1 0.5 0z"/>
	<path id="Layer" class="s7" d="m189.8 139.2c-0.2-0.1-0.2 0.4-0.3 0.3-0.2 0.4 1.4-0.6 0.3-0.3z"/>
	<path id="Layer" class="s7" d="m185.5 137.2l-0.5 0.4q0.1-0.2 0.1-0.5z"/>
	<path id="Layer" class="s7" d="m187.6 137.5c0.1 0 0.2-0.1 0.1-0.2l0.7 0.2c0 0.1-0.4 0-0.8 0z"/>
	<path id="Layer" class="s7" d="m187.6 137.5c-0.3 0-0.5 0-0.6 0 0.1 0 0.4 0 0.6 0z"/>
	<path id="Layer" class="s7" d="m186.7 137.1h-0.5l-0.2-0.1z"/>
	<path id="Layer" class="s7" d="m195.9 137.2c0.3 0 0.5 0.1 0.4 0.2l-0.7 0.1c-0.1-0.1 0.2-0.2 0.3-0.3z"/>
	<path id="Layer" class="s7" d="m193.8 136.2l-0.1 0.5c-0.1-0.1-0.1-0.2-0.3-0.3z"/>
	<path id="Layer" class="s7" d="m195.5 136.3c0.1-0.2 1.1-0.5 0.2-0.4-0.1 0.1-0.8 0.2-0.2 0.4z"/>
	<path id="Layer" class="s7" d="m206.4 137.8v-0.9h0.2z"/>
	<path id="Layer" class="s7" d="m215.7 135.5c0.2-0.2-0.6-0.2-0.4-0.4 0.8 0.3 0.1-0.4 1-0.2 0.2 0.5-0.1 0.4-0.6 0.6z"/>
	<path id="Layer" class="s7" d="m215.7 135.5q-0.1 0.1-0.3 0.1 0.3 0 0.3-0.1z"/>
	<path id="Layer" class="s7" d="m184.9 110.3l-0.3-0.2 0.5 0.1z"/>
	<path id="Layer" class="s7" d="m183.6 110.8l0.3-0.5 0.1 0.6c-0.1-0.1-0.3-0.1-0.4-0.1z"/>
	<path id="Layer" class="s7" d="m240.2 129.2c-0.1 0.3-0.1 0.4-0.2 0.5h-0.1z"/>
	<path id="Layer" class="s7" d="m240.8 122l-0.5 0.3v-0.2z"/>
	<path id="Layer" class="s7" d="m239.7 115.8c-0.1 0.2 0 0.6 0 0.8-0.1-0.6 0.6-0.9 0-0.8z"/>
	<path id="Layer" class="s6" d="m85.7 270.5h63.5v26.6h-63.5z"/>
	<path id="Layer" class="s7" d="m149.2 296.9c0 0 0 0.1 0 0.2 0-0.5 0-0.2 0-0.2z"/>
	<path id="Layer" class="s7" d="m149.3 291.9v0.6z"/>
	<path id="Layer" class="s7" d="m149.4 291l-0.1-0.3 0.1-0.1c0-0.8-0.1-1.9 0-2.2 0 0.6 0 1.7 0 2.6z"/>
	<path id="Layer" class="s7" d="m149.8 286.6q0 0 0 0.1c0-1 0-0.4 0-0.5q0 0.3 0 0.4z"/>
	<path id="Layer" class="s7" d="m149.8 286.6c0 0.4 0.1-0.3 0 0z"/>
	<path id="Layer" class="s7" d="m150 284.7c0-0.2 0 0.3-0.1 0.5v-0.6c0.1-0.3 0.1-0.5 0.1 0.1z"/>
	<path id="Layer" class="s7" d="m149.8 284v0.3c0 0 0-0.1 0-0.3z"/>
	<path id="Layer" class="s7" d="m149.8 285v-0.7c0 0.1-0.1 0.1 0 0.3-0.1 0 0 0.1 0 0.4z"/>
	<path id="Layer" class="s7" d="m149.8 285.3c-0.1 0.3-0.1 0.8-0.2 0.2 0 1.1 0.1 0.9 0.2-0.2z"/>
	<path id="Layer" class="s7" d="m149.3 289v-0.4-0.4c0-0.1 0 0.6 0 0.8z"/>
	<path id="Layer" class="s7" d="m150 281.7v-0.4c0-0.1 0.1-0.3 0.2-0.3-0.1 0.1-0.1 0.5-0.2 0.7z"/>
	<path id="Layer" class="s7" d="m150 281.3l-0.1-0.7c0 0.6 0 0.7 0.1 0.7z"/>
	<path id="Layer" class="s7" d="m149.6 283.7l0.1 1.3-0.1-1.1z"/>
	<path id="Layer" class="s7" d="m150.3 278.4l0.1 0.6-0.1-0.4z"/>
	<path id="Layer" class="s7" d="m150.5 275.8c0 0.3 0.1 0.7 0.1 1.2 0-0.3-0.1 0.3-0.2 0 0.1-0.4 0.1-0.8 0.1-1.2z"/>
	<path id="Layer" class="s7" d="m150.4 275.3q0 0.2 0.1 0.5 0-0.3-0.1-0.5z"/>
	<path id="Layer" class="s7" d="m150 279.3l0.2-0.2c-0.1 0.3-0.2 0.4-0.2 0.5q0-0.2 0-0.3z"/>
	<path id="Layer" class="s7" d="m150 279.3q0-0.4 0-0.5 0 0.1 0 0.5z"/>
	<path id="Layer" class="s7" d="m150 279.6q0 0 0 0z"/>
	<path id="Layer" class="s7" d="m149.7 282.3c0-0.4-0.1-1.1-0.2-0.4 0.1 0.3 0.1-0.2 0.2 0.4z"/>
	<path id="Layer" class="s7" d="m149.9 280.6c-0.1-0.1-0.1 0-0.2 0l0.1-0.7z"/>
	<path id="Layer" class="s7" d="m149.8 279.7v0.2-0.3z"/>
	<path id="Layer" class="s7" d="m150 276.6q0-0.6 0.1-1.2 0 0.6 0.1 1c0 0.4-0.1 0.3-0.2 0.2z"/>
	<path id="Layer" class="s7" d="m150.1 277.8q-0.1 0 0 0z"/>
	<path id="Layer" class="s7" d="m150.2 271.8v-0.1z"/>
	<path id="Layer" class="s7" d="m150 276.6q0 0.4 0 0.7c0-0.2-0.1-0.3 0-0.6q0-0.2 0-0.1z"/>
	<path id="Layer" class="s7" d="m150.3 274.3q0 0.2-0.1 0.5c0.1-0.2 0.2-0.5 0.1-0.5z"/>
	<path id="Layer" class="s7" d="m150.1 277.7c0.1-0.1 0-0.1 0 0z"/>
	<path id="Layer" class="s7" d="m150.1 277.8q-0.1-0.3-0.1-0.5 0.1 0.2 0.1 0.4 0 0 0 0.1z"/>
	<path id="Layer" class="s7" d="m149.2 270.9v-0.3c0-0.1-0.1-0.1-0.2 0h-0.2q0-0.1 0.3-0.2 0.1-0.1 0.3-0.1 0 0.1 0 0.2c0.1 0.2 0.2 0.5 0.3 0.2-0.1 0.6-0.2 0.5-0.1 1.5 0 0.3 0.1 0.2 0.2-0.2 0-0.4 0.1-0.9 0.1-1.1 0.1 0.9 0.2 0.9 0.3 0.9-0.2 0.5-0.4 0.7-0.6 0.8-0.2 0.1-0.4 0-0.5-0.3 0.2-0.7 0.1-1.4-0.1-1.3 0-0.2 0.1 0 0.2-0.1z"/>
	<path id="Layer" class="s7" d="m150.2 273.3v-1.5c0.1 0 0.1 0.1 0.1 0.2q0.1 0.2 0.1 0.6c-0.1 0.4-0.2 0.6-0.3 0.9v-0.3z"/>
	<path id="Layer" class="s7" d="m150.1 273.5l0.1 1.3q0 0 0 0c-0.1-0.1 0-0.4-0.1-0.1q0 0.1 0.1 0.1 0 0 0 0-0.1 0.1 0 0-0.1 0.3-0.1 0.6 0-0.3 0-0.7c-0.2 1-0.3-0.7-0.2 0.6-0.1-0.5-0.2-0.2-0.2-1 0.2-0.4 0.2 0.2 0.4 0.4 0-0.6 0-0.9 0-1.2z"/>
	<path id="Layer" class="s7" d="m149.2 281.2q0 0 0 0c0-0.1 0-0.1 0 0z"/>
	<path id="Layer" class="s7" d="m149.6 280.1c0-0.1-0.2 0.5-0.2 1.1-0.1 0.6-0.1 0.2-0.2 0 0.1 0 0.1 0.2 0.1 0 0.1-0.4 0-0.4 0-0.5 0.1-0.4 0.2-0.5 0.3-0.6z"/>
	<path id="Layer" class="s7" d="m149.5 277.1h-0.1l0.2-0.5v1.1c0-0.1-0.2 0-0.1-0.6z"/>
	<path id="Layer" class="s7" d="m150.2 270.7q0.2 0.4 0.3 1-0.1-0.1-0.2-0.2c0-0.3 0-0.6-0.1-0.8z"/>
	<path id="Layer" class="s7" d="m149.7 269.2c0.2 0 0.5-0.1 0.7-0.1-0.1 0.1-0.2 0.1-0.2 0.2z"/>
	<path id="Layer" class="s7" d="m87.6 285.8l0.1 0.3q0-0.2-0.1-0.3z"/>
	<path id="Layer" class="s7" d="m87.7 283.5l-0.2-0.1c0.1 0.1 0.2 0.2 0.2 0.1z"/>
	<path id="Layer" class="s7" d="m114.1 268.5l-0.2-0.4c0-0.3 0.5 0.2 0.9 0.4-0.2 0-0.4-0.1-0.7 0z"/>
	<path id="Layer" class="s7" d="m91.8 270.3q-0.2 0.2-0.3 0.4l-0.1-0.2q0.2-0.1 0.4-0.2z"/>
	<path id="Layer" class="s7" d="m91 272l-0.6-0.2q0.2 0.1 0.6 0.2z"/>
	<path id="Layer" class="s7" d="m88.2 295q0.2-0.2 0.3-0.4c-0.1 0-0.2 0.2-0.3 0.4z"/>
	<path id="Layer" class="s7" d="m134.8 269q-0.6-0.2-1-0.2c0.5 0.2 0.9 0.4 1 0.2z"/>
	<path id="Layer" class="s7" d="m83.8 284.9q0.1 0.3 0.2 0.3c0-0.2-0.1-0.4-0.2-0.3z"/>
	<path id="Layer" class="s7" d="m133.8 268.8q-0.5-0.1-0.9 0-0.1 0-0.2 0c0.4-0.2 0.8-0.1 1.1 0z"/>
	<path id="Layer" class="s7" d="m132.1 296.2l0.1 0.1q0-0.1-0.1-0.1z"/>
	<path id="Layer" class="s7" d="m145.3 297.2c-0.1 0-0.3 0.1-0.5 0.1 0.1 0 0.2 0 0.5-0.1z"/>
	<path id="Layer" class="s7" d="m143.5 269c0.3 0 0 0 0 0z"/>
	<path id="Layer" class="s7" d="m144.9 269.9c0 0.1-0.1 0.1-0.1 0.1q0.1 0 0.1-0.1z"/>
	<path id="Layer" class="s7" d="m129.7 270.5c0.1 0.1 0.1 0 0 0z"/>
	<path id="Layer" class="s7" d="m143.9 269.1q-0.1 0-0.3-0.1 0.1 0.1 0.3 0.1z"/>
	<path id="Layer" class="s7" d="m143.9 269q0.1 0 0.2 0c0.1 0 0 0-0.2 0z"/>
	<path id="Layer" class="s7" d="m143.5 269q0 0 0.1 0-0.3 0-0.5 0 0.3 0 0.4 0z"/>
	<path id="Layer" class="s7" d="m107.9 296.2q0 0.1 0 0.1c0.4-0.1 0.2-0.1 0-0.1z"/>
	<path id="Layer" class="s7" d="m107.1 272l0.1 0.1h-0.1z"/>
	<path id="Layer" class="s7" d="m106.8 271l0.3 1c-0.3 0-0.6-0.1-1 0.3z"/>
	<path id="Layer" fill-rule="evenodd" class="s7" d="m87.5 290.3c-0.4 1 0.1 1.9 0.4 2.4-0.1 0.4-0.8-0.3-0.6 0.8 0.2 1.5 0.8-0.3 0.9 0.6q-0.3 0-0.6 0.2c0.3 0.1 0.3 0.2 0.2 0.4 0 0.1-0.1 0.2-0.1 0.3q0.1 0 0.2 0.1 0.1-0.1 0.2-0.2c0.1 0.2 0.3 0 0.4-0.2 0.1 0 0.1-0.1 0.2-0.1q0.2 0 0.3-0.1 0.4 0 0.7 0c-0.2 0.1 0.4 0.4 0.5 0.5l1.4-0.3c-0.6 0.1-0.6 0.4-0.7 0.7 0.5 0 0.7-0.2 1-0.2-0.2 0.1-0.4 0.2-0.2 0.3l1.5-0.4c-0.1-0.1-0.2-0.1-0.4-0.1 0.4 0 1.2-0.2 1.7 0.1 0 0.1-0.2 0.2-0.2 0.3-0.5-0.4-0.7-0.1-1 0.1 1.1 0 0.3 0.1 0.8 0.3 0.7 0 1-0.3 0.8-0.6 0.8 0.1 1.1 0.2 1.9-0.1l-0.1 0.4 0.7-0.1-0.6 0.5c1.5 0.3 0.3-0.7 1.9-0.4v0.3c0.6-0.1 0.8-0.7 1.3-0.3 0.6-0.2-1-0.5 0.4-0.5 0.3 0.2 0.8 0.3 1.2 0.4 0.4-0.2-0.2-0.4-0.5-0.4 2 0 1.3 1.2 3.1 0.8-0.6-0.3 0.6-0.6-1-0.7 0.8-0.1 1.5 0.5 2.3 0.2l-0.5 0.4c0.3 0 0.6-0.1 0.7-0.2v0.4c0.9-0.6 1.8 0.2 2.3-0.4-0.4 0.5 0.7-0.1 1.1 0.2-0.8 0.3-2.3-0.1-2.4 0.4 0.4 0.2 0.7-0.1 1.1 0.1-0.3 0.1-0.6 0.2-0.7 0.3 1.2 0.3 1.9-0.3 2.6-0.4l-1.3 0.1c0.1-0.5 0.6-0.1 1-0.5 0.6 0.3 1.2-0.1 1.7 0.1-0.1 0-0.2 0-0.3 0 1.4 0 1.8 0.8 2.4 0.8 0.5 0.1 1.6-0.1 1.2-0.3 0.4-0.2-1.9 0.1-1.1-0.5 0.8 0.7 1.7-0.2 3.5 0.3-0.8 0.2 0.4 0.3-0.3 0.5 0.8 0 0.9-0.1 1.3-0.3l0.2 0.2c1.1-0.4 0.3-0.4 1.9-0.6-0.5 0.1 0.7 0.3 0.3 0.4 0.4 0 0.9 0 1.2-0.1 1.7 0 1.4 0.3 2.9 0.1l-0.2-0.1c2-0.2 4.6 0 6.7 0l-0.7-0.1c0.3 0 1.4 0 2 0.1-0.2 0-0.4 0-0.5 0 0 0.1 0.3 0.2 0.8 0.3l0.2-0.2 0.2 0.1c0.7 0.1-0.3-0.1 0.5-0.1 0.5 0.3 3.3 0.1 3.9 0.4 0.6-0.2-1.4-0.1-0.8-0.2 0.2 0 0.3 0.1 0.8 0.1l-0.2-0.1c2.3 0.1 3.2 0.2 5.3 0.3h-0.1c0.7 0 1.1 0 1.4 0 0.2 0-0.3 0-0.1 0 1.3-0.1 2.6 0.2 3.4 0.1-0.1 0.1 1.6 0.1 0.9 0.1h0.5c-0.2 0.1-1.7 0.1-2 0.1h-1.6c0 0.1-0.2 0.1 0 0.1-0.4 0-0.7 0-0.2 0.1-2 0-4 0-6 0.1-2 0-4 0.2-6 0.1-0.2 0-0.1 0.1 0 0.1-0.7-0.2-0.7 0.1-1.1 0.2l-1-0.3c-0.4 0.1-0.1 0.2-0.1 0.2-2 0.2-4-0.1-5.6 0.1-0.5-0.1 0.1-0.3-0.5-0.3 0.8 0.4-1.8 0.2-1.5 0.5-0.7-0.4-2.4-0.1-2.1-0.7-0.8 0-0.6 0.3-0.4 0.3-1 0-1.7 0-2.5 0.3-0.5-0.2-4.2 0.2-5.1-0.3 0.5 0.3-0.1 0.2-0.6 0.3l0.5 0.4-1.3-0.1c-0.2 0.1-0.3 0.1-0.3 0-0.2 0 0.1-0.2-0.5-0.2-0.8 0-0.9 0.1-1.3 0.3l0.1 0.1h-0.6c-0.4 0 1.5-0.3 0.1-0.5 0 0.1-0.8 0.6-1.2 0.3 0.7 0 0.7-0.2 0.4-0.3h-1l0.3 0.4c-2.8 0.1-5.7-0.2-8.7-0.2 0-0.4-2.2 0-1.9-0.7l0.1 0.1c0.7-0.1-0.2-0.5-0.8-0.4 0.6 0.2-1.2 0.6 0.4 0.7l-1.2 0.4c-0.7 1.3-3.2-0.1-5 0.3 0.2 0 0.2-0.1 0.2-0.1-0.8 0.2-1.6 0.1-2.8 0-1.1-0.1-1.8-0.3-2.1-0.2q0-0.2 0.1-0.4c-0.6 0.1-1.2 0.4-1.1 0q-0.2-0.4-0.2-0.8c-0.1-0.6 0-1.3 0.1-2.5 0.1 0.1 0.2 0.3 0.3 0-0.2-0.3-0.3-0.5-0.4-0.8-0.2-0.3-0.2-0.7-0.2-1.2h0.2l-0.1-1.7c1.2 0-0.8-3 0.6-3.6-0.4-0.3-0.5-1.6-0.7-2.1q0.1 0 0.2-0.2c-0.7-0.6 0.2-1.9 0.1-2.6-0.2-0.5-0.4-0.3-0.6-0.1 0.5-1-0.6-2.6-0.4-3 0-0.7 0.5-0.2 0.8-0.4-0.2-1.1-1.2 0.1-0.7-1.3 0.1 0.2 0.1 0.5 0.2 0.4 0.1-0.5 1.6-1.5 1.3-2l-0.2 0.3c-0.4-1 1-2.3 0.1-2.4h-0.4c0.6-1.9-0.1-1 0.4-2.9 0-0.5 0.1-0.7 0.1-1q0-0.1 0-0.2c0-0.1 0.1 0 0.2-0.1q0.1 0 0.1-0.3l-0.5-0.1c1.2 0 1.4 0 2.7 0.1 0.1-0.1 0.7-0.2 0.9-0.1 0.2-0.5 2.3-0.2 2.7-0.2-0.7 0.1-0.4 0.3-0.2 0.6 0.5-0.5 0.8-0.5 1.4-0.2 0.1-0.7 0.2-1.4 1.4-1.4-0.2 0.1-0.5 0.1-0.4 0.3 0.2 0.1 0.4 0 0.5-0.1 0.2 0.1-0.2 0.3-0.1 0.5 0.8-0.6 1.4 0 2.6-0.3-0.4 0.2-0.1 0.4 0.1 0.6 0-0.8 1.5 0.6 1.1-0.3 2.3 0.6 5.8 0 6.7 0.7 0.3 0.2 0.9-0.2 1.3-0.2l-0.1 0.3c1.1-0.5 0.9-0.2 2.2-0.8-0.5 0.4-0.3 0.6 0.2 0.9l0.9-0.7 0.2 0.5c0.4-0.2 0.8-0.1 1.2 0 0.3-0.5 1.8-0.5 2-0.8 0.4 0.7 1.1-0.1 1.4 0.5q0.2-0.2 0.5-0.2c-0.2-0.3-0.3-0.6 0.1-0.5q0 0 0 0l0.2 0.4c0.4-0.1 0.7-0.2 1-0.2q-0.2 0-0.4-0.2 0.3 0.1 0.5 0.2 0 0 0.1 0-0.1 0-0.1 0c0.2 0.1 0.5 0.2 0.8 0.1 1.3 0.5 2.9-0.8 4.3 0-0.2-0.1-0.5-0.1-0.6 0 1.2 0 2.4 0.5 3.1 0.3v-0.4c0.9-0.1 1.5-0.2 2.2-0.1l0.1-0.4c1 0.1 3.2-0.4 3.8 0.4 0.3-0.3 1.5 0.1 2 0l0.2 0.3c0.7 0.1 1.2 0 1.7-0.1 1.5 0.6 2.9 0.1 4.3 0.2l1.4-0.1c-0.4 0.2 0.2-0.1 0.6-0.1 0.5-0.1 1.2 0 1.7 0.2h0.9c-1 0.1 0 0.3 0.1 0.6l0.5-0.2c0.3 0.1-0.3 0.2 0.1 0.2 0.4-0.1 1.5 0 1.8-0.3q-0.1-0.1-0.3-0.2-0.1 0.1-0.1 0c0.1 0 0.2 0 0.2 0 0.7 0 0.4-0.1 0.4-0.2 0.8 0.4 1.2 0.2 1.7 0.6-0.2-0.2 0.2-0.2 0.7-0.2 0.2 0 0.4 0 0.7 0 0.3 0 0.4-0.1 0.2-0.2 0.9 0.4 0.7 0 1.2 0.4-0.3-0.1-0.7-0.1-1-0.1-0.3 0-0.6 0.1-0.8 0.1-0.4 0.1-0.8 0.2-1.1 0.3l0.7 0.2c-0.5 0.4-1.5-0.2-1.9 0 0.3-0.1 0.8 0 0.9 0l-0.2-0.3c-0.9-0.1-1.7 0.1-2.3 0.3 0.6 0.1-0.8 0.2-0.3 0.4h0.5c0.2 0.1-0.3 0.2-0.6 0.3-1.5-0.2-4.4 0-4.9-0.3 0.3 0.1 0.9 0 1.2-0.1l-0.8-0.1c0.6 0 1.1 0.3 2 0.2-0.2-0.3 0.5-0.6-0.2-0.9-1.7-0.4-1.4 0.6-3.4 0.5-0.2 0.1 0.4-0.4-0.7-0.3-1.3 0.2-2.3 0.8-2.3 1.3 0.6-0.1 1.7-0.4 1.9-0.1-0.6 0.2-1.6 0.3-1.6 0.6-0.6-0.5 1-0.2 0.3-0.6-0.4 0.1-0.6 0.2-0.8 0.3 0.3-0.2-0.3-0.3-0.5-0.4-1.3 0-2-0.2-3.4-0.3-0.1 0-0.2-0.2-0.2-0.3-0.7 0.1-1.6 0.8-1.4 1.1-0.8 0.1-0.8-0.2-1.5 0 1.1 0.4-0.2-0.1-0.3 0.4-0.7 0.1-0.3-0.2-0.6-0.3-0.1 0-0.4 0.2-0.4 0.3-0.4-0.4 0.8-1 0.4-1.4-0.4-0.2-1.9-0.7-2-0.8-0.3 0.4-0.2 2.1 0.3 2.7-0.1 0.3-0.7-0.3-1-0.3-0.9-0.5-1.3 0.3-2.1 0.2l0.6-0.3c-0.1-0.1-1.2 0.1-1.4 0.2 0-0.1 0.6-0.8 0.3-1-1.3-0.1-2.6 0.8-2.5 1.3l2-0.5c0.1 0.4-1.4 0.4-1.3 0.9l-1.9-0.1c0.2 0 0.9-0.1 0.7-0.4-0.8 0.1-0.4 0-1-0.2 0.9-0.6 2.6-1.9 3.2-2.6l-0.9 0.3-0.3-0.3c-1.2 0.4-2.4 2-2.7 2.5-0.7-0.1-0.5-1-0.3-1.2-1.4-0.1-1.4 1.3-2.8 1.2l0.5 0.2c-0.3 0.1-1.5-0.1-1.4 0.1-0.2-0.3-0.5-0.8-0.3-1l-1.2 0.9c0.2-0.2 0.1-0.9 0.2-1-0.5-0.1-0.9 0.8-0.6 1-1-0.6-0.7-0.3-1.5-0.9-0.3 0 0 0.8 0.2 0.9-0.6 0.2-1 0.1-1.3 0 1-0.3 0.2-1.7 0.5-2.3l-2.4 2.3c0.1-0.1 0.3-0.9 0.3-0.9-0.2 0.7-2.9 0.7-4.2 0.7h0.2c0.2-0.2-0.5-0.4-1-0.3-0.8-0.5-1.1 1.1-2 0.4 0.8 0.1 1-0.2 0.9-0.5-0.6 0.3-2.2 0-1.9 0.8-0.4-0.1-0.8 0-0.7-0.4l-1.7 0.5c0.2-0.1 0.3-0.4-0.2-0.4 0.9 0.1 1.8-0.7 2.3-0.1 0-0.6-0.3-0.8 0.1-1.3-1.8 0.3-2.8 1.2-3.9 1.8l-1.5-0.4-0.1 0.2-0.3-0.6c-0.2 0.2-0.3 0.3-0.3 0.2-0.1 0 0-0.1 0.1-0.2-0.2 0-0.3 0.1-0.4 0.2-0.1-0.4 0.2-0.7 0.5-1.1q0.2 0.2 0.4 0.4c0.3-0.3 0.5-0.6 0.1-0.8q-0.1 0-0.2 0.1c0.2-0.2 0.3-0.4 0.2-0.5l-1.2 0.3c0.1 0 0.3 0.2 0.6 0.4-0.8 0.4-1.6 0.9-1 1.3l-0.9-0.4q-0.4 0.2-0.6 0.4-0.1 0.1-0.2 0.1c-0.1 0.1-0.3 0.2-0.4 0.4-0.2-0.2-0.1-0.4-0.3-0.5-0.1 0.3-0.4 0.1-0.9-0.1l-0.2-0.1-0.1 0.1q0 0-0.1 0.1 0 0.1 0.2 0.3c0.1 0.6 0.5 0.5 0.6 0.8 0 0-0.2-0.1-0.2 0q0.2 0.2 0.5 0.4c-0.2 0-0.3-0.4-0.5-0.1q0.1 0.2 0.2 0.4c0.1 0.2 0.1 0.4 0.1 0.6 0.1 0.4 0.1 0.8 0 1.3 0.1 1.3 0.9-0.6 0.8 0.5-0.4 0.2-0.8 0.4-0.8 1.1 0.2 0.3 0.5 0.3 0.6 0.9l-0.5-0.1c0 0.6 0.1 1.1-0.3 1.1 0.2 0.5 0.2 0.8 0.1 1.1 0.3 0.8 1.1-0.7 1.3-0.9-0.4 0.9-0.2 1.4-0.8 1.9l-0.2-0.7c-0.6 1.6 0.8 1.5-0.3 2.3 0-0.6-0.3-1.2-0.6-0.9l0.3 0.8c-0.1 0.1-0.1-0.5-0.3-0.1 0.2 0.2 0.4 0.7 0.6 0.9l0.1 1.4c-0.1-0.2-0.2-0.2-0.2 0l0.2 1c-0.1-0.3-0.3 0-0.3 0.4-0.2 1.2 1.1 1 0.6 1.9 0-0.1-0.1-0.1 0-0.3l-0.3 0.5c1.1 0.2 0.1 3 1.2 3.1-0.4 0.6-0.3 0-0.8-0.9l-0.3 0.8c0-0.3 0-0.6-0.2-1zm0.1-5.4v-0.1q0 0 0 0.1zm7.4-13q0 0 0 0 0 0 0 0zm5.6-0.4q0 0 0 0 0 0 0 0 0 0 0 0zm0 0q-0.2 0-0.4 0.1c0.1-0.1 0.2-0.1 0.4-0.1zm9.2 0.5q0 0 0 0 0 0 0 0zm0.4 0q0 0 0 0zm1.3-0.9q0 0-0.1 0zm34.3-1.1q0 0 0 0zm0.6-0.6q-0.1 0-0.1 0 0 0 0.1 0zm-2.5-0.3h0.1q0 0-0.1 0zm-33.9 0.3c-0.2 0-0.1 0.1 0 0.1q0 0 0-0.1zm0 0q0 0 0 0 0 0 0 0 0 0 0 0zm2.6 28.2q0 0 0 0 0 0 0 0zm10.2 0.4q0 0-0.1 0 0.1 0 0.1 0zm7.3-1.9v0.1q0-0.1 0-0.1zm-29.1-1q0-0.1 0.1-0.1 0 0-0.1 0.1zm-9.3-0.4h-0.1q0 0 0.1 0zm-4.1-13.8c0.3-0.1 0-0.6-0.1-0.8-0.1 0.4-0.3 0.6 0.1 0.8zm4.7-9.6c0.3 0.1 0.6 0.2 0.7 0q-0.4-0.1-0.7 0zm47.9-2.1h0.1c-0.4-0.1-0.5-0.2-0.1 0zm1.1 0.1q0.1-0.1 0-0.1c0 0.1-0.3 0.1-0.5 0 0.1 0.1 0.2 0.2 0.5 0.1zm-30.4 28.9l0.2 0.1c0.1-0.1 0.2-0.2-0.2-0.1z"/>
	<path id="Layer" class="s7" d="m91.1 271.9q-0.1-0.1-0.1-0.2c-0.1 0-0.1 0.1 0.1 0.2z"/>
	<path id="Layer" class="s7" d="m88.2 295z"/>
	<path id="Layer" class="s7" d="m125.7 271.8q-0.3 0-0.4-0.1c0 0.1 0.1 0.1 0.4 0.1z"/>
	<path id="Layer" class="s7" d="m146.5 269.1c-0.2 0-0.3-0.1-0.6-0.1h0.7c-0.2 0-0.1 0.1-0.1 0.1z"/>
	<path id="Layer" class="s7" d="m149.3 273.7h-0.1c-0.1-0.1 0-0.2-0.1-0.3 0.1-0.4 0.2-0.1 0.2 0.3z"/>
	<path id="Layer" class="s7" d="m147.5 269.7q0.3 0 0.4 0c0.3 0 0.4 0.1 0.2 0.2h0.1c-0.3 0-0.5 0-0.7 0-0.2 0-0.3 0-0.3-0.1q0.2 0 0.3-0.1z"/>
	<path id="Layer" class="s7" d="m148.4 269.9q0.2 0 0.5 0c0.1-0.1-0.2 0-0.5 0z"/>
	<path id="Layer" class="s7" d="m142.5 269.1c0.2 0.1 0.2-0.2 0.3-0.1 0.2-0.3-1.4 0.3-0.3 0.1z"/>
	<path id="Layer" class="s7" d="m147.1 270.4l0.3-0.2 0.1 0.3z"/>
	<path id="Layer" class="s7" d="m144.9 270.2c-0.1 0.1-0.2 0.1-0.2 0.1h-0.7c0-0.1 0.4-0.1 0.9-0.1z"/>
	<path id="Layer" class="s7" d="m144.9 270.2c0.2 0 0.4 0 0.6 0-0.2 0-0.4 0-0.6 0z"/>
	<path id="Layer" class="s7" d="m145.8 270.5h0.5 0.2z"/>
	<path id="Layer" class="s7" d="m135.9 270.4c-0.3 0-0.5 0-0.4-0.1l0.8-0.1c0.1 0.1-0.2 0.1-0.4 0.2z"/>
	<path id="Layer" class="s7" d="m138.3 271.1v-0.3c0.1 0.1 0.1 0.1 0.3 0.2z"/>
	<path id="Layer" class="s7" d="m136.3 271.1c0 0.1-1.1 0.3-0.1 0.3 0.1-0.1 0.9-0.2 0.1-0.3z"/>
	<path id="Layer" class="s7" d="m124.7 269.9v0.7h-0.2z"/>
	<path id="Layer" class="s7" d="m114.7 271.9c-0.2 0.2 0.7 0.2 0.5 0.4-0.9-0.2-0.2 0.4-1.1 0.2-0.2-0.5 0.1-0.4 0.6-0.6z"/>
	<path id="Layer" class="s7" d="m114.7 271.9q0.2 0 0.3-0.1c-0.2 0.1-0.2 0.1-0.3 0.1z"/>
	<path id="Layer" class="s7" d="m147.7 297.2l0.4-0.1-0.6 0.1z"/>
	<path id="Layer" class="s7" d="m149.2 297.1h-0.4-0.1q0.3 0 0.5 0z"/>
	<path id="Layer" class="s7" d="m88.3 278.9c0-0.3 0-0.4 0.2-0.5h0.1z"/>
	<path id="Layer" class="s7" d="m87.7 286.7l0.5-0.3v0.1z"/>
	<path id="Layer" class="s7" d="m88.7 293.3c0-0.2-0.1-0.6-0.1-0.8 0.1 0.6-0.5 0.9 0.1 0.8z"/>
	<path id="Layer" class="s3" d="m103.3 70.9l21-25.7"/>
	<path id="Layer" class="s8" d="m103.3 70.9l21-25.7h150.7 1.8l19.7 24v-0.3h-194.2"/>
	<path id="Layer" class="s4" d="m83.6 68.9h-75.7l70.4-60.9-32.5 43.1z"/>
	<path id="Layer" class="s8" d="m144.9 45.2l-66.6-37.2 198.5 37.2"/>
	<path id="Layer" class="s4" d="m45.8 51.1l-37.9 17.8"/>
	<path id="Layer" class="s4" d="m187.7 70.9h52.3v12.4h-52.3z"/>
	<path id="Layer" class="s8" d="m240 83.3l-26.1 12.8-26.2-12.8"/>
	<path id="Layer" class="s8" d="m187.7 109l26.2-12.9 26.1 12.9"/>
	<path id="Layer" class="s5" d="m7.9 76.6c-4.2 0-7.7-3.5-7.7-7.7 0-4.2 3.5-7.6 7.7-7.6 4.3 0 7.7 3.4 7.7 7.6 0 4.2-3.4 7.7-7.7 7.7z"/>
	<path id="Layer" class="s5" d="m144.1 53.7c-4.2 0-7.7-3.4-7.7-7.6 0-4.2 3.5-7.7 7.7-7.7 4.3 0 7.7 3.5 7.7 7.7 0 4.2-3.4 7.6-7.7 7.6z"/>
	<path id="Layer" class="s5" d="m213.9 103.7c-4.3 0-7.8-3.4-7.8-7.6 0-4.2 3.5-7.6 7.8-7.6 4.2 0 7.7 3.4 7.7 7.6 0 4.2-3.5 7.6-7.7 7.6z"/>
	<path id="Layer" class="s5" d="m78.3 15.6c-4.2 0-7.7-3.4-7.7-7.6 0-4.2 3.5-7.7 7.7-7.7 4.3 0 7.7 3.5 7.7 7.7 0 4.2-3.4 7.6-7.7 7.6z"/>
	<path id="Layer" class="s6" d="m74 105.3h34v7h-34z"/>
	<path id="Layer" class="s6" d="m107.1 103.6h-21.6v-32.7h21.6c3.5 0 6.3 2.8 6.3 6.3v20.1c0 3.5-2.8 6.3-6.3 6.3z"/>
</svg>